G04 #@! TF.GenerationSoftware,KiCad,Pcbnew,5.0.2-bee76a0~70~ubuntu18.04.1*
G04 #@! TF.CreationDate,2019-02-14T23:13:42+09:00*
G04 #@! TF.ProjectId,GRRNble,4752524e-626c-4652-9e6b-696361645f70,rev?*
G04 #@! TF.SameCoordinates,Original*
G04 #@! TF.FileFunction,Legend,Top*
G04 #@! TF.FilePolarity,Positive*
%FSLAX46Y46*%
G04 Gerber Fmt 4.6, Leading zero omitted, Abs format (unit mm)*
G04 Created by KiCad (PCBNEW 5.0.2-bee76a0~70~ubuntu18.04.1) date 2019年02月14日 23時13分42秒*
%MOMM*%
%LPD*%
G01*
G04 APERTURE LIST*
%ADD10C,0.150000*%
%ADD11C,0.120000*%
%ADD12C,0.010000*%
G04 APERTURE END LIST*
D10*
G04 #@! TO.C,U1*
X106745000Y-91131000D02*
X106745000Y-92131000D01*
X117095000Y-91131000D02*
X117095000Y-92206000D01*
X117095000Y-101481000D02*
X117095000Y-100406000D01*
X106745000Y-101481000D02*
X106745000Y-100406000D01*
X106745000Y-91131000D02*
X107820000Y-91131000D01*
X106745000Y-101481000D02*
X107820000Y-101481000D01*
X117095000Y-101481000D02*
X116020000Y-101481000D01*
X117095000Y-91131000D02*
X116020000Y-91131000D01*
X106745000Y-92131000D02*
X105720000Y-92131000D01*
D11*
G04 #@! TO.C,R6*
X113156000Y-112684000D02*
X113156000Y-113884000D01*
X111396000Y-113884000D02*
X111396000Y-112684000D01*
D10*
G04 #@! TO.C,U3*
X98600000Y-104425000D02*
X119600000Y-104425000D01*
X98600000Y-108875000D02*
X119600000Y-108875000D01*
X98600000Y-108875000D02*
X98600000Y-109100000D01*
X119600000Y-108875000D02*
X119600000Y-109100000D01*
X98600000Y-106650000D02*
X98600000Y-104425000D01*
X119600000Y-106650000D02*
X119600000Y-104425000D01*
D11*
G04 #@! TO.C,C5*
X97784000Y-113824000D02*
X97784000Y-112824000D01*
X96084000Y-112824000D02*
X96084000Y-113824000D01*
G04 #@! TO.C,C1*
X104134000Y-101632000D02*
X104134000Y-100632000D01*
X102434000Y-100632000D02*
X102434000Y-101632000D01*
G04 #@! TO.C,C2*
X110000000Y-87050000D02*
X109000000Y-87050000D01*
X109000000Y-88750000D02*
X110000000Y-88750000D01*
G04 #@! TO.C,C3*
X97784000Y-101632000D02*
X97784000Y-100632000D01*
X96084000Y-100632000D02*
X96084000Y-101632000D01*
G04 #@! TO.C,C4*
X101086000Y-101632000D02*
X101086000Y-100632000D01*
X99386000Y-100632000D02*
X99386000Y-101632000D01*
G04 #@! TO.C,C6*
X100324000Y-113824000D02*
X100324000Y-112824000D01*
X98624000Y-112824000D02*
X98624000Y-113824000D01*
G04 #@! TO.C,C7*
X119882000Y-113824000D02*
X119882000Y-112824000D01*
X118182000Y-112824000D02*
X118182000Y-113824000D01*
G04 #@! TO.C,C8*
X122168000Y-113824000D02*
X122168000Y-112824000D01*
X120468000Y-112824000D02*
X120468000Y-113824000D01*
G04 #@! TO.C,R1*
X96054000Y-92588000D02*
X96054000Y-91388000D01*
X97814000Y-91388000D02*
X97814000Y-92588000D01*
G04 #@! TO.C,R2*
X99356000Y-92588000D02*
X99356000Y-91388000D01*
X101116000Y-91388000D02*
X101116000Y-92588000D01*
G04 #@! TO.C,R3*
X104164000Y-91388000D02*
X104164000Y-92588000D01*
X102404000Y-92588000D02*
X102404000Y-91388000D01*
G04 #@! TO.C,R4*
X120120000Y-106600000D02*
X120120000Y-105400000D01*
X121880000Y-105400000D02*
X121880000Y-106600000D01*
G04 #@! TO.C,Y1*
X98162000Y-96118000D02*
X99262000Y-96118000D01*
X98162000Y-98018000D02*
X99262000Y-98018000D01*
X96012000Y-96168000D02*
X96012000Y-97968000D01*
G04 #@! TO.C,C9*
X101520000Y-112784000D02*
X101520000Y-113784000D01*
X103220000Y-113784000D02*
X103220000Y-112784000D01*
G04 #@! TO.C,C10*
X103806000Y-112784000D02*
X103806000Y-113784000D01*
X105506000Y-113784000D02*
X105506000Y-112784000D01*
G04 #@! TO.C,C11*
X108886000Y-112784000D02*
X108886000Y-113784000D01*
X110586000Y-113784000D02*
X110586000Y-112784000D01*
G04 #@! TO.C,R5*
X115696000Y-112684000D02*
X115696000Y-113884000D01*
X113936000Y-113884000D02*
X113936000Y-112684000D01*
G04 #@! TO.C,R7*
X106316000Y-113884000D02*
X106316000Y-112684000D01*
X108076000Y-112684000D02*
X108076000Y-113884000D01*
G04 #@! TO.C,Q2*
X116740000Y-84870000D02*
X116740000Y-85800000D01*
X116740000Y-88030000D02*
X116740000Y-87100000D01*
X116740000Y-88030000D02*
X118900000Y-88030000D01*
X116740000Y-84870000D02*
X118200000Y-84870000D01*
G04 #@! TO.C,Q3*
X101760000Y-87930000D02*
X101760000Y-87000000D01*
X101760000Y-84770000D02*
X101760000Y-85700000D01*
X101760000Y-84770000D02*
X99600000Y-84770000D01*
X101760000Y-87930000D02*
X100300000Y-87930000D01*
G04 #@! TO.C,R12*
X120620000Y-87100000D02*
X120620000Y-85900000D01*
X122380000Y-85900000D02*
X122380000Y-87100000D01*
G04 #@! TO.C,R13*
X97880000Y-85900000D02*
X97880000Y-87100000D01*
X96120000Y-87100000D02*
X96120000Y-85900000D01*
G04 #@! TO.C,R14*
X110100000Y-86280000D02*
X108900000Y-86280000D01*
X108900000Y-84520000D02*
X110100000Y-84520000D01*
G04 #@! TO.C,R15*
X103120000Y-87100000D02*
X103120000Y-85900000D01*
X104880000Y-85900000D02*
X104880000Y-87100000D01*
G04 #@! TO.C,R16*
X115380000Y-85900000D02*
X115380000Y-87100000D01*
X113620000Y-87100000D02*
X113620000Y-85900000D01*
D12*
G04 #@! TO.C,G\002A\002A\002A*
G36*
X119135718Y-92301420D02*
X119142482Y-91757192D01*
X119154767Y-91259503D01*
X119172572Y-90835326D01*
X119195898Y-90511634D01*
X119224744Y-90315399D01*
X119242934Y-90271600D01*
X119366244Y-90231607D01*
X119623334Y-90200935D01*
X119978906Y-90179586D01*
X120397665Y-90167559D01*
X120844311Y-90164855D01*
X121283550Y-90171472D01*
X121680083Y-90187413D01*
X121998614Y-90212675D01*
X122203845Y-90247260D01*
X122257067Y-90271600D01*
X122288945Y-90386365D01*
X122315302Y-90643399D01*
X122336139Y-91015731D01*
X122351456Y-91476388D01*
X122361252Y-91998398D01*
X122365528Y-92554786D01*
X122364284Y-93118581D01*
X122357519Y-93662809D01*
X122345234Y-94160498D01*
X122327428Y-94584675D01*
X122304103Y-94908367D01*
X122275257Y-95104602D01*
X122257067Y-95148400D01*
X122133756Y-95188394D01*
X121876666Y-95219066D01*
X121521094Y-95240415D01*
X121102336Y-95252441D01*
X120750000Y-95254574D01*
X120750000Y-94911334D01*
X120821910Y-94841440D01*
X120834896Y-94763167D01*
X120905912Y-94629573D01*
X121086731Y-94482357D01*
X121149774Y-94445667D01*
X121494723Y-94190983D01*
X121727185Y-93875595D01*
X121832053Y-93532905D01*
X121794217Y-93196318D01*
X121755420Y-93106601D01*
X121620943Y-92895702D01*
X121503568Y-92749163D01*
X121401688Y-92625027D01*
X121433545Y-92582795D01*
X121577648Y-92579830D01*
X121759151Y-92545439D01*
X121832282Y-92411888D01*
X121835389Y-92392500D01*
X121834731Y-92272973D01*
X121759317Y-92217577D01*
X121566977Y-92202344D01*
X121500261Y-92202000D01*
X121138077Y-92202000D01*
X121494372Y-91838962D01*
X121694624Y-91604045D01*
X121822271Y-91392987D01*
X121850667Y-91288629D01*
X121829082Y-91143362D01*
X121752859Y-91120524D01*
X121604796Y-91224546D01*
X121427334Y-91397667D01*
X121201583Y-91610178D01*
X121064200Y-91687563D01*
X121006852Y-91633704D01*
X121004000Y-91594834D01*
X120930596Y-91399837D01*
X120741348Y-91263528D01*
X120482705Y-91196269D01*
X120201115Y-91208425D01*
X119943026Y-91310357D01*
X119892723Y-91346901D01*
X119780770Y-91462036D01*
X119720178Y-91611243D01*
X119696032Y-91846645D01*
X119692843Y-92045401D01*
X119695680Y-92336746D01*
X119716556Y-92497334D01*
X119771599Y-92565728D01*
X119876934Y-92580494D01*
X119916502Y-92580284D01*
X120141337Y-92577567D01*
X119941037Y-92815610D01*
X119737372Y-93164288D01*
X119677623Y-93532981D01*
X119767149Y-93877573D01*
X119979433Y-94169236D01*
X120264671Y-94412705D01*
X120502982Y-94532550D01*
X120636828Y-94646332D01*
X120665334Y-94747706D01*
X120701893Y-94882158D01*
X120750000Y-94911334D01*
X120750000Y-95254574D01*
X120655689Y-95255145D01*
X120216451Y-95248529D01*
X119819918Y-95232588D01*
X119501387Y-95207326D01*
X119296155Y-95172741D01*
X119242934Y-95148401D01*
X119211056Y-95033636D01*
X119184698Y-94776602D01*
X119163861Y-94404270D01*
X119148545Y-93943613D01*
X119138749Y-93421603D01*
X119134473Y-92865215D01*
X119135718Y-92301420D01*
X119135718Y-92301420D01*
G37*
X119135718Y-92301420D02*
X119142482Y-91757192D01*
X119154767Y-91259503D01*
X119172572Y-90835326D01*
X119195898Y-90511634D01*
X119224744Y-90315399D01*
X119242934Y-90271600D01*
X119366244Y-90231607D01*
X119623334Y-90200935D01*
X119978906Y-90179586D01*
X120397665Y-90167559D01*
X120844311Y-90164855D01*
X121283550Y-90171472D01*
X121680083Y-90187413D01*
X121998614Y-90212675D01*
X122203845Y-90247260D01*
X122257067Y-90271600D01*
X122288945Y-90386365D01*
X122315302Y-90643399D01*
X122336139Y-91015731D01*
X122351456Y-91476388D01*
X122361252Y-91998398D01*
X122365528Y-92554786D01*
X122364284Y-93118581D01*
X122357519Y-93662809D01*
X122345234Y-94160498D01*
X122327428Y-94584675D01*
X122304103Y-94908367D01*
X122275257Y-95104602D01*
X122257067Y-95148400D01*
X122133756Y-95188394D01*
X121876666Y-95219066D01*
X121521094Y-95240415D01*
X121102336Y-95252441D01*
X120750000Y-95254574D01*
X120750000Y-94911334D01*
X120821910Y-94841440D01*
X120834896Y-94763167D01*
X120905912Y-94629573D01*
X121086731Y-94482357D01*
X121149774Y-94445667D01*
X121494723Y-94190983D01*
X121727185Y-93875595D01*
X121832053Y-93532905D01*
X121794217Y-93196318D01*
X121755420Y-93106601D01*
X121620943Y-92895702D01*
X121503568Y-92749163D01*
X121401688Y-92625027D01*
X121433545Y-92582795D01*
X121577648Y-92579830D01*
X121759151Y-92545439D01*
X121832282Y-92411888D01*
X121835389Y-92392500D01*
X121834731Y-92272973D01*
X121759317Y-92217577D01*
X121566977Y-92202344D01*
X121500261Y-92202000D01*
X121138077Y-92202000D01*
X121494372Y-91838962D01*
X121694624Y-91604045D01*
X121822271Y-91392987D01*
X121850667Y-91288629D01*
X121829082Y-91143362D01*
X121752859Y-91120524D01*
X121604796Y-91224546D01*
X121427334Y-91397667D01*
X121201583Y-91610178D01*
X121064200Y-91687563D01*
X121006852Y-91633704D01*
X121004000Y-91594834D01*
X120930596Y-91399837D01*
X120741348Y-91263528D01*
X120482705Y-91196269D01*
X120201115Y-91208425D01*
X119943026Y-91310357D01*
X119892723Y-91346901D01*
X119780770Y-91462036D01*
X119720178Y-91611243D01*
X119696032Y-91846645D01*
X119692843Y-92045401D01*
X119695680Y-92336746D01*
X119716556Y-92497334D01*
X119771599Y-92565728D01*
X119876934Y-92580494D01*
X119916502Y-92580284D01*
X120141337Y-92577567D01*
X119941037Y-92815610D01*
X119737372Y-93164288D01*
X119677623Y-93532981D01*
X119767149Y-93877573D01*
X119979433Y-94169236D01*
X120264671Y-94412705D01*
X120502982Y-94532550D01*
X120636828Y-94646332D01*
X120665334Y-94747706D01*
X120701893Y-94882158D01*
X120750000Y-94911334D01*
X120750000Y-95254574D01*
X120655689Y-95255145D01*
X120216451Y-95248529D01*
X119819918Y-95232588D01*
X119501387Y-95207326D01*
X119296155Y-95172741D01*
X119242934Y-95148401D01*
X119211056Y-95033636D01*
X119184698Y-94776602D01*
X119163861Y-94404270D01*
X119148545Y-93943613D01*
X119138749Y-93421603D01*
X119134473Y-92865215D01*
X119135718Y-92301420D01*
G36*
X120923197Y-93868358D02*
X120948795Y-93577758D01*
X120957597Y-93505461D01*
X121039811Y-92861588D01*
X121233572Y-93086849D01*
X121398480Y-93377680D01*
X121396027Y-93664172D01*
X121226406Y-93934554D01*
X121219515Y-93941516D01*
X121061695Y-94081456D01*
X120951080Y-94148368D01*
X120943540Y-94149334D01*
X120921151Y-94072354D01*
X120923197Y-93868358D01*
X120923197Y-93868358D01*
G37*
X120923197Y-93868358D02*
X120948795Y-93577758D01*
X120957597Y-93505461D01*
X121039811Y-92861588D01*
X121233572Y-93086849D01*
X121398480Y-93377680D01*
X121396027Y-93664172D01*
X121226406Y-93934554D01*
X121219515Y-93941516D01*
X121061695Y-94081456D01*
X120951080Y-94148368D01*
X120943540Y-94149334D01*
X120921151Y-94072354D01*
X120923197Y-93868358D01*
G36*
X120124057Y-93305241D02*
X120196974Y-93170683D01*
X120298101Y-92964725D01*
X120323974Y-92825709D01*
X120398164Y-92654499D01*
X120496000Y-92600802D01*
X120574793Y-92590390D01*
X120624412Y-92629036D01*
X120651568Y-92746545D01*
X120662971Y-92972723D01*
X120665332Y-93337379D01*
X120665334Y-93352927D01*
X120656271Y-93751991D01*
X120630368Y-94021383D01*
X120589554Y-94143745D01*
X120576818Y-94149334D01*
X120428297Y-94081215D01*
X120262402Y-93916335D01*
X120127678Y-93713909D01*
X120072667Y-93534365D01*
X120124057Y-93305241D01*
X120124057Y-93305241D01*
G37*
X120124057Y-93305241D02*
X120196974Y-93170683D01*
X120298101Y-92964725D01*
X120323974Y-92825709D01*
X120398164Y-92654499D01*
X120496000Y-92600802D01*
X120574793Y-92590390D01*
X120624412Y-92629036D01*
X120651568Y-92746545D01*
X120662971Y-92972723D01*
X120665332Y-93337379D01*
X120665334Y-93352927D01*
X120656271Y-93751991D01*
X120630368Y-94021383D01*
X120589554Y-94143745D01*
X120576818Y-94149334D01*
X120428297Y-94081215D01*
X120262402Y-93916335D01*
X120127678Y-93713909D01*
X120072667Y-93534365D01*
X120124057Y-93305241D01*
G36*
X120088469Y-91926834D02*
X120126650Y-91736144D01*
X120225468Y-91662152D01*
X120369000Y-91651667D01*
X120547089Y-91673112D01*
X120624966Y-91772436D01*
X120649531Y-91926834D01*
X120655139Y-92108813D01*
X120592773Y-92185288D01*
X120415941Y-92201860D01*
X120369000Y-92202000D01*
X120166958Y-92191302D01*
X120087645Y-92128807D01*
X120084569Y-91968911D01*
X120088469Y-91926834D01*
X120088469Y-91926834D01*
G37*
X120088469Y-91926834D02*
X120126650Y-91736144D01*
X120225468Y-91662152D01*
X120369000Y-91651667D01*
X120547089Y-91673112D01*
X120624966Y-91772436D01*
X120649531Y-91926834D01*
X120655139Y-92108813D01*
X120592773Y-92185288D01*
X120415941Y-92201860D01*
X120369000Y-92202000D01*
X120166958Y-92191302D01*
X120087645Y-92128807D01*
X120084569Y-91968911D01*
X120088469Y-91926834D01*
G04 #@! TO.C,U1*
D10*
X111158095Y-95758380D02*
X111158095Y-96567904D01*
X111205714Y-96663142D01*
X111253333Y-96710761D01*
X111348571Y-96758380D01*
X111539047Y-96758380D01*
X111634285Y-96710761D01*
X111681904Y-96663142D01*
X111729523Y-96567904D01*
X111729523Y-95758380D01*
X112729523Y-96758380D02*
X112158095Y-96758380D01*
X112443809Y-96758380D02*
X112443809Y-95758380D01*
X112348571Y-95901238D01*
X112253333Y-95996476D01*
X112158095Y-96044095D01*
G04 #@! TO.C,R6*
X112728380Y-110148666D02*
X112252190Y-110482000D01*
X112728380Y-110720095D02*
X111728380Y-110720095D01*
X111728380Y-110339142D01*
X111776000Y-110243904D01*
X111823619Y-110196285D01*
X111918857Y-110148666D01*
X112061714Y-110148666D01*
X112156952Y-110196285D01*
X112204571Y-110243904D01*
X112252190Y-110339142D01*
X112252190Y-110720095D01*
X111728380Y-109291523D02*
X111728380Y-109482000D01*
X111776000Y-109577238D01*
X111823619Y-109624857D01*
X111966476Y-109720095D01*
X112156952Y-109767714D01*
X112537904Y-109767714D01*
X112633142Y-109720095D01*
X112680761Y-109672476D01*
X112728380Y-109577238D01*
X112728380Y-109386761D01*
X112680761Y-109291523D01*
X112633142Y-109243904D01*
X112537904Y-109196285D01*
X112299809Y-109196285D01*
X112204571Y-109243904D01*
X112156952Y-109291523D01*
X112109333Y-109386761D01*
X112109333Y-109577238D01*
X112156952Y-109672476D01*
X112204571Y-109720095D01*
X112299809Y-109767714D01*
G04 #@! TO.C,U3*
X117335714Y-102992857D02*
X117335714Y-103964285D01*
X117392857Y-104078571D01*
X117450000Y-104135714D01*
X117564285Y-104192857D01*
X117792857Y-104192857D01*
X117907142Y-104135714D01*
X117964285Y-104078571D01*
X118021428Y-103964285D01*
X118021428Y-102992857D01*
X118478571Y-102992857D02*
X119221428Y-102992857D01*
X118821428Y-103450000D01*
X118992857Y-103450000D01*
X119107142Y-103507142D01*
X119164285Y-103564285D01*
X119221428Y-103678571D01*
X119221428Y-103964285D01*
X119164285Y-104078571D01*
X119107142Y-104135714D01*
X118992857Y-104192857D01*
X118650000Y-104192857D01*
X118535714Y-104135714D01*
X118478571Y-104078571D01*
G04 #@! TO.C,C5*
X97291142Y-110188666D02*
X97338761Y-110236285D01*
X97386380Y-110379142D01*
X97386380Y-110474380D01*
X97338761Y-110617238D01*
X97243523Y-110712476D01*
X97148285Y-110760095D01*
X96957809Y-110807714D01*
X96814952Y-110807714D01*
X96624476Y-110760095D01*
X96529238Y-110712476D01*
X96434000Y-110617238D01*
X96386380Y-110474380D01*
X96386380Y-110379142D01*
X96434000Y-110236285D01*
X96481619Y-110188666D01*
X96386380Y-109283904D02*
X96386380Y-109760095D01*
X96862571Y-109807714D01*
X96814952Y-109760095D01*
X96767333Y-109664857D01*
X96767333Y-109426761D01*
X96814952Y-109331523D01*
X96862571Y-109283904D01*
X96957809Y-109236285D01*
X97195904Y-109236285D01*
X97291142Y-109283904D01*
X97338761Y-109331523D01*
X97386380Y-109426761D01*
X97386380Y-109664857D01*
X97338761Y-109760095D01*
X97291142Y-109807714D01*
G04 #@! TO.C,C1*
X105107142Y-101066666D02*
X105154761Y-101114285D01*
X105202380Y-101257142D01*
X105202380Y-101352380D01*
X105154761Y-101495238D01*
X105059523Y-101590476D01*
X104964285Y-101638095D01*
X104773809Y-101685714D01*
X104630952Y-101685714D01*
X104440476Y-101638095D01*
X104345238Y-101590476D01*
X104250000Y-101495238D01*
X104202380Y-101352380D01*
X104202380Y-101257142D01*
X104250000Y-101114285D01*
X104297619Y-101066666D01*
X105202380Y-100114285D02*
X105202380Y-100685714D01*
X105202380Y-100400000D02*
X104202380Y-100400000D01*
X104345238Y-100495238D01*
X104440476Y-100590476D01*
X104488095Y-100685714D01*
G04 #@! TO.C,C2*
X109333333Y-88257142D02*
X109285714Y-88304761D01*
X109142857Y-88352380D01*
X109047619Y-88352380D01*
X108904761Y-88304761D01*
X108809523Y-88209523D01*
X108761904Y-88114285D01*
X108714285Y-87923809D01*
X108714285Y-87780952D01*
X108761904Y-87590476D01*
X108809523Y-87495238D01*
X108904761Y-87400000D01*
X109047619Y-87352380D01*
X109142857Y-87352380D01*
X109285714Y-87400000D01*
X109333333Y-87447619D01*
X109714285Y-87447619D02*
X109761904Y-87400000D01*
X109857142Y-87352380D01*
X110095238Y-87352380D01*
X110190476Y-87400000D01*
X110238095Y-87447619D01*
X110285714Y-87542857D01*
X110285714Y-87638095D01*
X110238095Y-87780952D01*
X109666666Y-88352380D01*
X110285714Y-88352380D01*
G04 #@! TO.C,C3*
X98857142Y-101316666D02*
X98904761Y-101364285D01*
X98952380Y-101507142D01*
X98952380Y-101602380D01*
X98904761Y-101745238D01*
X98809523Y-101840476D01*
X98714285Y-101888095D01*
X98523809Y-101935714D01*
X98380952Y-101935714D01*
X98190476Y-101888095D01*
X98095238Y-101840476D01*
X98000000Y-101745238D01*
X97952380Y-101602380D01*
X97952380Y-101507142D01*
X98000000Y-101364285D01*
X98047619Y-101316666D01*
X97952380Y-100983333D02*
X97952380Y-100364285D01*
X98333333Y-100697619D01*
X98333333Y-100554761D01*
X98380952Y-100459523D01*
X98428571Y-100411904D01*
X98523809Y-100364285D01*
X98761904Y-100364285D01*
X98857142Y-100411904D01*
X98904761Y-100459523D01*
X98952380Y-100554761D01*
X98952380Y-100840476D01*
X98904761Y-100935714D01*
X98857142Y-100983333D01*
G04 #@! TO.C,C4*
X102107142Y-101298666D02*
X102154761Y-101346285D01*
X102202380Y-101489142D01*
X102202380Y-101584380D01*
X102154761Y-101727238D01*
X102059523Y-101822476D01*
X101964285Y-101870095D01*
X101773809Y-101917714D01*
X101630952Y-101917714D01*
X101440476Y-101870095D01*
X101345238Y-101822476D01*
X101250000Y-101727238D01*
X101202380Y-101584380D01*
X101202380Y-101489142D01*
X101250000Y-101346285D01*
X101297619Y-101298666D01*
X101535714Y-100441523D02*
X102202380Y-100441523D01*
X101154761Y-100679619D02*
X101869047Y-100917714D01*
X101869047Y-100298666D01*
G04 #@! TO.C,C6*
X99857142Y-110148666D02*
X99904761Y-110196285D01*
X99952380Y-110339142D01*
X99952380Y-110434380D01*
X99904761Y-110577238D01*
X99809523Y-110672476D01*
X99714285Y-110720095D01*
X99523809Y-110767714D01*
X99380952Y-110767714D01*
X99190476Y-110720095D01*
X99095238Y-110672476D01*
X99000000Y-110577238D01*
X98952380Y-110434380D01*
X98952380Y-110339142D01*
X99000000Y-110196285D01*
X99047619Y-110148666D01*
X98952380Y-109291523D02*
X98952380Y-109482000D01*
X99000000Y-109577238D01*
X99047619Y-109624857D01*
X99190476Y-109720095D01*
X99380952Y-109767714D01*
X99761904Y-109767714D01*
X99857142Y-109720095D01*
X99904761Y-109672476D01*
X99952380Y-109577238D01*
X99952380Y-109386761D01*
X99904761Y-109291523D01*
X99857142Y-109243904D01*
X99761904Y-109196285D01*
X99523809Y-109196285D01*
X99428571Y-109243904D01*
X99380952Y-109291523D01*
X99333333Y-109386761D01*
X99333333Y-109577238D01*
X99380952Y-109672476D01*
X99428571Y-109720095D01*
X99523809Y-109767714D01*
G04 #@! TO.C,C7*
X119357142Y-110216666D02*
X119404761Y-110264285D01*
X119452380Y-110407142D01*
X119452380Y-110502380D01*
X119404761Y-110645238D01*
X119309523Y-110740476D01*
X119214285Y-110788095D01*
X119023809Y-110835714D01*
X118880952Y-110835714D01*
X118690476Y-110788095D01*
X118595238Y-110740476D01*
X118500000Y-110645238D01*
X118452380Y-110502380D01*
X118452380Y-110407142D01*
X118500000Y-110264285D01*
X118547619Y-110216666D01*
X118452380Y-109883333D02*
X118452380Y-109216666D01*
X119452380Y-109645238D01*
G04 #@! TO.C,C8*
X121675142Y-110216666D02*
X121722761Y-110264285D01*
X121770380Y-110407142D01*
X121770380Y-110502380D01*
X121722761Y-110645238D01*
X121627523Y-110740476D01*
X121532285Y-110788095D01*
X121341809Y-110835714D01*
X121198952Y-110835714D01*
X121008476Y-110788095D01*
X120913238Y-110740476D01*
X120818000Y-110645238D01*
X120770380Y-110502380D01*
X120770380Y-110407142D01*
X120818000Y-110264285D01*
X120865619Y-110216666D01*
X121198952Y-109645238D02*
X121151333Y-109740476D01*
X121103714Y-109788095D01*
X121008476Y-109835714D01*
X120960857Y-109835714D01*
X120865619Y-109788095D01*
X120818000Y-109740476D01*
X120770380Y-109645238D01*
X120770380Y-109454761D01*
X120818000Y-109359523D01*
X120865619Y-109311904D01*
X120960857Y-109264285D01*
X121008476Y-109264285D01*
X121103714Y-109311904D01*
X121151333Y-109359523D01*
X121198952Y-109454761D01*
X121198952Y-109645238D01*
X121246571Y-109740476D01*
X121294190Y-109788095D01*
X121389428Y-109835714D01*
X121579904Y-109835714D01*
X121675142Y-109788095D01*
X121722761Y-109740476D01*
X121770380Y-109645238D01*
X121770380Y-109454761D01*
X121722761Y-109359523D01*
X121675142Y-109311904D01*
X121579904Y-109264285D01*
X121389428Y-109264285D01*
X121294190Y-109311904D01*
X121246571Y-109359523D01*
X121198952Y-109454761D01*
G04 #@! TO.C,R1*
X98902380Y-92154666D02*
X98426190Y-92488000D01*
X98902380Y-92726095D02*
X97902380Y-92726095D01*
X97902380Y-92345142D01*
X97950000Y-92249904D01*
X97997619Y-92202285D01*
X98092857Y-92154666D01*
X98235714Y-92154666D01*
X98330952Y-92202285D01*
X98378571Y-92249904D01*
X98426190Y-92345142D01*
X98426190Y-92726095D01*
X98902380Y-91202285D02*
X98902380Y-91773714D01*
X98902380Y-91488000D02*
X97902380Y-91488000D01*
X98045238Y-91583238D01*
X98140476Y-91678476D01*
X98188095Y-91773714D01*
G04 #@! TO.C,R2*
X102202380Y-92154666D02*
X101726190Y-92488000D01*
X102202380Y-92726095D02*
X101202380Y-92726095D01*
X101202380Y-92345142D01*
X101250000Y-92249904D01*
X101297619Y-92202285D01*
X101392857Y-92154666D01*
X101535714Y-92154666D01*
X101630952Y-92202285D01*
X101678571Y-92249904D01*
X101726190Y-92345142D01*
X101726190Y-92726095D01*
X101297619Y-91773714D02*
X101250000Y-91726095D01*
X101202380Y-91630857D01*
X101202380Y-91392761D01*
X101250000Y-91297523D01*
X101297619Y-91249904D01*
X101392857Y-91202285D01*
X101488095Y-91202285D01*
X101630952Y-91249904D01*
X102202380Y-91821333D01*
X102202380Y-91202285D01*
G04 #@! TO.C,R3*
X105204380Y-92182666D02*
X104728190Y-92516000D01*
X105204380Y-92754095D02*
X104204380Y-92754095D01*
X104204380Y-92373142D01*
X104252000Y-92277904D01*
X104299619Y-92230285D01*
X104394857Y-92182666D01*
X104537714Y-92182666D01*
X104632952Y-92230285D01*
X104680571Y-92277904D01*
X104728190Y-92373142D01*
X104728190Y-92754095D01*
X104204380Y-91849333D02*
X104204380Y-91230285D01*
X104585333Y-91563619D01*
X104585333Y-91420761D01*
X104632952Y-91325523D01*
X104680571Y-91277904D01*
X104775809Y-91230285D01*
X105013904Y-91230285D01*
X105109142Y-91277904D01*
X105156761Y-91325523D01*
X105204380Y-91420761D01*
X105204380Y-91706476D01*
X105156761Y-91801714D01*
X105109142Y-91849333D01*
G04 #@! TO.C,R4*
X121439380Y-102560666D02*
X120963190Y-102894000D01*
X121439380Y-103132095D02*
X120439380Y-103132095D01*
X120439380Y-102751142D01*
X120487000Y-102655904D01*
X120534619Y-102608285D01*
X120629857Y-102560666D01*
X120772714Y-102560666D01*
X120867952Y-102608285D01*
X120915571Y-102655904D01*
X120963190Y-102751142D01*
X120963190Y-103132095D01*
X120772714Y-101703523D02*
X121439380Y-101703523D01*
X120391761Y-101941619D02*
X121106047Y-102179714D01*
X121106047Y-101560666D01*
G04 #@! TO.C,Y1*
X98273809Y-95126190D02*
X98273809Y-95602380D01*
X97940476Y-94602380D02*
X98273809Y-95126190D01*
X98607142Y-94602380D01*
X99464285Y-95602380D02*
X98892857Y-95602380D01*
X99178571Y-95602380D02*
X99178571Y-94602380D01*
X99083333Y-94745238D01*
X98988095Y-94840476D01*
X98892857Y-94888095D01*
G04 #@! TO.C,C9*
X102727142Y-110148666D02*
X102774761Y-110196285D01*
X102822380Y-110339142D01*
X102822380Y-110434380D01*
X102774761Y-110577238D01*
X102679523Y-110672476D01*
X102584285Y-110720095D01*
X102393809Y-110767714D01*
X102250952Y-110767714D01*
X102060476Y-110720095D01*
X101965238Y-110672476D01*
X101870000Y-110577238D01*
X101822380Y-110434380D01*
X101822380Y-110339142D01*
X101870000Y-110196285D01*
X101917619Y-110148666D01*
X102822380Y-109672476D02*
X102822380Y-109482000D01*
X102774761Y-109386761D01*
X102727142Y-109339142D01*
X102584285Y-109243904D01*
X102393809Y-109196285D01*
X102012857Y-109196285D01*
X101917619Y-109243904D01*
X101870000Y-109291523D01*
X101822380Y-109386761D01*
X101822380Y-109577238D01*
X101870000Y-109672476D01*
X101917619Y-109720095D01*
X102012857Y-109767714D01*
X102250952Y-109767714D01*
X102346190Y-109720095D01*
X102393809Y-109672476D01*
X102441428Y-109577238D01*
X102441428Y-109386761D01*
X102393809Y-109291523D01*
X102346190Y-109243904D01*
X102250952Y-109196285D01*
G04 #@! TO.C,C10*
X105013142Y-111132857D02*
X105060761Y-111180476D01*
X105108380Y-111323333D01*
X105108380Y-111418571D01*
X105060761Y-111561428D01*
X104965523Y-111656666D01*
X104870285Y-111704285D01*
X104679809Y-111751904D01*
X104536952Y-111751904D01*
X104346476Y-111704285D01*
X104251238Y-111656666D01*
X104156000Y-111561428D01*
X104108380Y-111418571D01*
X104108380Y-111323333D01*
X104156000Y-111180476D01*
X104203619Y-111132857D01*
X105108380Y-110180476D02*
X105108380Y-110751904D01*
X105108380Y-110466190D02*
X104108380Y-110466190D01*
X104251238Y-110561428D01*
X104346476Y-110656666D01*
X104394095Y-110751904D01*
X104108380Y-109561428D02*
X104108380Y-109466190D01*
X104156000Y-109370952D01*
X104203619Y-109323333D01*
X104298857Y-109275714D01*
X104489333Y-109228095D01*
X104727428Y-109228095D01*
X104917904Y-109275714D01*
X105013142Y-109323333D01*
X105060761Y-109370952D01*
X105108380Y-109466190D01*
X105108380Y-109561428D01*
X105060761Y-109656666D01*
X105013142Y-109704285D01*
X104917904Y-109751904D01*
X104727428Y-109799523D01*
X104489333Y-109799523D01*
X104298857Y-109751904D01*
X104203619Y-109704285D01*
X104156000Y-109656666D01*
X104108380Y-109561428D01*
G04 #@! TO.C,C11*
X110093142Y-111132857D02*
X110140761Y-111180476D01*
X110188380Y-111323333D01*
X110188380Y-111418571D01*
X110140761Y-111561428D01*
X110045523Y-111656666D01*
X109950285Y-111704285D01*
X109759809Y-111751904D01*
X109616952Y-111751904D01*
X109426476Y-111704285D01*
X109331238Y-111656666D01*
X109236000Y-111561428D01*
X109188380Y-111418571D01*
X109188380Y-111323333D01*
X109236000Y-111180476D01*
X109283619Y-111132857D01*
X110188380Y-110180476D02*
X110188380Y-110751904D01*
X110188380Y-110466190D02*
X109188380Y-110466190D01*
X109331238Y-110561428D01*
X109426476Y-110656666D01*
X109474095Y-110751904D01*
X110188380Y-109228095D02*
X110188380Y-109799523D01*
X110188380Y-109513809D02*
X109188380Y-109513809D01*
X109331238Y-109609047D01*
X109426476Y-109704285D01*
X109474095Y-109799523D01*
G04 #@! TO.C,R5*
X115268380Y-110148666D02*
X114792190Y-110482000D01*
X115268380Y-110720095D02*
X114268380Y-110720095D01*
X114268380Y-110339142D01*
X114316000Y-110243904D01*
X114363619Y-110196285D01*
X114458857Y-110148666D01*
X114601714Y-110148666D01*
X114696952Y-110196285D01*
X114744571Y-110243904D01*
X114792190Y-110339142D01*
X114792190Y-110720095D01*
X114268380Y-109243904D02*
X114268380Y-109720095D01*
X114744571Y-109767714D01*
X114696952Y-109720095D01*
X114649333Y-109624857D01*
X114649333Y-109386761D01*
X114696952Y-109291523D01*
X114744571Y-109243904D01*
X114839809Y-109196285D01*
X115077904Y-109196285D01*
X115173142Y-109243904D01*
X115220761Y-109291523D01*
X115268380Y-109386761D01*
X115268380Y-109624857D01*
X115220761Y-109720095D01*
X115173142Y-109767714D01*
G04 #@! TO.C,R7*
X107648380Y-110148666D02*
X107172190Y-110482000D01*
X107648380Y-110720095D02*
X106648380Y-110720095D01*
X106648380Y-110339142D01*
X106696000Y-110243904D01*
X106743619Y-110196285D01*
X106838857Y-110148666D01*
X106981714Y-110148666D01*
X107076952Y-110196285D01*
X107124571Y-110243904D01*
X107172190Y-110339142D01*
X107172190Y-110720095D01*
X106648380Y-109815333D02*
X106648380Y-109148666D01*
X107648380Y-109577238D01*
G04 #@! TO.C,Q2*
X117904761Y-86947619D02*
X117809523Y-86900000D01*
X117714285Y-86804761D01*
X117571428Y-86661904D01*
X117476190Y-86614285D01*
X117380952Y-86614285D01*
X117428571Y-86852380D02*
X117333333Y-86804761D01*
X117238095Y-86709523D01*
X117190476Y-86519047D01*
X117190476Y-86185714D01*
X117238095Y-85995238D01*
X117333333Y-85900000D01*
X117428571Y-85852380D01*
X117619047Y-85852380D01*
X117714285Y-85900000D01*
X117809523Y-85995238D01*
X117857142Y-86185714D01*
X117857142Y-86519047D01*
X117809523Y-86709523D01*
X117714285Y-86804761D01*
X117619047Y-86852380D01*
X117428571Y-86852380D01*
X118238095Y-85947619D02*
X118285714Y-85900000D01*
X118380952Y-85852380D01*
X118619047Y-85852380D01*
X118714285Y-85900000D01*
X118761904Y-85947619D01*
X118809523Y-86042857D01*
X118809523Y-86138095D01*
X118761904Y-86280952D01*
X118190476Y-86852380D01*
X118809523Y-86852380D01*
G04 #@! TO.C,Q3*
X100404761Y-86947619D02*
X100309523Y-86900000D01*
X100214285Y-86804761D01*
X100071428Y-86661904D01*
X99976190Y-86614285D01*
X99880952Y-86614285D01*
X99928571Y-86852380D02*
X99833333Y-86804761D01*
X99738095Y-86709523D01*
X99690476Y-86519047D01*
X99690476Y-86185714D01*
X99738095Y-85995238D01*
X99833333Y-85900000D01*
X99928571Y-85852380D01*
X100119047Y-85852380D01*
X100214285Y-85900000D01*
X100309523Y-85995238D01*
X100357142Y-86185714D01*
X100357142Y-86519047D01*
X100309523Y-86709523D01*
X100214285Y-86804761D01*
X100119047Y-86852380D01*
X99928571Y-86852380D01*
X100690476Y-85852380D02*
X101309523Y-85852380D01*
X100976190Y-86233333D01*
X101119047Y-86233333D01*
X101214285Y-86280952D01*
X101261904Y-86328571D01*
X101309523Y-86423809D01*
X101309523Y-86661904D01*
X101261904Y-86757142D01*
X101214285Y-86804761D01*
X101119047Y-86852380D01*
X100833333Y-86852380D01*
X100738095Y-86804761D01*
X100690476Y-86757142D01*
G04 #@! TO.C,R12*
X120452380Y-87242857D02*
X119976190Y-87576190D01*
X120452380Y-87814285D02*
X119452380Y-87814285D01*
X119452380Y-87433333D01*
X119500000Y-87338095D01*
X119547619Y-87290476D01*
X119642857Y-87242857D01*
X119785714Y-87242857D01*
X119880952Y-87290476D01*
X119928571Y-87338095D01*
X119976190Y-87433333D01*
X119976190Y-87814285D01*
X120452380Y-86290476D02*
X120452380Y-86861904D01*
X120452380Y-86576190D02*
X119452380Y-86576190D01*
X119595238Y-86671428D01*
X119690476Y-86766666D01*
X119738095Y-86861904D01*
X119547619Y-85909523D02*
X119500000Y-85861904D01*
X119452380Y-85766666D01*
X119452380Y-85528571D01*
X119500000Y-85433333D01*
X119547619Y-85385714D01*
X119642857Y-85338095D01*
X119738095Y-85338095D01*
X119880952Y-85385714D01*
X120452380Y-85957142D01*
X120452380Y-85338095D01*
G04 #@! TO.C,R13*
X99202380Y-87292857D02*
X98726190Y-87626190D01*
X99202380Y-87864285D02*
X98202380Y-87864285D01*
X98202380Y-87483333D01*
X98250000Y-87388095D01*
X98297619Y-87340476D01*
X98392857Y-87292857D01*
X98535714Y-87292857D01*
X98630952Y-87340476D01*
X98678571Y-87388095D01*
X98726190Y-87483333D01*
X98726190Y-87864285D01*
X99202380Y-86340476D02*
X99202380Y-86911904D01*
X99202380Y-86626190D02*
X98202380Y-86626190D01*
X98345238Y-86721428D01*
X98440476Y-86816666D01*
X98488095Y-86911904D01*
X98202380Y-86007142D02*
X98202380Y-85388095D01*
X98583333Y-85721428D01*
X98583333Y-85578571D01*
X98630952Y-85483333D01*
X98678571Y-85435714D01*
X98773809Y-85388095D01*
X99011904Y-85388095D01*
X99107142Y-85435714D01*
X99154761Y-85483333D01*
X99202380Y-85578571D01*
X99202380Y-85864285D01*
X99154761Y-85959523D01*
X99107142Y-86007142D01*
G04 #@! TO.C,R14*
X108607142Y-85852380D02*
X108273809Y-85376190D01*
X108035714Y-85852380D02*
X108035714Y-84852380D01*
X108416666Y-84852380D01*
X108511904Y-84900000D01*
X108559523Y-84947619D01*
X108607142Y-85042857D01*
X108607142Y-85185714D01*
X108559523Y-85280952D01*
X108511904Y-85328571D01*
X108416666Y-85376190D01*
X108035714Y-85376190D01*
X109559523Y-85852380D02*
X108988095Y-85852380D01*
X109273809Y-85852380D02*
X109273809Y-84852380D01*
X109178571Y-84995238D01*
X109083333Y-85090476D01*
X108988095Y-85138095D01*
X110416666Y-85185714D02*
X110416666Y-85852380D01*
X110178571Y-84804761D02*
X109940476Y-85519047D01*
X110559523Y-85519047D01*
G04 #@! TO.C,R15*
X106202380Y-87142857D02*
X105726190Y-87476190D01*
X106202380Y-87714285D02*
X105202380Y-87714285D01*
X105202380Y-87333333D01*
X105250000Y-87238095D01*
X105297619Y-87190476D01*
X105392857Y-87142857D01*
X105535714Y-87142857D01*
X105630952Y-87190476D01*
X105678571Y-87238095D01*
X105726190Y-87333333D01*
X105726190Y-87714285D01*
X106202380Y-86190476D02*
X106202380Y-86761904D01*
X106202380Y-86476190D02*
X105202380Y-86476190D01*
X105345238Y-86571428D01*
X105440476Y-86666666D01*
X105488095Y-86761904D01*
X105202380Y-85285714D02*
X105202380Y-85761904D01*
X105678571Y-85809523D01*
X105630952Y-85761904D01*
X105583333Y-85666666D01*
X105583333Y-85428571D01*
X105630952Y-85333333D01*
X105678571Y-85285714D01*
X105773809Y-85238095D01*
X106011904Y-85238095D01*
X106107142Y-85285714D01*
X106154761Y-85333333D01*
X106202380Y-85428571D01*
X106202380Y-85666666D01*
X106154761Y-85761904D01*
X106107142Y-85809523D01*
G04 #@! TO.C,R16*
X113202380Y-87142857D02*
X112726190Y-87476190D01*
X113202380Y-87714285D02*
X112202380Y-87714285D01*
X112202380Y-87333333D01*
X112250000Y-87238095D01*
X112297619Y-87190476D01*
X112392857Y-87142857D01*
X112535714Y-87142857D01*
X112630952Y-87190476D01*
X112678571Y-87238095D01*
X112726190Y-87333333D01*
X112726190Y-87714285D01*
X113202380Y-86190476D02*
X113202380Y-86761904D01*
X113202380Y-86476190D02*
X112202380Y-86476190D01*
X112345238Y-86571428D01*
X112440476Y-86666666D01*
X112488095Y-86761904D01*
X112202380Y-85333333D02*
X112202380Y-85523809D01*
X112250000Y-85619047D01*
X112297619Y-85666666D01*
X112440476Y-85761904D01*
X112630952Y-85809523D01*
X113011904Y-85809523D01*
X113107142Y-85761904D01*
X113154761Y-85714285D01*
X113202380Y-85619047D01*
X113202380Y-85428571D01*
X113154761Y-85333333D01*
X113107142Y-85285714D01*
X113011904Y-85238095D01*
X112773809Y-85238095D01*
X112678571Y-85285714D01*
X112630952Y-85333333D01*
X112583333Y-85428571D01*
X112583333Y-85619047D01*
X112630952Y-85714285D01*
X112678571Y-85761904D01*
X112773809Y-85809523D01*
G04 #@! TD*
M02*
