G04 #@! TF.FileFunction,Copper,L1,Top,Signal*
%FSLAX46Y46*%
G04 Gerber Fmt 4.6, Leading zero omitted, Abs format (unit mm)*
G04 Created by KiCad (PCBNEW 4.0.7-e2-6376~58~ubuntu16.04.1) date Sun May 20 00:27:38 2018*
%MOMM*%
%LPD*%
G01*
G04 APERTURE LIST*
%ADD10C,0.100000*%
%ADD11R,1.300000X1.500000*%
%ADD12R,0.350000X4.000000*%
%ADD13R,1.250000X1.500000*%
%ADD14R,1.000000X0.250000*%
%ADD15R,0.250000X1.000000*%
%ADD16R,1.750000X1.800000*%
%ADD17C,0.800000*%
%ADD18C,0.250000*%
%ADD19C,0.254000*%
G04 APERTURE END LIST*
D10*
D11*
X112776000Y-114634000D03*
X112776000Y-111934000D03*
D12*
X99450000Y-106650000D03*
X100150000Y-106650000D03*
X100850000Y-106650000D03*
X101550000Y-106650000D03*
X102250000Y-106650000D03*
X102950000Y-106650000D03*
X103650000Y-106650000D03*
X104350000Y-106650000D03*
X105050000Y-106650000D03*
X105750000Y-106650000D03*
X106450000Y-106650000D03*
X107150000Y-106650000D03*
X107850000Y-106650000D03*
X108550000Y-106650000D03*
X109250000Y-106650000D03*
X109950000Y-106650000D03*
X110650000Y-106650000D03*
X111350000Y-106650000D03*
X112050000Y-106650000D03*
X112750000Y-106650000D03*
X113450000Y-106650000D03*
X114150000Y-106650000D03*
X114850000Y-106650000D03*
X115550000Y-106650000D03*
X116250000Y-106650000D03*
X116950000Y-106650000D03*
X117650000Y-106650000D03*
X118350000Y-106650000D03*
X119050000Y-106650000D03*
X119750000Y-106650000D03*
D13*
X97434000Y-112074000D03*
X97434000Y-114574000D03*
X103784000Y-99882000D03*
X103784000Y-102382000D03*
X121818000Y-90718000D03*
X121818000Y-93218000D03*
X97434000Y-99882000D03*
X97434000Y-102382000D03*
X100736000Y-99882000D03*
X100736000Y-102382000D03*
X99974000Y-112074000D03*
X99974000Y-114574000D03*
X119532000Y-112074000D03*
X119532000Y-114574000D03*
X121818000Y-112074000D03*
X121818000Y-114574000D03*
D11*
X97434000Y-90638000D03*
X97434000Y-93338000D03*
X100736000Y-90638000D03*
X100736000Y-93338000D03*
X103784000Y-93338000D03*
X103784000Y-90638000D03*
X121750000Y-104650000D03*
X121750000Y-107350000D03*
D14*
X106720000Y-92556000D03*
X106720000Y-93056000D03*
X106720000Y-93556000D03*
X106720000Y-94056000D03*
X106720000Y-94556000D03*
X106720000Y-95056000D03*
X106720000Y-95556000D03*
X106720000Y-96056000D03*
X106720000Y-96556000D03*
X106720000Y-97056000D03*
X106720000Y-97556000D03*
X106720000Y-98056000D03*
X106720000Y-98556000D03*
X106720000Y-99056000D03*
X106720000Y-99556000D03*
X106720000Y-100056000D03*
D15*
X108670000Y-102006000D03*
X109170000Y-102006000D03*
X109670000Y-102006000D03*
X110170000Y-102006000D03*
X110670000Y-102006000D03*
X111170000Y-102006000D03*
X111670000Y-102006000D03*
X112170000Y-102006000D03*
X112670000Y-102006000D03*
X113170000Y-102006000D03*
X113670000Y-102006000D03*
X114170000Y-102006000D03*
X114670000Y-102006000D03*
X115170000Y-102006000D03*
X115670000Y-102006000D03*
X116170000Y-102006000D03*
D14*
X118120000Y-100056000D03*
X118120000Y-99556000D03*
X118120000Y-99056000D03*
X118120000Y-98556000D03*
X118120000Y-98056000D03*
X118120000Y-97556000D03*
X118120000Y-97056000D03*
X118120000Y-96556000D03*
X118120000Y-96056000D03*
X118120000Y-95556000D03*
X118120000Y-95056000D03*
X118120000Y-94556000D03*
X118120000Y-94056000D03*
X118120000Y-93556000D03*
X118120000Y-93056000D03*
X118120000Y-92556000D03*
D15*
X116170000Y-90606000D03*
X115670000Y-90606000D03*
X115170000Y-90606000D03*
X114670000Y-90606000D03*
X114170000Y-90606000D03*
X113670000Y-90606000D03*
X113170000Y-90606000D03*
X112670000Y-90606000D03*
X112170000Y-90606000D03*
X111670000Y-90606000D03*
X111170000Y-90606000D03*
X110670000Y-90606000D03*
X110170000Y-90606000D03*
X109670000Y-90606000D03*
X109170000Y-90606000D03*
X108670000Y-90606000D03*
D16*
X97587000Y-97068000D03*
X100837000Y-97068000D03*
D13*
X102870000Y-114534000D03*
X102870000Y-112034000D03*
X105156000Y-114534000D03*
X105156000Y-112034000D03*
X110236000Y-114534000D03*
X110236000Y-112034000D03*
D11*
X115316000Y-114634000D03*
X115316000Y-111934000D03*
X107696000Y-111934000D03*
X107696000Y-114634000D03*
D17*
X117250000Y-114450000D03*
X98044000Y-108077000D03*
X106598600Y-103333800D03*
X120949600Y-97796600D03*
X99029400Y-99676200D03*
X107386000Y-90710000D03*
X106725600Y-102013000D03*
X98013400Y-106635800D03*
X115006000Y-92107000D03*
X116403000Y-91853000D03*
X108910000Y-91980000D03*
X110942000Y-95536000D03*
X108783000Y-95536000D03*
X112650000Y-103450000D03*
X118250000Y-101850000D03*
X119850000Y-93250000D03*
X116911000Y-98330000D03*
X113736000Y-97314000D03*
X114879000Y-97314000D03*
X112593000Y-97314000D03*
X116022000Y-97314000D03*
D18*
X119532000Y-114574000D02*
X117374000Y-114574000D01*
X117374000Y-114574000D02*
X117250000Y-114450000D01*
X107545001Y-98605999D02*
X107545001Y-97506001D01*
X105750000Y-106650000D02*
X105750000Y-104182400D01*
X105750000Y-104182400D02*
X106598600Y-103333800D01*
X98044000Y-108077000D02*
X98044000Y-108056000D01*
X98044000Y-108056000D02*
X99450000Y-106650000D01*
X119750000Y-106650000D02*
X121050000Y-106650000D01*
X121050000Y-106650000D02*
X121750000Y-107350000D01*
X119050000Y-106650000D02*
X119750000Y-106650000D01*
X116250000Y-106650000D02*
X116250000Y-110752002D01*
X116250000Y-110752002D02*
X118657000Y-113159002D01*
X118657000Y-113159002D02*
X118657000Y-113574000D01*
X118657000Y-113574000D02*
X119532000Y-114449000D01*
X119532000Y-114449000D02*
X119532000Y-114574000D01*
X102870000Y-112034000D02*
X105156000Y-112034000D01*
X104350000Y-106650000D02*
X104350000Y-108900000D01*
X104350000Y-108900000D02*
X104425001Y-108975001D01*
X104425001Y-108975001D02*
X105674999Y-108975001D01*
X105674999Y-108975001D02*
X105750000Y-108900000D01*
X105750000Y-108900000D02*
X105750000Y-106650000D01*
X105750000Y-108900000D02*
X105825001Y-108975001D01*
X105825001Y-108975001D02*
X107074999Y-108975001D01*
X107074999Y-108975001D02*
X107150000Y-108900000D01*
X107150000Y-108900000D02*
X107150000Y-106650000D01*
X105156000Y-112034000D02*
X105156000Y-111034000D01*
X105156000Y-111034000D02*
X105750000Y-110440000D01*
X105750000Y-110440000D02*
X105750000Y-106650000D01*
X109950000Y-106650000D02*
X109950000Y-111748000D01*
X109950000Y-111748000D02*
X110236000Y-112034000D01*
X100736000Y-102382000D02*
X102250000Y-102382000D01*
X102250000Y-102382000D02*
X103784000Y-102382000D01*
X106720000Y-97056000D02*
X104649998Y-97056000D01*
X104649998Y-97056000D02*
X102250000Y-99455998D01*
X102250000Y-99455998D02*
X102250000Y-102382000D01*
X121818000Y-93218000D02*
X120943000Y-93218000D01*
X120943000Y-93218000D02*
X117505999Y-89780999D01*
X117505999Y-89780999D02*
X113245001Y-89780999D01*
X113245001Y-89780999D02*
X113170000Y-89856000D01*
X113170000Y-89856000D02*
X113170000Y-90606000D01*
X122725001Y-97771200D02*
X122725001Y-106274999D01*
X122725001Y-95125001D02*
X122725001Y-97771200D01*
X122725001Y-97771200D02*
X122699601Y-97796600D01*
X122699601Y-97796600D02*
X120949600Y-97796600D01*
X121818000Y-93218000D02*
X121818000Y-94218000D01*
X121750000Y-107250000D02*
X121750000Y-107350000D01*
X121818000Y-94218000D02*
X122725001Y-95125001D01*
X122725001Y-106274999D02*
X121750000Y-107250000D01*
X107545001Y-102758591D02*
X107173809Y-102758591D01*
X107173809Y-102758591D02*
X106598600Y-103333800D01*
X107545001Y-102758591D02*
X107545001Y-99131001D01*
X115550000Y-106650000D02*
X116250000Y-106650000D01*
X114850000Y-106650000D02*
X115550000Y-106650000D01*
X114150000Y-106650000D02*
X114850000Y-106650000D01*
X113450000Y-106650000D02*
X114150000Y-106650000D01*
X109950000Y-106650000D02*
X110650000Y-106650000D01*
X109250000Y-106650000D02*
X109950000Y-106650000D01*
X109250000Y-106650000D02*
X109250000Y-104463590D01*
X109250000Y-104463590D02*
X107545001Y-102758591D01*
X107545001Y-99131001D02*
X107470000Y-99056000D01*
X107470000Y-99056000D02*
X106720000Y-99056000D01*
X119366200Y-114408200D02*
X119532000Y-114574000D01*
X97434000Y-102382000D02*
X99131000Y-102382000D01*
X99131000Y-102382000D02*
X100736000Y-102382000D01*
X99029400Y-99676200D02*
X99029400Y-102280400D01*
X99029400Y-102280400D02*
X99131000Y-102382000D01*
X121818000Y-114574000D02*
X119532000Y-114574000D01*
X121818000Y-114574000D02*
X121818000Y-114449000D01*
X121818000Y-114449000D02*
X122768001Y-113498999D01*
X122768001Y-113498999D02*
X122768001Y-109368001D01*
X122768001Y-109368001D02*
X121750000Y-108350000D01*
X121750000Y-108350000D02*
X121750000Y-107350000D01*
X122072000Y-114449000D02*
X122072000Y-114574000D01*
X114850000Y-108475000D02*
X114850000Y-106650000D01*
X107150000Y-106650000D02*
X107850000Y-106650000D01*
X106720000Y-99056000D02*
X107095000Y-99056000D01*
X107095000Y-99056000D02*
X107545001Y-98605999D01*
X107095000Y-97056000D02*
X106720000Y-97056000D01*
X107545001Y-97506001D02*
X107095000Y-97056000D01*
X103784000Y-102382000D02*
X103784000Y-101382000D01*
X103784000Y-101382000D02*
X104001401Y-101164599D01*
X105970000Y-99056000D02*
X106720000Y-99056000D01*
X104001401Y-101164599D02*
X104599991Y-101164599D01*
X104599991Y-101164599D02*
X105894999Y-99869591D01*
X105894999Y-99869591D02*
X105894999Y-99131001D01*
X105894999Y-99131001D02*
X105970000Y-99056000D01*
X106720000Y-97056000D02*
X106720000Y-96556000D01*
X106720000Y-97556000D02*
X106720000Y-97056000D01*
X106720000Y-99056000D02*
X106720000Y-98648001D01*
X102870000Y-114534000D02*
X102870000Y-114409000D01*
X102950000Y-109674410D02*
X102950000Y-106650000D01*
X102870000Y-114409000D02*
X101600000Y-113139000D01*
X101600000Y-113139000D02*
X101600000Y-111024410D01*
X101600000Y-111024410D02*
X102950000Y-109674410D01*
X105156000Y-114534000D02*
X102870000Y-114534000D01*
X102616000Y-114534000D02*
X102616000Y-114409000D01*
X107696000Y-114634000D02*
X105256000Y-114634000D01*
X105256000Y-114634000D02*
X105156000Y-114534000D01*
X115316000Y-114634000D02*
X112776000Y-114634000D01*
X112776000Y-114634000D02*
X112776000Y-114734000D01*
X112776000Y-114734000D02*
X111876000Y-115634000D01*
X111876000Y-115634000D02*
X108596000Y-115634000D01*
X108596000Y-115634000D02*
X107696000Y-114734000D01*
X107696000Y-114734000D02*
X107696000Y-114634000D01*
X105050000Y-106650000D02*
X105050000Y-104140000D01*
X105050000Y-104140000D02*
X105050000Y-101351000D01*
X102950000Y-106650000D02*
X102950000Y-104589998D01*
X102950000Y-104589998D02*
X103399998Y-104140000D01*
X103399998Y-104140000D02*
X105050000Y-104140000D01*
X102711001Y-89562999D02*
X107386000Y-89562999D01*
X107386000Y-89562999D02*
X112376999Y-89562999D01*
X107386000Y-90710000D02*
X107386000Y-89562999D01*
X121818000Y-90718000D02*
X120943000Y-90718000D01*
X112670000Y-89856000D02*
X112670000Y-90606000D01*
X120943000Y-90718000D02*
X119555989Y-89330989D01*
X119555989Y-89330989D02*
X113058600Y-89330990D01*
X113058600Y-89330990D02*
X112670000Y-89719590D01*
X112670000Y-89719590D02*
X112670000Y-89856000D01*
X106720000Y-100056000D02*
X106720000Y-102007400D01*
X106720000Y-102007400D02*
X106725600Y-102013000D01*
X97416997Y-104324999D02*
X98013400Y-104324999D01*
X98013400Y-104324999D02*
X102685001Y-104324999D01*
X98013400Y-106635800D02*
X98013400Y-104324999D01*
X102975000Y-106675000D02*
X102950000Y-106650000D01*
X97434000Y-90638000D02*
X97434000Y-90738000D01*
X97434000Y-90738000D02*
X96386999Y-91785001D01*
X96386999Y-91785001D02*
X96386999Y-103295001D01*
X96386999Y-103295001D02*
X97416997Y-104324999D01*
X102685001Y-104324999D02*
X102950000Y-104589998D01*
X100736000Y-90638000D02*
X101636000Y-90638000D01*
X101636000Y-90638000D02*
X102711001Y-89562999D01*
X112376999Y-89562999D02*
X112670000Y-89856000D01*
X97434000Y-90638000D02*
X100736000Y-90638000D01*
X106720000Y-100056000D02*
X106720000Y-99556000D01*
X106345000Y-100056000D02*
X106720000Y-100056000D01*
X105050000Y-101351000D02*
X106345000Y-100056000D01*
X106720000Y-98056000D02*
X105485000Y-98056000D01*
X105485000Y-98056000D02*
X103784000Y-99757000D01*
X103784000Y-99757000D02*
X103784000Y-99882000D01*
X97587000Y-97068000D02*
X97587000Y-97043000D01*
X97587000Y-97043000D02*
X99074000Y-95556000D01*
X99074000Y-95556000D02*
X106720000Y-95556000D01*
X97434000Y-99882000D02*
X97434000Y-97221000D01*
X97434000Y-97221000D02*
X97587000Y-97068000D01*
X100837000Y-97068000D02*
X101962000Y-97068000D01*
X101962000Y-97068000D02*
X102974000Y-96056000D01*
X102974000Y-96056000D02*
X106720000Y-96056000D01*
X100736000Y-99882000D02*
X100736000Y-97169000D01*
X100736000Y-97169000D02*
X100837000Y-97068000D01*
X97434000Y-112074000D02*
X97434000Y-111616000D01*
X97434000Y-111616000D02*
X100150000Y-108900000D01*
X100150000Y-108900000D02*
X100150000Y-106650000D01*
X100850000Y-106650000D02*
X100850000Y-108900000D01*
X100850000Y-108900000D02*
X98384001Y-111365999D01*
X97434000Y-114449000D02*
X97434000Y-114574000D01*
X98384001Y-111365999D02*
X98384001Y-113498999D01*
X98384001Y-113498999D02*
X97434000Y-114449000D01*
X99974000Y-112074000D02*
X99974000Y-111074000D01*
X99974000Y-111074000D02*
X101550000Y-109498000D01*
X101550000Y-109498000D02*
X101550000Y-106650000D01*
X99974000Y-114574000D02*
X99974000Y-114449000D01*
X99974000Y-114449000D02*
X100924001Y-113498999D01*
X100924001Y-113498999D02*
X100924001Y-110760409D01*
X100924001Y-110760409D02*
X102250000Y-109434410D01*
X102250000Y-109434410D02*
X102250000Y-106650000D01*
X119532000Y-112074000D02*
X119532000Y-111074000D01*
X119532000Y-111074000D02*
X117650000Y-109192000D01*
X117650000Y-109192000D02*
X117650000Y-106650000D01*
X121818000Y-112074000D02*
X121818000Y-111949000D01*
X121818000Y-111949000D02*
X120943000Y-111074000D01*
X120943000Y-111074000D02*
X120524000Y-111074000D01*
X120524000Y-111074000D02*
X118350000Y-108900000D01*
X118350000Y-108900000D02*
X118350000Y-106650000D01*
X122072000Y-112074000D02*
X122072000Y-111949000D01*
X115006000Y-92796583D02*
X115006000Y-92107000D01*
X118120000Y-94556000D02*
X116765417Y-94556000D01*
X116765417Y-94556000D02*
X115006000Y-92796583D01*
X118109400Y-94545400D02*
X118120000Y-94556000D01*
X116403000Y-93089000D02*
X116403000Y-91853000D01*
X118120000Y-94056000D02*
X117370000Y-94056000D01*
X117370000Y-94056000D02*
X116403000Y-93089000D01*
X103784000Y-90638000D02*
X104684000Y-90638000D01*
X104684000Y-90638000D02*
X106026000Y-91980000D01*
X106026000Y-91980000D02*
X108910000Y-91980000D01*
X106720000Y-95056000D02*
X107470000Y-95056000D01*
X107470000Y-95056000D02*
X108057999Y-95643999D01*
X108057999Y-95884001D02*
X108434999Y-96261001D01*
X110216999Y-96261001D02*
X110942000Y-95536000D01*
X108057999Y-95643999D02*
X108057999Y-95884001D01*
X108434999Y-96261001D02*
X110216999Y-96261001D01*
X106720000Y-95056000D02*
X99052000Y-95056000D01*
X99052000Y-95056000D02*
X97434000Y-93438000D01*
X97434000Y-93438000D02*
X97434000Y-93338000D01*
X108783000Y-95536000D02*
X108783000Y-94970315D01*
X108783000Y-94970315D02*
X108368685Y-94556000D01*
X108368685Y-94556000D02*
X106720000Y-94556000D01*
X103784000Y-93338000D02*
X104684000Y-93338000D01*
X104684000Y-93338000D02*
X105902000Y-94556000D01*
X105902000Y-94556000D02*
X106720000Y-94556000D01*
X100736000Y-93338000D02*
X103784000Y-93338000D01*
X121750000Y-104650000D02*
X121146412Y-104650000D01*
X116992000Y-106608000D02*
X116950000Y-106650000D01*
X121146412Y-104650000D02*
X120371401Y-103874989D01*
X120371401Y-103874989D02*
X117665009Y-103874989D01*
X117665009Y-103874989D02*
X116992000Y-104547998D01*
X116992000Y-104547998D02*
X116992000Y-106608000D01*
X112776000Y-111934000D02*
X112776000Y-110934000D01*
X112776000Y-110934000D02*
X111350000Y-109508000D01*
X111350000Y-109508000D02*
X111350000Y-106650000D01*
X108670000Y-102006000D02*
X108670000Y-102892410D01*
X111350000Y-104589998D02*
X111350000Y-106650000D01*
X108670000Y-102892410D02*
X110102589Y-104324999D01*
X110102589Y-104324999D02*
X111085001Y-104324999D01*
X111085001Y-104324999D02*
X111350000Y-104589998D01*
X115316000Y-111934000D02*
X115316000Y-111834000D01*
X115316000Y-111834000D02*
X112750000Y-109268000D01*
X112750000Y-109268000D02*
X112750000Y-106650000D01*
X112050000Y-106650000D02*
X112750000Y-106650000D01*
X109170000Y-102006000D02*
X109170000Y-102756000D01*
X112050000Y-104400000D02*
X112050000Y-106650000D01*
X109170000Y-102756000D02*
X110288989Y-103874989D01*
X111524989Y-103874989D02*
X112050000Y-104400000D01*
X110288989Y-103874989D02*
X111524989Y-103874989D01*
X110670000Y-102006000D02*
X110670000Y-102716002D01*
X110670000Y-102716002D02*
X111003999Y-103050001D01*
X111003999Y-103050001D02*
X112250001Y-103050001D01*
X112250001Y-103050001D02*
X112650000Y-103450000D01*
X116170000Y-102006000D02*
X118094000Y-102006000D01*
X118094000Y-102006000D02*
X118250000Y-101850000D01*
X119850000Y-93250000D02*
X119850000Y-95576000D01*
X119850000Y-95576000D02*
X118870000Y-96556000D01*
X118870000Y-96556000D02*
X118120000Y-96556000D01*
X118120000Y-95556000D02*
X117370000Y-95556000D01*
X117370000Y-95556000D02*
X116911000Y-96015000D01*
X116911000Y-96015000D02*
X116911000Y-98330000D01*
X118100000Y-95536000D02*
X118120000Y-95556000D01*
X111170000Y-90606000D02*
X111170000Y-91356000D01*
X111170000Y-91356000D02*
X113219990Y-93405990D01*
X113219990Y-93405990D02*
X113219990Y-96797990D01*
X113219990Y-96797990D02*
X113736000Y-97314000D01*
X113670000Y-90606000D02*
X113670000Y-96105000D01*
X113670000Y-96105000D02*
X114879000Y-97314000D01*
X112593000Y-97314000D02*
X112593000Y-93415410D01*
X112593000Y-93415410D02*
X110670000Y-91492410D01*
X110670000Y-91492410D02*
X110670000Y-90606000D01*
X110670000Y-90606000D02*
X110670000Y-90982000D01*
X110670000Y-90982000D02*
X110719990Y-91031990D01*
X116022000Y-97314000D02*
X114219999Y-95511999D01*
X114219999Y-95511999D02*
X114219999Y-90556001D01*
X114219999Y-90556001D02*
X114170000Y-90606000D01*
X107696000Y-111934000D02*
X107696000Y-110934000D01*
X107696000Y-110934000D02*
X108550000Y-110080000D01*
X108550000Y-110080000D02*
X108550000Y-106650000D01*
X110236000Y-114534000D02*
X110236000Y-114409000D01*
X110236000Y-114409000D02*
X107761000Y-111934000D01*
X107761000Y-111934000D02*
X107696000Y-111934000D01*
X106450000Y-106650000D02*
X106450000Y-104400000D01*
X106450000Y-104400000D02*
X106710000Y-104140000D01*
X108290000Y-104140000D02*
X108550000Y-104400000D01*
X108550000Y-104400000D02*
X108550000Y-106650000D01*
X106710000Y-104140000D02*
X108290000Y-104140000D01*
D19*
G36*
X96879596Y-104862400D02*
X97126158Y-105027147D01*
X97253400Y-105052457D01*
X97253400Y-105932039D01*
X97136481Y-106048754D01*
X96978580Y-106429023D01*
X96978221Y-106840771D01*
X97135458Y-107221315D01*
X97426354Y-107512719D01*
X97806623Y-107670620D01*
X98218371Y-107670979D01*
X98598915Y-107513742D01*
X98640000Y-107472729D01*
X98640000Y-108776310D01*
X98736673Y-109009699D01*
X98851086Y-109124112D01*
X97298638Y-110676560D01*
X96809000Y-110676560D01*
X96573683Y-110720838D01*
X96357559Y-110859910D01*
X96212569Y-111072110D01*
X96161560Y-111324000D01*
X96161560Y-112824000D01*
X96205838Y-113059317D01*
X96344910Y-113275441D01*
X96414711Y-113323134D01*
X96357559Y-113359910D01*
X96212569Y-113572110D01*
X96161560Y-113824000D01*
X96161560Y-115324000D01*
X96205838Y-115559317D01*
X96344910Y-115775441D01*
X96557110Y-115920431D01*
X96809000Y-115971440D01*
X98059000Y-115971440D01*
X98294317Y-115927162D01*
X98510441Y-115788090D01*
X98655431Y-115575890D01*
X98703910Y-115336491D01*
X98745838Y-115559317D01*
X98884910Y-115775441D01*
X99097110Y-115920431D01*
X99349000Y-115971440D01*
X100599000Y-115971440D01*
X100834317Y-115927162D01*
X101050441Y-115788090D01*
X101195431Y-115575890D01*
X101246440Y-115324000D01*
X101246440Y-114251362D01*
X101442000Y-114055802D01*
X101597560Y-114211362D01*
X101597560Y-115284000D01*
X101641838Y-115519317D01*
X101780910Y-115735441D01*
X101993110Y-115880431D01*
X102245000Y-115931440D01*
X103495000Y-115931440D01*
X103730317Y-115887162D01*
X103946441Y-115748090D01*
X104012674Y-115651155D01*
X104066910Y-115735441D01*
X104279110Y-115880431D01*
X104531000Y-115931440D01*
X105781000Y-115931440D01*
X106016317Y-115887162D01*
X106232441Y-115748090D01*
X106377431Y-115535890D01*
X106403198Y-115408649D01*
X106442838Y-115619317D01*
X106581910Y-115835441D01*
X106794110Y-115980431D01*
X107046000Y-116031440D01*
X107918638Y-116031440D01*
X108058599Y-116171401D01*
X108305160Y-116336148D01*
X108596000Y-116394000D01*
X111876000Y-116394000D01*
X112166839Y-116336148D01*
X112413401Y-116171401D01*
X112553362Y-116031440D01*
X113426000Y-116031440D01*
X113661317Y-115987162D01*
X113877441Y-115848090D01*
X114022431Y-115635890D01*
X114044993Y-115524477D01*
X114062838Y-115619317D01*
X114201910Y-115835441D01*
X114414110Y-115980431D01*
X114666000Y-116031440D01*
X115966000Y-116031440D01*
X116201317Y-115987162D01*
X116417441Y-115848090D01*
X116562431Y-115635890D01*
X116613440Y-115384000D01*
X116613440Y-114859750D01*
X118272000Y-114859750D01*
X118272000Y-115450309D01*
X118368673Y-115683698D01*
X118547301Y-115862327D01*
X118780690Y-115959000D01*
X119246250Y-115959000D01*
X119405000Y-115800250D01*
X119405000Y-114701000D01*
X119659000Y-114701000D01*
X119659000Y-115800250D01*
X119817750Y-115959000D01*
X120283310Y-115959000D01*
X120516699Y-115862327D01*
X120675000Y-115704025D01*
X120833301Y-115862327D01*
X121066690Y-115959000D01*
X121532250Y-115959000D01*
X121691000Y-115800250D01*
X121691000Y-114701000D01*
X120716750Y-114701000D01*
X120675000Y-114742750D01*
X120633250Y-114701000D01*
X119659000Y-114701000D01*
X119405000Y-114701000D01*
X118430750Y-114701000D01*
X118272000Y-114859750D01*
X116613440Y-114859750D01*
X116613440Y-113884000D01*
X116569162Y-113648683D01*
X116430090Y-113432559D01*
X116217890Y-113287569D01*
X116204803Y-113284919D01*
X116417441Y-113148090D01*
X116562431Y-112935890D01*
X116613440Y-112684000D01*
X116613440Y-111184000D01*
X116569162Y-110948683D01*
X116430090Y-110732559D01*
X116217890Y-110587569D01*
X115966000Y-110536560D01*
X115093362Y-110536560D01*
X113836931Y-109280129D01*
X113848691Y-109285000D01*
X113903750Y-109285000D01*
X114062500Y-109126250D01*
X114062500Y-109110525D01*
X114150000Y-109023026D01*
X114237500Y-109110525D01*
X114237500Y-109126250D01*
X114396250Y-109285000D01*
X114451309Y-109285000D01*
X114500000Y-109264832D01*
X114548691Y-109285000D01*
X114603750Y-109285000D01*
X114762500Y-109126250D01*
X114762500Y-109110525D01*
X114850000Y-109023026D01*
X114937500Y-109110525D01*
X114937500Y-109126250D01*
X115096250Y-109285000D01*
X115151309Y-109285000D01*
X115200000Y-109264832D01*
X115248691Y-109285000D01*
X115303750Y-109285000D01*
X115462500Y-109126250D01*
X115462500Y-109110525D01*
X115550000Y-109023026D01*
X115637500Y-109110525D01*
X115637500Y-109126250D01*
X115796250Y-109285000D01*
X115851309Y-109285000D01*
X115900000Y-109264832D01*
X115948691Y-109285000D01*
X116003750Y-109285000D01*
X116162500Y-109126250D01*
X116162500Y-109110525D01*
X116256359Y-109016667D01*
X116310910Y-109101441D01*
X116337500Y-109119609D01*
X116337500Y-109126250D01*
X116496250Y-109285000D01*
X116551309Y-109285000D01*
X116604589Y-109262931D01*
X116775000Y-109297440D01*
X116910974Y-109297440D01*
X116947852Y-109482839D01*
X117112599Y-109729401D01*
X118369321Y-110986123D01*
X118310569Y-111072110D01*
X118259560Y-111324000D01*
X118259560Y-112824000D01*
X118303838Y-113059317D01*
X118442910Y-113275441D01*
X118511006Y-113321969D01*
X118368673Y-113464302D01*
X118272000Y-113697691D01*
X118272000Y-114288250D01*
X118430750Y-114447000D01*
X119405000Y-114447000D01*
X119405000Y-114427000D01*
X119659000Y-114427000D01*
X119659000Y-114447000D01*
X120633250Y-114447000D01*
X120675000Y-114405250D01*
X120716750Y-114447000D01*
X121691000Y-114447000D01*
X121691000Y-114427000D01*
X121945000Y-114427000D01*
X121945000Y-114447000D01*
X121965000Y-114447000D01*
X121965000Y-114701000D01*
X121945000Y-114701000D01*
X121945000Y-115800250D01*
X122103750Y-115959000D01*
X122540000Y-115959000D01*
X122540000Y-116107968D01*
X122472862Y-116135777D01*
X122148438Y-116352549D01*
X121989501Y-116511487D01*
X121977988Y-116523000D01*
X96522013Y-116523000D01*
X96351562Y-116352550D01*
X96351561Y-116352549D01*
X96027138Y-116135776D01*
X95960000Y-116107967D01*
X95960000Y-103942804D01*
X96879596Y-104862400D01*
X96879596Y-104862400D01*
G37*
X96879596Y-104862400D02*
X97126158Y-105027147D01*
X97253400Y-105052457D01*
X97253400Y-105932039D01*
X97136481Y-106048754D01*
X96978580Y-106429023D01*
X96978221Y-106840771D01*
X97135458Y-107221315D01*
X97426354Y-107512719D01*
X97806623Y-107670620D01*
X98218371Y-107670979D01*
X98598915Y-107513742D01*
X98640000Y-107472729D01*
X98640000Y-108776310D01*
X98736673Y-109009699D01*
X98851086Y-109124112D01*
X97298638Y-110676560D01*
X96809000Y-110676560D01*
X96573683Y-110720838D01*
X96357559Y-110859910D01*
X96212569Y-111072110D01*
X96161560Y-111324000D01*
X96161560Y-112824000D01*
X96205838Y-113059317D01*
X96344910Y-113275441D01*
X96414711Y-113323134D01*
X96357559Y-113359910D01*
X96212569Y-113572110D01*
X96161560Y-113824000D01*
X96161560Y-115324000D01*
X96205838Y-115559317D01*
X96344910Y-115775441D01*
X96557110Y-115920431D01*
X96809000Y-115971440D01*
X98059000Y-115971440D01*
X98294317Y-115927162D01*
X98510441Y-115788090D01*
X98655431Y-115575890D01*
X98703910Y-115336491D01*
X98745838Y-115559317D01*
X98884910Y-115775441D01*
X99097110Y-115920431D01*
X99349000Y-115971440D01*
X100599000Y-115971440D01*
X100834317Y-115927162D01*
X101050441Y-115788090D01*
X101195431Y-115575890D01*
X101246440Y-115324000D01*
X101246440Y-114251362D01*
X101442000Y-114055802D01*
X101597560Y-114211362D01*
X101597560Y-115284000D01*
X101641838Y-115519317D01*
X101780910Y-115735441D01*
X101993110Y-115880431D01*
X102245000Y-115931440D01*
X103495000Y-115931440D01*
X103730317Y-115887162D01*
X103946441Y-115748090D01*
X104012674Y-115651155D01*
X104066910Y-115735441D01*
X104279110Y-115880431D01*
X104531000Y-115931440D01*
X105781000Y-115931440D01*
X106016317Y-115887162D01*
X106232441Y-115748090D01*
X106377431Y-115535890D01*
X106403198Y-115408649D01*
X106442838Y-115619317D01*
X106581910Y-115835441D01*
X106794110Y-115980431D01*
X107046000Y-116031440D01*
X107918638Y-116031440D01*
X108058599Y-116171401D01*
X108305160Y-116336148D01*
X108596000Y-116394000D01*
X111876000Y-116394000D01*
X112166839Y-116336148D01*
X112413401Y-116171401D01*
X112553362Y-116031440D01*
X113426000Y-116031440D01*
X113661317Y-115987162D01*
X113877441Y-115848090D01*
X114022431Y-115635890D01*
X114044993Y-115524477D01*
X114062838Y-115619317D01*
X114201910Y-115835441D01*
X114414110Y-115980431D01*
X114666000Y-116031440D01*
X115966000Y-116031440D01*
X116201317Y-115987162D01*
X116417441Y-115848090D01*
X116562431Y-115635890D01*
X116613440Y-115384000D01*
X116613440Y-114859750D01*
X118272000Y-114859750D01*
X118272000Y-115450309D01*
X118368673Y-115683698D01*
X118547301Y-115862327D01*
X118780690Y-115959000D01*
X119246250Y-115959000D01*
X119405000Y-115800250D01*
X119405000Y-114701000D01*
X119659000Y-114701000D01*
X119659000Y-115800250D01*
X119817750Y-115959000D01*
X120283310Y-115959000D01*
X120516699Y-115862327D01*
X120675000Y-115704025D01*
X120833301Y-115862327D01*
X121066690Y-115959000D01*
X121532250Y-115959000D01*
X121691000Y-115800250D01*
X121691000Y-114701000D01*
X120716750Y-114701000D01*
X120675000Y-114742750D01*
X120633250Y-114701000D01*
X119659000Y-114701000D01*
X119405000Y-114701000D01*
X118430750Y-114701000D01*
X118272000Y-114859750D01*
X116613440Y-114859750D01*
X116613440Y-113884000D01*
X116569162Y-113648683D01*
X116430090Y-113432559D01*
X116217890Y-113287569D01*
X116204803Y-113284919D01*
X116417441Y-113148090D01*
X116562431Y-112935890D01*
X116613440Y-112684000D01*
X116613440Y-111184000D01*
X116569162Y-110948683D01*
X116430090Y-110732559D01*
X116217890Y-110587569D01*
X115966000Y-110536560D01*
X115093362Y-110536560D01*
X113836931Y-109280129D01*
X113848691Y-109285000D01*
X113903750Y-109285000D01*
X114062500Y-109126250D01*
X114062500Y-109110525D01*
X114150000Y-109023026D01*
X114237500Y-109110525D01*
X114237500Y-109126250D01*
X114396250Y-109285000D01*
X114451309Y-109285000D01*
X114500000Y-109264832D01*
X114548691Y-109285000D01*
X114603750Y-109285000D01*
X114762500Y-109126250D01*
X114762500Y-109110525D01*
X114850000Y-109023026D01*
X114937500Y-109110525D01*
X114937500Y-109126250D01*
X115096250Y-109285000D01*
X115151309Y-109285000D01*
X115200000Y-109264832D01*
X115248691Y-109285000D01*
X115303750Y-109285000D01*
X115462500Y-109126250D01*
X115462500Y-109110525D01*
X115550000Y-109023026D01*
X115637500Y-109110525D01*
X115637500Y-109126250D01*
X115796250Y-109285000D01*
X115851309Y-109285000D01*
X115900000Y-109264832D01*
X115948691Y-109285000D01*
X116003750Y-109285000D01*
X116162500Y-109126250D01*
X116162500Y-109110525D01*
X116256359Y-109016667D01*
X116310910Y-109101441D01*
X116337500Y-109119609D01*
X116337500Y-109126250D01*
X116496250Y-109285000D01*
X116551309Y-109285000D01*
X116604589Y-109262931D01*
X116775000Y-109297440D01*
X116910974Y-109297440D01*
X116947852Y-109482839D01*
X117112599Y-109729401D01*
X118369321Y-110986123D01*
X118310569Y-111072110D01*
X118259560Y-111324000D01*
X118259560Y-112824000D01*
X118303838Y-113059317D01*
X118442910Y-113275441D01*
X118511006Y-113321969D01*
X118368673Y-113464302D01*
X118272000Y-113697691D01*
X118272000Y-114288250D01*
X118430750Y-114447000D01*
X119405000Y-114447000D01*
X119405000Y-114427000D01*
X119659000Y-114427000D01*
X119659000Y-114447000D01*
X120633250Y-114447000D01*
X120675000Y-114405250D01*
X120716750Y-114447000D01*
X121691000Y-114447000D01*
X121691000Y-114427000D01*
X121945000Y-114427000D01*
X121945000Y-114447000D01*
X121965000Y-114447000D01*
X121965000Y-114701000D01*
X121945000Y-114701000D01*
X121945000Y-115800250D01*
X122103750Y-115959000D01*
X122540000Y-115959000D01*
X122540000Y-116107968D01*
X122472862Y-116135777D01*
X122148438Y-116352549D01*
X121989501Y-116511487D01*
X121977988Y-116523000D01*
X96522013Y-116523000D01*
X96351562Y-116352550D01*
X96351561Y-116352549D01*
X96027138Y-116135776D01*
X95960000Y-116107967D01*
X95960000Y-103942804D01*
X96879596Y-104862400D01*
G36*
X105810910Y-109101441D02*
X105837500Y-109119609D01*
X105837500Y-109126250D01*
X105996250Y-109285000D01*
X106051309Y-109285000D01*
X106104589Y-109262931D01*
X106275000Y-109297440D01*
X106625000Y-109297440D01*
X106799469Y-109264611D01*
X106848691Y-109285000D01*
X106903750Y-109285000D01*
X107062500Y-109126250D01*
X107062500Y-109123061D01*
X107076441Y-109114090D01*
X107143265Y-109016290D01*
X107237500Y-109110525D01*
X107237500Y-109126250D01*
X107396250Y-109285000D01*
X107451309Y-109285000D01*
X107500000Y-109264832D01*
X107548691Y-109285000D01*
X107603750Y-109285000D01*
X107722998Y-109165752D01*
X107722998Y-109285000D01*
X107790000Y-109285000D01*
X107790000Y-109765198D01*
X107158599Y-110396599D01*
X107065080Y-110536560D01*
X107046000Y-110536560D01*
X106810683Y-110580838D01*
X106594559Y-110719910D01*
X106449569Y-110932110D01*
X106407865Y-111138051D01*
X106319327Y-110924302D01*
X106140699Y-110745673D01*
X105907310Y-110649000D01*
X105441750Y-110649000D01*
X105283000Y-110807750D01*
X105283000Y-111907000D01*
X105303000Y-111907000D01*
X105303000Y-112161000D01*
X105283000Y-112161000D01*
X105283000Y-112181000D01*
X105029000Y-112181000D01*
X105029000Y-112161000D01*
X104054750Y-112161000D01*
X104013000Y-112202750D01*
X103971250Y-112161000D01*
X102997000Y-112161000D01*
X102997000Y-112181000D01*
X102743000Y-112181000D01*
X102743000Y-112161000D01*
X102723000Y-112161000D01*
X102723000Y-111907000D01*
X102743000Y-111907000D01*
X102743000Y-111887000D01*
X102997000Y-111887000D01*
X102997000Y-111907000D01*
X103971250Y-111907000D01*
X104013000Y-111865250D01*
X104054750Y-111907000D01*
X105029000Y-111907000D01*
X105029000Y-110807750D01*
X104870250Y-110649000D01*
X104404690Y-110649000D01*
X104171301Y-110745673D01*
X104013000Y-110903975D01*
X103854699Y-110745673D01*
X103621310Y-110649000D01*
X103155750Y-110649000D01*
X102997002Y-110807748D01*
X102997002Y-110702210D01*
X103487401Y-110211811D01*
X103652148Y-109965250D01*
X103710000Y-109674410D01*
X103710000Y-109297440D01*
X103825000Y-109297440D01*
X103999469Y-109264611D01*
X104048691Y-109285000D01*
X104103750Y-109285000D01*
X104262500Y-109126250D01*
X104262500Y-109123061D01*
X104276441Y-109114090D01*
X104349884Y-109006603D01*
X104410910Y-109101441D01*
X104437500Y-109119609D01*
X104437500Y-109126250D01*
X104596250Y-109285000D01*
X104651309Y-109285000D01*
X104704589Y-109262931D01*
X104875000Y-109297440D01*
X105225000Y-109297440D01*
X105399469Y-109264611D01*
X105448691Y-109285000D01*
X105503750Y-109285000D01*
X105662500Y-109126250D01*
X105662500Y-109123061D01*
X105676441Y-109114090D01*
X105749884Y-109006603D01*
X105810910Y-109101441D01*
X105810910Y-109101441D01*
G37*
X105810910Y-109101441D02*
X105837500Y-109119609D01*
X105837500Y-109126250D01*
X105996250Y-109285000D01*
X106051309Y-109285000D01*
X106104589Y-109262931D01*
X106275000Y-109297440D01*
X106625000Y-109297440D01*
X106799469Y-109264611D01*
X106848691Y-109285000D01*
X106903750Y-109285000D01*
X107062500Y-109126250D01*
X107062500Y-109123061D01*
X107076441Y-109114090D01*
X107143265Y-109016290D01*
X107237500Y-109110525D01*
X107237500Y-109126250D01*
X107396250Y-109285000D01*
X107451309Y-109285000D01*
X107500000Y-109264832D01*
X107548691Y-109285000D01*
X107603750Y-109285000D01*
X107722998Y-109165752D01*
X107722998Y-109285000D01*
X107790000Y-109285000D01*
X107790000Y-109765198D01*
X107158599Y-110396599D01*
X107065080Y-110536560D01*
X107046000Y-110536560D01*
X106810683Y-110580838D01*
X106594559Y-110719910D01*
X106449569Y-110932110D01*
X106407865Y-111138051D01*
X106319327Y-110924302D01*
X106140699Y-110745673D01*
X105907310Y-110649000D01*
X105441750Y-110649000D01*
X105283000Y-110807750D01*
X105283000Y-111907000D01*
X105303000Y-111907000D01*
X105303000Y-112161000D01*
X105283000Y-112161000D01*
X105283000Y-112181000D01*
X105029000Y-112181000D01*
X105029000Y-112161000D01*
X104054750Y-112161000D01*
X104013000Y-112202750D01*
X103971250Y-112161000D01*
X102997000Y-112161000D01*
X102997000Y-112181000D01*
X102743000Y-112181000D01*
X102743000Y-112161000D01*
X102723000Y-112161000D01*
X102723000Y-111907000D01*
X102743000Y-111907000D01*
X102743000Y-111887000D01*
X102997000Y-111887000D01*
X102997000Y-111907000D01*
X103971250Y-111907000D01*
X104013000Y-111865250D01*
X104054750Y-111907000D01*
X105029000Y-111907000D01*
X105029000Y-110807750D01*
X104870250Y-110649000D01*
X104404690Y-110649000D01*
X104171301Y-110745673D01*
X104013000Y-110903975D01*
X103854699Y-110745673D01*
X103621310Y-110649000D01*
X103155750Y-110649000D01*
X102997002Y-110807748D01*
X102997002Y-110702210D01*
X103487401Y-110211811D01*
X103652148Y-109965250D01*
X103710000Y-109674410D01*
X103710000Y-109297440D01*
X103825000Y-109297440D01*
X103999469Y-109264611D01*
X104048691Y-109285000D01*
X104103750Y-109285000D01*
X104262500Y-109126250D01*
X104262500Y-109123061D01*
X104276441Y-109114090D01*
X104349884Y-109006603D01*
X104410910Y-109101441D01*
X104437500Y-109119609D01*
X104437500Y-109126250D01*
X104596250Y-109285000D01*
X104651309Y-109285000D01*
X104704589Y-109262931D01*
X104875000Y-109297440D01*
X105225000Y-109297440D01*
X105399469Y-109264611D01*
X105448691Y-109285000D01*
X105503750Y-109285000D01*
X105662500Y-109126250D01*
X105662500Y-109123061D01*
X105676441Y-109114090D01*
X105749884Y-109006603D01*
X105810910Y-109101441D01*
G36*
X110037500Y-109110525D02*
X110037500Y-109126250D01*
X110196250Y-109285000D01*
X110251309Y-109285000D01*
X110300000Y-109264832D01*
X110348691Y-109285000D01*
X110403750Y-109285000D01*
X110522998Y-109165752D01*
X110522998Y-109285000D01*
X110590000Y-109285000D01*
X110590000Y-109508000D01*
X110647852Y-109798839D01*
X110812599Y-110045401D01*
X111598469Y-110831271D01*
X111529569Y-110932110D01*
X111487865Y-111138051D01*
X111399327Y-110924302D01*
X111220699Y-110745673D01*
X110987310Y-110649000D01*
X110521750Y-110649000D01*
X110363000Y-110807750D01*
X110363000Y-111907000D01*
X110383000Y-111907000D01*
X110383000Y-112161000D01*
X110363000Y-112161000D01*
X110363000Y-112181000D01*
X110109000Y-112181000D01*
X110109000Y-112161000D01*
X110089000Y-112161000D01*
X110089000Y-111907000D01*
X110109000Y-111907000D01*
X110109000Y-110807750D01*
X109950250Y-110649000D01*
X109484690Y-110649000D01*
X109251301Y-110745673D01*
X109072673Y-110924302D01*
X108984588Y-111136957D01*
X108949162Y-110948683D01*
X108873579Y-110831223D01*
X109087401Y-110617401D01*
X109252148Y-110370840D01*
X109310000Y-110080000D01*
X109310000Y-109285000D01*
X109377002Y-109285000D01*
X109377002Y-109165752D01*
X109496250Y-109285000D01*
X109551309Y-109285000D01*
X109600000Y-109264832D01*
X109648691Y-109285000D01*
X109703750Y-109285000D01*
X109862500Y-109126250D01*
X109862500Y-109110525D01*
X109950000Y-109023026D01*
X110037500Y-109110525D01*
X110037500Y-109110525D01*
G37*
X110037500Y-109110525D02*
X110037500Y-109126250D01*
X110196250Y-109285000D01*
X110251309Y-109285000D01*
X110300000Y-109264832D01*
X110348691Y-109285000D01*
X110403750Y-109285000D01*
X110522998Y-109165752D01*
X110522998Y-109285000D01*
X110590000Y-109285000D01*
X110590000Y-109508000D01*
X110647852Y-109798839D01*
X110812599Y-110045401D01*
X111598469Y-110831271D01*
X111529569Y-110932110D01*
X111487865Y-111138051D01*
X111399327Y-110924302D01*
X111220699Y-110745673D01*
X110987310Y-110649000D01*
X110521750Y-110649000D01*
X110363000Y-110807750D01*
X110363000Y-111907000D01*
X110383000Y-111907000D01*
X110383000Y-112161000D01*
X110363000Y-112161000D01*
X110363000Y-112181000D01*
X110109000Y-112181000D01*
X110109000Y-112161000D01*
X110089000Y-112161000D01*
X110089000Y-111907000D01*
X110109000Y-111907000D01*
X110109000Y-110807750D01*
X109950250Y-110649000D01*
X109484690Y-110649000D01*
X109251301Y-110745673D01*
X109072673Y-110924302D01*
X108984588Y-111136957D01*
X108949162Y-110948683D01*
X108873579Y-110831223D01*
X109087401Y-110617401D01*
X109252148Y-110370840D01*
X109310000Y-110080000D01*
X109310000Y-109285000D01*
X109377002Y-109285000D01*
X109377002Y-109165752D01*
X109496250Y-109285000D01*
X109551309Y-109285000D01*
X109600000Y-109264832D01*
X109648691Y-109285000D01*
X109703750Y-109285000D01*
X109862500Y-109126250D01*
X109862500Y-109110525D01*
X109950000Y-109023026D01*
X110037500Y-109110525D01*
G36*
X121877000Y-107223000D02*
X121897000Y-107223000D01*
X121897000Y-107477000D01*
X121877000Y-107477000D01*
X121877000Y-108576250D01*
X122035750Y-108735000D01*
X122526310Y-108735000D01*
X122540000Y-108729329D01*
X122540000Y-110696203D01*
X122443000Y-110676560D01*
X121620362Y-110676560D01*
X121480401Y-110536599D01*
X121233839Y-110371852D01*
X120943000Y-110314000D01*
X120838802Y-110314000D01*
X119809802Y-109285000D01*
X119877002Y-109285000D01*
X119877002Y-109165752D01*
X119996250Y-109285000D01*
X120051309Y-109285000D01*
X120284698Y-109188327D01*
X120463327Y-109009699D01*
X120560000Y-108776310D01*
X120560000Y-108455659D01*
X120561673Y-108459698D01*
X120740301Y-108638327D01*
X120973690Y-108735000D01*
X121464250Y-108735000D01*
X121623000Y-108576250D01*
X121623000Y-107477000D01*
X121603000Y-107477000D01*
X121603000Y-107223000D01*
X121623000Y-107223000D01*
X121623000Y-107203000D01*
X121877000Y-107203000D01*
X121877000Y-107223000D01*
X121877000Y-107223000D01*
G37*
X121877000Y-107223000D02*
X121897000Y-107223000D01*
X121897000Y-107477000D01*
X121877000Y-107477000D01*
X121877000Y-108576250D01*
X122035750Y-108735000D01*
X122526310Y-108735000D01*
X122540000Y-108729329D01*
X122540000Y-110696203D01*
X122443000Y-110676560D01*
X121620362Y-110676560D01*
X121480401Y-110536599D01*
X121233839Y-110371852D01*
X120943000Y-110314000D01*
X120838802Y-110314000D01*
X119809802Y-109285000D01*
X119877002Y-109285000D01*
X119877002Y-109165752D01*
X119996250Y-109285000D01*
X120051309Y-109285000D01*
X120284698Y-109188327D01*
X120463327Y-109009699D01*
X120560000Y-108776310D01*
X120560000Y-108455659D01*
X120561673Y-108459698D01*
X120740301Y-108638327D01*
X120973690Y-108735000D01*
X121464250Y-108735000D01*
X121623000Y-108576250D01*
X121623000Y-107477000D01*
X121603000Y-107477000D01*
X121603000Y-107223000D01*
X121623000Y-107223000D01*
X121623000Y-107203000D01*
X121877000Y-107203000D01*
X121877000Y-107223000D01*
G36*
X115598750Y-106523000D02*
X115697000Y-106523000D01*
X115697000Y-106777000D01*
X115598750Y-106777000D01*
X115550000Y-106825750D01*
X115501250Y-106777000D01*
X114898750Y-106777000D01*
X114850000Y-106825750D01*
X114801250Y-106777000D01*
X114198750Y-106777000D01*
X114150000Y-106825750D01*
X114101250Y-106777000D01*
X114003000Y-106777000D01*
X114003000Y-106523000D01*
X114101250Y-106523000D01*
X114150000Y-106474250D01*
X114198750Y-106523000D01*
X114801250Y-106523000D01*
X114850000Y-106474250D01*
X114898750Y-106523000D01*
X115501250Y-106523000D01*
X115550000Y-106474250D01*
X115598750Y-106523000D01*
X115598750Y-106523000D01*
G37*
X115598750Y-106523000D02*
X115697000Y-106523000D01*
X115697000Y-106777000D01*
X115598750Y-106777000D01*
X115550000Y-106825750D01*
X115501250Y-106777000D01*
X114898750Y-106777000D01*
X114850000Y-106825750D01*
X114801250Y-106777000D01*
X114198750Y-106777000D01*
X114150000Y-106825750D01*
X114101250Y-106777000D01*
X114003000Y-106777000D01*
X114003000Y-106523000D01*
X114101250Y-106523000D01*
X114150000Y-106474250D01*
X114198750Y-106523000D01*
X114801250Y-106523000D01*
X114850000Y-106474250D01*
X114898750Y-106523000D01*
X115501250Y-106523000D01*
X115550000Y-106474250D01*
X115598750Y-106523000D01*
G36*
X109998750Y-106523000D02*
X110097000Y-106523000D01*
X110097000Y-106777000D01*
X109998750Y-106777000D01*
X109950000Y-106825750D01*
X109901250Y-106777000D01*
X109803000Y-106777000D01*
X109803000Y-106523000D01*
X109901250Y-106523000D01*
X109921250Y-106503000D01*
X109978750Y-106503000D01*
X109998750Y-106523000D01*
X109998750Y-106523000D01*
G37*
X109998750Y-106523000D02*
X110097000Y-106523000D01*
X110097000Y-106777000D01*
X109998750Y-106777000D01*
X109950000Y-106825750D01*
X109901250Y-106777000D01*
X109803000Y-106777000D01*
X109803000Y-106523000D01*
X109901250Y-106523000D01*
X109921250Y-106503000D01*
X109978750Y-106503000D01*
X109998750Y-106523000D01*
G36*
X119837500Y-106523000D02*
X119897000Y-106523000D01*
X119897000Y-106777000D01*
X119837500Y-106777000D01*
X119837500Y-106797000D01*
X119721250Y-106797000D01*
X119701250Y-106777000D01*
X119603000Y-106777000D01*
X119603000Y-106523000D01*
X119701250Y-106523000D01*
X119721250Y-106503000D01*
X119837500Y-106503000D01*
X119837500Y-106523000D01*
X119837500Y-106523000D01*
G37*
X119837500Y-106523000D02*
X119897000Y-106523000D01*
X119897000Y-106777000D01*
X119837500Y-106777000D01*
X119837500Y-106797000D01*
X119721250Y-106797000D01*
X119701250Y-106777000D01*
X119603000Y-106777000D01*
X119603000Y-106523000D01*
X119701250Y-106523000D01*
X119721250Y-106503000D01*
X119837500Y-106503000D01*
X119837500Y-106523000D01*
G36*
X121945000Y-93091000D02*
X121965000Y-93091000D01*
X121965000Y-93345000D01*
X121945000Y-93345000D01*
X121945000Y-94444250D01*
X122103750Y-94603000D01*
X122540000Y-94603000D01*
X122540000Y-103280911D01*
X122400000Y-103252560D01*
X121100000Y-103252560D01*
X120864683Y-103296838D01*
X120856090Y-103302367D01*
X120662240Y-103172841D01*
X120371401Y-103114989D01*
X117665009Y-103114989D01*
X117422423Y-103163243D01*
X117374169Y-103172841D01*
X117127608Y-103337588D01*
X116454599Y-104010597D01*
X116361862Y-104149388D01*
X116337500Y-104173750D01*
X116337500Y-104176939D01*
X116323559Y-104185910D01*
X116256735Y-104283710D01*
X116162500Y-104189475D01*
X116162500Y-104173750D01*
X116003750Y-104015000D01*
X115948691Y-104015000D01*
X115900000Y-104035168D01*
X115851309Y-104015000D01*
X115796250Y-104015000D01*
X115637500Y-104173750D01*
X115637500Y-104189475D01*
X115550000Y-104276974D01*
X115462500Y-104189475D01*
X115462500Y-104173750D01*
X115303750Y-104015000D01*
X115248691Y-104015000D01*
X115200000Y-104035168D01*
X115151309Y-104015000D01*
X115096250Y-104015000D01*
X114937500Y-104173750D01*
X114937500Y-104189475D01*
X114850000Y-104276974D01*
X114762500Y-104189475D01*
X114762500Y-104173750D01*
X114603750Y-104015000D01*
X114548691Y-104015000D01*
X114500000Y-104035168D01*
X114451309Y-104015000D01*
X114396250Y-104015000D01*
X114237500Y-104173750D01*
X114237500Y-104189475D01*
X114150000Y-104276974D01*
X114062500Y-104189475D01*
X114062500Y-104173750D01*
X113903750Y-104015000D01*
X113848691Y-104015000D01*
X113800000Y-104035168D01*
X113751309Y-104015000D01*
X113696250Y-104015000D01*
X113577002Y-104134248D01*
X113577002Y-104015000D01*
X113536073Y-104015000D01*
X113684820Y-103656777D01*
X113685179Y-103245029D01*
X113647335Y-103153440D01*
X113795000Y-103153440D01*
X113924589Y-103129056D01*
X114045000Y-103153440D01*
X114295000Y-103153440D01*
X114424589Y-103129056D01*
X114545000Y-103153440D01*
X114795000Y-103153440D01*
X114924589Y-103129056D01*
X115045000Y-103153440D01*
X115295000Y-103153440D01*
X115424589Y-103129056D01*
X115545000Y-103153440D01*
X115795000Y-103153440D01*
X115924589Y-103129056D01*
X116045000Y-103153440D01*
X116295000Y-103153440D01*
X116530317Y-103109162D01*
X116746441Y-102970090D01*
X116885890Y-102766000D01*
X117757072Y-102766000D01*
X118043223Y-102884820D01*
X118454971Y-102885179D01*
X118835515Y-102727942D01*
X119126919Y-102437046D01*
X119284820Y-102056777D01*
X119285179Y-101645029D01*
X119127942Y-101264485D01*
X118837046Y-100973081D01*
X118488711Y-100828440D01*
X118620000Y-100828440D01*
X118855317Y-100784162D01*
X119071441Y-100645090D01*
X119216431Y-100432890D01*
X119267440Y-100181000D01*
X119267440Y-99931000D01*
X119243056Y-99801411D01*
X119267440Y-99681000D01*
X119267440Y-99431000D01*
X119243056Y-99301411D01*
X119267440Y-99181000D01*
X119267440Y-98931000D01*
X119243056Y-98801411D01*
X119267440Y-98681000D01*
X119267440Y-98431000D01*
X119243056Y-98301411D01*
X119267440Y-98181000D01*
X119267440Y-97931000D01*
X119243056Y-97801411D01*
X119267440Y-97681000D01*
X119267440Y-97431000D01*
X119243056Y-97301411D01*
X119266054Y-97187846D01*
X119407401Y-97093401D01*
X120387401Y-96113401D01*
X120552148Y-95866840D01*
X120610000Y-95576000D01*
X120610000Y-94219848D01*
X120654673Y-94327698D01*
X120833301Y-94506327D01*
X121066690Y-94603000D01*
X121532250Y-94603000D01*
X121691000Y-94444250D01*
X121691000Y-93345000D01*
X121671000Y-93345000D01*
X121671000Y-93091000D01*
X121691000Y-93091000D01*
X121691000Y-93071000D01*
X121945000Y-93071000D01*
X121945000Y-93091000D01*
X121945000Y-93091000D01*
G37*
X121945000Y-93091000D02*
X121965000Y-93091000D01*
X121965000Y-93345000D01*
X121945000Y-93345000D01*
X121945000Y-94444250D01*
X122103750Y-94603000D01*
X122540000Y-94603000D01*
X122540000Y-103280911D01*
X122400000Y-103252560D01*
X121100000Y-103252560D01*
X120864683Y-103296838D01*
X120856090Y-103302367D01*
X120662240Y-103172841D01*
X120371401Y-103114989D01*
X117665009Y-103114989D01*
X117422423Y-103163243D01*
X117374169Y-103172841D01*
X117127608Y-103337588D01*
X116454599Y-104010597D01*
X116361862Y-104149388D01*
X116337500Y-104173750D01*
X116337500Y-104176939D01*
X116323559Y-104185910D01*
X116256735Y-104283710D01*
X116162500Y-104189475D01*
X116162500Y-104173750D01*
X116003750Y-104015000D01*
X115948691Y-104015000D01*
X115900000Y-104035168D01*
X115851309Y-104015000D01*
X115796250Y-104015000D01*
X115637500Y-104173750D01*
X115637500Y-104189475D01*
X115550000Y-104276974D01*
X115462500Y-104189475D01*
X115462500Y-104173750D01*
X115303750Y-104015000D01*
X115248691Y-104015000D01*
X115200000Y-104035168D01*
X115151309Y-104015000D01*
X115096250Y-104015000D01*
X114937500Y-104173750D01*
X114937500Y-104189475D01*
X114850000Y-104276974D01*
X114762500Y-104189475D01*
X114762500Y-104173750D01*
X114603750Y-104015000D01*
X114548691Y-104015000D01*
X114500000Y-104035168D01*
X114451309Y-104015000D01*
X114396250Y-104015000D01*
X114237500Y-104173750D01*
X114237500Y-104189475D01*
X114150000Y-104276974D01*
X114062500Y-104189475D01*
X114062500Y-104173750D01*
X113903750Y-104015000D01*
X113848691Y-104015000D01*
X113800000Y-104035168D01*
X113751309Y-104015000D01*
X113696250Y-104015000D01*
X113577002Y-104134248D01*
X113577002Y-104015000D01*
X113536073Y-104015000D01*
X113684820Y-103656777D01*
X113685179Y-103245029D01*
X113647335Y-103153440D01*
X113795000Y-103153440D01*
X113924589Y-103129056D01*
X114045000Y-103153440D01*
X114295000Y-103153440D01*
X114424589Y-103129056D01*
X114545000Y-103153440D01*
X114795000Y-103153440D01*
X114924589Y-103129056D01*
X115045000Y-103153440D01*
X115295000Y-103153440D01*
X115424589Y-103129056D01*
X115545000Y-103153440D01*
X115795000Y-103153440D01*
X115924589Y-103129056D01*
X116045000Y-103153440D01*
X116295000Y-103153440D01*
X116530317Y-103109162D01*
X116746441Y-102970090D01*
X116885890Y-102766000D01*
X117757072Y-102766000D01*
X118043223Y-102884820D01*
X118454971Y-102885179D01*
X118835515Y-102727942D01*
X119126919Y-102437046D01*
X119284820Y-102056777D01*
X119285179Y-101645029D01*
X119127942Y-101264485D01*
X118837046Y-100973081D01*
X118488711Y-100828440D01*
X118620000Y-100828440D01*
X118855317Y-100784162D01*
X119071441Y-100645090D01*
X119216431Y-100432890D01*
X119267440Y-100181000D01*
X119267440Y-99931000D01*
X119243056Y-99801411D01*
X119267440Y-99681000D01*
X119267440Y-99431000D01*
X119243056Y-99301411D01*
X119267440Y-99181000D01*
X119267440Y-98931000D01*
X119243056Y-98801411D01*
X119267440Y-98681000D01*
X119267440Y-98431000D01*
X119243056Y-98301411D01*
X119267440Y-98181000D01*
X119267440Y-97931000D01*
X119243056Y-97801411D01*
X119267440Y-97681000D01*
X119267440Y-97431000D01*
X119243056Y-97301411D01*
X119266054Y-97187846D01*
X119407401Y-97093401D01*
X120387401Y-96113401D01*
X120552148Y-95866840D01*
X120610000Y-95576000D01*
X120610000Y-94219848D01*
X120654673Y-94327698D01*
X120833301Y-94506327D01*
X121066690Y-94603000D01*
X121532250Y-94603000D01*
X121691000Y-94444250D01*
X121691000Y-93345000D01*
X121671000Y-93345000D01*
X121671000Y-93091000D01*
X121691000Y-93091000D01*
X121691000Y-93071000D01*
X121945000Y-93071000D01*
X121945000Y-93091000D01*
G36*
X111833000Y-96610239D02*
X111716081Y-96726954D01*
X111558180Y-97107223D01*
X111557821Y-97518971D01*
X111715058Y-97899515D01*
X112005954Y-98190919D01*
X112386223Y-98348820D01*
X112797971Y-98349179D01*
X113164933Y-98197554D01*
X113529223Y-98348820D01*
X113940971Y-98349179D01*
X114307933Y-98197554D01*
X114672223Y-98348820D01*
X115083971Y-98349179D01*
X115450933Y-98197554D01*
X115815223Y-98348820D01*
X115875983Y-98348873D01*
X115875821Y-98534971D01*
X116033058Y-98915515D01*
X116323954Y-99206919D01*
X116704223Y-99364820D01*
X116985912Y-99365066D01*
X116972560Y-99431000D01*
X116972560Y-99681000D01*
X116996944Y-99810589D01*
X116972560Y-99931000D01*
X116972560Y-100181000D01*
X117016838Y-100416317D01*
X117155910Y-100632441D01*
X117368110Y-100777431D01*
X117620000Y-100828440D01*
X118012068Y-100828440D01*
X117664485Y-100972058D01*
X117390065Y-101246000D01*
X116882279Y-101246000D01*
X116759090Y-101054559D01*
X116546890Y-100909569D01*
X116295000Y-100858560D01*
X116045000Y-100858560D01*
X115915411Y-100882944D01*
X115795000Y-100858560D01*
X115545000Y-100858560D01*
X115415411Y-100882944D01*
X115295000Y-100858560D01*
X115045000Y-100858560D01*
X114915411Y-100882944D01*
X114795000Y-100858560D01*
X114545000Y-100858560D01*
X114415411Y-100882944D01*
X114295000Y-100858560D01*
X114045000Y-100858560D01*
X113915411Y-100882944D01*
X113795000Y-100858560D01*
X113545000Y-100858560D01*
X113415411Y-100882944D01*
X113295000Y-100858560D01*
X113045000Y-100858560D01*
X112915411Y-100882944D01*
X112795000Y-100858560D01*
X112545000Y-100858560D01*
X112415411Y-100882944D01*
X112295000Y-100858560D01*
X112045000Y-100858560D01*
X111915411Y-100882944D01*
X111795000Y-100858560D01*
X111545000Y-100858560D01*
X111415411Y-100882944D01*
X111295000Y-100858560D01*
X111045000Y-100858560D01*
X110915411Y-100882944D01*
X110795000Y-100858560D01*
X110545000Y-100858560D01*
X110415411Y-100882944D01*
X110295000Y-100858560D01*
X110045000Y-100858560D01*
X109915411Y-100882944D01*
X109795000Y-100858560D01*
X109545000Y-100858560D01*
X109415411Y-100882944D01*
X109295000Y-100858560D01*
X109045000Y-100858560D01*
X108915411Y-100882944D01*
X108795000Y-100858560D01*
X108545000Y-100858560D01*
X108309683Y-100902838D01*
X108093559Y-101041910D01*
X107948569Y-101254110D01*
X107897560Y-101506000D01*
X107897560Y-102506000D01*
X107910000Y-102572113D01*
X107910000Y-102892410D01*
X107967852Y-103183249D01*
X108099316Y-103380000D01*
X106710000Y-103380000D01*
X106419161Y-103437852D01*
X106172599Y-103602599D01*
X105912599Y-103862599D01*
X105810768Y-104015000D01*
X105810000Y-104015000D01*
X105810000Y-102507375D01*
X105847658Y-102598515D01*
X106138554Y-102889919D01*
X106518823Y-103047820D01*
X106930571Y-103048179D01*
X107311115Y-102890942D01*
X107602519Y-102600046D01*
X107760420Y-102219777D01*
X107760779Y-101808029D01*
X107603542Y-101427485D01*
X107480000Y-101303727D01*
X107480000Y-100768279D01*
X107671441Y-100645090D01*
X107816431Y-100432890D01*
X107867440Y-100181000D01*
X107867440Y-99931000D01*
X107843056Y-99801411D01*
X107867440Y-99681000D01*
X107867440Y-99431000D01*
X107847550Y-99325295D01*
X107855000Y-99307310D01*
X107855000Y-99277250D01*
X107834688Y-99256938D01*
X107823162Y-99195683D01*
X107737095Y-99061931D01*
X107758327Y-99040699D01*
X107835597Y-98854153D01*
X107855000Y-98834750D01*
X107855000Y-98777250D01*
X107835597Y-98757847D01*
X107758327Y-98571301D01*
X107736662Y-98549636D01*
X107816431Y-98432890D01*
X107831558Y-98358192D01*
X107855000Y-98334750D01*
X107855000Y-98304690D01*
X107846532Y-98284247D01*
X107867440Y-98181000D01*
X107867440Y-97931000D01*
X107847550Y-97825295D01*
X107855000Y-97807310D01*
X107855000Y-97777250D01*
X107834688Y-97756938D01*
X107823162Y-97695683D01*
X107737095Y-97561931D01*
X107758327Y-97540699D01*
X107835597Y-97354153D01*
X107855000Y-97334750D01*
X107855000Y-97277250D01*
X107835597Y-97257847D01*
X107758327Y-97071301D01*
X107743026Y-97056000D01*
X107758327Y-97040699D01*
X107835597Y-96854153D01*
X107855000Y-96834750D01*
X107855000Y-96777250D01*
X107835597Y-96757847D01*
X107820432Y-96721236D01*
X107897598Y-96798402D01*
X108144160Y-96963149D01*
X108434999Y-97021001D01*
X110216999Y-97021001D01*
X110507838Y-96963149D01*
X110754400Y-96798402D01*
X110981767Y-96571035D01*
X111146971Y-96571179D01*
X111527515Y-96413942D01*
X111818919Y-96123046D01*
X111833000Y-96089135D01*
X111833000Y-96610239D01*
X111833000Y-96610239D01*
G37*
X111833000Y-96610239D02*
X111716081Y-96726954D01*
X111558180Y-97107223D01*
X111557821Y-97518971D01*
X111715058Y-97899515D01*
X112005954Y-98190919D01*
X112386223Y-98348820D01*
X112797971Y-98349179D01*
X113164933Y-98197554D01*
X113529223Y-98348820D01*
X113940971Y-98349179D01*
X114307933Y-98197554D01*
X114672223Y-98348820D01*
X115083971Y-98349179D01*
X115450933Y-98197554D01*
X115815223Y-98348820D01*
X115875983Y-98348873D01*
X115875821Y-98534971D01*
X116033058Y-98915515D01*
X116323954Y-99206919D01*
X116704223Y-99364820D01*
X116985912Y-99365066D01*
X116972560Y-99431000D01*
X116972560Y-99681000D01*
X116996944Y-99810589D01*
X116972560Y-99931000D01*
X116972560Y-100181000D01*
X117016838Y-100416317D01*
X117155910Y-100632441D01*
X117368110Y-100777431D01*
X117620000Y-100828440D01*
X118012068Y-100828440D01*
X117664485Y-100972058D01*
X117390065Y-101246000D01*
X116882279Y-101246000D01*
X116759090Y-101054559D01*
X116546890Y-100909569D01*
X116295000Y-100858560D01*
X116045000Y-100858560D01*
X115915411Y-100882944D01*
X115795000Y-100858560D01*
X115545000Y-100858560D01*
X115415411Y-100882944D01*
X115295000Y-100858560D01*
X115045000Y-100858560D01*
X114915411Y-100882944D01*
X114795000Y-100858560D01*
X114545000Y-100858560D01*
X114415411Y-100882944D01*
X114295000Y-100858560D01*
X114045000Y-100858560D01*
X113915411Y-100882944D01*
X113795000Y-100858560D01*
X113545000Y-100858560D01*
X113415411Y-100882944D01*
X113295000Y-100858560D01*
X113045000Y-100858560D01*
X112915411Y-100882944D01*
X112795000Y-100858560D01*
X112545000Y-100858560D01*
X112415411Y-100882944D01*
X112295000Y-100858560D01*
X112045000Y-100858560D01*
X111915411Y-100882944D01*
X111795000Y-100858560D01*
X111545000Y-100858560D01*
X111415411Y-100882944D01*
X111295000Y-100858560D01*
X111045000Y-100858560D01*
X110915411Y-100882944D01*
X110795000Y-100858560D01*
X110545000Y-100858560D01*
X110415411Y-100882944D01*
X110295000Y-100858560D01*
X110045000Y-100858560D01*
X109915411Y-100882944D01*
X109795000Y-100858560D01*
X109545000Y-100858560D01*
X109415411Y-100882944D01*
X109295000Y-100858560D01*
X109045000Y-100858560D01*
X108915411Y-100882944D01*
X108795000Y-100858560D01*
X108545000Y-100858560D01*
X108309683Y-100902838D01*
X108093559Y-101041910D01*
X107948569Y-101254110D01*
X107897560Y-101506000D01*
X107897560Y-102506000D01*
X107910000Y-102572113D01*
X107910000Y-102892410D01*
X107967852Y-103183249D01*
X108099316Y-103380000D01*
X106710000Y-103380000D01*
X106419161Y-103437852D01*
X106172599Y-103602599D01*
X105912599Y-103862599D01*
X105810768Y-104015000D01*
X105810000Y-104015000D01*
X105810000Y-102507375D01*
X105847658Y-102598515D01*
X106138554Y-102889919D01*
X106518823Y-103047820D01*
X106930571Y-103048179D01*
X107311115Y-102890942D01*
X107602519Y-102600046D01*
X107760420Y-102219777D01*
X107760779Y-101808029D01*
X107603542Y-101427485D01*
X107480000Y-101303727D01*
X107480000Y-100768279D01*
X107671441Y-100645090D01*
X107816431Y-100432890D01*
X107867440Y-100181000D01*
X107867440Y-99931000D01*
X107843056Y-99801411D01*
X107867440Y-99681000D01*
X107867440Y-99431000D01*
X107847550Y-99325295D01*
X107855000Y-99307310D01*
X107855000Y-99277250D01*
X107834688Y-99256938D01*
X107823162Y-99195683D01*
X107737095Y-99061931D01*
X107758327Y-99040699D01*
X107835597Y-98854153D01*
X107855000Y-98834750D01*
X107855000Y-98777250D01*
X107835597Y-98757847D01*
X107758327Y-98571301D01*
X107736662Y-98549636D01*
X107816431Y-98432890D01*
X107831558Y-98358192D01*
X107855000Y-98334750D01*
X107855000Y-98304690D01*
X107846532Y-98284247D01*
X107867440Y-98181000D01*
X107867440Y-97931000D01*
X107847550Y-97825295D01*
X107855000Y-97807310D01*
X107855000Y-97777250D01*
X107834688Y-97756938D01*
X107823162Y-97695683D01*
X107737095Y-97561931D01*
X107758327Y-97540699D01*
X107835597Y-97354153D01*
X107855000Y-97334750D01*
X107855000Y-97277250D01*
X107835597Y-97257847D01*
X107758327Y-97071301D01*
X107743026Y-97056000D01*
X107758327Y-97040699D01*
X107835597Y-96854153D01*
X107855000Y-96834750D01*
X107855000Y-96777250D01*
X107835597Y-96757847D01*
X107820432Y-96721236D01*
X107897598Y-96798402D01*
X108144160Y-96963149D01*
X108434999Y-97021001D01*
X110216999Y-97021001D01*
X110507838Y-96963149D01*
X110754400Y-96798402D01*
X110981767Y-96571035D01*
X111146971Y-96571179D01*
X111527515Y-96413942D01*
X111818919Y-96123046D01*
X111833000Y-96089135D01*
X111833000Y-96610239D01*
G36*
X99314560Y-97968000D02*
X99358838Y-98203317D01*
X99497910Y-98419441D01*
X99710110Y-98564431D01*
X99793977Y-98581414D01*
X99659559Y-98667910D01*
X99514569Y-98880110D01*
X99463560Y-99132000D01*
X99463560Y-100632000D01*
X99507838Y-100867317D01*
X99646910Y-101083441D01*
X99715006Y-101129969D01*
X99572673Y-101272302D01*
X99476000Y-101505691D01*
X99476000Y-102096250D01*
X99634750Y-102255000D01*
X100609000Y-102255000D01*
X100609000Y-102235000D01*
X100863000Y-102235000D01*
X100863000Y-102255000D01*
X101837250Y-102255000D01*
X101996000Y-102096250D01*
X101996000Y-101505691D01*
X101899327Y-101272302D01*
X101758090Y-101131064D01*
X101812441Y-101096090D01*
X101957431Y-100883890D01*
X102008440Y-100632000D01*
X102008440Y-99132000D01*
X101964162Y-98896683D01*
X101825090Y-98680559D01*
X101725945Y-98612816D01*
X101947317Y-98571162D01*
X102163441Y-98432090D01*
X102308431Y-98219890D01*
X102359440Y-97968000D01*
X102359440Y-97698920D01*
X102499401Y-97605401D01*
X103288802Y-96816000D01*
X105585000Y-96816000D01*
X105585000Y-96834750D01*
X105604403Y-96854153D01*
X105681673Y-97040699D01*
X105696974Y-97056000D01*
X105681673Y-97071301D01*
X105604403Y-97257847D01*
X105585000Y-97277250D01*
X105585000Y-97296000D01*
X105485000Y-97296000D01*
X105194160Y-97353852D01*
X104947599Y-97518599D01*
X103981638Y-98484560D01*
X103159000Y-98484560D01*
X102923683Y-98528838D01*
X102707559Y-98667910D01*
X102562569Y-98880110D01*
X102511560Y-99132000D01*
X102511560Y-100632000D01*
X102555838Y-100867317D01*
X102694910Y-101083441D01*
X102763006Y-101129969D01*
X102620673Y-101272302D01*
X102524000Y-101505691D01*
X102524000Y-102096250D01*
X102682750Y-102255000D01*
X103657000Y-102255000D01*
X103657000Y-102235000D01*
X103911000Y-102235000D01*
X103911000Y-102255000D01*
X103931000Y-102255000D01*
X103931000Y-102509000D01*
X103911000Y-102509000D01*
X103911000Y-102529000D01*
X103657000Y-102529000D01*
X103657000Y-102509000D01*
X102682750Y-102509000D01*
X102524000Y-102667750D01*
X102524000Y-103258309D01*
X102620673Y-103491698D01*
X102696202Y-103567227D01*
X102685001Y-103564999D01*
X101826026Y-103564999D01*
X101899327Y-103491698D01*
X101996000Y-103258309D01*
X101996000Y-102667750D01*
X101837250Y-102509000D01*
X100863000Y-102509000D01*
X100863000Y-102529000D01*
X100609000Y-102529000D01*
X100609000Y-102509000D01*
X99634750Y-102509000D01*
X99476000Y-102667750D01*
X99476000Y-103258309D01*
X99572673Y-103491698D01*
X99645974Y-103564999D01*
X98524026Y-103564999D01*
X98597327Y-103491698D01*
X98694000Y-103258309D01*
X98694000Y-102667750D01*
X98535250Y-102509000D01*
X97561000Y-102509000D01*
X97561000Y-102529000D01*
X97307000Y-102529000D01*
X97307000Y-102509000D01*
X97287000Y-102509000D01*
X97287000Y-102255000D01*
X97307000Y-102255000D01*
X97307000Y-102235000D01*
X97561000Y-102235000D01*
X97561000Y-102255000D01*
X98535250Y-102255000D01*
X98694000Y-102096250D01*
X98694000Y-101505691D01*
X98597327Y-101272302D01*
X98456090Y-101131064D01*
X98510441Y-101096090D01*
X98655431Y-100883890D01*
X98706440Y-100632000D01*
X98706440Y-99132000D01*
X98662162Y-98896683D01*
X98523090Y-98680559D01*
X98427785Y-98615440D01*
X98462000Y-98615440D01*
X98697317Y-98571162D01*
X98913441Y-98432090D01*
X99058431Y-98219890D01*
X99109440Y-97968000D01*
X99109440Y-96595362D01*
X99314560Y-96390242D01*
X99314560Y-97968000D01*
X99314560Y-97968000D01*
G37*
X99314560Y-97968000D02*
X99358838Y-98203317D01*
X99497910Y-98419441D01*
X99710110Y-98564431D01*
X99793977Y-98581414D01*
X99659559Y-98667910D01*
X99514569Y-98880110D01*
X99463560Y-99132000D01*
X99463560Y-100632000D01*
X99507838Y-100867317D01*
X99646910Y-101083441D01*
X99715006Y-101129969D01*
X99572673Y-101272302D01*
X99476000Y-101505691D01*
X99476000Y-102096250D01*
X99634750Y-102255000D01*
X100609000Y-102255000D01*
X100609000Y-102235000D01*
X100863000Y-102235000D01*
X100863000Y-102255000D01*
X101837250Y-102255000D01*
X101996000Y-102096250D01*
X101996000Y-101505691D01*
X101899327Y-101272302D01*
X101758090Y-101131064D01*
X101812441Y-101096090D01*
X101957431Y-100883890D01*
X102008440Y-100632000D01*
X102008440Y-99132000D01*
X101964162Y-98896683D01*
X101825090Y-98680559D01*
X101725945Y-98612816D01*
X101947317Y-98571162D01*
X102163441Y-98432090D01*
X102308431Y-98219890D01*
X102359440Y-97968000D01*
X102359440Y-97698920D01*
X102499401Y-97605401D01*
X103288802Y-96816000D01*
X105585000Y-96816000D01*
X105585000Y-96834750D01*
X105604403Y-96854153D01*
X105681673Y-97040699D01*
X105696974Y-97056000D01*
X105681673Y-97071301D01*
X105604403Y-97257847D01*
X105585000Y-97277250D01*
X105585000Y-97296000D01*
X105485000Y-97296000D01*
X105194160Y-97353852D01*
X104947599Y-97518599D01*
X103981638Y-98484560D01*
X103159000Y-98484560D01*
X102923683Y-98528838D01*
X102707559Y-98667910D01*
X102562569Y-98880110D01*
X102511560Y-99132000D01*
X102511560Y-100632000D01*
X102555838Y-100867317D01*
X102694910Y-101083441D01*
X102763006Y-101129969D01*
X102620673Y-101272302D01*
X102524000Y-101505691D01*
X102524000Y-102096250D01*
X102682750Y-102255000D01*
X103657000Y-102255000D01*
X103657000Y-102235000D01*
X103911000Y-102235000D01*
X103911000Y-102255000D01*
X103931000Y-102255000D01*
X103931000Y-102509000D01*
X103911000Y-102509000D01*
X103911000Y-102529000D01*
X103657000Y-102529000D01*
X103657000Y-102509000D01*
X102682750Y-102509000D01*
X102524000Y-102667750D01*
X102524000Y-103258309D01*
X102620673Y-103491698D01*
X102696202Y-103567227D01*
X102685001Y-103564999D01*
X101826026Y-103564999D01*
X101899327Y-103491698D01*
X101996000Y-103258309D01*
X101996000Y-102667750D01*
X101837250Y-102509000D01*
X100863000Y-102509000D01*
X100863000Y-102529000D01*
X100609000Y-102529000D01*
X100609000Y-102509000D01*
X99634750Y-102509000D01*
X99476000Y-102667750D01*
X99476000Y-103258309D01*
X99572673Y-103491698D01*
X99645974Y-103564999D01*
X98524026Y-103564999D01*
X98597327Y-103491698D01*
X98694000Y-103258309D01*
X98694000Y-102667750D01*
X98535250Y-102509000D01*
X97561000Y-102509000D01*
X97561000Y-102529000D01*
X97307000Y-102529000D01*
X97307000Y-102509000D01*
X97287000Y-102509000D01*
X97287000Y-102255000D01*
X97307000Y-102255000D01*
X97307000Y-102235000D01*
X97561000Y-102235000D01*
X97561000Y-102255000D01*
X98535250Y-102255000D01*
X98694000Y-102096250D01*
X98694000Y-101505691D01*
X98597327Y-101272302D01*
X98456090Y-101131064D01*
X98510441Y-101096090D01*
X98655431Y-100883890D01*
X98706440Y-100632000D01*
X98706440Y-99132000D01*
X98662162Y-98896683D01*
X98523090Y-98680559D01*
X98427785Y-98615440D01*
X98462000Y-98615440D01*
X98697317Y-98571162D01*
X98913441Y-98432090D01*
X99058431Y-98219890D01*
X99109440Y-97968000D01*
X99109440Y-96595362D01*
X99314560Y-96390242D01*
X99314560Y-97968000D01*
M02*
