G04 #@! TF.FileFunction,Legend,Bot*
%FSLAX46Y46*%
G04 Gerber Fmt 4.6, Leading zero omitted, Abs format (unit mm)*
G04 Created by KiCad (PCBNEW 4.0.7-e2-6376~58~ubuntu16.04.1) date Fri Jun 15 00:43:23 2018*
%MOMM*%
%LPD*%
G01*
G04 APERTURE LIST*
%ADD10C,0.100000*%
%ADD11C,0.150000*%
%ADD12C,0.120000*%
%ADD13C,0.381000*%
%ADD14C,0.250190*%
%ADD15C,0.251460*%
G04 APERTURE END LIST*
D10*
D11*
X106500000Y-84031000D02*
X106500000Y-91631000D01*
X118000000Y-84031000D02*
X106500000Y-84031000D01*
X118000000Y-91631000D02*
X118000000Y-84031000D01*
D12*
X96190000Y-107400000D02*
X96190000Y-105600000D01*
X99410000Y-105600000D02*
X99410000Y-108050000D01*
D13*
X95548960Y-95947560D02*
X95548960Y-101947040D01*
X97349820Y-95851040D02*
X99249740Y-95851040D01*
X97349820Y-102048640D02*
X99249740Y-102048640D01*
D11*
X119750000Y-112850000D02*
X120250000Y-112850000D01*
X119750000Y-108850000D02*
X119750000Y-112850000D01*
X120250000Y-108850000D02*
X119750000Y-108850000D01*
X119750000Y-91650000D02*
X120250000Y-91650000D01*
X119750000Y-87650000D02*
X119750000Y-91650000D01*
X120250000Y-87650000D02*
X119750000Y-87650000D01*
X119700000Y-102350000D02*
X120200000Y-102350000D01*
X119700000Y-98350000D02*
X119700000Y-102350000D01*
X120200000Y-98350000D02*
X119700000Y-98350000D01*
D12*
X102750000Y-104500000D02*
X101750000Y-104500000D01*
X101750000Y-102800000D02*
X102750000Y-102800000D01*
X99000000Y-111250000D02*
X98000000Y-111250000D01*
X98000000Y-109550000D02*
X99000000Y-109550000D01*
X103000000Y-109550000D02*
X104000000Y-109550000D01*
X104000000Y-111250000D02*
X103000000Y-111250000D01*
X109250000Y-107250000D02*
X108250000Y-107250000D01*
X108250000Y-105550000D02*
X109250000Y-105550000D01*
X115100000Y-112900000D02*
X115100000Y-113900000D01*
X113400000Y-113900000D02*
X113400000Y-112900000D01*
X108600000Y-115550000D02*
X106900000Y-115550000D01*
X106900000Y-115550000D02*
X106900000Y-112400000D01*
X108600000Y-115550000D02*
X108600000Y-112400000D01*
X103740000Y-115680000D02*
X103740000Y-114750000D01*
X103740000Y-112520000D02*
X103740000Y-113450000D01*
X103740000Y-112520000D02*
X105900000Y-112520000D01*
X103740000Y-115680000D02*
X105200000Y-115680000D01*
X102950000Y-106020000D02*
X101750000Y-106020000D01*
X101750000Y-107780000D02*
X102950000Y-107780000D01*
X112620000Y-107200000D02*
X112620000Y-108400000D01*
X114380000Y-108400000D02*
X114380000Y-107200000D01*
X115370000Y-107150000D02*
X115370000Y-108350000D01*
X117130000Y-108350000D02*
X117130000Y-107150000D01*
X109450000Y-108020000D02*
X108250000Y-108020000D01*
X108250000Y-109780000D02*
X109450000Y-109780000D01*
X112810000Y-112350000D02*
X112810000Y-114150000D01*
X109590000Y-114150000D02*
X109590000Y-111700000D01*
D10*
X112615143Y-95074429D02*
X112615143Y-95560143D01*
X112586571Y-95617286D01*
X112558000Y-95645857D01*
X112500857Y-95674429D01*
X112386571Y-95674429D01*
X112329429Y-95645857D01*
X112300857Y-95617286D01*
X112272286Y-95560143D01*
X112272286Y-95074429D01*
X111700858Y-95074429D02*
X111986572Y-95074429D01*
X112015143Y-95360143D01*
X111986572Y-95331571D01*
X111929429Y-95303000D01*
X111786572Y-95303000D01*
X111729429Y-95331571D01*
X111700858Y-95360143D01*
X111672286Y-95417286D01*
X111672286Y-95560143D01*
X111700858Y-95617286D01*
X111729429Y-95645857D01*
X111786572Y-95674429D01*
X111929429Y-95674429D01*
X111986572Y-95645857D01*
X112015143Y-95617286D01*
D11*
X97202381Y-104638095D02*
X98011905Y-104638095D01*
X98107143Y-104685714D01*
X98154762Y-104733333D01*
X98202381Y-104828571D01*
X98202381Y-105019048D01*
X98154762Y-105114286D01*
X98107143Y-105161905D01*
X98011905Y-105209524D01*
X97202381Y-105209524D01*
X97535714Y-106114286D02*
X98202381Y-106114286D01*
X97154762Y-105876190D02*
X97869048Y-105638095D01*
X97869048Y-106257143D01*
D14*
X96832265Y-98634034D02*
X97547093Y-98634034D01*
X97690059Y-98586378D01*
X97785370Y-98491068D01*
X97833025Y-98348102D01*
X97833025Y-98252792D01*
X97833025Y-99634794D02*
X97833025Y-99062931D01*
X97833025Y-99348862D02*
X96832265Y-99348862D01*
X96975230Y-99253552D01*
X97070541Y-99158241D01*
X97118196Y-99062931D01*
D15*
D11*
X100920905Y-88304381D02*
X100920905Y-89113905D01*
X100873286Y-89209143D01*
X100825667Y-89256762D01*
X100730429Y-89304381D01*
X100539952Y-89304381D01*
X100444714Y-89256762D01*
X100397095Y-89209143D01*
X100349476Y-89113905D01*
X100349476Y-88304381D01*
X99920905Y-88399619D02*
X99873286Y-88352000D01*
X99778048Y-88304381D01*
X99539952Y-88304381D01*
X99444714Y-88352000D01*
X99397095Y-88399619D01*
X99349476Y-88494857D01*
X99349476Y-88590095D01*
X99397095Y-88732952D01*
X99968524Y-89304381D01*
X99349476Y-89304381D01*
X122154762Y-109516667D02*
X122202381Y-109659524D01*
X122202381Y-109897620D01*
X122154762Y-109992858D01*
X122107143Y-110040477D01*
X122011905Y-110088096D01*
X121916667Y-110088096D01*
X121821429Y-110040477D01*
X121773810Y-109992858D01*
X121726190Y-109897620D01*
X121678571Y-109707143D01*
X121630952Y-109611905D01*
X121583333Y-109564286D01*
X121488095Y-109516667D01*
X121392857Y-109516667D01*
X121297619Y-109564286D01*
X121250000Y-109611905D01*
X121202381Y-109707143D01*
X121202381Y-109945239D01*
X121250000Y-110088096D01*
X121202381Y-110421429D02*
X122202381Y-110659524D01*
X121488095Y-110850001D01*
X122202381Y-111040477D01*
X121202381Y-111278572D01*
X122202381Y-112183334D02*
X122202381Y-111611905D01*
X122202381Y-111897619D02*
X121202381Y-111897619D01*
X121345238Y-111802381D01*
X121440476Y-111707143D01*
X121488095Y-111611905D01*
X122154762Y-88316667D02*
X122202381Y-88459524D01*
X122202381Y-88697620D01*
X122154762Y-88792858D01*
X122107143Y-88840477D01*
X122011905Y-88888096D01*
X121916667Y-88888096D01*
X121821429Y-88840477D01*
X121773810Y-88792858D01*
X121726190Y-88697620D01*
X121678571Y-88507143D01*
X121630952Y-88411905D01*
X121583333Y-88364286D01*
X121488095Y-88316667D01*
X121392857Y-88316667D01*
X121297619Y-88364286D01*
X121250000Y-88411905D01*
X121202381Y-88507143D01*
X121202381Y-88745239D01*
X121250000Y-88888096D01*
X121202381Y-89221429D02*
X122202381Y-89459524D01*
X121488095Y-89650001D01*
X122202381Y-89840477D01*
X121202381Y-90078572D01*
X121297619Y-90411905D02*
X121250000Y-90459524D01*
X121202381Y-90554762D01*
X121202381Y-90792858D01*
X121250000Y-90888096D01*
X121297619Y-90935715D01*
X121392857Y-90983334D01*
X121488095Y-90983334D01*
X121630952Y-90935715D01*
X122202381Y-90364286D01*
X122202381Y-90983334D01*
X122104762Y-99016667D02*
X122152381Y-99159524D01*
X122152381Y-99397620D01*
X122104762Y-99492858D01*
X122057143Y-99540477D01*
X121961905Y-99588096D01*
X121866667Y-99588096D01*
X121771429Y-99540477D01*
X121723810Y-99492858D01*
X121676190Y-99397620D01*
X121628571Y-99207143D01*
X121580952Y-99111905D01*
X121533333Y-99064286D01*
X121438095Y-99016667D01*
X121342857Y-99016667D01*
X121247619Y-99064286D01*
X121200000Y-99111905D01*
X121152381Y-99207143D01*
X121152381Y-99445239D01*
X121200000Y-99588096D01*
X121152381Y-99921429D02*
X122152381Y-100159524D01*
X121438095Y-100350001D01*
X122152381Y-100540477D01*
X121152381Y-100778572D01*
X121152381Y-101064286D02*
X121152381Y-101683334D01*
X121533333Y-101350000D01*
X121533333Y-101492858D01*
X121580952Y-101588096D01*
X121628571Y-101635715D01*
X121723810Y-101683334D01*
X121961905Y-101683334D01*
X122057143Y-101635715D01*
X122104762Y-101588096D01*
X122152381Y-101492858D01*
X122152381Y-101207143D01*
X122104762Y-101111905D01*
X122057143Y-101064286D01*
X103142857Y-102507143D02*
X103190476Y-102554762D01*
X103333333Y-102602381D01*
X103428571Y-102602381D01*
X103571429Y-102554762D01*
X103666667Y-102459524D01*
X103714286Y-102364286D01*
X103761905Y-102173810D01*
X103761905Y-102030952D01*
X103714286Y-101840476D01*
X103666667Y-101745238D01*
X103571429Y-101650000D01*
X103428571Y-101602381D01*
X103333333Y-101602381D01*
X103190476Y-101650000D01*
X103142857Y-101697619D01*
X102190476Y-102602381D02*
X102761905Y-102602381D01*
X102476191Y-102602381D02*
X102476191Y-101602381D01*
X102571429Y-101745238D01*
X102666667Y-101840476D01*
X102761905Y-101888095D01*
X101809524Y-101697619D02*
X101761905Y-101650000D01*
X101666667Y-101602381D01*
X101428571Y-101602381D01*
X101333333Y-101650000D01*
X101285714Y-101697619D01*
X101238095Y-101792857D01*
X101238095Y-101888095D01*
X101285714Y-102030952D01*
X101857143Y-102602381D01*
X101238095Y-102602381D01*
X101392857Y-109257143D02*
X101440476Y-109304762D01*
X101583333Y-109352381D01*
X101678571Y-109352381D01*
X101821429Y-109304762D01*
X101916667Y-109209524D01*
X101964286Y-109114286D01*
X102011905Y-108923810D01*
X102011905Y-108780952D01*
X101964286Y-108590476D01*
X101916667Y-108495238D01*
X101821429Y-108400000D01*
X101678571Y-108352381D01*
X101583333Y-108352381D01*
X101440476Y-108400000D01*
X101392857Y-108447619D01*
X100440476Y-109352381D02*
X101011905Y-109352381D01*
X100726191Y-109352381D02*
X100726191Y-108352381D01*
X100821429Y-108495238D01*
X100916667Y-108590476D01*
X101011905Y-108638095D01*
X100107143Y-108352381D02*
X99488095Y-108352381D01*
X99821429Y-108733333D01*
X99678571Y-108733333D01*
X99583333Y-108780952D01*
X99535714Y-108828571D01*
X99488095Y-108923810D01*
X99488095Y-109161905D01*
X99535714Y-109257143D01*
X99583333Y-109304762D01*
X99678571Y-109352381D01*
X99964286Y-109352381D01*
X100059524Y-109304762D01*
X100107143Y-109257143D01*
X104642857Y-109257143D02*
X104690476Y-109304762D01*
X104833333Y-109352381D01*
X104928571Y-109352381D01*
X105071429Y-109304762D01*
X105166667Y-109209524D01*
X105214286Y-109114286D01*
X105261905Y-108923810D01*
X105261905Y-108780952D01*
X105214286Y-108590476D01*
X105166667Y-108495238D01*
X105071429Y-108400000D01*
X104928571Y-108352381D01*
X104833333Y-108352381D01*
X104690476Y-108400000D01*
X104642857Y-108447619D01*
X103690476Y-109352381D02*
X104261905Y-109352381D01*
X103976191Y-109352381D02*
X103976191Y-108352381D01*
X104071429Y-108495238D01*
X104166667Y-108590476D01*
X104261905Y-108638095D01*
X102833333Y-108685714D02*
X102833333Y-109352381D01*
X103071429Y-108304762D02*
X103309524Y-109019048D01*
X102690476Y-109019048D01*
X109392857Y-108007143D02*
X109440476Y-108054762D01*
X109583333Y-108102381D01*
X109678571Y-108102381D01*
X109821429Y-108054762D01*
X109916667Y-107959524D01*
X109964286Y-107864286D01*
X110011905Y-107673810D01*
X110011905Y-107530952D01*
X109964286Y-107340476D01*
X109916667Y-107245238D01*
X109821429Y-107150000D01*
X109678571Y-107102381D01*
X109583333Y-107102381D01*
X109440476Y-107150000D01*
X109392857Y-107197619D01*
X108440476Y-108102381D02*
X109011905Y-108102381D01*
X108726191Y-108102381D02*
X108726191Y-107102381D01*
X108821429Y-107245238D01*
X108916667Y-107340476D01*
X109011905Y-107388095D01*
X107535714Y-107102381D02*
X108011905Y-107102381D01*
X108059524Y-107578571D01*
X108011905Y-107530952D01*
X107916667Y-107483333D01*
X107678571Y-107483333D01*
X107583333Y-107530952D01*
X107535714Y-107578571D01*
X107488095Y-107673810D01*
X107488095Y-107911905D01*
X107535714Y-108007143D01*
X107583333Y-108054762D01*
X107678571Y-108102381D01*
X107916667Y-108102381D01*
X108011905Y-108054762D01*
X108059524Y-108007143D01*
X116357143Y-112757143D02*
X116404762Y-112709524D01*
X116452381Y-112566667D01*
X116452381Y-112471429D01*
X116404762Y-112328571D01*
X116309524Y-112233333D01*
X116214286Y-112185714D01*
X116023810Y-112138095D01*
X115880952Y-112138095D01*
X115690476Y-112185714D01*
X115595238Y-112233333D01*
X115500000Y-112328571D01*
X115452381Y-112471429D01*
X115452381Y-112566667D01*
X115500000Y-112709524D01*
X115547619Y-112757143D01*
X116452381Y-113709524D02*
X116452381Y-113138095D01*
X116452381Y-113423809D02*
X115452381Y-113423809D01*
X115595238Y-113328571D01*
X115690476Y-113233333D01*
X115738095Y-113138095D01*
X115452381Y-114566667D02*
X115452381Y-114376190D01*
X115500000Y-114280952D01*
X115547619Y-114233333D01*
X115690476Y-114138095D01*
X115880952Y-114090476D01*
X116261905Y-114090476D01*
X116357143Y-114138095D01*
X116404762Y-114185714D01*
X116452381Y-114280952D01*
X116452381Y-114471429D01*
X116404762Y-114566667D01*
X116357143Y-114614286D01*
X116261905Y-114661905D01*
X116023810Y-114661905D01*
X115928571Y-114614286D01*
X115880952Y-114566667D01*
X115833333Y-114471429D01*
X115833333Y-114280952D01*
X115880952Y-114185714D01*
X115928571Y-114138095D01*
X116023810Y-114090476D01*
X108202381Y-112411905D02*
X107202381Y-112411905D01*
X107202381Y-112650000D01*
X107250000Y-112792858D01*
X107345238Y-112888096D01*
X107440476Y-112935715D01*
X107630952Y-112983334D01*
X107773810Y-112983334D01*
X107964286Y-112935715D01*
X108059524Y-112888096D01*
X108154762Y-112792858D01*
X108202381Y-112650000D01*
X108202381Y-112411905D01*
X108202381Y-113935715D02*
X108202381Y-113364286D01*
X108202381Y-113650000D02*
X107202381Y-113650000D01*
X107345238Y-113554762D01*
X107440476Y-113459524D01*
X107488095Y-113364286D01*
X105095238Y-114697619D02*
X105190476Y-114650000D01*
X105285714Y-114554762D01*
X105428571Y-114411905D01*
X105523810Y-114364286D01*
X105619048Y-114364286D01*
X105571429Y-114602381D02*
X105666667Y-114554762D01*
X105761905Y-114459524D01*
X105809524Y-114269048D01*
X105809524Y-113935714D01*
X105761905Y-113745238D01*
X105666667Y-113650000D01*
X105571429Y-113602381D01*
X105380952Y-113602381D01*
X105285714Y-113650000D01*
X105190476Y-113745238D01*
X105142857Y-113935714D01*
X105142857Y-114269048D01*
X105190476Y-114459524D01*
X105285714Y-114554762D01*
X105380952Y-114602381D01*
X105571429Y-114602381D01*
X104190476Y-114602381D02*
X104761905Y-114602381D01*
X104476191Y-114602381D02*
X104476191Y-113602381D01*
X104571429Y-113745238D01*
X104666667Y-113840476D01*
X104761905Y-113888095D01*
X102516666Y-105852381D02*
X102850000Y-105376190D01*
X103088095Y-105852381D02*
X103088095Y-104852381D01*
X102707142Y-104852381D01*
X102611904Y-104900000D01*
X102564285Y-104947619D01*
X102516666Y-105042857D01*
X102516666Y-105185714D01*
X102564285Y-105280952D01*
X102611904Y-105328571D01*
X102707142Y-105376190D01*
X103088095Y-105376190D01*
X101945238Y-105280952D02*
X102040476Y-105233333D01*
X102088095Y-105185714D01*
X102135714Y-105090476D01*
X102135714Y-105042857D01*
X102088095Y-104947619D01*
X102040476Y-104900000D01*
X101945238Y-104852381D01*
X101754761Y-104852381D01*
X101659523Y-104900000D01*
X101611904Y-104947619D01*
X101564285Y-105042857D01*
X101564285Y-105090476D01*
X101611904Y-105185714D01*
X101659523Y-105233333D01*
X101754761Y-105280952D01*
X101945238Y-105280952D01*
X102040476Y-105328571D01*
X102088095Y-105376190D01*
X102135714Y-105471429D01*
X102135714Y-105661905D01*
X102088095Y-105757143D01*
X102040476Y-105804762D01*
X101945238Y-105852381D01*
X101754761Y-105852381D01*
X101659523Y-105804762D01*
X101611904Y-105757143D01*
X101564285Y-105661905D01*
X101564285Y-105471429D01*
X101611904Y-105376190D01*
X101659523Y-105328571D01*
X101754761Y-105280952D01*
X115652381Y-107633334D02*
X115176190Y-107300000D01*
X115652381Y-107061905D02*
X114652381Y-107061905D01*
X114652381Y-107442858D01*
X114700000Y-107538096D01*
X114747619Y-107585715D01*
X114842857Y-107633334D01*
X114985714Y-107633334D01*
X115080952Y-107585715D01*
X115128571Y-107538096D01*
X115176190Y-107442858D01*
X115176190Y-107061905D01*
X115652381Y-108109524D02*
X115652381Y-108300000D01*
X115604762Y-108395239D01*
X115557143Y-108442858D01*
X115414286Y-108538096D01*
X115223810Y-108585715D01*
X114842857Y-108585715D01*
X114747619Y-108538096D01*
X114700000Y-108490477D01*
X114652381Y-108395239D01*
X114652381Y-108204762D01*
X114700000Y-108109524D01*
X114747619Y-108061905D01*
X114842857Y-108014286D01*
X115080952Y-108014286D01*
X115176190Y-108061905D01*
X115223810Y-108109524D01*
X115271429Y-108204762D01*
X115271429Y-108395239D01*
X115223810Y-108490477D01*
X115176190Y-108538096D01*
X115080952Y-108585715D01*
X118402381Y-107107143D02*
X117926190Y-106773809D01*
X118402381Y-106535714D02*
X117402381Y-106535714D01*
X117402381Y-106916667D01*
X117450000Y-107011905D01*
X117497619Y-107059524D01*
X117592857Y-107107143D01*
X117735714Y-107107143D01*
X117830952Y-107059524D01*
X117878571Y-107011905D01*
X117926190Y-106916667D01*
X117926190Y-106535714D01*
X118402381Y-108059524D02*
X118402381Y-107488095D01*
X118402381Y-107773809D02*
X117402381Y-107773809D01*
X117545238Y-107678571D01*
X117640476Y-107583333D01*
X117688095Y-107488095D01*
X117402381Y-108678571D02*
X117402381Y-108773810D01*
X117450000Y-108869048D01*
X117497619Y-108916667D01*
X117592857Y-108964286D01*
X117783333Y-109011905D01*
X118021429Y-109011905D01*
X118211905Y-108964286D01*
X118307143Y-108916667D01*
X118354762Y-108869048D01*
X118402381Y-108773810D01*
X118402381Y-108678571D01*
X118354762Y-108583333D01*
X118307143Y-108535714D01*
X118211905Y-108488095D01*
X118021429Y-108440476D01*
X117783333Y-108440476D01*
X117592857Y-108488095D01*
X117497619Y-108535714D01*
X117450000Y-108583333D01*
X117402381Y-108678571D01*
X109492857Y-105602381D02*
X109826191Y-105126190D01*
X110064286Y-105602381D02*
X110064286Y-104602381D01*
X109683333Y-104602381D01*
X109588095Y-104650000D01*
X109540476Y-104697619D01*
X109492857Y-104792857D01*
X109492857Y-104935714D01*
X109540476Y-105030952D01*
X109588095Y-105078571D01*
X109683333Y-105126190D01*
X110064286Y-105126190D01*
X108540476Y-105602381D02*
X109111905Y-105602381D01*
X108826191Y-105602381D02*
X108826191Y-104602381D01*
X108921429Y-104745238D01*
X109016667Y-104840476D01*
X109111905Y-104888095D01*
X107588095Y-105602381D02*
X108159524Y-105602381D01*
X107873810Y-105602381D02*
X107873810Y-104602381D01*
X107969048Y-104745238D01*
X108064286Y-104840476D01*
X108159524Y-104888095D01*
X110702381Y-113638095D02*
X111511905Y-113638095D01*
X111607143Y-113685714D01*
X111654762Y-113733333D01*
X111702381Y-113828571D01*
X111702381Y-114019048D01*
X111654762Y-114114286D01*
X111607143Y-114161905D01*
X111511905Y-114209524D01*
X110702381Y-114209524D01*
X110702381Y-115114286D02*
X110702381Y-114923809D01*
X110750000Y-114828571D01*
X110797619Y-114780952D01*
X110940476Y-114685714D01*
X111130952Y-114638095D01*
X111511905Y-114638095D01*
X111607143Y-114685714D01*
X111654762Y-114733333D01*
X111702381Y-114828571D01*
X111702381Y-115019048D01*
X111654762Y-115114286D01*
X111607143Y-115161905D01*
X111511905Y-115209524D01*
X111273810Y-115209524D01*
X111178571Y-115161905D01*
X111130952Y-115114286D01*
X111083333Y-115019048D01*
X111083333Y-114828571D01*
X111130952Y-114733333D01*
X111178571Y-114685714D01*
X111273810Y-114638095D01*
X99785714Y-113828571D02*
X99642857Y-113876190D01*
X99595238Y-113923810D01*
X99547619Y-114019048D01*
X99547619Y-114161905D01*
X99595238Y-114257143D01*
X99642857Y-114304762D01*
X99738095Y-114352381D01*
X100119048Y-114352381D01*
X100119048Y-113352381D01*
X99785714Y-113352381D01*
X99690476Y-113400000D01*
X99642857Y-113447619D01*
X99595238Y-113542857D01*
X99595238Y-113638095D01*
X99642857Y-113733333D01*
X99690476Y-113780952D01*
X99785714Y-113828571D01*
X100119048Y-113828571D01*
X99261905Y-113352381D02*
X98690476Y-113352381D01*
X98976191Y-114352381D02*
X98976191Y-113352381D01*
X97833333Y-114352381D02*
X98404762Y-114352381D01*
X98119048Y-114352381D02*
X98119048Y-113352381D01*
X98214286Y-113495238D01*
X98309524Y-113590476D01*
X98404762Y-113638095D01*
X100880952Y-111721429D02*
X100119047Y-111721429D01*
X98130952Y-111721429D02*
X97369047Y-111721429D01*
X97749999Y-112102381D02*
X97749999Y-111340476D01*
M02*
