G04 #@! TF.FileFunction,Legend,Bot*
%FSLAX46Y46*%
G04 Gerber Fmt 4.6, Leading zero omitted, Abs format (unit mm)*
G04 Created by KiCad (PCBNEW 4.0.7-e2-6376~58~ubuntu16.04.1) date Sun May 20 00:27:38 2018*
%MOMM*%
%LPD*%
G01*
G04 APERTURE LIST*
%ADD10C,0.100000*%
%ADD11C,0.381000*%
%ADD12C,0.010000*%
%ADD13C,0.150000*%
%ADD14C,0.250190*%
%ADD15C,0.251460*%
G04 APERTURE END LIST*
D10*
X101230399Y-98096464D02*
G75*
G03X113235000Y-98100000I6004601J7806464D01*
G01*
X101231646Y-98083470D02*
G75*
G03X97895000Y-99070000I-1306646J-1716530D01*
G01*
X96455000Y-103020000D02*
X97895000Y-99070000D01*
X98535000Y-114190000D02*
X96455000Y-112110000D01*
X115935000Y-114190000D02*
X98535000Y-114190000D01*
X115935000Y-114190000D02*
X118015000Y-112110000D01*
X118015000Y-103020000D02*
X116575000Y-99070000D01*
X116560244Y-99061831D02*
G75*
G03X113235000Y-98100000I-2015244J-738169D01*
G01*
X96455000Y-112110000D02*
X96455000Y-109650000D01*
X96455000Y-103650000D02*
X96455000Y-103020000D01*
X118015000Y-112110000D02*
X118015000Y-109650000D01*
X118015000Y-103650000D02*
X118015000Y-103020000D01*
D11*
X111414440Y-88992960D02*
X105414960Y-88992960D01*
X111510960Y-90793820D02*
X111510960Y-92693740D01*
X105313360Y-90793820D02*
X105313360Y-92693740D01*
X118399440Y-88992960D02*
X114401480Y-88992960D01*
X118495960Y-90793820D02*
X118495960Y-92693740D01*
X114299880Y-90793820D02*
X114299880Y-92693740D01*
D12*
G36*
X112641420Y-110399718D02*
X112097192Y-110406482D01*
X111599503Y-110418767D01*
X111175326Y-110436572D01*
X110851634Y-110459898D01*
X110655399Y-110488744D01*
X110611600Y-110506934D01*
X110571607Y-110630244D01*
X110540935Y-110887334D01*
X110519586Y-111242906D01*
X110507559Y-111661665D01*
X110504855Y-112108311D01*
X110511472Y-112547550D01*
X110527413Y-112944083D01*
X110552675Y-113262614D01*
X110587260Y-113467845D01*
X110611600Y-113521067D01*
X110726365Y-113552945D01*
X110983399Y-113579302D01*
X111355731Y-113600139D01*
X111816388Y-113615456D01*
X112338398Y-113625252D01*
X112894786Y-113629528D01*
X113458581Y-113628284D01*
X114002809Y-113621519D01*
X114500498Y-113609234D01*
X114924675Y-113591428D01*
X115248367Y-113568103D01*
X115444602Y-113539257D01*
X115488400Y-113521067D01*
X115528394Y-113397756D01*
X115559066Y-113140666D01*
X115580415Y-112785094D01*
X115592441Y-112366336D01*
X115594574Y-112014000D01*
X115251334Y-112014000D01*
X115181440Y-112085910D01*
X115103167Y-112098896D01*
X114969573Y-112169912D01*
X114822357Y-112350731D01*
X114785667Y-112413774D01*
X114530983Y-112758723D01*
X114215595Y-112991185D01*
X113872905Y-113096053D01*
X113536318Y-113058217D01*
X113446601Y-113019420D01*
X113235702Y-112884943D01*
X113089163Y-112767568D01*
X112965027Y-112665688D01*
X112922795Y-112697545D01*
X112919830Y-112841648D01*
X112885439Y-113023151D01*
X112751888Y-113096282D01*
X112732500Y-113099389D01*
X112612973Y-113098731D01*
X112557577Y-113023317D01*
X112542344Y-112830977D01*
X112542000Y-112764261D01*
X112542000Y-112402077D01*
X112178962Y-112758372D01*
X111944045Y-112958624D01*
X111732987Y-113086271D01*
X111628629Y-113114667D01*
X111483362Y-113093082D01*
X111460524Y-113016859D01*
X111564546Y-112868796D01*
X111737667Y-112691334D01*
X111950178Y-112465583D01*
X112027563Y-112328200D01*
X111973704Y-112270852D01*
X111934834Y-112268000D01*
X111739837Y-112194596D01*
X111603528Y-112005348D01*
X111536269Y-111746705D01*
X111548425Y-111465115D01*
X111650357Y-111207026D01*
X111686901Y-111156723D01*
X111802036Y-111044770D01*
X111951243Y-110984178D01*
X112186645Y-110960032D01*
X112385401Y-110956843D01*
X112676746Y-110959680D01*
X112837334Y-110980556D01*
X112905728Y-111035599D01*
X112920494Y-111140934D01*
X112920284Y-111180502D01*
X112917567Y-111405337D01*
X113155610Y-111205037D01*
X113504288Y-111001372D01*
X113872981Y-110941623D01*
X114217573Y-111031149D01*
X114509236Y-111243433D01*
X114752705Y-111528671D01*
X114872550Y-111766982D01*
X114986332Y-111900828D01*
X115087706Y-111929334D01*
X115222158Y-111965893D01*
X115251334Y-112014000D01*
X115594574Y-112014000D01*
X115595145Y-111919689D01*
X115588529Y-111480451D01*
X115572588Y-111083918D01*
X115547326Y-110765387D01*
X115512741Y-110560155D01*
X115488401Y-110506934D01*
X115373636Y-110475056D01*
X115116602Y-110448698D01*
X114744270Y-110427861D01*
X114283613Y-110412545D01*
X113761603Y-110402749D01*
X113205215Y-110398473D01*
X112641420Y-110399718D01*
X112641420Y-110399718D01*
G37*
X112641420Y-110399718D02*
X112097192Y-110406482D01*
X111599503Y-110418767D01*
X111175326Y-110436572D01*
X110851634Y-110459898D01*
X110655399Y-110488744D01*
X110611600Y-110506934D01*
X110571607Y-110630244D01*
X110540935Y-110887334D01*
X110519586Y-111242906D01*
X110507559Y-111661665D01*
X110504855Y-112108311D01*
X110511472Y-112547550D01*
X110527413Y-112944083D01*
X110552675Y-113262614D01*
X110587260Y-113467845D01*
X110611600Y-113521067D01*
X110726365Y-113552945D01*
X110983399Y-113579302D01*
X111355731Y-113600139D01*
X111816388Y-113615456D01*
X112338398Y-113625252D01*
X112894786Y-113629528D01*
X113458581Y-113628284D01*
X114002809Y-113621519D01*
X114500498Y-113609234D01*
X114924675Y-113591428D01*
X115248367Y-113568103D01*
X115444602Y-113539257D01*
X115488400Y-113521067D01*
X115528394Y-113397756D01*
X115559066Y-113140666D01*
X115580415Y-112785094D01*
X115592441Y-112366336D01*
X115594574Y-112014000D01*
X115251334Y-112014000D01*
X115181440Y-112085910D01*
X115103167Y-112098896D01*
X114969573Y-112169912D01*
X114822357Y-112350731D01*
X114785667Y-112413774D01*
X114530983Y-112758723D01*
X114215595Y-112991185D01*
X113872905Y-113096053D01*
X113536318Y-113058217D01*
X113446601Y-113019420D01*
X113235702Y-112884943D01*
X113089163Y-112767568D01*
X112965027Y-112665688D01*
X112922795Y-112697545D01*
X112919830Y-112841648D01*
X112885439Y-113023151D01*
X112751888Y-113096282D01*
X112732500Y-113099389D01*
X112612973Y-113098731D01*
X112557577Y-113023317D01*
X112542344Y-112830977D01*
X112542000Y-112764261D01*
X112542000Y-112402077D01*
X112178962Y-112758372D01*
X111944045Y-112958624D01*
X111732987Y-113086271D01*
X111628629Y-113114667D01*
X111483362Y-113093082D01*
X111460524Y-113016859D01*
X111564546Y-112868796D01*
X111737667Y-112691334D01*
X111950178Y-112465583D01*
X112027563Y-112328200D01*
X111973704Y-112270852D01*
X111934834Y-112268000D01*
X111739837Y-112194596D01*
X111603528Y-112005348D01*
X111536269Y-111746705D01*
X111548425Y-111465115D01*
X111650357Y-111207026D01*
X111686901Y-111156723D01*
X111802036Y-111044770D01*
X111951243Y-110984178D01*
X112186645Y-110960032D01*
X112385401Y-110956843D01*
X112676746Y-110959680D01*
X112837334Y-110980556D01*
X112905728Y-111035599D01*
X112920494Y-111140934D01*
X112920284Y-111180502D01*
X112917567Y-111405337D01*
X113155610Y-111205037D01*
X113504288Y-111001372D01*
X113872981Y-110941623D01*
X114217573Y-111031149D01*
X114509236Y-111243433D01*
X114752705Y-111528671D01*
X114872550Y-111766982D01*
X114986332Y-111900828D01*
X115087706Y-111929334D01*
X115222158Y-111965893D01*
X115251334Y-112014000D01*
X115594574Y-112014000D01*
X115595145Y-111919689D01*
X115588529Y-111480451D01*
X115572588Y-111083918D01*
X115547326Y-110765387D01*
X115512741Y-110560155D01*
X115488401Y-110506934D01*
X115373636Y-110475056D01*
X115116602Y-110448698D01*
X114744270Y-110427861D01*
X114283613Y-110412545D01*
X113761603Y-110402749D01*
X113205215Y-110398473D01*
X112641420Y-110399718D01*
G36*
X114208358Y-112187197D02*
X113917758Y-112212795D01*
X113845461Y-112221597D01*
X113201588Y-112303811D01*
X113426849Y-112497572D01*
X113717680Y-112662480D01*
X114004172Y-112660027D01*
X114274554Y-112490406D01*
X114281516Y-112483515D01*
X114421456Y-112325695D01*
X114488368Y-112215080D01*
X114489334Y-112207540D01*
X114412354Y-112185151D01*
X114208358Y-112187197D01*
X114208358Y-112187197D01*
G37*
X114208358Y-112187197D02*
X113917758Y-112212795D01*
X113845461Y-112221597D01*
X113201588Y-112303811D01*
X113426849Y-112497572D01*
X113717680Y-112662480D01*
X114004172Y-112660027D01*
X114274554Y-112490406D01*
X114281516Y-112483515D01*
X114421456Y-112325695D01*
X114488368Y-112215080D01*
X114489334Y-112207540D01*
X114412354Y-112185151D01*
X114208358Y-112187197D01*
G36*
X113645241Y-111388057D02*
X113510683Y-111460974D01*
X113304725Y-111562101D01*
X113165709Y-111587974D01*
X112994499Y-111662164D01*
X112940802Y-111760000D01*
X112930390Y-111838793D01*
X112969036Y-111888412D01*
X113086545Y-111915568D01*
X113312723Y-111926971D01*
X113677379Y-111929332D01*
X113692927Y-111929334D01*
X114091991Y-111920271D01*
X114361383Y-111894368D01*
X114483745Y-111853554D01*
X114489334Y-111840818D01*
X114421215Y-111692297D01*
X114256335Y-111526402D01*
X114053909Y-111391678D01*
X113874365Y-111336667D01*
X113645241Y-111388057D01*
X113645241Y-111388057D01*
G37*
X113645241Y-111388057D02*
X113510683Y-111460974D01*
X113304725Y-111562101D01*
X113165709Y-111587974D01*
X112994499Y-111662164D01*
X112940802Y-111760000D01*
X112930390Y-111838793D01*
X112969036Y-111888412D01*
X113086545Y-111915568D01*
X113312723Y-111926971D01*
X113677379Y-111929332D01*
X113692927Y-111929334D01*
X114091991Y-111920271D01*
X114361383Y-111894368D01*
X114483745Y-111853554D01*
X114489334Y-111840818D01*
X114421215Y-111692297D01*
X114256335Y-111526402D01*
X114053909Y-111391678D01*
X113874365Y-111336667D01*
X113645241Y-111388057D01*
G36*
X112266834Y-111352469D02*
X112076144Y-111390650D01*
X112002152Y-111489468D01*
X111991667Y-111633000D01*
X112013112Y-111811089D01*
X112112436Y-111888966D01*
X112266834Y-111913531D01*
X112448813Y-111919139D01*
X112525288Y-111856773D01*
X112541860Y-111679941D01*
X112542000Y-111633000D01*
X112531302Y-111430958D01*
X112468807Y-111351645D01*
X112308911Y-111348569D01*
X112266834Y-111352469D01*
X112266834Y-111352469D01*
G37*
X112266834Y-111352469D02*
X112076144Y-111390650D01*
X112002152Y-111489468D01*
X111991667Y-111633000D01*
X112013112Y-111811089D01*
X112112436Y-111888966D01*
X112266834Y-111913531D01*
X112448813Y-111919139D01*
X112525288Y-111856773D01*
X112541860Y-111679941D01*
X112542000Y-111633000D01*
X112531302Y-111430958D01*
X112468807Y-111351645D01*
X112308911Y-111348569D01*
X112266834Y-111352469D01*
D13*
X119450000Y-104650000D02*
X119950000Y-104650000D01*
X119450000Y-100650000D02*
X119450000Y-104650000D01*
X119950000Y-100650000D02*
X119450000Y-100650000D01*
X119450000Y-94950000D02*
X119950000Y-94950000D01*
X119450000Y-90950000D02*
X119450000Y-94950000D01*
X119950000Y-90950000D02*
X119450000Y-90950000D01*
X119450000Y-114150000D02*
X119950000Y-114150000D01*
X119450000Y-110150000D02*
X119450000Y-114150000D01*
X119950000Y-110150000D02*
X119450000Y-110150000D01*
X108035714Y-110178571D02*
X107892857Y-110226190D01*
X107845238Y-110273810D01*
X107797619Y-110369048D01*
X107797619Y-110511905D01*
X107845238Y-110607143D01*
X107892857Y-110654762D01*
X107988095Y-110702381D01*
X108369048Y-110702381D01*
X108369048Y-109702381D01*
X108035714Y-109702381D01*
X107940476Y-109750000D01*
X107892857Y-109797619D01*
X107845238Y-109892857D01*
X107845238Y-109988095D01*
X107892857Y-110083333D01*
X107940476Y-110130952D01*
X108035714Y-110178571D01*
X108369048Y-110178571D01*
X107511905Y-109702381D02*
X106940476Y-109702381D01*
X107226191Y-110702381D02*
X107226191Y-109702381D01*
X106083333Y-110702381D02*
X106654762Y-110702381D01*
X106369048Y-110702381D02*
X106369048Y-109702381D01*
X106464286Y-109845238D01*
X106559524Y-109940476D01*
X106654762Y-109988095D01*
D14*
X108727966Y-90276265D02*
X108727966Y-90991093D01*
X108775622Y-91134059D01*
X108870932Y-91229370D01*
X109013898Y-91277025D01*
X109109208Y-91277025D01*
X107727206Y-91277025D02*
X108299069Y-91277025D01*
X108013138Y-91277025D02*
X108013138Y-90276265D01*
X108108448Y-90419230D01*
X108203759Y-90514541D01*
X108299069Y-90562196D01*
D15*
D14*
X116736586Y-90212765D02*
X116736586Y-90927593D01*
X116784242Y-91070559D01*
X116879552Y-91165870D01*
X117022518Y-91213525D01*
X117117828Y-91213525D01*
X116307689Y-90308075D02*
X116260034Y-90260420D01*
X116164723Y-90212765D01*
X115926447Y-90212765D01*
X115831137Y-90260420D01*
X115783481Y-90308075D01*
X115735826Y-90403386D01*
X115735826Y-90498696D01*
X115783481Y-90641662D01*
X116355344Y-91213525D01*
X115735826Y-91213525D01*
D15*
D13*
X101011905Y-93102381D02*
X101011905Y-93911905D01*
X100964286Y-94007143D01*
X100916667Y-94054762D01*
X100821429Y-94102381D01*
X100630952Y-94102381D01*
X100535714Y-94054762D01*
X100488095Y-94007143D01*
X100440476Y-93911905D01*
X100440476Y-93102381D01*
X100011905Y-93197619D02*
X99964286Y-93150000D01*
X99869048Y-93102381D01*
X99630952Y-93102381D01*
X99535714Y-93150000D01*
X99488095Y-93197619D01*
X99440476Y-93292857D01*
X99440476Y-93388095D01*
X99488095Y-93530952D01*
X100059524Y-94102381D01*
X99440476Y-94102381D01*
X121854762Y-101316667D02*
X121902381Y-101459524D01*
X121902381Y-101697620D01*
X121854762Y-101792858D01*
X121807143Y-101840477D01*
X121711905Y-101888096D01*
X121616667Y-101888096D01*
X121521429Y-101840477D01*
X121473810Y-101792858D01*
X121426190Y-101697620D01*
X121378571Y-101507143D01*
X121330952Y-101411905D01*
X121283333Y-101364286D01*
X121188095Y-101316667D01*
X121092857Y-101316667D01*
X120997619Y-101364286D01*
X120950000Y-101411905D01*
X120902381Y-101507143D01*
X120902381Y-101745239D01*
X120950000Y-101888096D01*
X120902381Y-102221429D02*
X121902381Y-102459524D01*
X121188095Y-102650001D01*
X121902381Y-102840477D01*
X120902381Y-103078572D01*
X121902381Y-103983334D02*
X121902381Y-103411905D01*
X121902381Y-103697619D02*
X120902381Y-103697619D01*
X121045238Y-103602381D01*
X121140476Y-103507143D01*
X121188095Y-103411905D01*
X121854762Y-91616667D02*
X121902381Y-91759524D01*
X121902381Y-91997620D01*
X121854762Y-92092858D01*
X121807143Y-92140477D01*
X121711905Y-92188096D01*
X121616667Y-92188096D01*
X121521429Y-92140477D01*
X121473810Y-92092858D01*
X121426190Y-91997620D01*
X121378571Y-91807143D01*
X121330952Y-91711905D01*
X121283333Y-91664286D01*
X121188095Y-91616667D01*
X121092857Y-91616667D01*
X120997619Y-91664286D01*
X120950000Y-91711905D01*
X120902381Y-91807143D01*
X120902381Y-92045239D01*
X120950000Y-92188096D01*
X120902381Y-92521429D02*
X121902381Y-92759524D01*
X121188095Y-92950001D01*
X121902381Y-93140477D01*
X120902381Y-93378572D01*
X120997619Y-93711905D02*
X120950000Y-93759524D01*
X120902381Y-93854762D01*
X120902381Y-94092858D01*
X120950000Y-94188096D01*
X120997619Y-94235715D01*
X121092857Y-94283334D01*
X121188095Y-94283334D01*
X121330952Y-94235715D01*
X121902381Y-93664286D01*
X121902381Y-94283334D01*
X121854762Y-110816667D02*
X121902381Y-110959524D01*
X121902381Y-111197620D01*
X121854762Y-111292858D01*
X121807143Y-111340477D01*
X121711905Y-111388096D01*
X121616667Y-111388096D01*
X121521429Y-111340477D01*
X121473810Y-111292858D01*
X121426190Y-111197620D01*
X121378571Y-111007143D01*
X121330952Y-110911905D01*
X121283333Y-110864286D01*
X121188095Y-110816667D01*
X121092857Y-110816667D01*
X120997619Y-110864286D01*
X120950000Y-110911905D01*
X120902381Y-111007143D01*
X120902381Y-111245239D01*
X120950000Y-111388096D01*
X120902381Y-111721429D02*
X121902381Y-111959524D01*
X121188095Y-112150001D01*
X121902381Y-112340477D01*
X120902381Y-112578572D01*
X120902381Y-112864286D02*
X120902381Y-113483334D01*
X121283333Y-113150000D01*
X121283333Y-113292858D01*
X121330952Y-113388096D01*
X121378571Y-113435715D01*
X121473810Y-113483334D01*
X121711905Y-113483334D01*
X121807143Y-113435715D01*
X121854762Y-113388096D01*
X121902381Y-113292858D01*
X121902381Y-113007143D01*
X121854762Y-112911905D01*
X121807143Y-112864286D01*
M02*
