M48
;DRILL file {KiCad 4.0.7-e2-6376~58~ubuntu16.04.1} date Fri Jun 15 00:43:51 2018
;FORMAT={3:3/ absolute / metric / suppress leading zeros}
FMAT,2
METRIC,TZ
T1C0.400
%
G90
G05
M71
T1
X98500Y-100650
X98750Y-92150
X98750Y-93400
X101750Y-94150
X101750Y-100150
X102750Y-97400
X103500Y-115900
X108000Y-99900
X108500Y-92650
X108770Y-110295
X109000Y-95900
X109250Y-98650
X111000Y-94650
X111250Y-93400
X112750Y-92900
X115500Y-95400
X116000Y-92150
X117000Y-113150
X117000Y-114650
X119250Y-109650
X119500Y-99900
X119526Y-94926
X119750Y-84400
X120750Y-100400
X122500Y-100400
X122500Y-105650
T0
M30
