G04 #@! TF.GenerationSoftware,KiCad,Pcbnew,5.0.2-bee76a0~70~ubuntu18.04.1*
G04 #@! TF.CreationDate,2019-02-14T23:13:42+09:00*
G04 #@! TF.ProjectId,GRRNble,4752524e-626c-4652-9e6b-696361645f70,rev?*
G04 #@! TF.SameCoordinates,Original*
G04 #@! TF.FileFunction,Legend,Bot*
G04 #@! TF.FilePolarity,Positive*
%FSLAX46Y46*%
G04 Gerber Fmt 4.6, Leading zero omitted, Abs format (unit mm)*
G04 Created by KiCad (PCBNEW 5.0.2-bee76a0~70~ubuntu18.04.1) date 2019年02月14日 23時13分42秒*
%MOMM*%
%LPD*%
G01*
G04 APERTURE LIST*
%ADD10C,0.150000*%
%ADD11C,0.120000*%
%ADD12C,0.381000*%
%ADD13C,0.100000*%
%ADD14C,0.250190*%
%ADD15C,0.251460*%
G04 APERTURE END LIST*
D10*
G04 #@! TO.C,U5*
X106500000Y-84031000D02*
X106500000Y-91631000D01*
X118000000Y-84031000D02*
X106500000Y-84031000D01*
X118000000Y-91631000D02*
X118000000Y-84031000D01*
D11*
G04 #@! TO.C,U4*
X96190000Y-107400000D02*
X96190000Y-105600000D01*
X99410000Y-105600000D02*
X99410000Y-108050000D01*
D12*
G04 #@! TO.C,J1*
X95548960Y-95947560D02*
X95548960Y-101947040D01*
X97349820Y-95851040D02*
X99249740Y-95851040D01*
X97349820Y-102048640D02*
X99249740Y-102048640D01*
D10*
G04 #@! TO.C,SW1*
X119750000Y-112850000D02*
X120250000Y-112850000D01*
X119750000Y-108850000D02*
X119750000Y-112850000D01*
X120250000Y-108850000D02*
X119750000Y-108850000D01*
G04 #@! TO.C,SW2*
X119750000Y-91650000D02*
X120250000Y-91650000D01*
X119750000Y-87650000D02*
X119750000Y-91650000D01*
X120250000Y-87650000D02*
X119750000Y-87650000D01*
G04 #@! TO.C,SW3*
X119700000Y-102350000D02*
X120200000Y-102350000D01*
X119700000Y-98350000D02*
X119700000Y-102350000D01*
X120200000Y-98350000D02*
X119700000Y-98350000D01*
D11*
G04 #@! TO.C,C12*
X102750000Y-104500000D02*
X101750000Y-104500000D01*
X101750000Y-102800000D02*
X102750000Y-102800000D01*
G04 #@! TO.C,C13*
X99000000Y-111250000D02*
X98000000Y-111250000D01*
X98000000Y-109550000D02*
X99000000Y-109550000D01*
G04 #@! TO.C,C14*
X103000000Y-109550000D02*
X104000000Y-109550000D01*
X104000000Y-111250000D02*
X103000000Y-111250000D01*
G04 #@! TO.C,C15*
X109250000Y-107250000D02*
X108250000Y-107250000D01*
X108250000Y-105550000D02*
X109250000Y-105550000D01*
G04 #@! TO.C,C16*
X115100000Y-112900000D02*
X115100000Y-113900000D01*
X113400000Y-113900000D02*
X113400000Y-112900000D01*
G04 #@! TO.C,D1*
X108600000Y-115550000D02*
X106900000Y-115550000D01*
X106900000Y-115550000D02*
X106900000Y-112400000D01*
X108600000Y-115550000D02*
X108600000Y-112400000D01*
G04 #@! TO.C,Q1*
X103740000Y-115680000D02*
X103740000Y-114750000D01*
X103740000Y-112520000D02*
X103740000Y-113450000D01*
X103740000Y-112520000D02*
X105900000Y-112520000D01*
X103740000Y-115680000D02*
X105200000Y-115680000D01*
G04 #@! TO.C,R8*
X102950000Y-106020000D02*
X101750000Y-106020000D01*
X101750000Y-107780000D02*
X102950000Y-107780000D01*
G04 #@! TO.C,R9*
X112620000Y-107200000D02*
X112620000Y-108400000D01*
X114380000Y-108400000D02*
X114380000Y-107200000D01*
G04 #@! TO.C,R10*
X115370000Y-107150000D02*
X115370000Y-108350000D01*
X117130000Y-108350000D02*
X117130000Y-107150000D01*
G04 #@! TO.C,R11*
X109450000Y-108020000D02*
X108250000Y-108020000D01*
X108250000Y-109780000D02*
X109450000Y-109780000D01*
G04 #@! TO.C,U6*
X112810000Y-112350000D02*
X112810000Y-114150000D01*
X109590000Y-114150000D02*
X109590000Y-111700000D01*
G04 #@! TO.C,U5*
D13*
X112615142Y-95074428D02*
X112615142Y-95560142D01*
X112586571Y-95617285D01*
X112558000Y-95645857D01*
X112500857Y-95674428D01*
X112386571Y-95674428D01*
X112329428Y-95645857D01*
X112300857Y-95617285D01*
X112272285Y-95560142D01*
X112272285Y-95074428D01*
X111700857Y-95074428D02*
X111986571Y-95074428D01*
X112015142Y-95360142D01*
X111986571Y-95331571D01*
X111929428Y-95303000D01*
X111786571Y-95303000D01*
X111729428Y-95331571D01*
X111700857Y-95360142D01*
X111672285Y-95417285D01*
X111672285Y-95560142D01*
X111700857Y-95617285D01*
X111729428Y-95645857D01*
X111786571Y-95674428D01*
X111929428Y-95674428D01*
X111986571Y-95645857D01*
X112015142Y-95617285D01*
G04 #@! TO.C,U4*
D10*
X97202380Y-104638095D02*
X98011904Y-104638095D01*
X98107142Y-104685714D01*
X98154761Y-104733333D01*
X98202380Y-104828571D01*
X98202380Y-105019047D01*
X98154761Y-105114285D01*
X98107142Y-105161904D01*
X98011904Y-105209523D01*
X97202380Y-105209523D01*
X97535714Y-106114285D02*
X98202380Y-106114285D01*
X97154761Y-105876190D02*
X97869047Y-105638095D01*
X97869047Y-106257142D01*
G04 #@! TO.C,J1*
D14*
X96832264Y-98634033D02*
X97547093Y-98634033D01*
X97690059Y-98586378D01*
X97785369Y-98491067D01*
X97833024Y-98348101D01*
X97833024Y-98252791D01*
X97833024Y-99634793D02*
X97833024Y-99062930D01*
X97833024Y-99348861D02*
X96832264Y-99348861D01*
X96975230Y-99253551D01*
X97070540Y-99158240D01*
X97118196Y-99062930D01*
D15*
G04 #@! TO.C,U2*
D10*
X100920904Y-88304380D02*
X100920904Y-89113904D01*
X100873285Y-89209142D01*
X100825666Y-89256761D01*
X100730428Y-89304380D01*
X100539952Y-89304380D01*
X100444714Y-89256761D01*
X100397095Y-89209142D01*
X100349476Y-89113904D01*
X100349476Y-88304380D01*
X99920904Y-88399619D02*
X99873285Y-88352000D01*
X99778047Y-88304380D01*
X99539952Y-88304380D01*
X99444714Y-88352000D01*
X99397095Y-88399619D01*
X99349476Y-88494857D01*
X99349476Y-88590095D01*
X99397095Y-88732952D01*
X99968523Y-89304380D01*
X99349476Y-89304380D01*
G04 #@! TO.C,SW1*
X122154761Y-109516666D02*
X122202380Y-109659523D01*
X122202380Y-109897619D01*
X122154761Y-109992857D01*
X122107142Y-110040476D01*
X122011904Y-110088095D01*
X121916666Y-110088095D01*
X121821428Y-110040476D01*
X121773809Y-109992857D01*
X121726190Y-109897619D01*
X121678571Y-109707142D01*
X121630952Y-109611904D01*
X121583333Y-109564285D01*
X121488095Y-109516666D01*
X121392857Y-109516666D01*
X121297619Y-109564285D01*
X121250000Y-109611904D01*
X121202380Y-109707142D01*
X121202380Y-109945238D01*
X121250000Y-110088095D01*
X121202380Y-110421428D02*
X122202380Y-110659523D01*
X121488095Y-110850000D01*
X122202380Y-111040476D01*
X121202380Y-111278571D01*
X122202380Y-112183333D02*
X122202380Y-111611904D01*
X122202380Y-111897619D02*
X121202380Y-111897619D01*
X121345238Y-111802380D01*
X121440476Y-111707142D01*
X121488095Y-111611904D01*
G04 #@! TO.C,SW2*
X122154761Y-88316666D02*
X122202380Y-88459523D01*
X122202380Y-88697619D01*
X122154761Y-88792857D01*
X122107142Y-88840476D01*
X122011904Y-88888095D01*
X121916666Y-88888095D01*
X121821428Y-88840476D01*
X121773809Y-88792857D01*
X121726190Y-88697619D01*
X121678571Y-88507142D01*
X121630952Y-88411904D01*
X121583333Y-88364285D01*
X121488095Y-88316666D01*
X121392857Y-88316666D01*
X121297619Y-88364285D01*
X121250000Y-88411904D01*
X121202380Y-88507142D01*
X121202380Y-88745238D01*
X121250000Y-88888095D01*
X121202380Y-89221428D02*
X122202380Y-89459523D01*
X121488095Y-89650000D01*
X122202380Y-89840476D01*
X121202380Y-90078571D01*
X121297619Y-90411904D02*
X121250000Y-90459523D01*
X121202380Y-90554761D01*
X121202380Y-90792857D01*
X121250000Y-90888095D01*
X121297619Y-90935714D01*
X121392857Y-90983333D01*
X121488095Y-90983333D01*
X121630952Y-90935714D01*
X122202380Y-90364285D01*
X122202380Y-90983333D01*
G04 #@! TO.C,SW3*
X122104761Y-99016666D02*
X122152380Y-99159523D01*
X122152380Y-99397619D01*
X122104761Y-99492857D01*
X122057142Y-99540476D01*
X121961904Y-99588095D01*
X121866666Y-99588095D01*
X121771428Y-99540476D01*
X121723809Y-99492857D01*
X121676190Y-99397619D01*
X121628571Y-99207142D01*
X121580952Y-99111904D01*
X121533333Y-99064285D01*
X121438095Y-99016666D01*
X121342857Y-99016666D01*
X121247619Y-99064285D01*
X121200000Y-99111904D01*
X121152380Y-99207142D01*
X121152380Y-99445238D01*
X121200000Y-99588095D01*
X121152380Y-99921428D02*
X122152380Y-100159523D01*
X121438095Y-100350000D01*
X122152380Y-100540476D01*
X121152380Y-100778571D01*
X121152380Y-101064285D02*
X121152380Y-101683333D01*
X121533333Y-101350000D01*
X121533333Y-101492857D01*
X121580952Y-101588095D01*
X121628571Y-101635714D01*
X121723809Y-101683333D01*
X121961904Y-101683333D01*
X122057142Y-101635714D01*
X122104761Y-101588095D01*
X122152380Y-101492857D01*
X122152380Y-101207142D01*
X122104761Y-101111904D01*
X122057142Y-101064285D01*
G04 #@! TO.C,C12*
X103142857Y-102507142D02*
X103190476Y-102554761D01*
X103333333Y-102602380D01*
X103428571Y-102602380D01*
X103571428Y-102554761D01*
X103666666Y-102459523D01*
X103714285Y-102364285D01*
X103761904Y-102173809D01*
X103761904Y-102030952D01*
X103714285Y-101840476D01*
X103666666Y-101745238D01*
X103571428Y-101650000D01*
X103428571Y-101602380D01*
X103333333Y-101602380D01*
X103190476Y-101650000D01*
X103142857Y-101697619D01*
X102190476Y-102602380D02*
X102761904Y-102602380D01*
X102476190Y-102602380D02*
X102476190Y-101602380D01*
X102571428Y-101745238D01*
X102666666Y-101840476D01*
X102761904Y-101888095D01*
X101809523Y-101697619D02*
X101761904Y-101650000D01*
X101666666Y-101602380D01*
X101428571Y-101602380D01*
X101333333Y-101650000D01*
X101285714Y-101697619D01*
X101238095Y-101792857D01*
X101238095Y-101888095D01*
X101285714Y-102030952D01*
X101857142Y-102602380D01*
X101238095Y-102602380D01*
G04 #@! TO.C,C13*
X101392857Y-109257142D02*
X101440476Y-109304761D01*
X101583333Y-109352380D01*
X101678571Y-109352380D01*
X101821428Y-109304761D01*
X101916666Y-109209523D01*
X101964285Y-109114285D01*
X102011904Y-108923809D01*
X102011904Y-108780952D01*
X101964285Y-108590476D01*
X101916666Y-108495238D01*
X101821428Y-108400000D01*
X101678571Y-108352380D01*
X101583333Y-108352380D01*
X101440476Y-108400000D01*
X101392857Y-108447619D01*
X100440476Y-109352380D02*
X101011904Y-109352380D01*
X100726190Y-109352380D02*
X100726190Y-108352380D01*
X100821428Y-108495238D01*
X100916666Y-108590476D01*
X101011904Y-108638095D01*
X100107142Y-108352380D02*
X99488095Y-108352380D01*
X99821428Y-108733333D01*
X99678571Y-108733333D01*
X99583333Y-108780952D01*
X99535714Y-108828571D01*
X99488095Y-108923809D01*
X99488095Y-109161904D01*
X99535714Y-109257142D01*
X99583333Y-109304761D01*
X99678571Y-109352380D01*
X99964285Y-109352380D01*
X100059523Y-109304761D01*
X100107142Y-109257142D01*
G04 #@! TO.C,C14*
X104642857Y-109257142D02*
X104690476Y-109304761D01*
X104833333Y-109352380D01*
X104928571Y-109352380D01*
X105071428Y-109304761D01*
X105166666Y-109209523D01*
X105214285Y-109114285D01*
X105261904Y-108923809D01*
X105261904Y-108780952D01*
X105214285Y-108590476D01*
X105166666Y-108495238D01*
X105071428Y-108400000D01*
X104928571Y-108352380D01*
X104833333Y-108352380D01*
X104690476Y-108400000D01*
X104642857Y-108447619D01*
X103690476Y-109352380D02*
X104261904Y-109352380D01*
X103976190Y-109352380D02*
X103976190Y-108352380D01*
X104071428Y-108495238D01*
X104166666Y-108590476D01*
X104261904Y-108638095D01*
X102833333Y-108685714D02*
X102833333Y-109352380D01*
X103071428Y-108304761D02*
X103309523Y-109019047D01*
X102690476Y-109019047D01*
G04 #@! TO.C,C15*
X109392857Y-105507142D02*
X109440476Y-105554761D01*
X109583333Y-105602380D01*
X109678571Y-105602380D01*
X109821428Y-105554761D01*
X109916666Y-105459523D01*
X109964285Y-105364285D01*
X110011904Y-105173809D01*
X110011904Y-105030952D01*
X109964285Y-104840476D01*
X109916666Y-104745238D01*
X109821428Y-104650000D01*
X109678571Y-104602380D01*
X109583333Y-104602380D01*
X109440476Y-104650000D01*
X109392857Y-104697619D01*
X108440476Y-105602380D02*
X109011904Y-105602380D01*
X108726190Y-105602380D02*
X108726190Y-104602380D01*
X108821428Y-104745238D01*
X108916666Y-104840476D01*
X109011904Y-104888095D01*
X107535714Y-104602380D02*
X108011904Y-104602380D01*
X108059523Y-105078571D01*
X108011904Y-105030952D01*
X107916666Y-104983333D01*
X107678571Y-104983333D01*
X107583333Y-105030952D01*
X107535714Y-105078571D01*
X107488095Y-105173809D01*
X107488095Y-105411904D01*
X107535714Y-105507142D01*
X107583333Y-105554761D01*
X107678571Y-105602380D01*
X107916666Y-105602380D01*
X108011904Y-105554761D01*
X108059523Y-105507142D01*
G04 #@! TO.C,C16*
X116357142Y-112757142D02*
X116404761Y-112709523D01*
X116452380Y-112566666D01*
X116452380Y-112471428D01*
X116404761Y-112328571D01*
X116309523Y-112233333D01*
X116214285Y-112185714D01*
X116023809Y-112138095D01*
X115880952Y-112138095D01*
X115690476Y-112185714D01*
X115595238Y-112233333D01*
X115500000Y-112328571D01*
X115452380Y-112471428D01*
X115452380Y-112566666D01*
X115500000Y-112709523D01*
X115547619Y-112757142D01*
X116452380Y-113709523D02*
X116452380Y-113138095D01*
X116452380Y-113423809D02*
X115452380Y-113423809D01*
X115595238Y-113328571D01*
X115690476Y-113233333D01*
X115738095Y-113138095D01*
X115452380Y-114566666D02*
X115452380Y-114376190D01*
X115500000Y-114280952D01*
X115547619Y-114233333D01*
X115690476Y-114138095D01*
X115880952Y-114090476D01*
X116261904Y-114090476D01*
X116357142Y-114138095D01*
X116404761Y-114185714D01*
X116452380Y-114280952D01*
X116452380Y-114471428D01*
X116404761Y-114566666D01*
X116357142Y-114614285D01*
X116261904Y-114661904D01*
X116023809Y-114661904D01*
X115928571Y-114614285D01*
X115880952Y-114566666D01*
X115833333Y-114471428D01*
X115833333Y-114280952D01*
X115880952Y-114185714D01*
X115928571Y-114138095D01*
X116023809Y-114090476D01*
G04 #@! TO.C,D1*
X108202380Y-112411904D02*
X107202380Y-112411904D01*
X107202380Y-112650000D01*
X107250000Y-112792857D01*
X107345238Y-112888095D01*
X107440476Y-112935714D01*
X107630952Y-112983333D01*
X107773809Y-112983333D01*
X107964285Y-112935714D01*
X108059523Y-112888095D01*
X108154761Y-112792857D01*
X108202380Y-112650000D01*
X108202380Y-112411904D01*
X108202380Y-113935714D02*
X108202380Y-113364285D01*
X108202380Y-113650000D02*
X107202380Y-113650000D01*
X107345238Y-113554761D01*
X107440476Y-113459523D01*
X107488095Y-113364285D01*
G04 #@! TO.C,Q1*
X105095238Y-114697619D02*
X105190476Y-114650000D01*
X105285714Y-114554761D01*
X105428571Y-114411904D01*
X105523809Y-114364285D01*
X105619047Y-114364285D01*
X105571428Y-114602380D02*
X105666666Y-114554761D01*
X105761904Y-114459523D01*
X105809523Y-114269047D01*
X105809523Y-113935714D01*
X105761904Y-113745238D01*
X105666666Y-113650000D01*
X105571428Y-113602380D01*
X105380952Y-113602380D01*
X105285714Y-113650000D01*
X105190476Y-113745238D01*
X105142857Y-113935714D01*
X105142857Y-114269047D01*
X105190476Y-114459523D01*
X105285714Y-114554761D01*
X105380952Y-114602380D01*
X105571428Y-114602380D01*
X104190476Y-114602380D02*
X104761904Y-114602380D01*
X104476190Y-114602380D02*
X104476190Y-113602380D01*
X104571428Y-113745238D01*
X104666666Y-113840476D01*
X104761904Y-113888095D01*
G04 #@! TO.C,R8*
X102516666Y-105852380D02*
X102850000Y-105376190D01*
X103088095Y-105852380D02*
X103088095Y-104852380D01*
X102707142Y-104852380D01*
X102611904Y-104900000D01*
X102564285Y-104947619D01*
X102516666Y-105042857D01*
X102516666Y-105185714D01*
X102564285Y-105280952D01*
X102611904Y-105328571D01*
X102707142Y-105376190D01*
X103088095Y-105376190D01*
X101945238Y-105280952D02*
X102040476Y-105233333D01*
X102088095Y-105185714D01*
X102135714Y-105090476D01*
X102135714Y-105042857D01*
X102088095Y-104947619D01*
X102040476Y-104900000D01*
X101945238Y-104852380D01*
X101754761Y-104852380D01*
X101659523Y-104900000D01*
X101611904Y-104947619D01*
X101564285Y-105042857D01*
X101564285Y-105090476D01*
X101611904Y-105185714D01*
X101659523Y-105233333D01*
X101754761Y-105280952D01*
X101945238Y-105280952D01*
X102040476Y-105328571D01*
X102088095Y-105376190D01*
X102135714Y-105471428D01*
X102135714Y-105661904D01*
X102088095Y-105757142D01*
X102040476Y-105804761D01*
X101945238Y-105852380D01*
X101754761Y-105852380D01*
X101659523Y-105804761D01*
X101611904Y-105757142D01*
X101564285Y-105661904D01*
X101564285Y-105471428D01*
X101611904Y-105376190D01*
X101659523Y-105328571D01*
X101754761Y-105280952D01*
G04 #@! TO.C,R9*
X115652380Y-107633333D02*
X115176190Y-107300000D01*
X115652380Y-107061904D02*
X114652380Y-107061904D01*
X114652380Y-107442857D01*
X114700000Y-107538095D01*
X114747619Y-107585714D01*
X114842857Y-107633333D01*
X114985714Y-107633333D01*
X115080952Y-107585714D01*
X115128571Y-107538095D01*
X115176190Y-107442857D01*
X115176190Y-107061904D01*
X115652380Y-108109523D02*
X115652380Y-108300000D01*
X115604761Y-108395238D01*
X115557142Y-108442857D01*
X115414285Y-108538095D01*
X115223809Y-108585714D01*
X114842857Y-108585714D01*
X114747619Y-108538095D01*
X114700000Y-108490476D01*
X114652380Y-108395238D01*
X114652380Y-108204761D01*
X114700000Y-108109523D01*
X114747619Y-108061904D01*
X114842857Y-108014285D01*
X115080952Y-108014285D01*
X115176190Y-108061904D01*
X115223809Y-108109523D01*
X115271428Y-108204761D01*
X115271428Y-108395238D01*
X115223809Y-108490476D01*
X115176190Y-108538095D01*
X115080952Y-108585714D01*
G04 #@! TO.C,R10*
X118402380Y-107107142D02*
X117926190Y-106773809D01*
X118402380Y-106535714D02*
X117402380Y-106535714D01*
X117402380Y-106916666D01*
X117450000Y-107011904D01*
X117497619Y-107059523D01*
X117592857Y-107107142D01*
X117735714Y-107107142D01*
X117830952Y-107059523D01*
X117878571Y-107011904D01*
X117926190Y-106916666D01*
X117926190Y-106535714D01*
X118402380Y-108059523D02*
X118402380Y-107488095D01*
X118402380Y-107773809D02*
X117402380Y-107773809D01*
X117545238Y-107678571D01*
X117640476Y-107583333D01*
X117688095Y-107488095D01*
X117402380Y-108678571D02*
X117402380Y-108773809D01*
X117450000Y-108869047D01*
X117497619Y-108916666D01*
X117592857Y-108964285D01*
X117783333Y-109011904D01*
X118021428Y-109011904D01*
X118211904Y-108964285D01*
X118307142Y-108916666D01*
X118354761Y-108869047D01*
X118402380Y-108773809D01*
X118402380Y-108678571D01*
X118354761Y-108583333D01*
X118307142Y-108535714D01*
X118211904Y-108488095D01*
X118021428Y-108440476D01*
X117783333Y-108440476D01*
X117592857Y-108488095D01*
X117497619Y-108535714D01*
X117450000Y-108583333D01*
X117402380Y-108678571D01*
G04 #@! TO.C,R11*
X109392857Y-108102380D02*
X109726190Y-107626190D01*
X109964285Y-108102380D02*
X109964285Y-107102380D01*
X109583333Y-107102380D01*
X109488095Y-107150000D01*
X109440476Y-107197619D01*
X109392857Y-107292857D01*
X109392857Y-107435714D01*
X109440476Y-107530952D01*
X109488095Y-107578571D01*
X109583333Y-107626190D01*
X109964285Y-107626190D01*
X108440476Y-108102380D02*
X109011904Y-108102380D01*
X108726190Y-108102380D02*
X108726190Y-107102380D01*
X108821428Y-107245238D01*
X108916666Y-107340476D01*
X109011904Y-107388095D01*
X107488095Y-108102380D02*
X108059523Y-108102380D01*
X107773809Y-108102380D02*
X107773809Y-107102380D01*
X107869047Y-107245238D01*
X107964285Y-107340476D01*
X108059523Y-107388095D01*
G04 #@! TO.C,U6*
X110702380Y-113638095D02*
X111511904Y-113638095D01*
X111607142Y-113685714D01*
X111654761Y-113733333D01*
X111702380Y-113828571D01*
X111702380Y-114019047D01*
X111654761Y-114114285D01*
X111607142Y-114161904D01*
X111511904Y-114209523D01*
X110702380Y-114209523D01*
X110702380Y-115114285D02*
X110702380Y-114923809D01*
X110750000Y-114828571D01*
X110797619Y-114780952D01*
X110940476Y-114685714D01*
X111130952Y-114638095D01*
X111511904Y-114638095D01*
X111607142Y-114685714D01*
X111654761Y-114733333D01*
X111702380Y-114828571D01*
X111702380Y-115019047D01*
X111654761Y-115114285D01*
X111607142Y-115161904D01*
X111511904Y-115209523D01*
X111273809Y-115209523D01*
X111178571Y-115161904D01*
X111130952Y-115114285D01*
X111083333Y-115019047D01*
X111083333Y-114828571D01*
X111130952Y-114733333D01*
X111178571Y-114685714D01*
X111273809Y-114638095D01*
G04 #@! TO.C,BT1*
X99785714Y-113828571D02*
X99642857Y-113876190D01*
X99595238Y-113923809D01*
X99547619Y-114019047D01*
X99547619Y-114161904D01*
X99595238Y-114257142D01*
X99642857Y-114304761D01*
X99738095Y-114352380D01*
X100119047Y-114352380D01*
X100119047Y-113352380D01*
X99785714Y-113352380D01*
X99690476Y-113400000D01*
X99642857Y-113447619D01*
X99595238Y-113542857D01*
X99595238Y-113638095D01*
X99642857Y-113733333D01*
X99690476Y-113780952D01*
X99785714Y-113828571D01*
X100119047Y-113828571D01*
X99261904Y-113352380D02*
X98690476Y-113352380D01*
X98976190Y-114352380D02*
X98976190Y-113352380D01*
X97833333Y-114352380D02*
X98404761Y-114352380D01*
X98119047Y-114352380D02*
X98119047Y-113352380D01*
X98214285Y-113495238D01*
X98309523Y-113590476D01*
X98404761Y-113638095D01*
X100880952Y-111721428D02*
X100119047Y-111721428D01*
X98130952Y-111721428D02*
X97369047Y-111721428D01*
X97750000Y-112102380D02*
X97750000Y-111340476D01*
G04 #@! TD*
M02*
