G04 #@! TF.GenerationSoftware,KiCad,Pcbnew,5.0.2-bee76a0~70~ubuntu18.04.1*
G04 #@! TF.CreationDate,2019-03-22T13:37:18+09:00*
G04 #@! TF.ProjectId,GRRNble,4752524e-626c-4652-9e6b-696361645f70,rev?*
G04 #@! TF.SameCoordinates,Original*
G04 #@! TF.FileFunction,Legend,Top*
G04 #@! TF.FilePolarity,Positive*
%FSLAX46Y46*%
G04 Gerber Fmt 4.6, Leading zero omitted, Abs format (unit mm)*
G04 Created by KiCad (PCBNEW 5.0.2-bee76a0~70~ubuntu18.04.1) date 2019年03月22日 13時37分18秒*
%MOMM*%
%LPD*%
G01*
G04 APERTURE LIST*
%ADD10C,0.150000*%
%ADD11C,0.120000*%
G04 APERTURE END LIST*
D10*
G04 #@! TO.C,U3*
X98600000Y-104425000D02*
X119600000Y-104425000D01*
X98600000Y-108875000D02*
X119600000Y-108875000D01*
X98600000Y-108875000D02*
X98600000Y-109100000D01*
X119600000Y-108875000D02*
X119600000Y-109100000D01*
X98600000Y-106650000D02*
X98600000Y-104425000D01*
X119600000Y-106650000D02*
X119600000Y-104425000D01*
D11*
G04 #@! TO.C,Q2*
X113590000Y-84870000D02*
X113590000Y-85800000D01*
X113590000Y-88030000D02*
X113590000Y-87100000D01*
X113590000Y-88030000D02*
X115750000Y-88030000D01*
X113590000Y-84870000D02*
X115050000Y-84870000D01*
G04 #@! TO.C,Q3*
X101760000Y-87930000D02*
X101760000Y-87000000D01*
X101760000Y-84770000D02*
X101760000Y-85700000D01*
X101760000Y-84770000D02*
X99600000Y-84770000D01*
X101760000Y-87930000D02*
X100300000Y-87930000D01*
G04 #@! TO.C,C1*
X102640000Y-99713748D02*
X102640000Y-100236252D01*
X104060000Y-99713748D02*
X104060000Y-100236252D01*
G04 #@! TO.C,C2*
X107288748Y-86940000D02*
X107811252Y-86940000D01*
X107288748Y-88360000D02*
X107811252Y-88360000D01*
G04 #@! TO.C,C3*
X96340000Y-99713748D02*
X96340000Y-100236252D01*
X97760000Y-99713748D02*
X97760000Y-100236252D01*
G04 #@! TO.C,C4*
X101060000Y-99688748D02*
X101060000Y-100211252D01*
X99640000Y-99688748D02*
X99640000Y-100211252D01*
G04 #@! TO.C,C5*
X96224000Y-113062748D02*
X96224000Y-113585252D01*
X97644000Y-113062748D02*
X97644000Y-113585252D01*
G04 #@! TO.C,C6*
X100184000Y-113062748D02*
X100184000Y-113585252D01*
X98764000Y-113062748D02*
X98764000Y-113585252D01*
G04 #@! TO.C,C7*
X120260000Y-113088748D02*
X120260000Y-113611252D01*
X118840000Y-113088748D02*
X118840000Y-113611252D01*
G04 #@! TO.C,C8*
X122460000Y-113088748D02*
X122460000Y-113611252D01*
X121040000Y-113088748D02*
X121040000Y-113611252D01*
G04 #@! TO.C,C9*
X103080000Y-113545252D02*
X103080000Y-113022748D01*
X101660000Y-113545252D02*
X101660000Y-113022748D01*
G04 #@! TO.C,C10*
X105366000Y-113545252D02*
X105366000Y-113022748D01*
X103946000Y-113545252D02*
X103946000Y-113022748D01*
G04 #@! TO.C,C11*
X109026000Y-113545252D02*
X109026000Y-113022748D01*
X110446000Y-113545252D02*
X110446000Y-113022748D01*
G04 #@! TO.C,R1*
X96224000Y-91726748D02*
X96224000Y-92249252D01*
X97644000Y-91726748D02*
X97644000Y-92249252D01*
G04 #@! TO.C,R2*
X100946000Y-91726748D02*
X100946000Y-92249252D01*
X99526000Y-91726748D02*
X99526000Y-92249252D01*
G04 #@! TO.C,R3*
X102574000Y-92249252D02*
X102574000Y-91726748D01*
X103994000Y-92249252D02*
X103994000Y-91726748D01*
G04 #@! TO.C,R4*
X118060000Y-113063748D02*
X118060000Y-113586252D01*
X116640000Y-113063748D02*
X116640000Y-113586252D01*
G04 #@! TO.C,R5*
X115526000Y-113545252D02*
X115526000Y-113022748D01*
X114106000Y-113545252D02*
X114106000Y-113022748D01*
G04 #@! TO.C,R6*
X111566000Y-113545252D02*
X111566000Y-113022748D01*
X112986000Y-113545252D02*
X112986000Y-113022748D01*
G04 #@! TO.C,R7*
X106486000Y-113022748D02*
X106486000Y-113545252D01*
X107906000Y-113022748D02*
X107906000Y-113545252D01*
G04 #@! TO.C,R12*
X116940000Y-86213748D02*
X116940000Y-86736252D01*
X118360000Y-86213748D02*
X118360000Y-86736252D01*
G04 #@! TO.C,R13*
X96290000Y-86761252D02*
X96290000Y-86238748D01*
X97710000Y-86761252D02*
X97710000Y-86238748D01*
G04 #@! TO.C,R14*
X107313748Y-84740000D02*
X107836252Y-84740000D01*
X107313748Y-86160000D02*
X107836252Y-86160000D01*
G04 #@! TO.C,R15*
X103290000Y-86238748D02*
X103290000Y-86761252D01*
X104710000Y-86238748D02*
X104710000Y-86761252D01*
G04 #@! TO.C,R16*
X110440000Y-86786252D02*
X110440000Y-86263748D01*
X111860000Y-86786252D02*
X111860000Y-86263748D01*
G04 #@! TO.C,Y1*
X98275000Y-95400000D02*
X99375000Y-95400000D01*
X98275000Y-97300000D02*
X99375000Y-97300000D01*
X96125000Y-95450000D02*
X96125000Y-97250000D01*
D10*
G04 #@! TO.C,U1*
X106745000Y-91131000D02*
X106745000Y-92131000D01*
X117095000Y-91131000D02*
X117095000Y-92206000D01*
X117095000Y-101481000D02*
X117095000Y-100406000D01*
X106745000Y-101481000D02*
X106745000Y-100406000D01*
X106745000Y-91131000D02*
X107820000Y-91131000D01*
X106745000Y-101481000D02*
X107820000Y-101481000D01*
X117095000Y-101481000D02*
X116020000Y-101481000D01*
X117095000Y-91131000D02*
X116020000Y-91131000D01*
X106745000Y-92131000D02*
X105720000Y-92131000D01*
D11*
G04 #@! TO.C,SCL*
X97650000Y-108650000D02*
G75*
G03X97650000Y-108650000I-700000J0D01*
G01*
G04 #@! TO.C,SDA*
X97650000Y-106550000D02*
G75*
G03X97650000Y-106550000I-700000J0D01*
G01*
G04 #@! TO.C,D6*
X122325001Y-96075001D02*
G75*
G03X122325001Y-96075001I-700000J0D01*
G01*
G04 #@! TO.C,A6*
X122325001Y-93950000D02*
G75*
G03X122325001Y-93950000I-700000J0D01*
G01*
G04 #@! TO.C,3V*
X97650000Y-104450000D02*
G75*
G03X97650000Y-104450000I-700000J0D01*
G01*
G04 #@! TO.C,GND*
X120950000Y-84150000D02*
X122350000Y-84150000D01*
X122350000Y-84150000D02*
X122350000Y-85550000D01*
X122350000Y-85550000D02*
X120950000Y-85550000D01*
X120950000Y-85550000D02*
X120950000Y-84150000D01*
G04 #@! TO.C,A2*
X122350000Y-86650000D02*
G75*
G03X122350000Y-86650000I-700000J0D01*
G01*
G04 #@! TO.C,A3*
X122350000Y-88350000D02*
G75*
G03X122350000Y-88350000I-700000J0D01*
G01*
G04 #@! TO.C,A4*
X122350000Y-90050000D02*
G75*
G03X122350000Y-90050000I-700000J0D01*
G01*
G04 #@! TO.C,A5*
X122350000Y-91750000D02*
G75*
G03X122350000Y-91750000I-700000J0D01*
G01*
G04 #@! TO.C,U3*
D10*
X117335714Y-102992857D02*
X117335714Y-103964285D01*
X117392857Y-104078571D01*
X117450000Y-104135714D01*
X117564285Y-104192857D01*
X117792857Y-104192857D01*
X117907142Y-104135714D01*
X117964285Y-104078571D01*
X118021428Y-103964285D01*
X118021428Y-102992857D01*
X118478571Y-102992857D02*
X119221428Y-102992857D01*
X118821428Y-103450000D01*
X118992857Y-103450000D01*
X119107142Y-103507142D01*
X119164285Y-103564285D01*
X119221428Y-103678571D01*
X119221428Y-103964285D01*
X119164285Y-104078571D01*
X119107142Y-104135714D01*
X118992857Y-104192857D01*
X118650000Y-104192857D01*
X118535714Y-104135714D01*
X118478571Y-104078571D01*
G04 #@! TO.C,Q2*
X114254761Y-89597619D02*
X114159523Y-89550000D01*
X114064285Y-89454761D01*
X113921428Y-89311904D01*
X113826190Y-89264285D01*
X113730952Y-89264285D01*
X113778571Y-89502380D02*
X113683333Y-89454761D01*
X113588095Y-89359523D01*
X113540476Y-89169047D01*
X113540476Y-88835714D01*
X113588095Y-88645238D01*
X113683333Y-88550000D01*
X113778571Y-88502380D01*
X113969047Y-88502380D01*
X114064285Y-88550000D01*
X114159523Y-88645238D01*
X114207142Y-88835714D01*
X114207142Y-89169047D01*
X114159523Y-89359523D01*
X114064285Y-89454761D01*
X113969047Y-89502380D01*
X113778571Y-89502380D01*
X114588095Y-88597619D02*
X114635714Y-88550000D01*
X114730952Y-88502380D01*
X114969047Y-88502380D01*
X115064285Y-88550000D01*
X115111904Y-88597619D01*
X115159523Y-88692857D01*
X115159523Y-88788095D01*
X115111904Y-88930952D01*
X114540476Y-89502380D01*
X115159523Y-89502380D01*
G04 #@! TO.C,Q3*
X100954761Y-89697619D02*
X100859523Y-89650000D01*
X100764285Y-89554761D01*
X100621428Y-89411904D01*
X100526190Y-89364285D01*
X100430952Y-89364285D01*
X100478571Y-89602380D02*
X100383333Y-89554761D01*
X100288095Y-89459523D01*
X100240476Y-89269047D01*
X100240476Y-88935714D01*
X100288095Y-88745238D01*
X100383333Y-88650000D01*
X100478571Y-88602380D01*
X100669047Y-88602380D01*
X100764285Y-88650000D01*
X100859523Y-88745238D01*
X100907142Y-88935714D01*
X100907142Y-89269047D01*
X100859523Y-89459523D01*
X100764285Y-89554761D01*
X100669047Y-89602380D01*
X100478571Y-89602380D01*
X101240476Y-88602380D02*
X101859523Y-88602380D01*
X101526190Y-88983333D01*
X101669047Y-88983333D01*
X101764285Y-89030952D01*
X101811904Y-89078571D01*
X101859523Y-89173809D01*
X101859523Y-89411904D01*
X101811904Y-89507142D01*
X101764285Y-89554761D01*
X101669047Y-89602380D01*
X101383333Y-89602380D01*
X101288095Y-89554761D01*
X101240476Y-89507142D01*
G04 #@! TO.C,C1*
X105207142Y-100141666D02*
X105254761Y-100189285D01*
X105302380Y-100332142D01*
X105302380Y-100427380D01*
X105254761Y-100570238D01*
X105159523Y-100665476D01*
X105064285Y-100713095D01*
X104873809Y-100760714D01*
X104730952Y-100760714D01*
X104540476Y-100713095D01*
X104445238Y-100665476D01*
X104350000Y-100570238D01*
X104302380Y-100427380D01*
X104302380Y-100332142D01*
X104350000Y-100189285D01*
X104397619Y-100141666D01*
X105302380Y-99189285D02*
X105302380Y-99760714D01*
X105302380Y-99475000D02*
X104302380Y-99475000D01*
X104445238Y-99570238D01*
X104540476Y-99665476D01*
X104588095Y-99760714D01*
G04 #@! TO.C,C2*
X107483333Y-89507142D02*
X107435714Y-89554761D01*
X107292857Y-89602380D01*
X107197619Y-89602380D01*
X107054761Y-89554761D01*
X106959523Y-89459523D01*
X106911904Y-89364285D01*
X106864285Y-89173809D01*
X106864285Y-89030952D01*
X106911904Y-88840476D01*
X106959523Y-88745238D01*
X107054761Y-88650000D01*
X107197619Y-88602380D01*
X107292857Y-88602380D01*
X107435714Y-88650000D01*
X107483333Y-88697619D01*
X107864285Y-88697619D02*
X107911904Y-88650000D01*
X108007142Y-88602380D01*
X108245238Y-88602380D01*
X108340476Y-88650000D01*
X108388095Y-88697619D01*
X108435714Y-88792857D01*
X108435714Y-88888095D01*
X108388095Y-89030952D01*
X107816666Y-89602380D01*
X108435714Y-89602380D01*
G04 #@! TO.C,C3*
X99007142Y-100141666D02*
X99054761Y-100189285D01*
X99102380Y-100332142D01*
X99102380Y-100427380D01*
X99054761Y-100570238D01*
X98959523Y-100665476D01*
X98864285Y-100713095D01*
X98673809Y-100760714D01*
X98530952Y-100760714D01*
X98340476Y-100713095D01*
X98245238Y-100665476D01*
X98150000Y-100570238D01*
X98102380Y-100427380D01*
X98102380Y-100332142D01*
X98150000Y-100189285D01*
X98197619Y-100141666D01*
X98102380Y-99808333D02*
X98102380Y-99189285D01*
X98483333Y-99522619D01*
X98483333Y-99379761D01*
X98530952Y-99284523D01*
X98578571Y-99236904D01*
X98673809Y-99189285D01*
X98911904Y-99189285D01*
X99007142Y-99236904D01*
X99054761Y-99284523D01*
X99102380Y-99379761D01*
X99102380Y-99665476D01*
X99054761Y-99760714D01*
X99007142Y-99808333D01*
G04 #@! TO.C,C4*
X102307142Y-100116666D02*
X102354761Y-100164285D01*
X102402380Y-100307142D01*
X102402380Y-100402380D01*
X102354761Y-100545238D01*
X102259523Y-100640476D01*
X102164285Y-100688095D01*
X101973809Y-100735714D01*
X101830952Y-100735714D01*
X101640476Y-100688095D01*
X101545238Y-100640476D01*
X101450000Y-100545238D01*
X101402380Y-100402380D01*
X101402380Y-100307142D01*
X101450000Y-100164285D01*
X101497619Y-100116666D01*
X101735714Y-99259523D02*
X102402380Y-99259523D01*
X101354761Y-99497619D02*
X102069047Y-99735714D01*
X102069047Y-99116666D01*
G04 #@! TO.C,C5*
X97307142Y-110616666D02*
X97354761Y-110664285D01*
X97402380Y-110807142D01*
X97402380Y-110902380D01*
X97354761Y-111045238D01*
X97259523Y-111140476D01*
X97164285Y-111188095D01*
X96973809Y-111235714D01*
X96830952Y-111235714D01*
X96640476Y-111188095D01*
X96545238Y-111140476D01*
X96450000Y-111045238D01*
X96402380Y-110902380D01*
X96402380Y-110807142D01*
X96450000Y-110664285D01*
X96497619Y-110616666D01*
X96402380Y-109711904D02*
X96402380Y-110188095D01*
X96878571Y-110235714D01*
X96830952Y-110188095D01*
X96783333Y-110092857D01*
X96783333Y-109854761D01*
X96830952Y-109759523D01*
X96878571Y-109711904D01*
X96973809Y-109664285D01*
X97211904Y-109664285D01*
X97307142Y-109711904D01*
X97354761Y-109759523D01*
X97402380Y-109854761D01*
X97402380Y-110092857D01*
X97354761Y-110188095D01*
X97307142Y-110235714D01*
G04 #@! TO.C,C6*
X99807142Y-110616666D02*
X99854761Y-110664285D01*
X99902380Y-110807142D01*
X99902380Y-110902380D01*
X99854761Y-111045238D01*
X99759523Y-111140476D01*
X99664285Y-111188095D01*
X99473809Y-111235714D01*
X99330952Y-111235714D01*
X99140476Y-111188095D01*
X99045238Y-111140476D01*
X98950000Y-111045238D01*
X98902380Y-110902380D01*
X98902380Y-110807142D01*
X98950000Y-110664285D01*
X98997619Y-110616666D01*
X98902380Y-109759523D02*
X98902380Y-109950000D01*
X98950000Y-110045238D01*
X98997619Y-110092857D01*
X99140476Y-110188095D01*
X99330952Y-110235714D01*
X99711904Y-110235714D01*
X99807142Y-110188095D01*
X99854761Y-110140476D01*
X99902380Y-110045238D01*
X99902380Y-109854761D01*
X99854761Y-109759523D01*
X99807142Y-109711904D01*
X99711904Y-109664285D01*
X99473809Y-109664285D01*
X99378571Y-109711904D01*
X99330952Y-109759523D01*
X99283333Y-109854761D01*
X99283333Y-110045238D01*
X99330952Y-110140476D01*
X99378571Y-110188095D01*
X99473809Y-110235714D01*
G04 #@! TO.C,C7*
X119925142Y-110642666D02*
X119972761Y-110690285D01*
X120020380Y-110833142D01*
X120020380Y-110928380D01*
X119972761Y-111071238D01*
X119877523Y-111166476D01*
X119782285Y-111214095D01*
X119591809Y-111261714D01*
X119448952Y-111261714D01*
X119258476Y-111214095D01*
X119163238Y-111166476D01*
X119068000Y-111071238D01*
X119020380Y-110928380D01*
X119020380Y-110833142D01*
X119068000Y-110690285D01*
X119115619Y-110642666D01*
X119020380Y-110309333D02*
X119020380Y-109642666D01*
X120020380Y-110071238D01*
G04 #@! TO.C,C8*
X122139142Y-110642666D02*
X122186761Y-110690285D01*
X122234380Y-110833142D01*
X122234380Y-110928380D01*
X122186761Y-111071238D01*
X122091523Y-111166476D01*
X121996285Y-111214095D01*
X121805809Y-111261714D01*
X121662952Y-111261714D01*
X121472476Y-111214095D01*
X121377238Y-111166476D01*
X121282000Y-111071238D01*
X121234380Y-110928380D01*
X121234380Y-110833142D01*
X121282000Y-110690285D01*
X121329619Y-110642666D01*
X121662952Y-110071238D02*
X121615333Y-110166476D01*
X121567714Y-110214095D01*
X121472476Y-110261714D01*
X121424857Y-110261714D01*
X121329619Y-110214095D01*
X121282000Y-110166476D01*
X121234380Y-110071238D01*
X121234380Y-109880761D01*
X121282000Y-109785523D01*
X121329619Y-109737904D01*
X121424857Y-109690285D01*
X121472476Y-109690285D01*
X121567714Y-109737904D01*
X121615333Y-109785523D01*
X121662952Y-109880761D01*
X121662952Y-110071238D01*
X121710571Y-110166476D01*
X121758190Y-110214095D01*
X121853428Y-110261714D01*
X122043904Y-110261714D01*
X122139142Y-110214095D01*
X122186761Y-110166476D01*
X122234380Y-110071238D01*
X122234380Y-109880761D01*
X122186761Y-109785523D01*
X122139142Y-109737904D01*
X122043904Y-109690285D01*
X121853428Y-109690285D01*
X121758190Y-109737904D01*
X121710571Y-109785523D01*
X121662952Y-109880761D01*
G04 #@! TO.C,C9*
X102707142Y-110616666D02*
X102754761Y-110664285D01*
X102802380Y-110807142D01*
X102802380Y-110902380D01*
X102754761Y-111045238D01*
X102659523Y-111140476D01*
X102564285Y-111188095D01*
X102373809Y-111235714D01*
X102230952Y-111235714D01*
X102040476Y-111188095D01*
X101945238Y-111140476D01*
X101850000Y-111045238D01*
X101802380Y-110902380D01*
X101802380Y-110807142D01*
X101850000Y-110664285D01*
X101897619Y-110616666D01*
X102802380Y-110140476D02*
X102802380Y-109950000D01*
X102754761Y-109854761D01*
X102707142Y-109807142D01*
X102564285Y-109711904D01*
X102373809Y-109664285D01*
X101992857Y-109664285D01*
X101897619Y-109711904D01*
X101850000Y-109759523D01*
X101802380Y-109854761D01*
X101802380Y-110045238D01*
X101850000Y-110140476D01*
X101897619Y-110188095D01*
X101992857Y-110235714D01*
X102230952Y-110235714D01*
X102326190Y-110188095D01*
X102373809Y-110140476D01*
X102421428Y-110045238D01*
X102421428Y-109854761D01*
X102373809Y-109759523D01*
X102326190Y-109711904D01*
X102230952Y-109664285D01*
G04 #@! TO.C,C10*
X105007142Y-111292857D02*
X105054761Y-111340476D01*
X105102380Y-111483333D01*
X105102380Y-111578571D01*
X105054761Y-111721428D01*
X104959523Y-111816666D01*
X104864285Y-111864285D01*
X104673809Y-111911904D01*
X104530952Y-111911904D01*
X104340476Y-111864285D01*
X104245238Y-111816666D01*
X104150000Y-111721428D01*
X104102380Y-111578571D01*
X104102380Y-111483333D01*
X104150000Y-111340476D01*
X104197619Y-111292857D01*
X105102380Y-110340476D02*
X105102380Y-110911904D01*
X105102380Y-110626190D02*
X104102380Y-110626190D01*
X104245238Y-110721428D01*
X104340476Y-110816666D01*
X104388095Y-110911904D01*
X104102380Y-109721428D02*
X104102380Y-109626190D01*
X104150000Y-109530952D01*
X104197619Y-109483333D01*
X104292857Y-109435714D01*
X104483333Y-109388095D01*
X104721428Y-109388095D01*
X104911904Y-109435714D01*
X105007142Y-109483333D01*
X105054761Y-109530952D01*
X105102380Y-109626190D01*
X105102380Y-109721428D01*
X105054761Y-109816666D01*
X105007142Y-109864285D01*
X104911904Y-109911904D01*
X104721428Y-109959523D01*
X104483333Y-109959523D01*
X104292857Y-109911904D01*
X104197619Y-109864285D01*
X104150000Y-109816666D01*
X104102380Y-109721428D01*
G04 #@! TO.C,C11*
X110007142Y-111192857D02*
X110054761Y-111240476D01*
X110102380Y-111383333D01*
X110102380Y-111478571D01*
X110054761Y-111621428D01*
X109959523Y-111716666D01*
X109864285Y-111764285D01*
X109673809Y-111811904D01*
X109530952Y-111811904D01*
X109340476Y-111764285D01*
X109245238Y-111716666D01*
X109150000Y-111621428D01*
X109102380Y-111478571D01*
X109102380Y-111383333D01*
X109150000Y-111240476D01*
X109197619Y-111192857D01*
X110102380Y-110240476D02*
X110102380Y-110811904D01*
X110102380Y-110526190D02*
X109102380Y-110526190D01*
X109245238Y-110621428D01*
X109340476Y-110716666D01*
X109388095Y-110811904D01*
X110102380Y-109288095D02*
X110102380Y-109859523D01*
X110102380Y-109573809D02*
X109102380Y-109573809D01*
X109245238Y-109669047D01*
X109340476Y-109764285D01*
X109388095Y-109859523D01*
G04 #@! TO.C,R1*
X99036380Y-92154666D02*
X98560190Y-92488000D01*
X99036380Y-92726095D02*
X98036380Y-92726095D01*
X98036380Y-92345142D01*
X98084000Y-92249904D01*
X98131619Y-92202285D01*
X98226857Y-92154666D01*
X98369714Y-92154666D01*
X98464952Y-92202285D01*
X98512571Y-92249904D01*
X98560190Y-92345142D01*
X98560190Y-92726095D01*
X99036380Y-91202285D02*
X99036380Y-91773714D01*
X99036380Y-91488000D02*
X98036380Y-91488000D01*
X98179238Y-91583238D01*
X98274476Y-91678476D01*
X98322095Y-91773714D01*
G04 #@! TO.C,R2*
X102338380Y-92154666D02*
X101862190Y-92488000D01*
X102338380Y-92726095D02*
X101338380Y-92726095D01*
X101338380Y-92345142D01*
X101386000Y-92249904D01*
X101433619Y-92202285D01*
X101528857Y-92154666D01*
X101671714Y-92154666D01*
X101766952Y-92202285D01*
X101814571Y-92249904D01*
X101862190Y-92345142D01*
X101862190Y-92726095D01*
X101433619Y-91773714D02*
X101386000Y-91726095D01*
X101338380Y-91630857D01*
X101338380Y-91392761D01*
X101386000Y-91297523D01*
X101433619Y-91249904D01*
X101528857Y-91202285D01*
X101624095Y-91202285D01*
X101766952Y-91249904D01*
X102338380Y-91821333D01*
X102338380Y-91202285D01*
G04 #@! TO.C,R3*
X105402380Y-92154666D02*
X104926190Y-92488000D01*
X105402380Y-92726095D02*
X104402380Y-92726095D01*
X104402380Y-92345142D01*
X104450000Y-92249904D01*
X104497619Y-92202285D01*
X104592857Y-92154666D01*
X104735714Y-92154666D01*
X104830952Y-92202285D01*
X104878571Y-92249904D01*
X104926190Y-92345142D01*
X104926190Y-92726095D01*
X104402380Y-91821333D02*
X104402380Y-91202285D01*
X104783333Y-91535619D01*
X104783333Y-91392761D01*
X104830952Y-91297523D01*
X104878571Y-91249904D01*
X104973809Y-91202285D01*
X105211904Y-91202285D01*
X105307142Y-91249904D01*
X105354761Y-91297523D01*
X105402380Y-91392761D01*
X105402380Y-91678476D01*
X105354761Y-91773714D01*
X105307142Y-91821333D01*
G04 #@! TO.C,R4*
X117852380Y-110616666D02*
X117376190Y-110950000D01*
X117852380Y-111188095D02*
X116852380Y-111188095D01*
X116852380Y-110807142D01*
X116900000Y-110711904D01*
X116947619Y-110664285D01*
X117042857Y-110616666D01*
X117185714Y-110616666D01*
X117280952Y-110664285D01*
X117328571Y-110711904D01*
X117376190Y-110807142D01*
X117376190Y-111188095D01*
X117185714Y-109759523D02*
X117852380Y-109759523D01*
X116804761Y-109997619D02*
X117519047Y-110235714D01*
X117519047Y-109616666D01*
G04 #@! TO.C,R5*
X115302380Y-110616666D02*
X114826190Y-110950000D01*
X115302380Y-111188095D02*
X114302380Y-111188095D01*
X114302380Y-110807142D01*
X114350000Y-110711904D01*
X114397619Y-110664285D01*
X114492857Y-110616666D01*
X114635714Y-110616666D01*
X114730952Y-110664285D01*
X114778571Y-110711904D01*
X114826190Y-110807142D01*
X114826190Y-111188095D01*
X114302380Y-109711904D02*
X114302380Y-110188095D01*
X114778571Y-110235714D01*
X114730952Y-110188095D01*
X114683333Y-110092857D01*
X114683333Y-109854761D01*
X114730952Y-109759523D01*
X114778571Y-109711904D01*
X114873809Y-109664285D01*
X115111904Y-109664285D01*
X115207142Y-109711904D01*
X115254761Y-109759523D01*
X115302380Y-109854761D01*
X115302380Y-110092857D01*
X115254761Y-110188095D01*
X115207142Y-110235714D01*
G04 #@! TO.C,R6*
X112702380Y-110616666D02*
X112226190Y-110950000D01*
X112702380Y-111188095D02*
X111702380Y-111188095D01*
X111702380Y-110807142D01*
X111750000Y-110711904D01*
X111797619Y-110664285D01*
X111892857Y-110616666D01*
X112035714Y-110616666D01*
X112130952Y-110664285D01*
X112178571Y-110711904D01*
X112226190Y-110807142D01*
X112226190Y-111188095D01*
X111702380Y-109759523D02*
X111702380Y-109950000D01*
X111750000Y-110045238D01*
X111797619Y-110092857D01*
X111940476Y-110188095D01*
X112130952Y-110235714D01*
X112511904Y-110235714D01*
X112607142Y-110188095D01*
X112654761Y-110140476D01*
X112702380Y-110045238D01*
X112702380Y-109854761D01*
X112654761Y-109759523D01*
X112607142Y-109711904D01*
X112511904Y-109664285D01*
X112273809Y-109664285D01*
X112178571Y-109711904D01*
X112130952Y-109759523D01*
X112083333Y-109854761D01*
X112083333Y-110045238D01*
X112130952Y-110140476D01*
X112178571Y-110188095D01*
X112273809Y-110235714D01*
G04 #@! TO.C,R7*
X107602380Y-110616666D02*
X107126190Y-110950000D01*
X107602380Y-111188095D02*
X106602380Y-111188095D01*
X106602380Y-110807142D01*
X106650000Y-110711904D01*
X106697619Y-110664285D01*
X106792857Y-110616666D01*
X106935714Y-110616666D01*
X107030952Y-110664285D01*
X107078571Y-110711904D01*
X107126190Y-110807142D01*
X107126190Y-111188095D01*
X106602380Y-110283333D02*
X106602380Y-109616666D01*
X107602380Y-110045238D01*
G04 #@! TO.C,R12*
X117007142Y-89602380D02*
X116673809Y-89126190D01*
X116435714Y-89602380D02*
X116435714Y-88602380D01*
X116816666Y-88602380D01*
X116911904Y-88650000D01*
X116959523Y-88697619D01*
X117007142Y-88792857D01*
X117007142Y-88935714D01*
X116959523Y-89030952D01*
X116911904Y-89078571D01*
X116816666Y-89126190D01*
X116435714Y-89126190D01*
X117959523Y-89602380D02*
X117388095Y-89602380D01*
X117673809Y-89602380D02*
X117673809Y-88602380D01*
X117578571Y-88745238D01*
X117483333Y-88840476D01*
X117388095Y-88888095D01*
X118340476Y-88697619D02*
X118388095Y-88650000D01*
X118483333Y-88602380D01*
X118721428Y-88602380D01*
X118816666Y-88650000D01*
X118864285Y-88697619D01*
X118911904Y-88792857D01*
X118911904Y-88888095D01*
X118864285Y-89030952D01*
X118292857Y-89602380D01*
X118911904Y-89602380D01*
G04 #@! TO.C,R13*
X96907142Y-89602380D02*
X96573809Y-89126190D01*
X96335714Y-89602380D02*
X96335714Y-88602380D01*
X96716666Y-88602380D01*
X96811904Y-88650000D01*
X96859523Y-88697619D01*
X96907142Y-88792857D01*
X96907142Y-88935714D01*
X96859523Y-89030952D01*
X96811904Y-89078571D01*
X96716666Y-89126190D01*
X96335714Y-89126190D01*
X97859523Y-89602380D02*
X97288095Y-89602380D01*
X97573809Y-89602380D02*
X97573809Y-88602380D01*
X97478571Y-88745238D01*
X97383333Y-88840476D01*
X97288095Y-88888095D01*
X98192857Y-88602380D02*
X98811904Y-88602380D01*
X98478571Y-88983333D01*
X98621428Y-88983333D01*
X98716666Y-89030952D01*
X98764285Y-89078571D01*
X98811904Y-89173809D01*
X98811904Y-89411904D01*
X98764285Y-89507142D01*
X98716666Y-89554761D01*
X98621428Y-89602380D01*
X98335714Y-89602380D01*
X98240476Y-89554761D01*
X98192857Y-89507142D01*
G04 #@! TO.C,R14*
X106907142Y-84402380D02*
X106573809Y-83926190D01*
X106335714Y-84402380D02*
X106335714Y-83402380D01*
X106716666Y-83402380D01*
X106811904Y-83450000D01*
X106859523Y-83497619D01*
X106907142Y-83592857D01*
X106907142Y-83735714D01*
X106859523Y-83830952D01*
X106811904Y-83878571D01*
X106716666Y-83926190D01*
X106335714Y-83926190D01*
X107859523Y-84402380D02*
X107288095Y-84402380D01*
X107573809Y-84402380D02*
X107573809Y-83402380D01*
X107478571Y-83545238D01*
X107383333Y-83640476D01*
X107288095Y-83688095D01*
X108716666Y-83735714D02*
X108716666Y-84402380D01*
X108478571Y-83354761D02*
X108240476Y-84069047D01*
X108859523Y-84069047D01*
G04 #@! TO.C,R15*
X103707142Y-89602380D02*
X103373809Y-89126190D01*
X103135714Y-89602380D02*
X103135714Y-88602380D01*
X103516666Y-88602380D01*
X103611904Y-88650000D01*
X103659523Y-88697619D01*
X103707142Y-88792857D01*
X103707142Y-88935714D01*
X103659523Y-89030952D01*
X103611904Y-89078571D01*
X103516666Y-89126190D01*
X103135714Y-89126190D01*
X104659523Y-89602380D02*
X104088095Y-89602380D01*
X104373809Y-89602380D02*
X104373809Y-88602380D01*
X104278571Y-88745238D01*
X104183333Y-88840476D01*
X104088095Y-88888095D01*
X105564285Y-88602380D02*
X105088095Y-88602380D01*
X105040476Y-89078571D01*
X105088095Y-89030952D01*
X105183333Y-88983333D01*
X105421428Y-88983333D01*
X105516666Y-89030952D01*
X105564285Y-89078571D01*
X105611904Y-89173809D01*
X105611904Y-89411904D01*
X105564285Y-89507142D01*
X105516666Y-89554761D01*
X105421428Y-89602380D01*
X105183333Y-89602380D01*
X105088095Y-89554761D01*
X105040476Y-89507142D01*
G04 #@! TO.C,R16*
X110507142Y-89602380D02*
X110173809Y-89126190D01*
X109935714Y-89602380D02*
X109935714Y-88602380D01*
X110316666Y-88602380D01*
X110411904Y-88650000D01*
X110459523Y-88697619D01*
X110507142Y-88792857D01*
X110507142Y-88935714D01*
X110459523Y-89030952D01*
X110411904Y-89078571D01*
X110316666Y-89126190D01*
X109935714Y-89126190D01*
X111459523Y-89602380D02*
X110888095Y-89602380D01*
X111173809Y-89602380D02*
X111173809Y-88602380D01*
X111078571Y-88745238D01*
X110983333Y-88840476D01*
X110888095Y-88888095D01*
X112316666Y-88602380D02*
X112126190Y-88602380D01*
X112030952Y-88650000D01*
X111983333Y-88697619D01*
X111888095Y-88840476D01*
X111840476Y-89030952D01*
X111840476Y-89411904D01*
X111888095Y-89507142D01*
X111935714Y-89554761D01*
X112030952Y-89602380D01*
X112221428Y-89602380D01*
X112316666Y-89554761D01*
X112364285Y-89507142D01*
X112411904Y-89411904D01*
X112411904Y-89173809D01*
X112364285Y-89078571D01*
X112316666Y-89030952D01*
X112221428Y-88983333D01*
X112030952Y-88983333D01*
X111935714Y-89030952D01*
X111888095Y-89078571D01*
X111840476Y-89173809D01*
G04 #@! TO.C,Y1*
X98348809Y-94626190D02*
X98348809Y-95102380D01*
X98015476Y-94102380D02*
X98348809Y-94626190D01*
X98682142Y-94102380D01*
X99539285Y-95102380D02*
X98967857Y-95102380D01*
X99253571Y-95102380D02*
X99253571Y-94102380D01*
X99158333Y-94245238D01*
X99063095Y-94340476D01*
X98967857Y-94388095D01*
G04 #@! TO.C,U1*
X111288095Y-95802380D02*
X111288095Y-96611904D01*
X111335714Y-96707142D01*
X111383333Y-96754761D01*
X111478571Y-96802380D01*
X111669047Y-96802380D01*
X111764285Y-96754761D01*
X111811904Y-96707142D01*
X111859523Y-96611904D01*
X111859523Y-95802380D01*
X112859523Y-96802380D02*
X112288095Y-96802380D01*
X112573809Y-96802380D02*
X112573809Y-95802380D01*
X112478571Y-95945238D01*
X112383333Y-96040476D01*
X112288095Y-96088095D01*
G04 #@! TO.C,D6*
X120629381Y-96813096D02*
X119629381Y-96813096D01*
X119629381Y-96575001D01*
X119677001Y-96432143D01*
X119772239Y-96336905D01*
X119867477Y-96289286D01*
X120057953Y-96241667D01*
X120200810Y-96241667D01*
X120391286Y-96289286D01*
X120486524Y-96336905D01*
X120581762Y-96432143D01*
X120629381Y-96575001D01*
X120629381Y-96813096D01*
X119629381Y-95384524D02*
X119629381Y-95575001D01*
X119677001Y-95670239D01*
X119724620Y-95717858D01*
X119867477Y-95813096D01*
X120057953Y-95860715D01*
X120438905Y-95860715D01*
X120534143Y-95813096D01*
X120581762Y-95765477D01*
X120629381Y-95670239D01*
X120629381Y-95479762D01*
X120581762Y-95384524D01*
X120534143Y-95336905D01*
X120438905Y-95289286D01*
X120200810Y-95289286D01*
X120105572Y-95336905D01*
X120057953Y-95384524D01*
X120010334Y-95479762D01*
X120010334Y-95670239D01*
X120057953Y-95765477D01*
X120105572Y-95813096D01*
X120200810Y-95860715D01*
G04 #@! TO.C,A6*
X120343667Y-94664285D02*
X120343667Y-94188095D01*
X120629381Y-94759523D02*
X119629381Y-94426190D01*
X120629381Y-94092857D01*
X119629381Y-93330952D02*
X119629381Y-93521428D01*
X119677001Y-93616666D01*
X119724620Y-93664285D01*
X119867477Y-93759523D01*
X120057953Y-93807142D01*
X120438905Y-93807142D01*
X120534143Y-93759523D01*
X120581762Y-93711904D01*
X120629381Y-93616666D01*
X120629381Y-93426190D01*
X120581762Y-93330952D01*
X120534143Y-93283333D01*
X120438905Y-93235714D01*
X120200810Y-93235714D01*
X120105572Y-93283333D01*
X120057953Y-93330952D01*
X120010334Y-93426190D01*
X120010334Y-93616666D01*
X120057953Y-93711904D01*
X120105572Y-93759523D01*
X120200810Y-93807142D01*
G04 #@! TO.C,3V*
X96188095Y-102454380D02*
X96807142Y-102454380D01*
X96473809Y-102835333D01*
X96616666Y-102835333D01*
X96711904Y-102882952D01*
X96759523Y-102930571D01*
X96807142Y-103025809D01*
X96807142Y-103263904D01*
X96759523Y-103359142D01*
X96711904Y-103406761D01*
X96616666Y-103454380D01*
X96330952Y-103454380D01*
X96235714Y-103406761D01*
X96188095Y-103359142D01*
X97092857Y-102454380D02*
X97426190Y-103454380D01*
X97759523Y-102454380D01*
G04 #@! TO.C,GND*
X119350000Y-85611904D02*
X119302380Y-85707142D01*
X119302380Y-85850000D01*
X119350000Y-85992857D01*
X119445238Y-86088095D01*
X119540476Y-86135714D01*
X119730952Y-86183333D01*
X119873809Y-86183333D01*
X120064285Y-86135714D01*
X120159523Y-86088095D01*
X120254761Y-85992857D01*
X120302380Y-85850000D01*
X120302380Y-85754761D01*
X120254761Y-85611904D01*
X120207142Y-85564285D01*
X119873809Y-85564285D01*
X119873809Y-85754761D01*
X120302380Y-85135714D02*
X119302380Y-85135714D01*
X120302380Y-84564285D01*
X119302380Y-84564285D01*
X120302380Y-84088095D02*
X119302380Y-84088095D01*
X119302380Y-83850000D01*
X119350000Y-83707142D01*
X119445238Y-83611904D01*
X119540476Y-83564285D01*
X119730952Y-83516666D01*
X119873809Y-83516666D01*
X120064285Y-83564285D01*
X120159523Y-83611904D01*
X120254761Y-83707142D01*
X120302380Y-83850000D01*
X120302380Y-84088095D01*
G04 #@! TD*
M02*
