G04 #@! TF.FileFunction,Copper,L1,Top,Signal*
%FSLAX46Y46*%
G04 Gerber Fmt 4.6, Leading zero omitted, Abs format (unit mm)*
G04 Created by KiCad (PCBNEW 4.0.7-e2-6376~58~ubuntu16.04.1) date Fri Jun 15 01:41:50 2018*
%MOMM*%
%LPD*%
G01*
G04 APERTURE LIST*
%ADD10C,0.100000*%
%ADD11R,1.000000X0.250000*%
%ADD12R,0.250000X1.000000*%
%ADD13R,1.300000X1.500000*%
%ADD14R,0.350000X4.000000*%
%ADD15R,1.250000X1.500000*%
%ADD16R,1.500000X1.250000*%
%ADD17R,1.750000X1.800000*%
%ADD18R,0.900000X0.800000*%
%ADD19R,1.500000X1.300000*%
%ADD20C,0.800000*%
%ADD21C,0.250000*%
%ADD22C,0.254000*%
G04 APERTURE END LIST*
D10*
D11*
X106220000Y-92556000D03*
X106220000Y-93056000D03*
X106220000Y-93556000D03*
X106220000Y-94056000D03*
X106220000Y-94556000D03*
X106220000Y-95056000D03*
X106220000Y-95556000D03*
X106220000Y-96056000D03*
X106220000Y-96556000D03*
X106220000Y-97056000D03*
X106220000Y-97556000D03*
X106220000Y-98056000D03*
X106220000Y-98556000D03*
X106220000Y-99056000D03*
X106220000Y-99556000D03*
X106220000Y-100056000D03*
D12*
X108170000Y-102006000D03*
X108670000Y-102006000D03*
X109170000Y-102006000D03*
X109670000Y-102006000D03*
X110170000Y-102006000D03*
X110670000Y-102006000D03*
X111170000Y-102006000D03*
X111670000Y-102006000D03*
X112170000Y-102006000D03*
X112670000Y-102006000D03*
X113170000Y-102006000D03*
X113670000Y-102006000D03*
X114170000Y-102006000D03*
X114670000Y-102006000D03*
X115170000Y-102006000D03*
X115670000Y-102006000D03*
D11*
X117620000Y-100056000D03*
X117620000Y-99556000D03*
X117620000Y-99056000D03*
X117620000Y-98556000D03*
X117620000Y-98056000D03*
X117620000Y-97556000D03*
X117620000Y-97056000D03*
X117620000Y-96556000D03*
X117620000Y-96056000D03*
X117620000Y-95556000D03*
X117620000Y-95056000D03*
X117620000Y-94556000D03*
X117620000Y-94056000D03*
X117620000Y-93556000D03*
X117620000Y-93056000D03*
X117620000Y-92556000D03*
D12*
X115670000Y-90606000D03*
X115170000Y-90606000D03*
X114670000Y-90606000D03*
X114170000Y-90606000D03*
X113670000Y-90606000D03*
X113170000Y-90606000D03*
X112670000Y-90606000D03*
X112170000Y-90606000D03*
X111670000Y-90606000D03*
X111170000Y-90606000D03*
X110670000Y-90606000D03*
X110170000Y-90606000D03*
X109670000Y-90606000D03*
X109170000Y-90606000D03*
X108670000Y-90606000D03*
X108170000Y-90606000D03*
D13*
X112276000Y-114634000D03*
X112276000Y-111934000D03*
D14*
X98950000Y-106650000D03*
X99650000Y-106650000D03*
X100350000Y-106650000D03*
X101050000Y-106650000D03*
X101750000Y-106650000D03*
X102450000Y-106650000D03*
X103150000Y-106650000D03*
X103850000Y-106650000D03*
X104550000Y-106650000D03*
X105250000Y-106650000D03*
X105950000Y-106650000D03*
X106650000Y-106650000D03*
X107350000Y-106650000D03*
X108050000Y-106650000D03*
X108750000Y-106650000D03*
X109450000Y-106650000D03*
X110150000Y-106650000D03*
X110850000Y-106650000D03*
X111550000Y-106650000D03*
X112250000Y-106650000D03*
X112950000Y-106650000D03*
X113650000Y-106650000D03*
X114350000Y-106650000D03*
X115050000Y-106650000D03*
X115750000Y-106650000D03*
X116450000Y-106650000D03*
X117150000Y-106650000D03*
X117850000Y-106650000D03*
X118550000Y-106650000D03*
X119250000Y-106650000D03*
D15*
X96934000Y-112074000D03*
X96934000Y-114574000D03*
X103284000Y-99882000D03*
X103284000Y-102382000D03*
D16*
X108250000Y-87900000D03*
X110750000Y-87900000D03*
D15*
X96934000Y-99882000D03*
X96934000Y-102382000D03*
X100236000Y-99882000D03*
X100236000Y-102382000D03*
X99474000Y-112074000D03*
X99474000Y-114574000D03*
X119032000Y-112074000D03*
X119032000Y-114574000D03*
X121318000Y-112074000D03*
X121318000Y-114574000D03*
D13*
X96934000Y-90638000D03*
X96934000Y-93338000D03*
X100236000Y-90638000D03*
X100236000Y-93338000D03*
X103284000Y-93338000D03*
X103284000Y-90638000D03*
X121000000Y-104650000D03*
X121000000Y-107350000D03*
D17*
X97087000Y-97068000D03*
X100337000Y-97068000D03*
D15*
X102370000Y-114534000D03*
X102370000Y-112034000D03*
X104656000Y-114534000D03*
X104656000Y-112034000D03*
X109736000Y-114534000D03*
X109736000Y-112034000D03*
D13*
X114816000Y-114634000D03*
X114816000Y-111934000D03*
X107196000Y-111934000D03*
X107196000Y-114634000D03*
D18*
X118500000Y-87400000D03*
X118500000Y-85500000D03*
X116500000Y-86450000D03*
X100000000Y-85400000D03*
X100000000Y-87300000D03*
X102000000Y-86350000D03*
D13*
X121500000Y-85150000D03*
X121500000Y-87850000D03*
X97000000Y-87850000D03*
X97000000Y-85150000D03*
D19*
X108150000Y-85400000D03*
X110850000Y-85400000D03*
D13*
X104000000Y-85150000D03*
X104000000Y-87850000D03*
X114500000Y-87850000D03*
X114500000Y-85150000D03*
D20*
X119250000Y-109650000D03*
X108770184Y-110294879D03*
X117000000Y-113150000D03*
X109250000Y-98650000D03*
X119750000Y-84400000D03*
X116000000Y-92150000D03*
X109000000Y-95900000D03*
X98500000Y-100650000D03*
X112750000Y-92900000D03*
X108000000Y-99900000D03*
X117000000Y-114650000D03*
X108500000Y-92650000D03*
X98750000Y-92150000D03*
X98750000Y-93400000D03*
X101750000Y-94150000D03*
X102750000Y-97400000D03*
X101750000Y-100150000D03*
X122500000Y-100400000D03*
X122500000Y-105650000D03*
X119525653Y-94925653D03*
X115500000Y-95400000D03*
X103500000Y-115900000D03*
X119500000Y-99900000D03*
X120750000Y-100400000D03*
X111250000Y-93400000D03*
X111000000Y-94650000D03*
D21*
X109000000Y-95900000D02*
X109000000Y-98400000D01*
X109000000Y-98400000D02*
X109250000Y-98650000D01*
X108850001Y-98250001D02*
X109250000Y-98650000D01*
X119250000Y-109650000D02*
X121000000Y-107900000D01*
X121000000Y-107900000D02*
X121000000Y-107350000D01*
X118500000Y-85500000D02*
X118650000Y-85500000D01*
X118650000Y-85500000D02*
X119750000Y-84400000D01*
X109450000Y-106650000D02*
X109450000Y-110400000D01*
X109450000Y-110400000D02*
X109450000Y-111748000D01*
X109344879Y-110294879D02*
X109450000Y-110400000D01*
X108770184Y-110294879D02*
X109344879Y-110294879D01*
X117000000Y-113150000D02*
X115949999Y-112099999D01*
X115949999Y-112099999D02*
X115949999Y-109099999D01*
X115949999Y-109099999D02*
X115750000Y-108900000D01*
X115750000Y-108900000D02*
X115750000Y-106650000D01*
X119032000Y-114449000D02*
X117733000Y-113150000D01*
X117733000Y-113150000D02*
X117000000Y-113150000D01*
X107045001Y-98605999D02*
X107045001Y-98150000D01*
X107045001Y-98150000D02*
X107045001Y-97506001D01*
X108850001Y-98250001D02*
X107145002Y-98250001D01*
X107145002Y-98250001D02*
X107045001Y-98150000D01*
X114500000Y-85150000D02*
X114500000Y-85885002D01*
X117800000Y-86150000D02*
X118450000Y-85500000D01*
X114500000Y-85885002D02*
X116014998Y-87400000D01*
X116014998Y-87400000D02*
X116985002Y-87400000D01*
X116985002Y-87400000D02*
X117800000Y-86585002D01*
X117800000Y-86585002D02*
X117800000Y-86150000D01*
X118450000Y-85500000D02*
X118500000Y-85500000D01*
X110750000Y-87900000D02*
X110875000Y-87900000D01*
X110750000Y-87900000D02*
X111750000Y-87900000D01*
X111750000Y-87900000D02*
X114500000Y-85150000D01*
X112670000Y-90606000D02*
X112670000Y-91356000D01*
X112670000Y-91356000D02*
X113464000Y-92150000D01*
X113464000Y-92150000D02*
X116000000Y-92150000D01*
X98950000Y-106650000D02*
X98950000Y-102793000D01*
X98950000Y-102793000D02*
X99361000Y-102382000D01*
X99361000Y-102382000D02*
X100236000Y-102382000D01*
X106595000Y-97056000D02*
X106220000Y-97056000D01*
X121000000Y-107350000D02*
X121000000Y-108350000D01*
X121000000Y-108350000D02*
X122268001Y-109618001D01*
X122268001Y-113498999D02*
X121318000Y-114449000D01*
X122268001Y-109618001D02*
X122268001Y-113498999D01*
X121318000Y-114449000D02*
X121318000Y-114574000D01*
X121000000Y-107350000D02*
X121000000Y-107250000D01*
X105250000Y-106650000D02*
X105250000Y-104463590D01*
X105250000Y-104463590D02*
X106023599Y-103689991D01*
X106023599Y-103689991D02*
X108314991Y-103689991D01*
X108314991Y-103689991D02*
X108750000Y-104125000D01*
X108750000Y-104125000D02*
X108750000Y-106650000D01*
X98500000Y-100650000D02*
X98500000Y-100816000D01*
X98500000Y-100816000D02*
X96934000Y-102382000D01*
X119250000Y-106650000D02*
X120550000Y-106650000D01*
X120550000Y-106650000D02*
X121250000Y-107350000D01*
X118550000Y-106650000D02*
X119250000Y-106650000D01*
X119032000Y-114449000D02*
X119032000Y-114574000D01*
X102370000Y-112034000D02*
X104656000Y-112034000D01*
X103850000Y-106650000D02*
X103850000Y-108900000D01*
X103850000Y-108900000D02*
X103925001Y-108975001D01*
X103925001Y-108975001D02*
X105174999Y-108975001D01*
X105174999Y-108975001D02*
X105250000Y-108900000D01*
X105250000Y-108900000D02*
X105250000Y-106650000D01*
X105250000Y-108900000D02*
X105325001Y-108975001D01*
X105325001Y-108975001D02*
X106574999Y-108975001D01*
X106574999Y-108975001D02*
X106650000Y-108900000D01*
X106650000Y-108900000D02*
X106650000Y-106650000D01*
X104656000Y-112034000D02*
X104656000Y-111034000D01*
X104656000Y-111034000D02*
X105250000Y-110440000D01*
X105250000Y-110440000D02*
X105250000Y-106650000D01*
X109450000Y-111748000D02*
X109736000Y-112034000D01*
X100236000Y-102382000D02*
X103284000Y-102382000D01*
X121250000Y-107250000D02*
X121250000Y-107350000D01*
X115050000Y-106650000D02*
X115750000Y-106650000D01*
X114350000Y-106650000D02*
X115050000Y-106650000D01*
X113650000Y-106650000D02*
X114350000Y-106650000D01*
X112950000Y-106650000D02*
X113650000Y-106650000D01*
X109450000Y-106650000D02*
X110150000Y-106650000D01*
X108750000Y-106650000D02*
X109450000Y-106650000D01*
X118866200Y-114408200D02*
X119032000Y-114574000D01*
X96934000Y-102382000D02*
X100236000Y-102382000D01*
X121318000Y-114574000D02*
X119032000Y-114574000D01*
X121572000Y-114449000D02*
X121572000Y-114574000D01*
X114350000Y-108475000D02*
X114350000Y-106650000D01*
X106650000Y-106650000D02*
X107350000Y-106650000D01*
X106220000Y-99056000D02*
X106595000Y-99056000D01*
X106595000Y-99056000D02*
X107045001Y-98605999D01*
X107045001Y-97506001D02*
X106595000Y-97056000D01*
X103284000Y-102382000D02*
X103284000Y-101382000D01*
X103284000Y-101382000D02*
X103501401Y-101164599D01*
X105470000Y-99056000D02*
X106220000Y-99056000D01*
X103501401Y-101164599D02*
X104099991Y-101164599D01*
X104099991Y-101164599D02*
X105394999Y-99869591D01*
X105394999Y-99869591D02*
X105394999Y-99131001D01*
X105394999Y-99131001D02*
X105470000Y-99056000D01*
X106220000Y-97056000D02*
X106220000Y-96556000D01*
X106220000Y-97556000D02*
X106220000Y-97056000D01*
X106220000Y-99056000D02*
X106220000Y-98648001D01*
X112750000Y-92900000D02*
X112170000Y-92320000D01*
X112170000Y-92320000D02*
X112170000Y-90606000D01*
X106220000Y-100056000D02*
X107844000Y-100056000D01*
X107844000Y-100056000D02*
X108000000Y-99900000D01*
X102211001Y-89562999D02*
X102500000Y-89562999D01*
X102500000Y-89562999D02*
X111876999Y-89562999D01*
X108250000Y-87900000D02*
X107250000Y-87900000D01*
X107250000Y-87900000D02*
X106124999Y-86774999D01*
X106124999Y-86774999D02*
X103089999Y-86774999D01*
X103089999Y-86774999D02*
X102500000Y-87364998D01*
X102500000Y-87364998D02*
X102500000Y-89562999D01*
X114816000Y-114634000D02*
X116984000Y-114634000D01*
X116984000Y-114634000D02*
X117000000Y-114650000D01*
X102370000Y-114534000D02*
X102370000Y-114409000D01*
X102450000Y-109674410D02*
X102450000Y-106650000D01*
X102370000Y-114409000D02*
X101100000Y-113139000D01*
X101100000Y-113139000D02*
X101100000Y-111024410D01*
X101100000Y-111024410D02*
X102450000Y-109674410D01*
X104656000Y-114534000D02*
X102370000Y-114534000D01*
X102116000Y-114534000D02*
X102116000Y-114409000D01*
X107196000Y-114634000D02*
X104756000Y-114634000D01*
X104756000Y-114634000D02*
X104656000Y-114534000D01*
X114816000Y-114634000D02*
X112276000Y-114634000D01*
X112276000Y-114634000D02*
X112276000Y-114734000D01*
X112276000Y-114734000D02*
X111376000Y-115634000D01*
X111376000Y-115634000D02*
X108096000Y-115634000D01*
X108096000Y-115634000D02*
X107196000Y-114734000D01*
X107196000Y-114734000D02*
X107196000Y-114634000D01*
X104550000Y-106650000D02*
X104550000Y-104140000D01*
X104550000Y-104140000D02*
X104550000Y-101351000D01*
X102450000Y-106650000D02*
X102450000Y-104589998D01*
X102450000Y-104589998D02*
X102899998Y-104140000D01*
X102899998Y-104140000D02*
X104550000Y-104140000D01*
X112170000Y-89856000D02*
X112170000Y-90606000D01*
X102475000Y-106675000D02*
X102450000Y-106650000D01*
X96934000Y-90638000D02*
X96934000Y-90738000D01*
X100236000Y-90638000D02*
X101136000Y-90638000D01*
X101136000Y-90638000D02*
X102211001Y-89562999D01*
X111876999Y-89562999D02*
X112170000Y-89856000D01*
X96934000Y-90638000D02*
X100236000Y-90638000D01*
X106220000Y-100056000D02*
X106220000Y-99556000D01*
X105845000Y-100056000D02*
X106220000Y-100056000D01*
X104550000Y-101351000D02*
X105845000Y-100056000D01*
X106220000Y-98056000D02*
X104985000Y-98056000D01*
X104985000Y-98056000D02*
X103284000Y-99757000D01*
X103284000Y-99757000D02*
X103284000Y-99882000D01*
X97087000Y-97068000D02*
X97087000Y-97043000D01*
X97087000Y-97043000D02*
X98574000Y-95556000D01*
X98574000Y-95556000D02*
X106220000Y-95556000D01*
X96934000Y-99882000D02*
X96934000Y-97221000D01*
X96934000Y-97221000D02*
X97087000Y-97068000D01*
X100337000Y-97068000D02*
X101462000Y-97068000D01*
X101462000Y-97068000D02*
X102474000Y-96056000D01*
X102474000Y-96056000D02*
X106220000Y-96056000D01*
X100236000Y-99882000D02*
X100236000Y-97169000D01*
X100236000Y-97169000D02*
X100337000Y-97068000D01*
X96934000Y-112074000D02*
X96934000Y-111616000D01*
X96934000Y-111616000D02*
X99650000Y-108900000D01*
X99650000Y-108900000D02*
X99650000Y-106650000D01*
X100350000Y-106650000D02*
X100350000Y-108900000D01*
X100350000Y-108900000D02*
X97884001Y-111365999D01*
X96934000Y-114449000D02*
X96934000Y-114574000D01*
X97884001Y-111365999D02*
X97884001Y-113498999D01*
X97884001Y-113498999D02*
X96934000Y-114449000D01*
X99474000Y-112074000D02*
X99474000Y-111074000D01*
X99474000Y-111074000D02*
X101050000Y-109498000D01*
X101050000Y-109498000D02*
X101050000Y-106650000D01*
X99474000Y-114574000D02*
X99474000Y-114449000D01*
X99474000Y-114449000D02*
X100424001Y-113498999D01*
X100424001Y-113498999D02*
X100424001Y-110760409D01*
X100424001Y-110760409D02*
X101750000Y-109434410D01*
X101750000Y-109434410D02*
X101750000Y-106650000D01*
X117150000Y-106650000D02*
X117150000Y-111067000D01*
X118157000Y-112074000D02*
X119032000Y-112074000D01*
X117150000Y-111067000D02*
X118157000Y-112074000D01*
X117850000Y-106650000D02*
X117850000Y-109323002D01*
X117850000Y-109323002D02*
X119525997Y-110998999D01*
X119525997Y-110998999D02*
X120367999Y-110998999D01*
X120367999Y-110998999D02*
X121318000Y-111949000D01*
X121318000Y-111949000D02*
X121318000Y-112074000D01*
X121572000Y-112074000D02*
X121572000Y-111949000D01*
X108500000Y-92650000D02*
X108500000Y-93859412D01*
X108500000Y-93859412D02*
X110465599Y-95825011D01*
X110465599Y-95825011D02*
X114001987Y-95825011D01*
X114001987Y-95825011D02*
X115270998Y-94556000D01*
X115270998Y-94556000D02*
X117620000Y-94556000D01*
X117609400Y-94545400D02*
X117620000Y-94556000D01*
X103284000Y-90638000D02*
X104184000Y-90638000D01*
X115134588Y-94056000D02*
X116870000Y-94056000D01*
X104184000Y-90638000D02*
X105470999Y-91924999D01*
X105470999Y-91924999D02*
X108848001Y-91924999D01*
X108848001Y-91924999D02*
X109719991Y-92796989D01*
X109719991Y-92796989D02*
X109719991Y-94442993D01*
X109719991Y-94442993D02*
X110651999Y-95375001D01*
X110651999Y-95375001D02*
X113815587Y-95375001D01*
X113815587Y-95375001D02*
X115134588Y-94056000D01*
X116870000Y-94056000D02*
X117620000Y-94056000D01*
X103284000Y-90638000D02*
X103284000Y-90738000D01*
X103284000Y-90738000D02*
X101872000Y-92150000D01*
X101872000Y-92150000D02*
X98750000Y-92150000D01*
X98750000Y-93400000D02*
X96996000Y-93400000D01*
X96996000Y-93400000D02*
X96934000Y-93338000D01*
X106220000Y-95056000D02*
X98552000Y-95056000D01*
X98552000Y-95056000D02*
X96934000Y-93438000D01*
X96934000Y-93438000D02*
X96934000Y-93338000D01*
X101750000Y-93338000D02*
X103284000Y-93338000D01*
X100236000Y-93338000D02*
X101750000Y-93338000D01*
X101750000Y-93338000D02*
X101750000Y-94150000D01*
X103757000Y-93338000D02*
X104975000Y-94556000D01*
X104975000Y-94556000D02*
X106220000Y-94556000D01*
X103284000Y-93338000D02*
X103757000Y-93338000D01*
X101750000Y-100150000D02*
X101750000Y-99455998D01*
X101750000Y-99455998D02*
X102750000Y-98455998D01*
X102750000Y-98455998D02*
X102750000Y-97400000D01*
X121250000Y-104650000D02*
X120646412Y-104650000D01*
X116492000Y-106608000D02*
X116450000Y-106650000D01*
X120646412Y-104650000D02*
X119871401Y-103874989D01*
X119871401Y-103874989D02*
X117165009Y-103874989D01*
X117165009Y-103874989D02*
X116492000Y-104547998D01*
X116492000Y-104547998D02*
X116492000Y-106608000D01*
X112276000Y-111934000D02*
X112276000Y-110934000D01*
X112276000Y-110934000D02*
X110850000Y-109508000D01*
X110850000Y-109508000D02*
X110850000Y-106650000D01*
X108170000Y-102006000D02*
X108170000Y-102892410D01*
X110850000Y-104589998D02*
X110850000Y-106650000D01*
X108170000Y-102892410D02*
X109602589Y-104324999D01*
X109602589Y-104324999D02*
X110585001Y-104324999D01*
X110585001Y-104324999D02*
X110850000Y-104589998D01*
X114816000Y-111934000D02*
X114816000Y-111834000D01*
X114816000Y-111834000D02*
X112250000Y-109268000D01*
X112250000Y-109268000D02*
X112250000Y-106650000D01*
X111550000Y-106650000D02*
X112250000Y-106650000D01*
X108670000Y-102006000D02*
X108670000Y-102756000D01*
X111550000Y-104400000D02*
X111550000Y-106650000D01*
X108670000Y-102756000D02*
X109788989Y-103874989D01*
X111024989Y-103874989D02*
X111550000Y-104400000D01*
X109788989Y-103874989D02*
X111024989Y-103874989D01*
X122500000Y-100400000D02*
X121823002Y-100400000D01*
X121823002Y-100400000D02*
X121042003Y-101180999D01*
X121042003Y-101180999D02*
X110245001Y-101180999D01*
X110245001Y-101180999D02*
X110170000Y-101256000D01*
X110170000Y-101256000D02*
X110170000Y-102006000D01*
X122500000Y-105650000D02*
X122500000Y-103900000D01*
X120606000Y-102006000D02*
X115670000Y-102006000D01*
X122500000Y-103900000D02*
X120606000Y-102006000D01*
X117620000Y-96556000D02*
X118370000Y-96556000D01*
X118370000Y-96556000D02*
X119125654Y-95800346D01*
X119125654Y-95325652D02*
X119525653Y-94925653D01*
X119125654Y-95800346D02*
X119125654Y-95325652D01*
X115500000Y-95400000D02*
X115656000Y-95556000D01*
X115656000Y-95556000D02*
X117620000Y-95556000D01*
X107196000Y-111934000D02*
X107196000Y-110934000D01*
X107196000Y-110934000D02*
X108050000Y-110080000D01*
X108050000Y-110080000D02*
X108050000Y-106650000D01*
X109736000Y-114534000D02*
X109736000Y-114409000D01*
X109736000Y-114409000D02*
X107261000Y-111934000D01*
X107261000Y-111934000D02*
X107196000Y-111934000D01*
X105950000Y-106650000D02*
X105950000Y-104400000D01*
X105950000Y-104400000D02*
X106210000Y-104140000D01*
X107790000Y-104140000D02*
X108050000Y-104400000D01*
X108050000Y-104400000D02*
X108050000Y-106650000D01*
X106210000Y-104140000D02*
X107790000Y-104140000D01*
X103500000Y-115900000D02*
X96299998Y-115900000D01*
X97000000Y-87950000D02*
X97000000Y-87850000D01*
X96299998Y-115900000D02*
X95886999Y-115487001D01*
X95886999Y-115487001D02*
X95886999Y-89063001D01*
X95886999Y-89063001D02*
X97000000Y-87950000D01*
X97000000Y-87850000D02*
X99450000Y-87850000D01*
X99450000Y-87850000D02*
X100000000Y-87300000D01*
X118500000Y-87400000D02*
X119823002Y-87400000D01*
X119823002Y-87400000D02*
X121500000Y-85723002D01*
X121500000Y-85723002D02*
X121500000Y-85150000D01*
X121500000Y-85250000D02*
X121500000Y-85150000D01*
X110850000Y-85400000D02*
X111850000Y-85400000D01*
X111850000Y-85400000D02*
X113175001Y-84074999D01*
X113175001Y-84074999D02*
X115410001Y-84074999D01*
X116500000Y-85164998D02*
X116500000Y-86450000D01*
X115410001Y-84074999D02*
X116500000Y-85164998D01*
X100000000Y-85400000D02*
X100700000Y-85400000D01*
X100700000Y-85400000D02*
X102025001Y-84074999D01*
X102025001Y-84074999D02*
X105824999Y-84074999D01*
X105824999Y-84074999D02*
X107150000Y-85400000D01*
X107150000Y-85400000D02*
X108150000Y-85400000D01*
X97000000Y-85150000D02*
X99750000Y-85150000D01*
X99750000Y-85150000D02*
X100000000Y-85400000D01*
X102000000Y-86350000D02*
X102900000Y-86350000D01*
X102900000Y-86350000D02*
X104000000Y-85250000D01*
X104000000Y-85250000D02*
X104000000Y-85150000D01*
X104500000Y-85250000D02*
X104500000Y-85150000D01*
X116859999Y-100506001D02*
X118893999Y-100506001D01*
X117620000Y-96056000D02*
X116870000Y-96056000D01*
X116870000Y-96056000D02*
X116794999Y-96131001D01*
X116794999Y-96131001D02*
X116794999Y-100441001D01*
X116794999Y-100441001D02*
X116859999Y-100506001D01*
X118893999Y-100506001D02*
X119500000Y-99900000D01*
X113670000Y-90606000D02*
X113719999Y-90556001D01*
X113719999Y-90556001D02*
X113719999Y-89845999D01*
X113719999Y-89845999D02*
X113784999Y-89780999D01*
X113784999Y-89780999D02*
X118669001Y-89780999D01*
X118669001Y-89780999D02*
X120600000Y-87850000D01*
X120600000Y-87850000D02*
X121500000Y-87850000D01*
X113170000Y-90606000D02*
X113170000Y-88280000D01*
X113170000Y-88280000D02*
X113600000Y-87850000D01*
X113600000Y-87850000D02*
X114500000Y-87850000D01*
X104000000Y-87850000D02*
X104900000Y-87850000D01*
X104900000Y-87850000D02*
X106162989Y-89112989D01*
X106162989Y-89112989D02*
X112426989Y-89112989D01*
X112426989Y-89112989D02*
X113170000Y-89856000D01*
X113170000Y-89856000D02*
X113170000Y-90606000D01*
X120750000Y-95076998D02*
X120750000Y-100400000D01*
X117620000Y-95056000D02*
X118370000Y-95056000D01*
X119225348Y-94200652D02*
X119873654Y-94200652D01*
X118370000Y-95056000D02*
X119225348Y-94200652D01*
X119873654Y-94200652D02*
X120750000Y-95076998D01*
X110670000Y-90606000D02*
X110670000Y-92820000D01*
X110670000Y-92820000D02*
X111250000Y-93400000D01*
X110170000Y-90606000D02*
X110170000Y-93820000D01*
X110170000Y-93820000D02*
X111000000Y-94650000D01*
X110170000Y-90606000D02*
X110170000Y-90982000D01*
D22*
G36*
X120216750Y-114447000D02*
X121191000Y-114447000D01*
X121191000Y-114427000D01*
X121445000Y-114427000D01*
X121445000Y-114447000D01*
X121465000Y-114447000D01*
X121465000Y-114701000D01*
X121445000Y-114701000D01*
X121445000Y-115800250D01*
X121603750Y-115959000D01*
X122069310Y-115959000D01*
X122302699Y-115862327D01*
X122481327Y-115683698D01*
X122540000Y-115542049D01*
X122540000Y-116107968D01*
X122472862Y-116135777D01*
X122148438Y-116352549D01*
X122015473Y-116485515D01*
X121977988Y-116523000D01*
X104340902Y-116523000D01*
X104376919Y-116487046D01*
X104534820Y-116106777D01*
X104534973Y-115931440D01*
X105281000Y-115931440D01*
X105516317Y-115887162D01*
X105732441Y-115748090D01*
X105877431Y-115535890D01*
X105903198Y-115408649D01*
X105942838Y-115619317D01*
X106081910Y-115835441D01*
X106294110Y-115980431D01*
X106546000Y-116031440D01*
X107418638Y-116031440D01*
X107558599Y-116171401D01*
X107805160Y-116336148D01*
X108096000Y-116394000D01*
X111376000Y-116394000D01*
X111666839Y-116336148D01*
X111913401Y-116171401D01*
X112053362Y-116031440D01*
X112926000Y-116031440D01*
X113161317Y-115987162D01*
X113377441Y-115848090D01*
X113522431Y-115635890D01*
X113544993Y-115524477D01*
X113562838Y-115619317D01*
X113701910Y-115835441D01*
X113914110Y-115980431D01*
X114166000Y-116031440D01*
X115466000Y-116031440D01*
X115701317Y-115987162D01*
X115917441Y-115848090D01*
X116062431Y-115635890D01*
X116111415Y-115394000D01*
X116280267Y-115394000D01*
X116412954Y-115526919D01*
X116793223Y-115684820D01*
X117204971Y-115685179D01*
X117585515Y-115527942D01*
X117772000Y-115341782D01*
X117772000Y-115450309D01*
X117868673Y-115683698D01*
X118047301Y-115862327D01*
X118280690Y-115959000D01*
X118746250Y-115959000D01*
X118905000Y-115800250D01*
X118905000Y-114701000D01*
X119159000Y-114701000D01*
X119159000Y-115800250D01*
X119317750Y-115959000D01*
X119783310Y-115959000D01*
X120016699Y-115862327D01*
X120175000Y-115704025D01*
X120333301Y-115862327D01*
X120566690Y-115959000D01*
X121032250Y-115959000D01*
X121191000Y-115800250D01*
X121191000Y-114701000D01*
X120216750Y-114701000D01*
X120175000Y-114742750D01*
X120133250Y-114701000D01*
X119159000Y-114701000D01*
X118905000Y-114701000D01*
X118885000Y-114701000D01*
X118885000Y-114447000D01*
X118905000Y-114447000D01*
X118905000Y-114427000D01*
X119159000Y-114427000D01*
X119159000Y-114447000D01*
X120133250Y-114447000D01*
X120175000Y-114405250D01*
X120216750Y-114447000D01*
X120216750Y-114447000D01*
G37*
X120216750Y-114447000D02*
X121191000Y-114447000D01*
X121191000Y-114427000D01*
X121445000Y-114427000D01*
X121445000Y-114447000D01*
X121465000Y-114447000D01*
X121465000Y-114701000D01*
X121445000Y-114701000D01*
X121445000Y-115800250D01*
X121603750Y-115959000D01*
X122069310Y-115959000D01*
X122302699Y-115862327D01*
X122481327Y-115683698D01*
X122540000Y-115542049D01*
X122540000Y-116107968D01*
X122472862Y-116135777D01*
X122148438Y-116352549D01*
X122015473Y-116485515D01*
X121977988Y-116523000D01*
X104340902Y-116523000D01*
X104376919Y-116487046D01*
X104534820Y-116106777D01*
X104534973Y-115931440D01*
X105281000Y-115931440D01*
X105516317Y-115887162D01*
X105732441Y-115748090D01*
X105877431Y-115535890D01*
X105903198Y-115408649D01*
X105942838Y-115619317D01*
X106081910Y-115835441D01*
X106294110Y-115980431D01*
X106546000Y-116031440D01*
X107418638Y-116031440D01*
X107558599Y-116171401D01*
X107805160Y-116336148D01*
X108096000Y-116394000D01*
X111376000Y-116394000D01*
X111666839Y-116336148D01*
X111913401Y-116171401D01*
X112053362Y-116031440D01*
X112926000Y-116031440D01*
X113161317Y-115987162D01*
X113377441Y-115848090D01*
X113522431Y-115635890D01*
X113544993Y-115524477D01*
X113562838Y-115619317D01*
X113701910Y-115835441D01*
X113914110Y-115980431D01*
X114166000Y-116031440D01*
X115466000Y-116031440D01*
X115701317Y-115987162D01*
X115917441Y-115848090D01*
X116062431Y-115635890D01*
X116111415Y-115394000D01*
X116280267Y-115394000D01*
X116412954Y-115526919D01*
X116793223Y-115684820D01*
X117204971Y-115685179D01*
X117585515Y-115527942D01*
X117772000Y-115341782D01*
X117772000Y-115450309D01*
X117868673Y-115683698D01*
X118047301Y-115862327D01*
X118280690Y-115959000D01*
X118746250Y-115959000D01*
X118905000Y-115800250D01*
X118905000Y-114701000D01*
X119159000Y-114701000D01*
X119159000Y-115800250D01*
X119317750Y-115959000D01*
X119783310Y-115959000D01*
X120016699Y-115862327D01*
X120175000Y-115704025D01*
X120333301Y-115862327D01*
X120566690Y-115959000D01*
X121032250Y-115959000D01*
X121191000Y-115800250D01*
X121191000Y-114701000D01*
X120216750Y-114701000D01*
X120175000Y-114742750D01*
X120133250Y-114701000D01*
X119159000Y-114701000D01*
X118905000Y-114701000D01*
X118885000Y-114701000D01*
X118885000Y-114447000D01*
X118905000Y-114447000D01*
X118905000Y-114427000D01*
X119159000Y-114427000D01*
X119159000Y-114447000D01*
X120133250Y-114447000D01*
X120175000Y-114405250D01*
X120216750Y-114447000D01*
G36*
X115810910Y-109101441D02*
X115837500Y-109119609D01*
X115837500Y-109126250D01*
X115996250Y-109285000D01*
X116051309Y-109285000D01*
X116104589Y-109262931D01*
X116275000Y-109297440D01*
X116390000Y-109297440D01*
X116390000Y-111067000D01*
X116447852Y-111357839D01*
X116612599Y-111604401D01*
X117619599Y-112611401D01*
X117759560Y-112704920D01*
X117759560Y-112824000D01*
X117803838Y-113059317D01*
X117942910Y-113275441D01*
X118011006Y-113321969D01*
X117868673Y-113464302D01*
X117772000Y-113697691D01*
X117772000Y-113958358D01*
X117587046Y-113773081D01*
X117206777Y-113615180D01*
X116795029Y-113614821D01*
X116414485Y-113772058D01*
X116312365Y-113874000D01*
X116111558Y-113874000D01*
X116069162Y-113648683D01*
X115930090Y-113432559D01*
X115717890Y-113287569D01*
X115704803Y-113284919D01*
X115917441Y-113148090D01*
X116062431Y-112935890D01*
X116113440Y-112684000D01*
X116113440Y-111184000D01*
X116069162Y-110948683D01*
X115930090Y-110732559D01*
X115717890Y-110587569D01*
X115466000Y-110536560D01*
X114593362Y-110536560D01*
X113336931Y-109280129D01*
X113348691Y-109285000D01*
X113403750Y-109285000D01*
X113562500Y-109126250D01*
X113562500Y-109110525D01*
X113650000Y-109023026D01*
X113737500Y-109110525D01*
X113737500Y-109126250D01*
X113896250Y-109285000D01*
X113951309Y-109285000D01*
X114000000Y-109264832D01*
X114048691Y-109285000D01*
X114103750Y-109285000D01*
X114262500Y-109126250D01*
X114262500Y-109110525D01*
X114350000Y-109023026D01*
X114437500Y-109110525D01*
X114437500Y-109126250D01*
X114596250Y-109285000D01*
X114651309Y-109285000D01*
X114700000Y-109264832D01*
X114748691Y-109285000D01*
X114803750Y-109285000D01*
X114962500Y-109126250D01*
X114962500Y-109110525D01*
X115050000Y-109023026D01*
X115137500Y-109110525D01*
X115137500Y-109126250D01*
X115296250Y-109285000D01*
X115351309Y-109285000D01*
X115400000Y-109264832D01*
X115448691Y-109285000D01*
X115503750Y-109285000D01*
X115662500Y-109126250D01*
X115662500Y-109110525D01*
X115756359Y-109016667D01*
X115810910Y-109101441D01*
X115810910Y-109101441D01*
G37*
X115810910Y-109101441D02*
X115837500Y-109119609D01*
X115837500Y-109126250D01*
X115996250Y-109285000D01*
X116051309Y-109285000D01*
X116104589Y-109262931D01*
X116275000Y-109297440D01*
X116390000Y-109297440D01*
X116390000Y-111067000D01*
X116447852Y-111357839D01*
X116612599Y-111604401D01*
X117619599Y-112611401D01*
X117759560Y-112704920D01*
X117759560Y-112824000D01*
X117803838Y-113059317D01*
X117942910Y-113275441D01*
X118011006Y-113321969D01*
X117868673Y-113464302D01*
X117772000Y-113697691D01*
X117772000Y-113958358D01*
X117587046Y-113773081D01*
X117206777Y-113615180D01*
X116795029Y-113614821D01*
X116414485Y-113772058D01*
X116312365Y-113874000D01*
X116111558Y-113874000D01*
X116069162Y-113648683D01*
X115930090Y-113432559D01*
X115717890Y-113287569D01*
X115704803Y-113284919D01*
X115917441Y-113148090D01*
X116062431Y-112935890D01*
X116113440Y-112684000D01*
X116113440Y-111184000D01*
X116069162Y-110948683D01*
X115930090Y-110732559D01*
X115717890Y-110587569D01*
X115466000Y-110536560D01*
X114593362Y-110536560D01*
X113336931Y-109280129D01*
X113348691Y-109285000D01*
X113403750Y-109285000D01*
X113562500Y-109126250D01*
X113562500Y-109110525D01*
X113650000Y-109023026D01*
X113737500Y-109110525D01*
X113737500Y-109126250D01*
X113896250Y-109285000D01*
X113951309Y-109285000D01*
X114000000Y-109264832D01*
X114048691Y-109285000D01*
X114103750Y-109285000D01*
X114262500Y-109126250D01*
X114262500Y-109110525D01*
X114350000Y-109023026D01*
X114437500Y-109110525D01*
X114437500Y-109126250D01*
X114596250Y-109285000D01*
X114651309Y-109285000D01*
X114700000Y-109264832D01*
X114748691Y-109285000D01*
X114803750Y-109285000D01*
X114962500Y-109126250D01*
X114962500Y-109110525D01*
X115050000Y-109023026D01*
X115137500Y-109110525D01*
X115137500Y-109126250D01*
X115296250Y-109285000D01*
X115351309Y-109285000D01*
X115400000Y-109264832D01*
X115448691Y-109285000D01*
X115503750Y-109285000D01*
X115662500Y-109126250D01*
X115662500Y-109110525D01*
X115756359Y-109016667D01*
X115810910Y-109101441D01*
G36*
X105310910Y-109101441D02*
X105337500Y-109119609D01*
X105337500Y-109126250D01*
X105496250Y-109285000D01*
X105551309Y-109285000D01*
X105604589Y-109262931D01*
X105775000Y-109297440D01*
X106125000Y-109297440D01*
X106299469Y-109264611D01*
X106348691Y-109285000D01*
X106403750Y-109285000D01*
X106562500Y-109126250D01*
X106562500Y-109123061D01*
X106576441Y-109114090D01*
X106643265Y-109016290D01*
X106737500Y-109110525D01*
X106737500Y-109126250D01*
X106896250Y-109285000D01*
X106951309Y-109285000D01*
X107000000Y-109264832D01*
X107048691Y-109285000D01*
X107103750Y-109285000D01*
X107222998Y-109165752D01*
X107222998Y-109285000D01*
X107290000Y-109285000D01*
X107290000Y-109765198D01*
X106658599Y-110396599D01*
X106565080Y-110536560D01*
X106546000Y-110536560D01*
X106310683Y-110580838D01*
X106094559Y-110719910D01*
X105949569Y-110932110D01*
X105907865Y-111138051D01*
X105819327Y-110924302D01*
X105640699Y-110745673D01*
X105407310Y-110649000D01*
X104941750Y-110649000D01*
X104783000Y-110807750D01*
X104783000Y-111907000D01*
X104803000Y-111907000D01*
X104803000Y-112161000D01*
X104783000Y-112161000D01*
X104783000Y-112181000D01*
X104529000Y-112181000D01*
X104529000Y-112161000D01*
X103554750Y-112161000D01*
X103513000Y-112202750D01*
X103471250Y-112161000D01*
X102497000Y-112161000D01*
X102497000Y-112181000D01*
X102243000Y-112181000D01*
X102243000Y-112161000D01*
X102223000Y-112161000D01*
X102223000Y-111907000D01*
X102243000Y-111907000D01*
X102243000Y-111887000D01*
X102497000Y-111887000D01*
X102497000Y-111907000D01*
X103471250Y-111907000D01*
X103513000Y-111865250D01*
X103554750Y-111907000D01*
X104529000Y-111907000D01*
X104529000Y-110807750D01*
X104370250Y-110649000D01*
X103904690Y-110649000D01*
X103671301Y-110745673D01*
X103513000Y-110903975D01*
X103354699Y-110745673D01*
X103121310Y-110649000D01*
X102655750Y-110649000D01*
X102497002Y-110807748D01*
X102497002Y-110702210D01*
X102987401Y-110211811D01*
X103152148Y-109965250D01*
X103210000Y-109674410D01*
X103210000Y-109297440D01*
X103325000Y-109297440D01*
X103499469Y-109264611D01*
X103548691Y-109285000D01*
X103603750Y-109285000D01*
X103762500Y-109126250D01*
X103762500Y-109123061D01*
X103776441Y-109114090D01*
X103849884Y-109006603D01*
X103910910Y-109101441D01*
X103937500Y-109119609D01*
X103937500Y-109126250D01*
X104096250Y-109285000D01*
X104151309Y-109285000D01*
X104204589Y-109262931D01*
X104375000Y-109297440D01*
X104725000Y-109297440D01*
X104899469Y-109264611D01*
X104948691Y-109285000D01*
X105003750Y-109285000D01*
X105162500Y-109126250D01*
X105162500Y-109123061D01*
X105176441Y-109114090D01*
X105249884Y-109006603D01*
X105310910Y-109101441D01*
X105310910Y-109101441D01*
G37*
X105310910Y-109101441D02*
X105337500Y-109119609D01*
X105337500Y-109126250D01*
X105496250Y-109285000D01*
X105551309Y-109285000D01*
X105604589Y-109262931D01*
X105775000Y-109297440D01*
X106125000Y-109297440D01*
X106299469Y-109264611D01*
X106348691Y-109285000D01*
X106403750Y-109285000D01*
X106562500Y-109126250D01*
X106562500Y-109123061D01*
X106576441Y-109114090D01*
X106643265Y-109016290D01*
X106737500Y-109110525D01*
X106737500Y-109126250D01*
X106896250Y-109285000D01*
X106951309Y-109285000D01*
X107000000Y-109264832D01*
X107048691Y-109285000D01*
X107103750Y-109285000D01*
X107222998Y-109165752D01*
X107222998Y-109285000D01*
X107290000Y-109285000D01*
X107290000Y-109765198D01*
X106658599Y-110396599D01*
X106565080Y-110536560D01*
X106546000Y-110536560D01*
X106310683Y-110580838D01*
X106094559Y-110719910D01*
X105949569Y-110932110D01*
X105907865Y-111138051D01*
X105819327Y-110924302D01*
X105640699Y-110745673D01*
X105407310Y-110649000D01*
X104941750Y-110649000D01*
X104783000Y-110807750D01*
X104783000Y-111907000D01*
X104803000Y-111907000D01*
X104803000Y-112161000D01*
X104783000Y-112161000D01*
X104783000Y-112181000D01*
X104529000Y-112181000D01*
X104529000Y-112161000D01*
X103554750Y-112161000D01*
X103513000Y-112202750D01*
X103471250Y-112161000D01*
X102497000Y-112161000D01*
X102497000Y-112181000D01*
X102243000Y-112181000D01*
X102243000Y-112161000D01*
X102223000Y-112161000D01*
X102223000Y-111907000D01*
X102243000Y-111907000D01*
X102243000Y-111887000D01*
X102497000Y-111887000D01*
X102497000Y-111907000D01*
X103471250Y-111907000D01*
X103513000Y-111865250D01*
X103554750Y-111907000D01*
X104529000Y-111907000D01*
X104529000Y-110807750D01*
X104370250Y-110649000D01*
X103904690Y-110649000D01*
X103671301Y-110745673D01*
X103513000Y-110903975D01*
X103354699Y-110745673D01*
X103121310Y-110649000D01*
X102655750Y-110649000D01*
X102497002Y-110807748D01*
X102497002Y-110702210D01*
X102987401Y-110211811D01*
X103152148Y-109965250D01*
X103210000Y-109674410D01*
X103210000Y-109297440D01*
X103325000Y-109297440D01*
X103499469Y-109264611D01*
X103548691Y-109285000D01*
X103603750Y-109285000D01*
X103762500Y-109126250D01*
X103762500Y-109123061D01*
X103776441Y-109114090D01*
X103849884Y-109006603D01*
X103910910Y-109101441D01*
X103937500Y-109119609D01*
X103937500Y-109126250D01*
X104096250Y-109285000D01*
X104151309Y-109285000D01*
X104204589Y-109262931D01*
X104375000Y-109297440D01*
X104725000Y-109297440D01*
X104899469Y-109264611D01*
X104948691Y-109285000D01*
X105003750Y-109285000D01*
X105162500Y-109126250D01*
X105162500Y-109123061D01*
X105176441Y-109114090D01*
X105249884Y-109006603D01*
X105310910Y-109101441D01*
G36*
X109537500Y-109110525D02*
X109537500Y-109126250D01*
X109696250Y-109285000D01*
X109751309Y-109285000D01*
X109800000Y-109264832D01*
X109848691Y-109285000D01*
X109903750Y-109285000D01*
X110022998Y-109165752D01*
X110022998Y-109285000D01*
X110090000Y-109285000D01*
X110090000Y-109508000D01*
X110147852Y-109798839D01*
X110312599Y-110045401D01*
X111098469Y-110831271D01*
X111029569Y-110932110D01*
X110987865Y-111138051D01*
X110899327Y-110924302D01*
X110720699Y-110745673D01*
X110487310Y-110649000D01*
X110021750Y-110649000D01*
X109863000Y-110807750D01*
X109863000Y-111907000D01*
X109883000Y-111907000D01*
X109883000Y-112161000D01*
X109863000Y-112161000D01*
X109863000Y-112181000D01*
X109609000Y-112181000D01*
X109609000Y-112161000D01*
X109589000Y-112161000D01*
X109589000Y-111907000D01*
X109609000Y-111907000D01*
X109609000Y-110807750D01*
X109450250Y-110649000D01*
X108984690Y-110649000D01*
X108751301Y-110745673D01*
X108572673Y-110924302D01*
X108484588Y-111136957D01*
X108449162Y-110948683D01*
X108373579Y-110831223D01*
X108587401Y-110617401D01*
X108752148Y-110370840D01*
X108810000Y-110080000D01*
X108810000Y-109285000D01*
X108877002Y-109285000D01*
X108877002Y-109165752D01*
X108996250Y-109285000D01*
X109051309Y-109285000D01*
X109100000Y-109264832D01*
X109148691Y-109285000D01*
X109203750Y-109285000D01*
X109362500Y-109126250D01*
X109362500Y-109110525D01*
X109450000Y-109023026D01*
X109537500Y-109110525D01*
X109537500Y-109110525D01*
G37*
X109537500Y-109110525D02*
X109537500Y-109126250D01*
X109696250Y-109285000D01*
X109751309Y-109285000D01*
X109800000Y-109264832D01*
X109848691Y-109285000D01*
X109903750Y-109285000D01*
X110022998Y-109165752D01*
X110022998Y-109285000D01*
X110090000Y-109285000D01*
X110090000Y-109508000D01*
X110147852Y-109798839D01*
X110312599Y-110045401D01*
X111098469Y-110831271D01*
X111029569Y-110932110D01*
X110987865Y-111138051D01*
X110899327Y-110924302D01*
X110720699Y-110745673D01*
X110487310Y-110649000D01*
X110021750Y-110649000D01*
X109863000Y-110807750D01*
X109863000Y-111907000D01*
X109883000Y-111907000D01*
X109883000Y-112161000D01*
X109863000Y-112161000D01*
X109863000Y-112181000D01*
X109609000Y-112181000D01*
X109609000Y-112161000D01*
X109589000Y-112161000D01*
X109589000Y-111907000D01*
X109609000Y-111907000D01*
X109609000Y-110807750D01*
X109450250Y-110649000D01*
X108984690Y-110649000D01*
X108751301Y-110745673D01*
X108572673Y-110924302D01*
X108484588Y-111136957D01*
X108449162Y-110948683D01*
X108373579Y-110831223D01*
X108587401Y-110617401D01*
X108752148Y-110370840D01*
X108810000Y-110080000D01*
X108810000Y-109285000D01*
X108877002Y-109285000D01*
X108877002Y-109165752D01*
X108996250Y-109285000D01*
X109051309Y-109285000D01*
X109100000Y-109264832D01*
X109148691Y-109285000D01*
X109203750Y-109285000D01*
X109362500Y-109126250D01*
X109362500Y-109110525D01*
X109450000Y-109023026D01*
X109537500Y-109110525D01*
G36*
X122293223Y-106684820D02*
X122540000Y-106685035D01*
X122540000Y-111079107D01*
X122407090Y-110872559D01*
X122194890Y-110727569D01*
X121943000Y-110676560D01*
X121120362Y-110676560D01*
X120905400Y-110461598D01*
X120658838Y-110296851D01*
X120367999Y-110238999D01*
X119840799Y-110238999D01*
X118876405Y-109274605D01*
X118900000Y-109264832D01*
X118948691Y-109285000D01*
X119003750Y-109285000D01*
X119162500Y-109126250D01*
X119162500Y-109110525D01*
X119263327Y-109009699D01*
X119337500Y-108830630D01*
X119337500Y-109126250D01*
X119496250Y-109285000D01*
X119551309Y-109285000D01*
X119784698Y-109188327D01*
X119963327Y-109009699D01*
X120060000Y-108776310D01*
X120060000Y-108667197D01*
X120223690Y-108735000D01*
X120714250Y-108735000D01*
X120873000Y-108576250D01*
X120873000Y-107477000D01*
X121127000Y-107477000D01*
X121127000Y-108576250D01*
X121285750Y-108735000D01*
X121776310Y-108735000D01*
X122009699Y-108638327D01*
X122188327Y-108459698D01*
X122285000Y-108226309D01*
X122285000Y-107635750D01*
X122126250Y-107477000D01*
X121127000Y-107477000D01*
X120873000Y-107477000D01*
X120853000Y-107477000D01*
X120853000Y-107223000D01*
X120873000Y-107223000D01*
X120873000Y-107203000D01*
X121127000Y-107203000D01*
X121127000Y-107223000D01*
X122126250Y-107223000D01*
X122285000Y-107064250D01*
X122285000Y-106681406D01*
X122293223Y-106684820D01*
X122293223Y-106684820D01*
G37*
X122293223Y-106684820D02*
X122540000Y-106685035D01*
X122540000Y-111079107D01*
X122407090Y-110872559D01*
X122194890Y-110727569D01*
X121943000Y-110676560D01*
X121120362Y-110676560D01*
X120905400Y-110461598D01*
X120658838Y-110296851D01*
X120367999Y-110238999D01*
X119840799Y-110238999D01*
X118876405Y-109274605D01*
X118900000Y-109264832D01*
X118948691Y-109285000D01*
X119003750Y-109285000D01*
X119162500Y-109126250D01*
X119162500Y-109110525D01*
X119263327Y-109009699D01*
X119337500Y-108830630D01*
X119337500Y-109126250D01*
X119496250Y-109285000D01*
X119551309Y-109285000D01*
X119784698Y-109188327D01*
X119963327Y-109009699D01*
X120060000Y-108776310D01*
X120060000Y-108667197D01*
X120223690Y-108735000D01*
X120714250Y-108735000D01*
X120873000Y-108576250D01*
X120873000Y-107477000D01*
X121127000Y-107477000D01*
X121127000Y-108576250D01*
X121285750Y-108735000D01*
X121776310Y-108735000D01*
X122009699Y-108638327D01*
X122188327Y-108459698D01*
X122285000Y-108226309D01*
X122285000Y-107635750D01*
X122126250Y-107477000D01*
X121127000Y-107477000D01*
X120873000Y-107477000D01*
X120853000Y-107477000D01*
X120853000Y-107223000D01*
X120873000Y-107223000D01*
X120873000Y-107203000D01*
X121127000Y-107203000D01*
X121127000Y-107223000D01*
X122126250Y-107223000D01*
X122285000Y-107064250D01*
X122285000Y-106681406D01*
X122293223Y-106684820D01*
G36*
X98814560Y-97968000D02*
X98858838Y-98203317D01*
X98997910Y-98419441D01*
X99210110Y-98564431D01*
X99293977Y-98581414D01*
X99159559Y-98667910D01*
X99014569Y-98880110D01*
X98963560Y-99132000D01*
X98963560Y-100632000D01*
X99007838Y-100867317D01*
X99146910Y-101083441D01*
X99215006Y-101129969D01*
X99072673Y-101272302D01*
X98976000Y-101505691D01*
X98976000Y-102096250D01*
X99134750Y-102255000D01*
X100109000Y-102255000D01*
X100109000Y-102235000D01*
X100363000Y-102235000D01*
X100363000Y-102255000D01*
X101337250Y-102255000D01*
X101496000Y-102096250D01*
X101496000Y-101505691D01*
X101399327Y-101272302D01*
X101258090Y-101131064D01*
X101312441Y-101096090D01*
X101316219Y-101090560D01*
X101543223Y-101184820D01*
X101954971Y-101185179D01*
X102197279Y-101085060D01*
X102263006Y-101129969D01*
X102120673Y-101272302D01*
X102024000Y-101505691D01*
X102024000Y-102096250D01*
X102182750Y-102255000D01*
X103157000Y-102255000D01*
X103157000Y-102235000D01*
X103411000Y-102235000D01*
X103411000Y-102255000D01*
X103431000Y-102255000D01*
X103431000Y-102509000D01*
X103411000Y-102509000D01*
X103411000Y-102529000D01*
X103157000Y-102529000D01*
X103157000Y-102509000D01*
X102182750Y-102509000D01*
X102024000Y-102667750D01*
X102024000Y-103258309D01*
X102120673Y-103491698D01*
X102297085Y-103668111D01*
X101956298Y-104008898D01*
X101925000Y-104002560D01*
X101575000Y-104002560D01*
X101393576Y-104036697D01*
X101225000Y-104002560D01*
X100875000Y-104002560D01*
X100693576Y-104036697D01*
X100525000Y-104002560D01*
X100175000Y-104002560D01*
X99993576Y-104036697D01*
X99825000Y-104002560D01*
X99475000Y-104002560D01*
X99300531Y-104035389D01*
X99251309Y-104015000D01*
X99196250Y-104015000D01*
X99037500Y-104173750D01*
X99037500Y-104176939D01*
X99023559Y-104185910D01*
X98878569Y-104398110D01*
X98862500Y-104477461D01*
X98862500Y-104173750D01*
X98703750Y-104015000D01*
X98648691Y-104015000D01*
X98415302Y-104111673D01*
X98236673Y-104290301D01*
X98140000Y-104523690D01*
X98140000Y-106364250D01*
X98298750Y-106523000D01*
X98827560Y-106523000D01*
X98827560Y-106777000D01*
X98298750Y-106777000D01*
X98140000Y-106935750D01*
X98140000Y-108776310D01*
X98236673Y-109009699D01*
X98351086Y-109124112D01*
X96798638Y-110676560D01*
X96646999Y-110676560D01*
X96646999Y-103767000D01*
X96648250Y-103767000D01*
X96807000Y-103608250D01*
X96807000Y-102509000D01*
X97061000Y-102509000D01*
X97061000Y-103608250D01*
X97219750Y-103767000D01*
X97685310Y-103767000D01*
X97918699Y-103670327D01*
X98097327Y-103491698D01*
X98194000Y-103258309D01*
X98194000Y-102667750D01*
X98976000Y-102667750D01*
X98976000Y-103258309D01*
X99072673Y-103491698D01*
X99251301Y-103670327D01*
X99484690Y-103767000D01*
X99950250Y-103767000D01*
X100109000Y-103608250D01*
X100109000Y-102509000D01*
X100363000Y-102509000D01*
X100363000Y-103608250D01*
X100521750Y-103767000D01*
X100987310Y-103767000D01*
X101220699Y-103670327D01*
X101399327Y-103491698D01*
X101496000Y-103258309D01*
X101496000Y-102667750D01*
X101337250Y-102509000D01*
X100363000Y-102509000D01*
X100109000Y-102509000D01*
X99134750Y-102509000D01*
X98976000Y-102667750D01*
X98194000Y-102667750D01*
X98035250Y-102509000D01*
X97061000Y-102509000D01*
X96807000Y-102509000D01*
X96787000Y-102509000D01*
X96787000Y-102255000D01*
X96807000Y-102255000D01*
X96807000Y-102235000D01*
X97061000Y-102235000D01*
X97061000Y-102255000D01*
X98035250Y-102255000D01*
X98194000Y-102096250D01*
X98194000Y-101505691D01*
X98097327Y-101272302D01*
X97956090Y-101131064D01*
X98010441Y-101096090D01*
X98155431Y-100883890D01*
X98206440Y-100632000D01*
X98206440Y-99132000D01*
X98162162Y-98896683D01*
X98023090Y-98680559D01*
X97927785Y-98615440D01*
X97962000Y-98615440D01*
X98197317Y-98571162D01*
X98413441Y-98432090D01*
X98558431Y-98219890D01*
X98609440Y-97968000D01*
X98609440Y-96595362D01*
X98814560Y-96390242D01*
X98814560Y-97968000D01*
X98814560Y-97968000D01*
G37*
X98814560Y-97968000D02*
X98858838Y-98203317D01*
X98997910Y-98419441D01*
X99210110Y-98564431D01*
X99293977Y-98581414D01*
X99159559Y-98667910D01*
X99014569Y-98880110D01*
X98963560Y-99132000D01*
X98963560Y-100632000D01*
X99007838Y-100867317D01*
X99146910Y-101083441D01*
X99215006Y-101129969D01*
X99072673Y-101272302D01*
X98976000Y-101505691D01*
X98976000Y-102096250D01*
X99134750Y-102255000D01*
X100109000Y-102255000D01*
X100109000Y-102235000D01*
X100363000Y-102235000D01*
X100363000Y-102255000D01*
X101337250Y-102255000D01*
X101496000Y-102096250D01*
X101496000Y-101505691D01*
X101399327Y-101272302D01*
X101258090Y-101131064D01*
X101312441Y-101096090D01*
X101316219Y-101090560D01*
X101543223Y-101184820D01*
X101954971Y-101185179D01*
X102197279Y-101085060D01*
X102263006Y-101129969D01*
X102120673Y-101272302D01*
X102024000Y-101505691D01*
X102024000Y-102096250D01*
X102182750Y-102255000D01*
X103157000Y-102255000D01*
X103157000Y-102235000D01*
X103411000Y-102235000D01*
X103411000Y-102255000D01*
X103431000Y-102255000D01*
X103431000Y-102509000D01*
X103411000Y-102509000D01*
X103411000Y-102529000D01*
X103157000Y-102529000D01*
X103157000Y-102509000D01*
X102182750Y-102509000D01*
X102024000Y-102667750D01*
X102024000Y-103258309D01*
X102120673Y-103491698D01*
X102297085Y-103668111D01*
X101956298Y-104008898D01*
X101925000Y-104002560D01*
X101575000Y-104002560D01*
X101393576Y-104036697D01*
X101225000Y-104002560D01*
X100875000Y-104002560D01*
X100693576Y-104036697D01*
X100525000Y-104002560D01*
X100175000Y-104002560D01*
X99993576Y-104036697D01*
X99825000Y-104002560D01*
X99475000Y-104002560D01*
X99300531Y-104035389D01*
X99251309Y-104015000D01*
X99196250Y-104015000D01*
X99037500Y-104173750D01*
X99037500Y-104176939D01*
X99023559Y-104185910D01*
X98878569Y-104398110D01*
X98862500Y-104477461D01*
X98862500Y-104173750D01*
X98703750Y-104015000D01*
X98648691Y-104015000D01*
X98415302Y-104111673D01*
X98236673Y-104290301D01*
X98140000Y-104523690D01*
X98140000Y-106364250D01*
X98298750Y-106523000D01*
X98827560Y-106523000D01*
X98827560Y-106777000D01*
X98298750Y-106777000D01*
X98140000Y-106935750D01*
X98140000Y-108776310D01*
X98236673Y-109009699D01*
X98351086Y-109124112D01*
X96798638Y-110676560D01*
X96646999Y-110676560D01*
X96646999Y-103767000D01*
X96648250Y-103767000D01*
X96807000Y-103608250D01*
X96807000Y-102509000D01*
X97061000Y-102509000D01*
X97061000Y-103608250D01*
X97219750Y-103767000D01*
X97685310Y-103767000D01*
X97918699Y-103670327D01*
X98097327Y-103491698D01*
X98194000Y-103258309D01*
X98194000Y-102667750D01*
X98976000Y-102667750D01*
X98976000Y-103258309D01*
X99072673Y-103491698D01*
X99251301Y-103670327D01*
X99484690Y-103767000D01*
X99950250Y-103767000D01*
X100109000Y-103608250D01*
X100109000Y-102509000D01*
X100363000Y-102509000D01*
X100363000Y-103608250D01*
X100521750Y-103767000D01*
X100987310Y-103767000D01*
X101220699Y-103670327D01*
X101399327Y-103491698D01*
X101496000Y-103258309D01*
X101496000Y-102667750D01*
X101337250Y-102509000D01*
X100363000Y-102509000D01*
X100109000Y-102509000D01*
X99134750Y-102509000D01*
X98976000Y-102667750D01*
X98194000Y-102667750D01*
X98035250Y-102509000D01*
X97061000Y-102509000D01*
X96807000Y-102509000D01*
X96787000Y-102509000D01*
X96787000Y-102255000D01*
X96807000Y-102255000D01*
X96807000Y-102235000D01*
X97061000Y-102235000D01*
X97061000Y-102255000D01*
X98035250Y-102255000D01*
X98194000Y-102096250D01*
X98194000Y-101505691D01*
X98097327Y-101272302D01*
X97956090Y-101131064D01*
X98010441Y-101096090D01*
X98155431Y-100883890D01*
X98206440Y-100632000D01*
X98206440Y-99132000D01*
X98162162Y-98896683D01*
X98023090Y-98680559D01*
X97927785Y-98615440D01*
X97962000Y-98615440D01*
X98197317Y-98571162D01*
X98413441Y-98432090D01*
X98558431Y-98219890D01*
X98609440Y-97968000D01*
X98609440Y-96595362D01*
X98814560Y-96390242D01*
X98814560Y-97968000D01*
G36*
X119337500Y-106523000D02*
X119397000Y-106523000D01*
X119397000Y-106777000D01*
X119337500Y-106777000D01*
X119337500Y-106913250D01*
X119201250Y-106777000D01*
X119103000Y-106777000D01*
X119103000Y-106523000D01*
X119201250Y-106523000D01*
X119221250Y-106503000D01*
X119337500Y-106503000D01*
X119337500Y-106523000D01*
X119337500Y-106523000D01*
G37*
X119337500Y-106523000D02*
X119397000Y-106523000D01*
X119397000Y-106777000D01*
X119337500Y-106777000D01*
X119337500Y-106913250D01*
X119201250Y-106777000D01*
X119103000Y-106777000D01*
X119103000Y-106523000D01*
X119201250Y-106523000D01*
X119221250Y-106503000D01*
X119337500Y-106503000D01*
X119337500Y-106523000D01*
G36*
X109498750Y-106523000D02*
X109597000Y-106523000D01*
X109597000Y-106777000D01*
X109498750Y-106777000D01*
X109450000Y-106825750D01*
X109401250Y-106777000D01*
X109303000Y-106777000D01*
X109303000Y-106523000D01*
X109401250Y-106523000D01*
X109421250Y-106503000D01*
X109478750Y-106503000D01*
X109498750Y-106523000D01*
X109498750Y-106523000D01*
G37*
X109498750Y-106523000D02*
X109597000Y-106523000D01*
X109597000Y-106777000D01*
X109498750Y-106777000D01*
X109450000Y-106825750D01*
X109401250Y-106777000D01*
X109303000Y-106777000D01*
X109303000Y-106523000D01*
X109401250Y-106523000D01*
X109421250Y-106503000D01*
X109478750Y-106503000D01*
X109498750Y-106523000D01*
G36*
X113698750Y-106523000D02*
X114301250Y-106523000D01*
X114321250Y-106503000D01*
X114378750Y-106503000D01*
X114398750Y-106523000D01*
X115001250Y-106523000D01*
X115021250Y-106503000D01*
X115078750Y-106503000D01*
X115098750Y-106523000D01*
X115197000Y-106523000D01*
X115197000Y-106777000D01*
X115098750Y-106777000D01*
X115050000Y-106825750D01*
X115001250Y-106777000D01*
X114398750Y-106777000D01*
X114350000Y-106825750D01*
X114301250Y-106777000D01*
X113698750Y-106777000D01*
X113650000Y-106825750D01*
X113601250Y-106777000D01*
X113503000Y-106777000D01*
X113503000Y-106523000D01*
X113601250Y-106523000D01*
X113621250Y-106503000D01*
X113678750Y-106503000D01*
X113698750Y-106523000D01*
X113698750Y-106523000D01*
G37*
X113698750Y-106523000D02*
X114301250Y-106523000D01*
X114321250Y-106503000D01*
X114378750Y-106503000D01*
X114398750Y-106523000D01*
X115001250Y-106523000D01*
X115021250Y-106503000D01*
X115078750Y-106503000D01*
X115098750Y-106523000D01*
X115197000Y-106523000D01*
X115197000Y-106777000D01*
X115098750Y-106777000D01*
X115050000Y-106825750D01*
X115001250Y-106777000D01*
X114398750Y-106777000D01*
X114350000Y-106825750D01*
X114301250Y-106777000D01*
X113698750Y-106777000D01*
X113650000Y-106825750D01*
X113601250Y-106777000D01*
X113503000Y-106777000D01*
X113503000Y-106523000D01*
X113601250Y-106523000D01*
X113621250Y-106503000D01*
X113678750Y-106503000D01*
X113698750Y-106523000D01*
G36*
X107464821Y-92854971D02*
X107622058Y-93235515D01*
X107740000Y-93353663D01*
X107740000Y-93859412D01*
X107797852Y-94150251D01*
X107962599Y-94396813D01*
X109928198Y-96362412D01*
X110174760Y-96527159D01*
X110465599Y-96585011D01*
X114001987Y-96585011D01*
X114292826Y-96527159D01*
X114539388Y-96362412D01*
X114769043Y-96132757D01*
X114912954Y-96276919D01*
X115293223Y-96434820D01*
X115704971Y-96435179D01*
X115993407Y-96316000D01*
X116034999Y-96316000D01*
X116034999Y-100420999D01*
X110245001Y-100420999D01*
X110002415Y-100469253D01*
X109954161Y-100478851D01*
X109707600Y-100643598D01*
X109632599Y-100718599D01*
X109538229Y-100859834D01*
X109415411Y-100882944D01*
X109295000Y-100858560D01*
X109045000Y-100858560D01*
X108915411Y-100882944D01*
X108795000Y-100858560D01*
X108545000Y-100858560D01*
X108415411Y-100882944D01*
X108359025Y-100871525D01*
X108585515Y-100777942D01*
X108876919Y-100487046D01*
X109034820Y-100106777D01*
X109035179Y-99695029D01*
X108877942Y-99314485D01*
X108587046Y-99023081D01*
X108206777Y-98865180D01*
X107795029Y-98864821D01*
X107414485Y-99022058D01*
X107290853Y-99145474D01*
X107237095Y-99061931D01*
X107258327Y-99040699D01*
X107335597Y-98854153D01*
X107355000Y-98834750D01*
X107355000Y-98777250D01*
X107335597Y-98757847D01*
X107258327Y-98571301D01*
X107236662Y-98549636D01*
X107316431Y-98432890D01*
X107331558Y-98358192D01*
X107355000Y-98334750D01*
X107355000Y-98304690D01*
X107346532Y-98284247D01*
X107367440Y-98181000D01*
X107367440Y-97931000D01*
X107347550Y-97825295D01*
X107355000Y-97807310D01*
X107355000Y-97777250D01*
X107334688Y-97756938D01*
X107323162Y-97695683D01*
X107237095Y-97561931D01*
X107258327Y-97540699D01*
X107335597Y-97354153D01*
X107355000Y-97334750D01*
X107355000Y-97277250D01*
X107335597Y-97257847D01*
X107258327Y-97071301D01*
X107243026Y-97056000D01*
X107258327Y-97040699D01*
X107335597Y-96854153D01*
X107355000Y-96834750D01*
X107355000Y-96777250D01*
X107335597Y-96757847D01*
X107258327Y-96571301D01*
X107236662Y-96549636D01*
X107316431Y-96432890D01*
X107331558Y-96358192D01*
X107355000Y-96334750D01*
X107355000Y-96304690D01*
X107346532Y-96284247D01*
X107367440Y-96181000D01*
X107367440Y-95931000D01*
X107343056Y-95801411D01*
X107367440Y-95681000D01*
X107367440Y-95431000D01*
X107343056Y-95301411D01*
X107367440Y-95181000D01*
X107367440Y-94931000D01*
X107343056Y-94801411D01*
X107367440Y-94681000D01*
X107367440Y-94431000D01*
X107343056Y-94301411D01*
X107367440Y-94181000D01*
X107367440Y-93931000D01*
X107343056Y-93801411D01*
X107367440Y-93681000D01*
X107367440Y-93431000D01*
X107343056Y-93301411D01*
X107367440Y-93181000D01*
X107367440Y-92931000D01*
X107343056Y-92801411D01*
X107366630Y-92684999D01*
X107464969Y-92684999D01*
X107464821Y-92854971D01*
X107464821Y-92854971D01*
G37*
X107464821Y-92854971D02*
X107622058Y-93235515D01*
X107740000Y-93353663D01*
X107740000Y-93859412D01*
X107797852Y-94150251D01*
X107962599Y-94396813D01*
X109928198Y-96362412D01*
X110174760Y-96527159D01*
X110465599Y-96585011D01*
X114001987Y-96585011D01*
X114292826Y-96527159D01*
X114539388Y-96362412D01*
X114769043Y-96132757D01*
X114912954Y-96276919D01*
X115293223Y-96434820D01*
X115704971Y-96435179D01*
X115993407Y-96316000D01*
X116034999Y-96316000D01*
X116034999Y-100420999D01*
X110245001Y-100420999D01*
X110002415Y-100469253D01*
X109954161Y-100478851D01*
X109707600Y-100643598D01*
X109632599Y-100718599D01*
X109538229Y-100859834D01*
X109415411Y-100882944D01*
X109295000Y-100858560D01*
X109045000Y-100858560D01*
X108915411Y-100882944D01*
X108795000Y-100858560D01*
X108545000Y-100858560D01*
X108415411Y-100882944D01*
X108359025Y-100871525D01*
X108585515Y-100777942D01*
X108876919Y-100487046D01*
X109034820Y-100106777D01*
X109035179Y-99695029D01*
X108877942Y-99314485D01*
X108587046Y-99023081D01*
X108206777Y-98865180D01*
X107795029Y-98864821D01*
X107414485Y-99022058D01*
X107290853Y-99145474D01*
X107237095Y-99061931D01*
X107258327Y-99040699D01*
X107335597Y-98854153D01*
X107355000Y-98834750D01*
X107355000Y-98777250D01*
X107335597Y-98757847D01*
X107258327Y-98571301D01*
X107236662Y-98549636D01*
X107316431Y-98432890D01*
X107331558Y-98358192D01*
X107355000Y-98334750D01*
X107355000Y-98304690D01*
X107346532Y-98284247D01*
X107367440Y-98181000D01*
X107367440Y-97931000D01*
X107347550Y-97825295D01*
X107355000Y-97807310D01*
X107355000Y-97777250D01*
X107334688Y-97756938D01*
X107323162Y-97695683D01*
X107237095Y-97561931D01*
X107258327Y-97540699D01*
X107335597Y-97354153D01*
X107355000Y-97334750D01*
X107355000Y-97277250D01*
X107335597Y-97257847D01*
X107258327Y-97071301D01*
X107243026Y-97056000D01*
X107258327Y-97040699D01*
X107335597Y-96854153D01*
X107355000Y-96834750D01*
X107355000Y-96777250D01*
X107335597Y-96757847D01*
X107258327Y-96571301D01*
X107236662Y-96549636D01*
X107316431Y-96432890D01*
X107331558Y-96358192D01*
X107355000Y-96334750D01*
X107355000Y-96304690D01*
X107346532Y-96284247D01*
X107367440Y-96181000D01*
X107367440Y-95931000D01*
X107343056Y-95801411D01*
X107367440Y-95681000D01*
X107367440Y-95431000D01*
X107343056Y-95301411D01*
X107367440Y-95181000D01*
X107367440Y-94931000D01*
X107343056Y-94801411D01*
X107367440Y-94681000D01*
X107367440Y-94431000D01*
X107343056Y-94301411D01*
X107367440Y-94181000D01*
X107367440Y-93931000D01*
X107343056Y-93801411D01*
X107367440Y-93681000D01*
X107367440Y-93431000D01*
X107343056Y-93301411D01*
X107367440Y-93181000D01*
X107367440Y-92931000D01*
X107343056Y-92801411D01*
X107366630Y-92684999D01*
X107464969Y-92684999D01*
X107464821Y-92854971D01*
G36*
X120598110Y-89196431D02*
X120850000Y-89247440D01*
X122150000Y-89247440D01*
X122385317Y-89203162D01*
X122540000Y-89103626D01*
X122540000Y-99365035D01*
X122295029Y-99364821D01*
X121914485Y-99522058D01*
X121789702Y-99646624D01*
X121532162Y-99697852D01*
X121519775Y-99706129D01*
X121510000Y-99696337D01*
X121510000Y-95076998D01*
X121464218Y-94846839D01*
X121452148Y-94786158D01*
X121287401Y-94539597D01*
X120411055Y-93663251D01*
X120164493Y-93498504D01*
X119873654Y-93440652D01*
X119225348Y-93440652D01*
X118934509Y-93498504D01*
X118767440Y-93610136D01*
X118767440Y-93431000D01*
X118743056Y-93301411D01*
X118767440Y-93181000D01*
X118767440Y-92931000D01*
X118743056Y-92801411D01*
X118767440Y-92681000D01*
X118767440Y-92431000D01*
X118723162Y-92195683D01*
X118584090Y-91979559D01*
X118371890Y-91834569D01*
X118120000Y-91783560D01*
X117120000Y-91783560D01*
X116884683Y-91827838D01*
X116668559Y-91966910D01*
X116523569Y-92179110D01*
X116472560Y-92431000D01*
X116472560Y-92681000D01*
X116496944Y-92810589D01*
X116472560Y-92931000D01*
X116472560Y-93181000D01*
X116494199Y-93296000D01*
X115134588Y-93296000D01*
X114843749Y-93353852D01*
X114597187Y-93518599D01*
X113500785Y-94615001D01*
X112035031Y-94615001D01*
X112035179Y-94445029D01*
X111927995Y-94185623D01*
X112126919Y-93987046D01*
X112206639Y-93795059D01*
X112543223Y-93934820D01*
X112954971Y-93935179D01*
X113335515Y-93777942D01*
X113626919Y-93487046D01*
X113784820Y-93106777D01*
X113785179Y-92695029D01*
X113627942Y-92314485D01*
X113337046Y-92023081D01*
X112956777Y-91865180D01*
X112930000Y-91865157D01*
X112930000Y-91737400D01*
X112941753Y-91732532D01*
X113045000Y-91753440D01*
X113295000Y-91753440D01*
X113424589Y-91729056D01*
X113545000Y-91753440D01*
X113795000Y-91753440D01*
X113924589Y-91729056D01*
X114045000Y-91753440D01*
X114295000Y-91753440D01*
X114424589Y-91729056D01*
X114545000Y-91753440D01*
X114795000Y-91753440D01*
X114924589Y-91729056D01*
X115045000Y-91753440D01*
X115295000Y-91753440D01*
X115424589Y-91729056D01*
X115545000Y-91753440D01*
X115795000Y-91753440D01*
X116030317Y-91709162D01*
X116246441Y-91570090D01*
X116391431Y-91357890D01*
X116442440Y-91106000D01*
X116442440Y-90540999D01*
X118669001Y-90540999D01*
X118959840Y-90483147D01*
X119206402Y-90318400D01*
X120437863Y-89086939D01*
X120598110Y-89196431D01*
X120598110Y-89196431D01*
G37*
X120598110Y-89196431D02*
X120850000Y-89247440D01*
X122150000Y-89247440D01*
X122385317Y-89203162D01*
X122540000Y-89103626D01*
X122540000Y-99365035D01*
X122295029Y-99364821D01*
X121914485Y-99522058D01*
X121789702Y-99646624D01*
X121532162Y-99697852D01*
X121519775Y-99706129D01*
X121510000Y-99696337D01*
X121510000Y-95076998D01*
X121464218Y-94846839D01*
X121452148Y-94786158D01*
X121287401Y-94539597D01*
X120411055Y-93663251D01*
X120164493Y-93498504D01*
X119873654Y-93440652D01*
X119225348Y-93440652D01*
X118934509Y-93498504D01*
X118767440Y-93610136D01*
X118767440Y-93431000D01*
X118743056Y-93301411D01*
X118767440Y-93181000D01*
X118767440Y-92931000D01*
X118743056Y-92801411D01*
X118767440Y-92681000D01*
X118767440Y-92431000D01*
X118723162Y-92195683D01*
X118584090Y-91979559D01*
X118371890Y-91834569D01*
X118120000Y-91783560D01*
X117120000Y-91783560D01*
X116884683Y-91827838D01*
X116668559Y-91966910D01*
X116523569Y-92179110D01*
X116472560Y-92431000D01*
X116472560Y-92681000D01*
X116496944Y-92810589D01*
X116472560Y-92931000D01*
X116472560Y-93181000D01*
X116494199Y-93296000D01*
X115134588Y-93296000D01*
X114843749Y-93353852D01*
X114597187Y-93518599D01*
X113500785Y-94615001D01*
X112035031Y-94615001D01*
X112035179Y-94445029D01*
X111927995Y-94185623D01*
X112126919Y-93987046D01*
X112206639Y-93795059D01*
X112543223Y-93934820D01*
X112954971Y-93935179D01*
X113335515Y-93777942D01*
X113626919Y-93487046D01*
X113784820Y-93106777D01*
X113785179Y-92695029D01*
X113627942Y-92314485D01*
X113337046Y-92023081D01*
X112956777Y-91865180D01*
X112930000Y-91865157D01*
X112930000Y-91737400D01*
X112941753Y-91732532D01*
X113045000Y-91753440D01*
X113295000Y-91753440D01*
X113424589Y-91729056D01*
X113545000Y-91753440D01*
X113795000Y-91753440D01*
X113924589Y-91729056D01*
X114045000Y-91753440D01*
X114295000Y-91753440D01*
X114424589Y-91729056D01*
X114545000Y-91753440D01*
X114795000Y-91753440D01*
X114924589Y-91729056D01*
X115045000Y-91753440D01*
X115295000Y-91753440D01*
X115424589Y-91729056D01*
X115545000Y-91753440D01*
X115795000Y-91753440D01*
X116030317Y-91709162D01*
X116246441Y-91570090D01*
X116391431Y-91357890D01*
X116442440Y-91106000D01*
X116442440Y-90540999D01*
X118669001Y-90540999D01*
X118959840Y-90483147D01*
X119206402Y-90318400D01*
X120437863Y-89086939D01*
X120598110Y-89196431D01*
G36*
X113373750Y-85023000D02*
X114373000Y-85023000D01*
X114373000Y-85003000D01*
X114627000Y-85003000D01*
X114627000Y-85023000D01*
X114647000Y-85023000D01*
X114647000Y-85277000D01*
X114627000Y-85277000D01*
X114627000Y-85297000D01*
X114373000Y-85297000D01*
X114373000Y-85277000D01*
X113373750Y-85277000D01*
X113215000Y-85435750D01*
X113215000Y-86026309D01*
X113311673Y-86259698D01*
X113490301Y-86438327D01*
X113626287Y-86494654D01*
X113614683Y-86496838D01*
X113398559Y-86635910D01*
X113253569Y-86848110D01*
X113202560Y-87100000D01*
X113202560Y-87219080D01*
X113062599Y-87312599D01*
X112632599Y-87742599D01*
X112467852Y-87989161D01*
X112410000Y-88280000D01*
X112410000Y-88352989D01*
X112135000Y-88352989D01*
X112135000Y-88185750D01*
X111976250Y-88027000D01*
X110877000Y-88027000D01*
X110877000Y-88047000D01*
X110623000Y-88047000D01*
X110623000Y-88027000D01*
X110603000Y-88027000D01*
X110603000Y-87773000D01*
X110623000Y-87773000D01*
X110623000Y-87753000D01*
X110877000Y-87753000D01*
X110877000Y-87773000D01*
X111976250Y-87773000D01*
X112135000Y-87614250D01*
X112135000Y-87148690D01*
X112038327Y-86915301D01*
X111859698Y-86736673D01*
X111713446Y-86676094D01*
X111835317Y-86653162D01*
X112051441Y-86514090D01*
X112196431Y-86301890D01*
X112247440Y-86050000D01*
X112247440Y-86030920D01*
X112387401Y-85937401D01*
X113337776Y-84987026D01*
X113373750Y-85023000D01*
X113373750Y-85023000D01*
G37*
X113373750Y-85023000D02*
X114373000Y-85023000D01*
X114373000Y-85003000D01*
X114627000Y-85003000D01*
X114627000Y-85023000D01*
X114647000Y-85023000D01*
X114647000Y-85277000D01*
X114627000Y-85277000D01*
X114627000Y-85297000D01*
X114373000Y-85297000D01*
X114373000Y-85277000D01*
X113373750Y-85277000D01*
X113215000Y-85435750D01*
X113215000Y-86026309D01*
X113311673Y-86259698D01*
X113490301Y-86438327D01*
X113626287Y-86494654D01*
X113614683Y-86496838D01*
X113398559Y-86635910D01*
X113253569Y-86848110D01*
X113202560Y-87100000D01*
X113202560Y-87219080D01*
X113062599Y-87312599D01*
X112632599Y-87742599D01*
X112467852Y-87989161D01*
X112410000Y-88280000D01*
X112410000Y-88352989D01*
X112135000Y-88352989D01*
X112135000Y-88185750D01*
X111976250Y-88027000D01*
X110877000Y-88027000D01*
X110877000Y-88047000D01*
X110623000Y-88047000D01*
X110623000Y-88027000D01*
X110603000Y-88027000D01*
X110603000Y-87773000D01*
X110623000Y-87773000D01*
X110623000Y-87753000D01*
X110877000Y-87753000D01*
X110877000Y-87773000D01*
X111976250Y-87773000D01*
X112135000Y-87614250D01*
X112135000Y-87148690D01*
X112038327Y-86915301D01*
X111859698Y-86736673D01*
X111713446Y-86676094D01*
X111835317Y-86653162D01*
X112051441Y-86514090D01*
X112196431Y-86301890D01*
X112247440Y-86050000D01*
X112247440Y-86030920D01*
X112387401Y-85937401D01*
X113337776Y-84987026D01*
X113373750Y-85023000D01*
G36*
X120614683Y-83796838D02*
X120398559Y-83935910D01*
X120253569Y-84148110D01*
X120202560Y-84400000D01*
X120202560Y-85900000D01*
X120209788Y-85938412D01*
X119508200Y-86640000D01*
X119472931Y-86640000D01*
X119414090Y-86548559D01*
X119274250Y-86453010D01*
X119309698Y-86438327D01*
X119488327Y-86259699D01*
X119585000Y-86026310D01*
X119585000Y-85785750D01*
X119426250Y-85627000D01*
X118627000Y-85627000D01*
X118627000Y-85647000D01*
X118373000Y-85647000D01*
X118373000Y-85627000D01*
X117573750Y-85627000D01*
X117487738Y-85713012D01*
X117414090Y-85598559D01*
X117260000Y-85493274D01*
X117260000Y-85164998D01*
X117221947Y-84973690D01*
X117415000Y-84973690D01*
X117415000Y-85214250D01*
X117573750Y-85373000D01*
X118373000Y-85373000D01*
X118373000Y-84623750D01*
X118627000Y-84623750D01*
X118627000Y-85373000D01*
X119426250Y-85373000D01*
X119585000Y-85214250D01*
X119585000Y-84973690D01*
X119488327Y-84740301D01*
X119309698Y-84561673D01*
X119076309Y-84465000D01*
X118785750Y-84465000D01*
X118627000Y-84623750D01*
X118373000Y-84623750D01*
X118214250Y-84465000D01*
X117923691Y-84465000D01*
X117690302Y-84561673D01*
X117511673Y-84740301D01*
X117415000Y-84973690D01*
X117221947Y-84973690D01*
X117202148Y-84874159D01*
X117202148Y-84874158D01*
X117037401Y-84627597D01*
X116186804Y-83777000D01*
X120720113Y-83777000D01*
X120614683Y-83796838D01*
X120614683Y-83796838D01*
G37*
X120614683Y-83796838D02*
X120398559Y-83935910D01*
X120253569Y-84148110D01*
X120202560Y-84400000D01*
X120202560Y-85900000D01*
X120209788Y-85938412D01*
X119508200Y-86640000D01*
X119472931Y-86640000D01*
X119414090Y-86548559D01*
X119274250Y-86453010D01*
X119309698Y-86438327D01*
X119488327Y-86259699D01*
X119585000Y-86026310D01*
X119585000Y-85785750D01*
X119426250Y-85627000D01*
X118627000Y-85627000D01*
X118627000Y-85647000D01*
X118373000Y-85647000D01*
X118373000Y-85627000D01*
X117573750Y-85627000D01*
X117487738Y-85713012D01*
X117414090Y-85598559D01*
X117260000Y-85493274D01*
X117260000Y-85164998D01*
X117221947Y-84973690D01*
X117415000Y-84973690D01*
X117415000Y-85214250D01*
X117573750Y-85373000D01*
X118373000Y-85373000D01*
X118373000Y-84623750D01*
X118627000Y-84623750D01*
X118627000Y-85373000D01*
X119426250Y-85373000D01*
X119585000Y-85214250D01*
X119585000Y-84973690D01*
X119488327Y-84740301D01*
X119309698Y-84561673D01*
X119076309Y-84465000D01*
X118785750Y-84465000D01*
X118627000Y-84623750D01*
X118373000Y-84623750D01*
X118214250Y-84465000D01*
X117923691Y-84465000D01*
X117690302Y-84561673D01*
X117511673Y-84740301D01*
X117415000Y-84973690D01*
X117221947Y-84973690D01*
X117202148Y-84874159D01*
X117202148Y-84874158D01*
X117037401Y-84627597D01*
X116186804Y-83777000D01*
X120720113Y-83777000D01*
X120614683Y-83796838D01*
M02*
