G04 #@! TF.FileFunction,Legend,Top*
%FSLAX46Y46*%
G04 Gerber Fmt 4.6, Leading zero omitted, Abs format (unit mm)*
G04 Created by KiCad (PCBNEW 4.0.7-e2-6376~58~ubuntu16.04.1) date Fri Jun 15 01:41:50 2018*
%MOMM*%
%LPD*%
G01*
G04 APERTURE LIST*
%ADD10C,0.100000*%
%ADD11C,0.150000*%
%ADD12C,0.120000*%
%ADD13C,0.010000*%
G04 APERTURE END LIST*
D10*
D11*
X106745000Y-91131000D02*
X106745000Y-92131000D01*
X117095000Y-91131000D02*
X117095000Y-92206000D01*
X117095000Y-101481000D02*
X117095000Y-100406000D01*
X106745000Y-101481000D02*
X106745000Y-100406000D01*
X106745000Y-91131000D02*
X107820000Y-91131000D01*
X106745000Y-101481000D02*
X107820000Y-101481000D01*
X117095000Y-101481000D02*
X116020000Y-101481000D01*
X117095000Y-91131000D02*
X116020000Y-91131000D01*
X106745000Y-92131000D02*
X105720000Y-92131000D01*
D12*
X113156000Y-112684000D02*
X113156000Y-113884000D01*
X111396000Y-113884000D02*
X111396000Y-112684000D01*
D11*
X98600000Y-104425000D02*
X119600000Y-104425000D01*
X98600000Y-108875000D02*
X119600000Y-108875000D01*
X98600000Y-108875000D02*
X98600000Y-109100000D01*
X119600000Y-108875000D02*
X119600000Y-109100000D01*
X98600000Y-106650000D02*
X98600000Y-104425000D01*
X119600000Y-106650000D02*
X119600000Y-104425000D01*
D12*
X97784000Y-113824000D02*
X97784000Y-112824000D01*
X96084000Y-112824000D02*
X96084000Y-113824000D01*
X104134000Y-101632000D02*
X104134000Y-100632000D01*
X102434000Y-100632000D02*
X102434000Y-101632000D01*
X110000000Y-87050000D02*
X109000000Y-87050000D01*
X109000000Y-88750000D02*
X110000000Y-88750000D01*
X97784000Y-101632000D02*
X97784000Y-100632000D01*
X96084000Y-100632000D02*
X96084000Y-101632000D01*
X101086000Y-101632000D02*
X101086000Y-100632000D01*
X99386000Y-100632000D02*
X99386000Y-101632000D01*
X100324000Y-113824000D02*
X100324000Y-112824000D01*
X98624000Y-112824000D02*
X98624000Y-113824000D01*
X119882000Y-113824000D02*
X119882000Y-112824000D01*
X118182000Y-112824000D02*
X118182000Y-113824000D01*
X122168000Y-113824000D02*
X122168000Y-112824000D01*
X120468000Y-112824000D02*
X120468000Y-113824000D01*
X96054000Y-92588000D02*
X96054000Y-91388000D01*
X97814000Y-91388000D02*
X97814000Y-92588000D01*
X99356000Y-92588000D02*
X99356000Y-91388000D01*
X101116000Y-91388000D02*
X101116000Y-92588000D01*
X104164000Y-91388000D02*
X104164000Y-92588000D01*
X102404000Y-92588000D02*
X102404000Y-91388000D01*
X120120000Y-106600000D02*
X120120000Y-105400000D01*
X121880000Y-105400000D02*
X121880000Y-106600000D01*
X98162000Y-96118000D02*
X99262000Y-96118000D01*
X98162000Y-98018000D02*
X99262000Y-98018000D01*
X96012000Y-96168000D02*
X96012000Y-97968000D01*
X101520000Y-112784000D02*
X101520000Y-113784000D01*
X103220000Y-113784000D02*
X103220000Y-112784000D01*
X103806000Y-112784000D02*
X103806000Y-113784000D01*
X105506000Y-113784000D02*
X105506000Y-112784000D01*
X108886000Y-112784000D02*
X108886000Y-113784000D01*
X110586000Y-113784000D02*
X110586000Y-112784000D01*
X115696000Y-112684000D02*
X115696000Y-113884000D01*
X113936000Y-113884000D02*
X113936000Y-112684000D01*
X106316000Y-113884000D02*
X106316000Y-112684000D01*
X108076000Y-112684000D02*
X108076000Y-113884000D01*
X116740000Y-84870000D02*
X116740000Y-85800000D01*
X116740000Y-88030000D02*
X116740000Y-87100000D01*
X116740000Y-88030000D02*
X118900000Y-88030000D01*
X116740000Y-84870000D02*
X118200000Y-84870000D01*
X101760000Y-87930000D02*
X101760000Y-87000000D01*
X101760000Y-84770000D02*
X101760000Y-85700000D01*
X101760000Y-84770000D02*
X99600000Y-84770000D01*
X101760000Y-87930000D02*
X100300000Y-87930000D01*
X120620000Y-87100000D02*
X120620000Y-85900000D01*
X122380000Y-85900000D02*
X122380000Y-87100000D01*
X97880000Y-85900000D02*
X97880000Y-87100000D01*
X96120000Y-87100000D02*
X96120000Y-85900000D01*
X110100000Y-86280000D02*
X108900000Y-86280000D01*
X108900000Y-84520000D02*
X110100000Y-84520000D01*
X103120000Y-87100000D02*
X103120000Y-85900000D01*
X104880000Y-85900000D02*
X104880000Y-87100000D01*
X115380000Y-85900000D02*
X115380000Y-87100000D01*
X113620000Y-87100000D02*
X113620000Y-85900000D01*
D13*
G36*
X119135718Y-95741420D02*
X119142482Y-95197192D01*
X119154767Y-94699503D01*
X119172572Y-94275326D01*
X119195898Y-93951634D01*
X119224744Y-93755399D01*
X119242934Y-93711600D01*
X119366244Y-93671607D01*
X119623334Y-93640935D01*
X119978906Y-93619586D01*
X120397665Y-93607559D01*
X120844311Y-93604855D01*
X121283550Y-93611472D01*
X121680083Y-93627413D01*
X121998614Y-93652675D01*
X122203845Y-93687260D01*
X122257067Y-93711600D01*
X122288945Y-93826365D01*
X122315302Y-94083399D01*
X122336139Y-94455731D01*
X122351456Y-94916388D01*
X122361252Y-95438398D01*
X122365528Y-95994786D01*
X122364284Y-96558581D01*
X122357519Y-97102809D01*
X122345234Y-97600498D01*
X122327428Y-98024675D01*
X122304103Y-98348367D01*
X122275257Y-98544602D01*
X122257067Y-98588400D01*
X122133756Y-98628394D01*
X121876666Y-98659066D01*
X121521094Y-98680415D01*
X121102336Y-98692441D01*
X120750000Y-98694574D01*
X120750000Y-98351334D01*
X120821910Y-98281440D01*
X120834896Y-98203167D01*
X120905912Y-98069573D01*
X121086731Y-97922357D01*
X121149774Y-97885667D01*
X121494723Y-97630983D01*
X121727185Y-97315595D01*
X121832053Y-96972905D01*
X121794217Y-96636318D01*
X121755420Y-96546601D01*
X121620943Y-96335702D01*
X121503568Y-96189163D01*
X121401688Y-96065027D01*
X121433545Y-96022795D01*
X121577648Y-96019830D01*
X121759151Y-95985439D01*
X121832282Y-95851888D01*
X121835389Y-95832500D01*
X121834731Y-95712973D01*
X121759317Y-95657577D01*
X121566977Y-95642344D01*
X121500261Y-95642000D01*
X121138077Y-95642000D01*
X121494372Y-95278962D01*
X121694624Y-95044045D01*
X121822271Y-94832987D01*
X121850667Y-94728629D01*
X121829082Y-94583362D01*
X121752859Y-94560524D01*
X121604796Y-94664546D01*
X121427334Y-94837667D01*
X121201583Y-95050178D01*
X121064200Y-95127563D01*
X121006852Y-95073704D01*
X121004000Y-95034834D01*
X120930596Y-94839837D01*
X120741348Y-94703528D01*
X120482705Y-94636269D01*
X120201115Y-94648425D01*
X119943026Y-94750357D01*
X119892723Y-94786901D01*
X119780770Y-94902036D01*
X119720178Y-95051243D01*
X119696032Y-95286645D01*
X119692843Y-95485401D01*
X119695680Y-95776746D01*
X119716556Y-95937334D01*
X119771599Y-96005728D01*
X119876934Y-96020494D01*
X119916502Y-96020284D01*
X120141337Y-96017567D01*
X119941037Y-96255610D01*
X119737372Y-96604288D01*
X119677623Y-96972981D01*
X119767149Y-97317573D01*
X119979433Y-97609236D01*
X120264671Y-97852705D01*
X120502982Y-97972550D01*
X120636828Y-98086332D01*
X120665334Y-98187706D01*
X120701893Y-98322158D01*
X120750000Y-98351334D01*
X120750000Y-98694574D01*
X120655689Y-98695145D01*
X120216451Y-98688529D01*
X119819918Y-98672588D01*
X119501387Y-98647326D01*
X119296155Y-98612741D01*
X119242934Y-98588401D01*
X119211056Y-98473636D01*
X119184698Y-98216602D01*
X119163861Y-97844270D01*
X119148545Y-97383613D01*
X119138749Y-96861603D01*
X119134473Y-96305215D01*
X119135718Y-95741420D01*
X119135718Y-95741420D01*
G37*
X119135718Y-95741420D02*
X119142482Y-95197192D01*
X119154767Y-94699503D01*
X119172572Y-94275326D01*
X119195898Y-93951634D01*
X119224744Y-93755399D01*
X119242934Y-93711600D01*
X119366244Y-93671607D01*
X119623334Y-93640935D01*
X119978906Y-93619586D01*
X120397665Y-93607559D01*
X120844311Y-93604855D01*
X121283550Y-93611472D01*
X121680083Y-93627413D01*
X121998614Y-93652675D01*
X122203845Y-93687260D01*
X122257067Y-93711600D01*
X122288945Y-93826365D01*
X122315302Y-94083399D01*
X122336139Y-94455731D01*
X122351456Y-94916388D01*
X122361252Y-95438398D01*
X122365528Y-95994786D01*
X122364284Y-96558581D01*
X122357519Y-97102809D01*
X122345234Y-97600498D01*
X122327428Y-98024675D01*
X122304103Y-98348367D01*
X122275257Y-98544602D01*
X122257067Y-98588400D01*
X122133756Y-98628394D01*
X121876666Y-98659066D01*
X121521094Y-98680415D01*
X121102336Y-98692441D01*
X120750000Y-98694574D01*
X120750000Y-98351334D01*
X120821910Y-98281440D01*
X120834896Y-98203167D01*
X120905912Y-98069573D01*
X121086731Y-97922357D01*
X121149774Y-97885667D01*
X121494723Y-97630983D01*
X121727185Y-97315595D01*
X121832053Y-96972905D01*
X121794217Y-96636318D01*
X121755420Y-96546601D01*
X121620943Y-96335702D01*
X121503568Y-96189163D01*
X121401688Y-96065027D01*
X121433545Y-96022795D01*
X121577648Y-96019830D01*
X121759151Y-95985439D01*
X121832282Y-95851888D01*
X121835389Y-95832500D01*
X121834731Y-95712973D01*
X121759317Y-95657577D01*
X121566977Y-95642344D01*
X121500261Y-95642000D01*
X121138077Y-95642000D01*
X121494372Y-95278962D01*
X121694624Y-95044045D01*
X121822271Y-94832987D01*
X121850667Y-94728629D01*
X121829082Y-94583362D01*
X121752859Y-94560524D01*
X121604796Y-94664546D01*
X121427334Y-94837667D01*
X121201583Y-95050178D01*
X121064200Y-95127563D01*
X121006852Y-95073704D01*
X121004000Y-95034834D01*
X120930596Y-94839837D01*
X120741348Y-94703528D01*
X120482705Y-94636269D01*
X120201115Y-94648425D01*
X119943026Y-94750357D01*
X119892723Y-94786901D01*
X119780770Y-94902036D01*
X119720178Y-95051243D01*
X119696032Y-95286645D01*
X119692843Y-95485401D01*
X119695680Y-95776746D01*
X119716556Y-95937334D01*
X119771599Y-96005728D01*
X119876934Y-96020494D01*
X119916502Y-96020284D01*
X120141337Y-96017567D01*
X119941037Y-96255610D01*
X119737372Y-96604288D01*
X119677623Y-96972981D01*
X119767149Y-97317573D01*
X119979433Y-97609236D01*
X120264671Y-97852705D01*
X120502982Y-97972550D01*
X120636828Y-98086332D01*
X120665334Y-98187706D01*
X120701893Y-98322158D01*
X120750000Y-98351334D01*
X120750000Y-98694574D01*
X120655689Y-98695145D01*
X120216451Y-98688529D01*
X119819918Y-98672588D01*
X119501387Y-98647326D01*
X119296155Y-98612741D01*
X119242934Y-98588401D01*
X119211056Y-98473636D01*
X119184698Y-98216602D01*
X119163861Y-97844270D01*
X119148545Y-97383613D01*
X119138749Y-96861603D01*
X119134473Y-96305215D01*
X119135718Y-95741420D01*
G36*
X120923197Y-97308358D02*
X120948795Y-97017758D01*
X120957597Y-96945461D01*
X121039811Y-96301588D01*
X121233572Y-96526849D01*
X121398480Y-96817680D01*
X121396027Y-97104172D01*
X121226406Y-97374554D01*
X121219515Y-97381516D01*
X121061695Y-97521456D01*
X120951080Y-97588368D01*
X120943540Y-97589334D01*
X120921151Y-97512354D01*
X120923197Y-97308358D01*
X120923197Y-97308358D01*
G37*
X120923197Y-97308358D02*
X120948795Y-97017758D01*
X120957597Y-96945461D01*
X121039811Y-96301588D01*
X121233572Y-96526849D01*
X121398480Y-96817680D01*
X121396027Y-97104172D01*
X121226406Y-97374554D01*
X121219515Y-97381516D01*
X121061695Y-97521456D01*
X120951080Y-97588368D01*
X120943540Y-97589334D01*
X120921151Y-97512354D01*
X120923197Y-97308358D01*
G36*
X120124057Y-96745241D02*
X120196974Y-96610683D01*
X120298101Y-96404725D01*
X120323974Y-96265709D01*
X120398164Y-96094499D01*
X120496000Y-96040802D01*
X120574793Y-96030390D01*
X120624412Y-96069036D01*
X120651568Y-96186545D01*
X120662971Y-96412723D01*
X120665332Y-96777379D01*
X120665334Y-96792927D01*
X120656271Y-97191991D01*
X120630368Y-97461383D01*
X120589554Y-97583745D01*
X120576818Y-97589334D01*
X120428297Y-97521215D01*
X120262402Y-97356335D01*
X120127678Y-97153909D01*
X120072667Y-96974365D01*
X120124057Y-96745241D01*
X120124057Y-96745241D01*
G37*
X120124057Y-96745241D02*
X120196974Y-96610683D01*
X120298101Y-96404725D01*
X120323974Y-96265709D01*
X120398164Y-96094499D01*
X120496000Y-96040802D01*
X120574793Y-96030390D01*
X120624412Y-96069036D01*
X120651568Y-96186545D01*
X120662971Y-96412723D01*
X120665332Y-96777379D01*
X120665334Y-96792927D01*
X120656271Y-97191991D01*
X120630368Y-97461383D01*
X120589554Y-97583745D01*
X120576818Y-97589334D01*
X120428297Y-97521215D01*
X120262402Y-97356335D01*
X120127678Y-97153909D01*
X120072667Y-96974365D01*
X120124057Y-96745241D01*
G36*
X120088469Y-95366834D02*
X120126650Y-95176144D01*
X120225468Y-95102152D01*
X120369000Y-95091667D01*
X120547089Y-95113112D01*
X120624966Y-95212436D01*
X120649531Y-95366834D01*
X120655139Y-95548813D01*
X120592773Y-95625288D01*
X120415941Y-95641860D01*
X120369000Y-95642000D01*
X120166958Y-95631302D01*
X120087645Y-95568807D01*
X120084569Y-95408911D01*
X120088469Y-95366834D01*
X120088469Y-95366834D01*
G37*
X120088469Y-95366834D02*
X120126650Y-95176144D01*
X120225468Y-95102152D01*
X120369000Y-95091667D01*
X120547089Y-95113112D01*
X120624966Y-95212436D01*
X120649531Y-95366834D01*
X120655139Y-95548813D01*
X120592773Y-95625288D01*
X120415941Y-95641860D01*
X120369000Y-95642000D01*
X120166958Y-95631302D01*
X120087645Y-95568807D01*
X120084569Y-95408911D01*
X120088469Y-95366834D01*
D11*
X111158095Y-95758381D02*
X111158095Y-96567905D01*
X111205714Y-96663143D01*
X111253333Y-96710762D01*
X111348571Y-96758381D01*
X111539048Y-96758381D01*
X111634286Y-96710762D01*
X111681905Y-96663143D01*
X111729524Y-96567905D01*
X111729524Y-95758381D01*
X112729524Y-96758381D02*
X112158095Y-96758381D01*
X112443809Y-96758381D02*
X112443809Y-95758381D01*
X112348571Y-95901238D01*
X112253333Y-95996476D01*
X112158095Y-96044095D01*
X112728381Y-110148666D02*
X112252190Y-110482000D01*
X112728381Y-110720095D02*
X111728381Y-110720095D01*
X111728381Y-110339142D01*
X111776000Y-110243904D01*
X111823619Y-110196285D01*
X111918857Y-110148666D01*
X112061714Y-110148666D01*
X112156952Y-110196285D01*
X112204571Y-110243904D01*
X112252190Y-110339142D01*
X112252190Y-110720095D01*
X111728381Y-109291523D02*
X111728381Y-109482000D01*
X111776000Y-109577238D01*
X111823619Y-109624857D01*
X111966476Y-109720095D01*
X112156952Y-109767714D01*
X112537905Y-109767714D01*
X112633143Y-109720095D01*
X112680762Y-109672476D01*
X112728381Y-109577238D01*
X112728381Y-109386761D01*
X112680762Y-109291523D01*
X112633143Y-109243904D01*
X112537905Y-109196285D01*
X112299810Y-109196285D01*
X112204571Y-109243904D01*
X112156952Y-109291523D01*
X112109333Y-109386761D01*
X112109333Y-109577238D01*
X112156952Y-109672476D01*
X112204571Y-109720095D01*
X112299810Y-109767714D01*
X117335714Y-102992857D02*
X117335714Y-103964286D01*
X117392857Y-104078571D01*
X117450000Y-104135714D01*
X117564286Y-104192857D01*
X117792857Y-104192857D01*
X117907143Y-104135714D01*
X117964286Y-104078571D01*
X118021429Y-103964286D01*
X118021429Y-102992857D01*
X118478572Y-102992857D02*
X119221429Y-102992857D01*
X118821429Y-103450000D01*
X118992857Y-103450000D01*
X119107143Y-103507143D01*
X119164286Y-103564286D01*
X119221429Y-103678571D01*
X119221429Y-103964286D01*
X119164286Y-104078571D01*
X119107143Y-104135714D01*
X118992857Y-104192857D01*
X118650000Y-104192857D01*
X118535714Y-104135714D01*
X118478572Y-104078571D01*
X97291143Y-110188666D02*
X97338762Y-110236285D01*
X97386381Y-110379142D01*
X97386381Y-110474380D01*
X97338762Y-110617238D01*
X97243524Y-110712476D01*
X97148286Y-110760095D01*
X96957810Y-110807714D01*
X96814952Y-110807714D01*
X96624476Y-110760095D01*
X96529238Y-110712476D01*
X96434000Y-110617238D01*
X96386381Y-110474380D01*
X96386381Y-110379142D01*
X96434000Y-110236285D01*
X96481619Y-110188666D01*
X96386381Y-109283904D02*
X96386381Y-109760095D01*
X96862571Y-109807714D01*
X96814952Y-109760095D01*
X96767333Y-109664857D01*
X96767333Y-109426761D01*
X96814952Y-109331523D01*
X96862571Y-109283904D01*
X96957810Y-109236285D01*
X97195905Y-109236285D01*
X97291143Y-109283904D01*
X97338762Y-109331523D01*
X97386381Y-109426761D01*
X97386381Y-109664857D01*
X97338762Y-109760095D01*
X97291143Y-109807714D01*
X105107143Y-101066666D02*
X105154762Y-101114285D01*
X105202381Y-101257142D01*
X105202381Y-101352380D01*
X105154762Y-101495238D01*
X105059524Y-101590476D01*
X104964286Y-101638095D01*
X104773810Y-101685714D01*
X104630952Y-101685714D01*
X104440476Y-101638095D01*
X104345238Y-101590476D01*
X104250000Y-101495238D01*
X104202381Y-101352380D01*
X104202381Y-101257142D01*
X104250000Y-101114285D01*
X104297619Y-101066666D01*
X105202381Y-100114285D02*
X105202381Y-100685714D01*
X105202381Y-100400000D02*
X104202381Y-100400000D01*
X104345238Y-100495238D01*
X104440476Y-100590476D01*
X104488095Y-100685714D01*
X109333334Y-88257143D02*
X109285715Y-88304762D01*
X109142858Y-88352381D01*
X109047620Y-88352381D01*
X108904762Y-88304762D01*
X108809524Y-88209524D01*
X108761905Y-88114286D01*
X108714286Y-87923810D01*
X108714286Y-87780952D01*
X108761905Y-87590476D01*
X108809524Y-87495238D01*
X108904762Y-87400000D01*
X109047620Y-87352381D01*
X109142858Y-87352381D01*
X109285715Y-87400000D01*
X109333334Y-87447619D01*
X109714286Y-87447619D02*
X109761905Y-87400000D01*
X109857143Y-87352381D01*
X110095239Y-87352381D01*
X110190477Y-87400000D01*
X110238096Y-87447619D01*
X110285715Y-87542857D01*
X110285715Y-87638095D01*
X110238096Y-87780952D01*
X109666667Y-88352381D01*
X110285715Y-88352381D01*
X98857143Y-101316666D02*
X98904762Y-101364285D01*
X98952381Y-101507142D01*
X98952381Y-101602380D01*
X98904762Y-101745238D01*
X98809524Y-101840476D01*
X98714286Y-101888095D01*
X98523810Y-101935714D01*
X98380952Y-101935714D01*
X98190476Y-101888095D01*
X98095238Y-101840476D01*
X98000000Y-101745238D01*
X97952381Y-101602380D01*
X97952381Y-101507142D01*
X98000000Y-101364285D01*
X98047619Y-101316666D01*
X97952381Y-100983333D02*
X97952381Y-100364285D01*
X98333333Y-100697619D01*
X98333333Y-100554761D01*
X98380952Y-100459523D01*
X98428571Y-100411904D01*
X98523810Y-100364285D01*
X98761905Y-100364285D01*
X98857143Y-100411904D01*
X98904762Y-100459523D01*
X98952381Y-100554761D01*
X98952381Y-100840476D01*
X98904762Y-100935714D01*
X98857143Y-100983333D01*
X102107143Y-101298666D02*
X102154762Y-101346285D01*
X102202381Y-101489142D01*
X102202381Y-101584380D01*
X102154762Y-101727238D01*
X102059524Y-101822476D01*
X101964286Y-101870095D01*
X101773810Y-101917714D01*
X101630952Y-101917714D01*
X101440476Y-101870095D01*
X101345238Y-101822476D01*
X101250000Y-101727238D01*
X101202381Y-101584380D01*
X101202381Y-101489142D01*
X101250000Y-101346285D01*
X101297619Y-101298666D01*
X101535714Y-100441523D02*
X102202381Y-100441523D01*
X101154762Y-100679619D02*
X101869048Y-100917714D01*
X101869048Y-100298666D01*
X99857143Y-110148666D02*
X99904762Y-110196285D01*
X99952381Y-110339142D01*
X99952381Y-110434380D01*
X99904762Y-110577238D01*
X99809524Y-110672476D01*
X99714286Y-110720095D01*
X99523810Y-110767714D01*
X99380952Y-110767714D01*
X99190476Y-110720095D01*
X99095238Y-110672476D01*
X99000000Y-110577238D01*
X98952381Y-110434380D01*
X98952381Y-110339142D01*
X99000000Y-110196285D01*
X99047619Y-110148666D01*
X98952381Y-109291523D02*
X98952381Y-109482000D01*
X99000000Y-109577238D01*
X99047619Y-109624857D01*
X99190476Y-109720095D01*
X99380952Y-109767714D01*
X99761905Y-109767714D01*
X99857143Y-109720095D01*
X99904762Y-109672476D01*
X99952381Y-109577238D01*
X99952381Y-109386761D01*
X99904762Y-109291523D01*
X99857143Y-109243904D01*
X99761905Y-109196285D01*
X99523810Y-109196285D01*
X99428571Y-109243904D01*
X99380952Y-109291523D01*
X99333333Y-109386761D01*
X99333333Y-109577238D01*
X99380952Y-109672476D01*
X99428571Y-109720095D01*
X99523810Y-109767714D01*
X119357143Y-110216666D02*
X119404762Y-110264285D01*
X119452381Y-110407142D01*
X119452381Y-110502380D01*
X119404762Y-110645238D01*
X119309524Y-110740476D01*
X119214286Y-110788095D01*
X119023810Y-110835714D01*
X118880952Y-110835714D01*
X118690476Y-110788095D01*
X118595238Y-110740476D01*
X118500000Y-110645238D01*
X118452381Y-110502380D01*
X118452381Y-110407142D01*
X118500000Y-110264285D01*
X118547619Y-110216666D01*
X118452381Y-109883333D02*
X118452381Y-109216666D01*
X119452381Y-109645238D01*
X121675143Y-110216666D02*
X121722762Y-110264285D01*
X121770381Y-110407142D01*
X121770381Y-110502380D01*
X121722762Y-110645238D01*
X121627524Y-110740476D01*
X121532286Y-110788095D01*
X121341810Y-110835714D01*
X121198952Y-110835714D01*
X121008476Y-110788095D01*
X120913238Y-110740476D01*
X120818000Y-110645238D01*
X120770381Y-110502380D01*
X120770381Y-110407142D01*
X120818000Y-110264285D01*
X120865619Y-110216666D01*
X121198952Y-109645238D02*
X121151333Y-109740476D01*
X121103714Y-109788095D01*
X121008476Y-109835714D01*
X120960857Y-109835714D01*
X120865619Y-109788095D01*
X120818000Y-109740476D01*
X120770381Y-109645238D01*
X120770381Y-109454761D01*
X120818000Y-109359523D01*
X120865619Y-109311904D01*
X120960857Y-109264285D01*
X121008476Y-109264285D01*
X121103714Y-109311904D01*
X121151333Y-109359523D01*
X121198952Y-109454761D01*
X121198952Y-109645238D01*
X121246571Y-109740476D01*
X121294190Y-109788095D01*
X121389429Y-109835714D01*
X121579905Y-109835714D01*
X121675143Y-109788095D01*
X121722762Y-109740476D01*
X121770381Y-109645238D01*
X121770381Y-109454761D01*
X121722762Y-109359523D01*
X121675143Y-109311904D01*
X121579905Y-109264285D01*
X121389429Y-109264285D01*
X121294190Y-109311904D01*
X121246571Y-109359523D01*
X121198952Y-109454761D01*
X98902381Y-92154666D02*
X98426190Y-92488000D01*
X98902381Y-92726095D02*
X97902381Y-92726095D01*
X97902381Y-92345142D01*
X97950000Y-92249904D01*
X97997619Y-92202285D01*
X98092857Y-92154666D01*
X98235714Y-92154666D01*
X98330952Y-92202285D01*
X98378571Y-92249904D01*
X98426190Y-92345142D01*
X98426190Y-92726095D01*
X98902381Y-91202285D02*
X98902381Y-91773714D01*
X98902381Y-91488000D02*
X97902381Y-91488000D01*
X98045238Y-91583238D01*
X98140476Y-91678476D01*
X98188095Y-91773714D01*
X102202381Y-92154666D02*
X101726190Y-92488000D01*
X102202381Y-92726095D02*
X101202381Y-92726095D01*
X101202381Y-92345142D01*
X101250000Y-92249904D01*
X101297619Y-92202285D01*
X101392857Y-92154666D01*
X101535714Y-92154666D01*
X101630952Y-92202285D01*
X101678571Y-92249904D01*
X101726190Y-92345142D01*
X101726190Y-92726095D01*
X101297619Y-91773714D02*
X101250000Y-91726095D01*
X101202381Y-91630857D01*
X101202381Y-91392761D01*
X101250000Y-91297523D01*
X101297619Y-91249904D01*
X101392857Y-91202285D01*
X101488095Y-91202285D01*
X101630952Y-91249904D01*
X102202381Y-91821333D01*
X102202381Y-91202285D01*
X105204381Y-92182666D02*
X104728190Y-92516000D01*
X105204381Y-92754095D02*
X104204381Y-92754095D01*
X104204381Y-92373142D01*
X104252000Y-92277904D01*
X104299619Y-92230285D01*
X104394857Y-92182666D01*
X104537714Y-92182666D01*
X104632952Y-92230285D01*
X104680571Y-92277904D01*
X104728190Y-92373142D01*
X104728190Y-92754095D01*
X104204381Y-91849333D02*
X104204381Y-91230285D01*
X104585333Y-91563619D01*
X104585333Y-91420761D01*
X104632952Y-91325523D01*
X104680571Y-91277904D01*
X104775810Y-91230285D01*
X105013905Y-91230285D01*
X105109143Y-91277904D01*
X105156762Y-91325523D01*
X105204381Y-91420761D01*
X105204381Y-91706476D01*
X105156762Y-91801714D01*
X105109143Y-91849333D01*
X121439381Y-102560666D02*
X120963190Y-102894000D01*
X121439381Y-103132095D02*
X120439381Y-103132095D01*
X120439381Y-102751142D01*
X120487000Y-102655904D01*
X120534619Y-102608285D01*
X120629857Y-102560666D01*
X120772714Y-102560666D01*
X120867952Y-102608285D01*
X120915571Y-102655904D01*
X120963190Y-102751142D01*
X120963190Y-103132095D01*
X120772714Y-101703523D02*
X121439381Y-101703523D01*
X120391762Y-101941619D02*
X121106048Y-102179714D01*
X121106048Y-101560666D01*
X98273809Y-95126190D02*
X98273809Y-95602381D01*
X97940476Y-94602381D02*
X98273809Y-95126190D01*
X98607143Y-94602381D01*
X99464286Y-95602381D02*
X98892857Y-95602381D01*
X99178571Y-95602381D02*
X99178571Y-94602381D01*
X99083333Y-94745238D01*
X98988095Y-94840476D01*
X98892857Y-94888095D01*
X102727143Y-110148666D02*
X102774762Y-110196285D01*
X102822381Y-110339142D01*
X102822381Y-110434380D01*
X102774762Y-110577238D01*
X102679524Y-110672476D01*
X102584286Y-110720095D01*
X102393810Y-110767714D01*
X102250952Y-110767714D01*
X102060476Y-110720095D01*
X101965238Y-110672476D01*
X101870000Y-110577238D01*
X101822381Y-110434380D01*
X101822381Y-110339142D01*
X101870000Y-110196285D01*
X101917619Y-110148666D01*
X102822381Y-109672476D02*
X102822381Y-109482000D01*
X102774762Y-109386761D01*
X102727143Y-109339142D01*
X102584286Y-109243904D01*
X102393810Y-109196285D01*
X102012857Y-109196285D01*
X101917619Y-109243904D01*
X101870000Y-109291523D01*
X101822381Y-109386761D01*
X101822381Y-109577238D01*
X101870000Y-109672476D01*
X101917619Y-109720095D01*
X102012857Y-109767714D01*
X102250952Y-109767714D01*
X102346190Y-109720095D01*
X102393810Y-109672476D01*
X102441429Y-109577238D01*
X102441429Y-109386761D01*
X102393810Y-109291523D01*
X102346190Y-109243904D01*
X102250952Y-109196285D01*
X105013143Y-111132857D02*
X105060762Y-111180476D01*
X105108381Y-111323333D01*
X105108381Y-111418571D01*
X105060762Y-111561429D01*
X104965524Y-111656667D01*
X104870286Y-111704286D01*
X104679810Y-111751905D01*
X104536952Y-111751905D01*
X104346476Y-111704286D01*
X104251238Y-111656667D01*
X104156000Y-111561429D01*
X104108381Y-111418571D01*
X104108381Y-111323333D01*
X104156000Y-111180476D01*
X104203619Y-111132857D01*
X105108381Y-110180476D02*
X105108381Y-110751905D01*
X105108381Y-110466191D02*
X104108381Y-110466191D01*
X104251238Y-110561429D01*
X104346476Y-110656667D01*
X104394095Y-110751905D01*
X104108381Y-109561429D02*
X104108381Y-109466190D01*
X104156000Y-109370952D01*
X104203619Y-109323333D01*
X104298857Y-109275714D01*
X104489333Y-109228095D01*
X104727429Y-109228095D01*
X104917905Y-109275714D01*
X105013143Y-109323333D01*
X105060762Y-109370952D01*
X105108381Y-109466190D01*
X105108381Y-109561429D01*
X105060762Y-109656667D01*
X105013143Y-109704286D01*
X104917905Y-109751905D01*
X104727429Y-109799524D01*
X104489333Y-109799524D01*
X104298857Y-109751905D01*
X104203619Y-109704286D01*
X104156000Y-109656667D01*
X104108381Y-109561429D01*
X110093143Y-111132857D02*
X110140762Y-111180476D01*
X110188381Y-111323333D01*
X110188381Y-111418571D01*
X110140762Y-111561429D01*
X110045524Y-111656667D01*
X109950286Y-111704286D01*
X109759810Y-111751905D01*
X109616952Y-111751905D01*
X109426476Y-111704286D01*
X109331238Y-111656667D01*
X109236000Y-111561429D01*
X109188381Y-111418571D01*
X109188381Y-111323333D01*
X109236000Y-111180476D01*
X109283619Y-111132857D01*
X110188381Y-110180476D02*
X110188381Y-110751905D01*
X110188381Y-110466191D02*
X109188381Y-110466191D01*
X109331238Y-110561429D01*
X109426476Y-110656667D01*
X109474095Y-110751905D01*
X110188381Y-109228095D02*
X110188381Y-109799524D01*
X110188381Y-109513810D02*
X109188381Y-109513810D01*
X109331238Y-109609048D01*
X109426476Y-109704286D01*
X109474095Y-109799524D01*
X115268381Y-110148666D02*
X114792190Y-110482000D01*
X115268381Y-110720095D02*
X114268381Y-110720095D01*
X114268381Y-110339142D01*
X114316000Y-110243904D01*
X114363619Y-110196285D01*
X114458857Y-110148666D01*
X114601714Y-110148666D01*
X114696952Y-110196285D01*
X114744571Y-110243904D01*
X114792190Y-110339142D01*
X114792190Y-110720095D01*
X114268381Y-109243904D02*
X114268381Y-109720095D01*
X114744571Y-109767714D01*
X114696952Y-109720095D01*
X114649333Y-109624857D01*
X114649333Y-109386761D01*
X114696952Y-109291523D01*
X114744571Y-109243904D01*
X114839810Y-109196285D01*
X115077905Y-109196285D01*
X115173143Y-109243904D01*
X115220762Y-109291523D01*
X115268381Y-109386761D01*
X115268381Y-109624857D01*
X115220762Y-109720095D01*
X115173143Y-109767714D01*
X107648381Y-110148666D02*
X107172190Y-110482000D01*
X107648381Y-110720095D02*
X106648381Y-110720095D01*
X106648381Y-110339142D01*
X106696000Y-110243904D01*
X106743619Y-110196285D01*
X106838857Y-110148666D01*
X106981714Y-110148666D01*
X107076952Y-110196285D01*
X107124571Y-110243904D01*
X107172190Y-110339142D01*
X107172190Y-110720095D01*
X106648381Y-109815333D02*
X106648381Y-109148666D01*
X107648381Y-109577238D01*
X117904762Y-86947619D02*
X117809524Y-86900000D01*
X117714286Y-86804762D01*
X117571429Y-86661905D01*
X117476190Y-86614286D01*
X117380952Y-86614286D01*
X117428571Y-86852381D02*
X117333333Y-86804762D01*
X117238095Y-86709524D01*
X117190476Y-86519048D01*
X117190476Y-86185714D01*
X117238095Y-85995238D01*
X117333333Y-85900000D01*
X117428571Y-85852381D01*
X117619048Y-85852381D01*
X117714286Y-85900000D01*
X117809524Y-85995238D01*
X117857143Y-86185714D01*
X117857143Y-86519048D01*
X117809524Y-86709524D01*
X117714286Y-86804762D01*
X117619048Y-86852381D01*
X117428571Y-86852381D01*
X118238095Y-85947619D02*
X118285714Y-85900000D01*
X118380952Y-85852381D01*
X118619048Y-85852381D01*
X118714286Y-85900000D01*
X118761905Y-85947619D01*
X118809524Y-86042857D01*
X118809524Y-86138095D01*
X118761905Y-86280952D01*
X118190476Y-86852381D01*
X118809524Y-86852381D01*
X100404762Y-86947619D02*
X100309524Y-86900000D01*
X100214286Y-86804762D01*
X100071429Y-86661905D01*
X99976190Y-86614286D01*
X99880952Y-86614286D01*
X99928571Y-86852381D02*
X99833333Y-86804762D01*
X99738095Y-86709524D01*
X99690476Y-86519048D01*
X99690476Y-86185714D01*
X99738095Y-85995238D01*
X99833333Y-85900000D01*
X99928571Y-85852381D01*
X100119048Y-85852381D01*
X100214286Y-85900000D01*
X100309524Y-85995238D01*
X100357143Y-86185714D01*
X100357143Y-86519048D01*
X100309524Y-86709524D01*
X100214286Y-86804762D01*
X100119048Y-86852381D01*
X99928571Y-86852381D01*
X100690476Y-85852381D02*
X101309524Y-85852381D01*
X100976190Y-86233333D01*
X101119048Y-86233333D01*
X101214286Y-86280952D01*
X101261905Y-86328571D01*
X101309524Y-86423810D01*
X101309524Y-86661905D01*
X101261905Y-86757143D01*
X101214286Y-86804762D01*
X101119048Y-86852381D01*
X100833333Y-86852381D01*
X100738095Y-86804762D01*
X100690476Y-86757143D01*
X120452381Y-87242857D02*
X119976190Y-87576191D01*
X120452381Y-87814286D02*
X119452381Y-87814286D01*
X119452381Y-87433333D01*
X119500000Y-87338095D01*
X119547619Y-87290476D01*
X119642857Y-87242857D01*
X119785714Y-87242857D01*
X119880952Y-87290476D01*
X119928571Y-87338095D01*
X119976190Y-87433333D01*
X119976190Y-87814286D01*
X120452381Y-86290476D02*
X120452381Y-86861905D01*
X120452381Y-86576191D02*
X119452381Y-86576191D01*
X119595238Y-86671429D01*
X119690476Y-86766667D01*
X119738095Y-86861905D01*
X119547619Y-85909524D02*
X119500000Y-85861905D01*
X119452381Y-85766667D01*
X119452381Y-85528571D01*
X119500000Y-85433333D01*
X119547619Y-85385714D01*
X119642857Y-85338095D01*
X119738095Y-85338095D01*
X119880952Y-85385714D01*
X120452381Y-85957143D01*
X120452381Y-85338095D01*
X99202381Y-87292857D02*
X98726190Y-87626191D01*
X99202381Y-87864286D02*
X98202381Y-87864286D01*
X98202381Y-87483333D01*
X98250000Y-87388095D01*
X98297619Y-87340476D01*
X98392857Y-87292857D01*
X98535714Y-87292857D01*
X98630952Y-87340476D01*
X98678571Y-87388095D01*
X98726190Y-87483333D01*
X98726190Y-87864286D01*
X99202381Y-86340476D02*
X99202381Y-86911905D01*
X99202381Y-86626191D02*
X98202381Y-86626191D01*
X98345238Y-86721429D01*
X98440476Y-86816667D01*
X98488095Y-86911905D01*
X98202381Y-86007143D02*
X98202381Y-85388095D01*
X98583333Y-85721429D01*
X98583333Y-85578571D01*
X98630952Y-85483333D01*
X98678571Y-85435714D01*
X98773810Y-85388095D01*
X99011905Y-85388095D01*
X99107143Y-85435714D01*
X99154762Y-85483333D01*
X99202381Y-85578571D01*
X99202381Y-85864286D01*
X99154762Y-85959524D01*
X99107143Y-86007143D01*
X108607143Y-85852381D02*
X108273809Y-85376190D01*
X108035714Y-85852381D02*
X108035714Y-84852381D01*
X108416667Y-84852381D01*
X108511905Y-84900000D01*
X108559524Y-84947619D01*
X108607143Y-85042857D01*
X108607143Y-85185714D01*
X108559524Y-85280952D01*
X108511905Y-85328571D01*
X108416667Y-85376190D01*
X108035714Y-85376190D01*
X109559524Y-85852381D02*
X108988095Y-85852381D01*
X109273809Y-85852381D02*
X109273809Y-84852381D01*
X109178571Y-84995238D01*
X109083333Y-85090476D01*
X108988095Y-85138095D01*
X110416667Y-85185714D02*
X110416667Y-85852381D01*
X110178571Y-84804762D02*
X109940476Y-85519048D01*
X110559524Y-85519048D01*
X106202381Y-87142857D02*
X105726190Y-87476191D01*
X106202381Y-87714286D02*
X105202381Y-87714286D01*
X105202381Y-87333333D01*
X105250000Y-87238095D01*
X105297619Y-87190476D01*
X105392857Y-87142857D01*
X105535714Y-87142857D01*
X105630952Y-87190476D01*
X105678571Y-87238095D01*
X105726190Y-87333333D01*
X105726190Y-87714286D01*
X106202381Y-86190476D02*
X106202381Y-86761905D01*
X106202381Y-86476191D02*
X105202381Y-86476191D01*
X105345238Y-86571429D01*
X105440476Y-86666667D01*
X105488095Y-86761905D01*
X105202381Y-85285714D02*
X105202381Y-85761905D01*
X105678571Y-85809524D01*
X105630952Y-85761905D01*
X105583333Y-85666667D01*
X105583333Y-85428571D01*
X105630952Y-85333333D01*
X105678571Y-85285714D01*
X105773810Y-85238095D01*
X106011905Y-85238095D01*
X106107143Y-85285714D01*
X106154762Y-85333333D01*
X106202381Y-85428571D01*
X106202381Y-85666667D01*
X106154762Y-85761905D01*
X106107143Y-85809524D01*
X113202381Y-87142857D02*
X112726190Y-87476191D01*
X113202381Y-87714286D02*
X112202381Y-87714286D01*
X112202381Y-87333333D01*
X112250000Y-87238095D01*
X112297619Y-87190476D01*
X112392857Y-87142857D01*
X112535714Y-87142857D01*
X112630952Y-87190476D01*
X112678571Y-87238095D01*
X112726190Y-87333333D01*
X112726190Y-87714286D01*
X113202381Y-86190476D02*
X113202381Y-86761905D01*
X113202381Y-86476191D02*
X112202381Y-86476191D01*
X112345238Y-86571429D01*
X112440476Y-86666667D01*
X112488095Y-86761905D01*
X112202381Y-85333333D02*
X112202381Y-85523810D01*
X112250000Y-85619048D01*
X112297619Y-85666667D01*
X112440476Y-85761905D01*
X112630952Y-85809524D01*
X113011905Y-85809524D01*
X113107143Y-85761905D01*
X113154762Y-85714286D01*
X113202381Y-85619048D01*
X113202381Y-85428571D01*
X113154762Y-85333333D01*
X113107143Y-85285714D01*
X113011905Y-85238095D01*
X112773810Y-85238095D01*
X112678571Y-85285714D01*
X112630952Y-85333333D01*
X112583333Y-85428571D01*
X112583333Y-85619048D01*
X112630952Y-85714286D01*
X112678571Y-85761905D01*
X112773810Y-85809524D01*
M02*
