G04 #@! TF.FileFunction,Soldermask,Top*
%FSLAX46Y46*%
G04 Gerber Fmt 4.6, Leading zero omitted, Abs format (unit mm)*
G04 Created by KiCad (PCBNEW 4.0.7-e2-6376~58~ubuntu16.04.1) date Sun May 20 00:27:38 2018*
%MOMM*%
%LPD*%
G01*
G04 APERTURE LIST*
%ADD10C,0.100000*%
%ADD11R,1.700000X1.900000*%
%ADD12R,0.750000X4.400000*%
%ADD13R,1.650000X1.900000*%
%ADD14R,1.400000X0.650000*%
%ADD15R,0.650000X1.400000*%
%ADD16R,2.150000X2.200000*%
G04 APERTURE END LIST*
D10*
D11*
X112776000Y-114634000D03*
X112776000Y-111934000D03*
D12*
X99450000Y-106650000D03*
X100150000Y-106650000D03*
X100850000Y-106650000D03*
X101550000Y-106650000D03*
X102250000Y-106650000D03*
X102950000Y-106650000D03*
X103650000Y-106650000D03*
X104350000Y-106650000D03*
X105050000Y-106650000D03*
X105750000Y-106650000D03*
X106450000Y-106650000D03*
X107150000Y-106650000D03*
X107850000Y-106650000D03*
X108550000Y-106650000D03*
X109250000Y-106650000D03*
X109950000Y-106650000D03*
X110650000Y-106650000D03*
X111350000Y-106650000D03*
X112050000Y-106650000D03*
X112750000Y-106650000D03*
X113450000Y-106650000D03*
X114150000Y-106650000D03*
X114850000Y-106650000D03*
X115550000Y-106650000D03*
X116250000Y-106650000D03*
X116950000Y-106650000D03*
X117650000Y-106650000D03*
X118350000Y-106650000D03*
X119050000Y-106650000D03*
X119750000Y-106650000D03*
D13*
X97434000Y-112074000D03*
X97434000Y-114574000D03*
X103784000Y-99882000D03*
X103784000Y-102382000D03*
X121818000Y-90718000D03*
X121818000Y-93218000D03*
X97434000Y-99882000D03*
X97434000Y-102382000D03*
X100736000Y-99882000D03*
X100736000Y-102382000D03*
X99974000Y-112074000D03*
X99974000Y-114574000D03*
X119532000Y-112074000D03*
X119532000Y-114574000D03*
X121818000Y-112074000D03*
X121818000Y-114574000D03*
D11*
X97434000Y-90638000D03*
X97434000Y-93338000D03*
X100736000Y-90638000D03*
X100736000Y-93338000D03*
X103784000Y-93338000D03*
X103784000Y-90638000D03*
X121750000Y-104650000D03*
X121750000Y-107350000D03*
D14*
X106720000Y-92556000D03*
X106720000Y-93056000D03*
X106720000Y-93556000D03*
X106720000Y-94056000D03*
X106720000Y-94556000D03*
X106720000Y-95056000D03*
X106720000Y-95556000D03*
X106720000Y-96056000D03*
X106720000Y-96556000D03*
X106720000Y-97056000D03*
X106720000Y-97556000D03*
X106720000Y-98056000D03*
X106720000Y-98556000D03*
X106720000Y-99056000D03*
X106720000Y-99556000D03*
X106720000Y-100056000D03*
D15*
X108670000Y-102006000D03*
X109170000Y-102006000D03*
X109670000Y-102006000D03*
X110170000Y-102006000D03*
X110670000Y-102006000D03*
X111170000Y-102006000D03*
X111670000Y-102006000D03*
X112170000Y-102006000D03*
X112670000Y-102006000D03*
X113170000Y-102006000D03*
X113670000Y-102006000D03*
X114170000Y-102006000D03*
X114670000Y-102006000D03*
X115170000Y-102006000D03*
X115670000Y-102006000D03*
X116170000Y-102006000D03*
D14*
X118120000Y-100056000D03*
X118120000Y-99556000D03*
X118120000Y-99056000D03*
X118120000Y-98556000D03*
X118120000Y-98056000D03*
X118120000Y-97556000D03*
X118120000Y-97056000D03*
X118120000Y-96556000D03*
X118120000Y-96056000D03*
X118120000Y-95556000D03*
X118120000Y-95056000D03*
X118120000Y-94556000D03*
X118120000Y-94056000D03*
X118120000Y-93556000D03*
X118120000Y-93056000D03*
X118120000Y-92556000D03*
D15*
X116170000Y-90606000D03*
X115670000Y-90606000D03*
X115170000Y-90606000D03*
X114670000Y-90606000D03*
X114170000Y-90606000D03*
X113670000Y-90606000D03*
X113170000Y-90606000D03*
X112670000Y-90606000D03*
X112170000Y-90606000D03*
X111670000Y-90606000D03*
X111170000Y-90606000D03*
X110670000Y-90606000D03*
X110170000Y-90606000D03*
X109670000Y-90606000D03*
X109170000Y-90606000D03*
X108670000Y-90606000D03*
D16*
X97587000Y-97068000D03*
X100837000Y-97068000D03*
D13*
X102870000Y-114534000D03*
X102870000Y-112034000D03*
X105156000Y-114534000D03*
X105156000Y-112034000D03*
X110236000Y-114534000D03*
X110236000Y-112034000D03*
D11*
X115316000Y-114634000D03*
X115316000Y-111934000D03*
X107696000Y-111934000D03*
X107696000Y-114634000D03*
M02*
