M48
;DRILL file {KiCad 5.0.2-bee76a0~70~ubuntu18.04.1} date 2019年02月14日 23時13分46秒
;FORMAT={-:-/ absolute / inch / decimal}
FMAT,2
INCH,TZ
T1C0.0157
%
G90
G05
T1
X3.878Y-3.9626
X3.8878Y-3.628
X3.8878Y-3.6772
X4.0059Y-3.7067
X4.0059Y-3.9429
X4.0453Y-3.8346
X4.0748Y-4.563
X4.252Y-3.9331
X4.2717Y-3.6476
X4.2823Y-4.3423
X4.293Y-3.757
X4.3012Y-3.8839
X4.3701Y-3.7264
X4.3799Y-3.6772
X4.4Y-3.95
X4.439Y-3.6575
X4.4567Y-3.9441
X4.5007Y-3.9497
X4.5472Y-3.7559
X4.5669Y-3.628
X4.5893Y-3.9533
X4.6063Y-4.4547
X4.6063Y-4.5138
X4.6949Y-4.3169
X4.7Y-3.95
X4.7146Y-3.3228
X4.75Y-3.95
X4.8Y-3.8
X4.8004Y-3.5118
X4.8258Y-4.2
T0
M30
