G04 #@! TF.GenerationSoftware,KiCad,Pcbnew,5.0.2-bee76a0~70~ubuntu18.04.1*
G04 #@! TF.CreationDate,2019-03-22T13:37:18+09:00*
G04 #@! TF.ProjectId,GRRNble,4752524e-626c-4652-9e6b-696361645f70,rev?*
G04 #@! TF.SameCoordinates,Original*
G04 #@! TF.FileFunction,Soldermask,Bot*
G04 #@! TF.FilePolarity,Negative*
%FSLAX46Y46*%
G04 Gerber Fmt 4.6, Leading zero omitted, Abs format (unit mm)*
G04 Created by KiCad (PCBNEW 5.0.2-bee76a0~70~ubuntu18.04.1) date 2019年03月22日 13時37分18秒*
%MOMM*%
%LPD*%
G01*
G04 APERTURE LIST*
%ADD10C,0.100000*%
G04 APERTURE END LIST*
D10*
G36*
X108450000Y-115850000D02*
X107050000Y-115850000D01*
X107050000Y-114450000D01*
X108450000Y-114450000D01*
X108450000Y-115850000D01*
X108450000Y-115850000D01*
G37*
G36*
X106150000Y-115650000D02*
X104850000Y-115650000D01*
X104850000Y-114450000D01*
X106150000Y-114450000D01*
X106150000Y-115650000D01*
X106150000Y-115650000D01*
G37*
G36*
X98700000Y-115600000D02*
X96300000Y-115600000D01*
X96300000Y-112200000D01*
X98700000Y-112200000D01*
X98700000Y-115600000D01*
X98700000Y-115600000D01*
G37*
G36*
X101700000Y-115600000D02*
X99300000Y-115600000D01*
X99300000Y-112200000D01*
X101700000Y-112200000D01*
X101700000Y-115600000D01*
X101700000Y-115600000D01*
G37*
G36*
X112650000Y-115450000D02*
X111350000Y-115450000D01*
X111350000Y-114250000D01*
X112650000Y-114250000D01*
X112650000Y-115450000D01*
X112650000Y-115450000D01*
G37*
G36*
X114935530Y-113655710D02*
X114985379Y-113670831D01*
X115031311Y-113695382D01*
X115071574Y-113728426D01*
X115104618Y-113768689D01*
X115129169Y-113814621D01*
X115144290Y-113864470D01*
X115150000Y-113922444D01*
X115150000Y-114927556D01*
X115144290Y-114985530D01*
X115129169Y-115035379D01*
X115104618Y-115081311D01*
X115071574Y-115121574D01*
X115031311Y-115154618D01*
X114985379Y-115179169D01*
X114935530Y-115194290D01*
X114877556Y-115200000D01*
X113622444Y-115200000D01*
X113564470Y-115194290D01*
X113514621Y-115179169D01*
X113468689Y-115154618D01*
X113428426Y-115121574D01*
X113395382Y-115081311D01*
X113370831Y-115035379D01*
X113355710Y-114985530D01*
X113350000Y-114927556D01*
X113350000Y-113922444D01*
X113355710Y-113864470D01*
X113370831Y-113814621D01*
X113395382Y-113768689D01*
X113428426Y-113728426D01*
X113468689Y-113695382D01*
X113514621Y-113670831D01*
X113564470Y-113655710D01*
X113622444Y-113650000D01*
X114877556Y-113650000D01*
X114935530Y-113655710D01*
X114935530Y-113655710D01*
G37*
G36*
X104150000Y-114700000D02*
X102850000Y-114700000D01*
X102850000Y-113500000D01*
X104150000Y-113500000D01*
X104150000Y-114700000D01*
X104150000Y-114700000D01*
G37*
G36*
X110650000Y-114500000D02*
X109350000Y-114500000D01*
X109350000Y-113300000D01*
X110650000Y-113300000D01*
X110650000Y-114500000D01*
X110650000Y-114500000D01*
G37*
G36*
X123350000Y-114250000D02*
X120150000Y-114250000D01*
X120150000Y-111850000D01*
X123350000Y-111850000D01*
X123350000Y-114250000D01*
X123350000Y-114250000D01*
G37*
G36*
X117212197Y-111500233D02*
X117224449Y-111500835D01*
X117242869Y-111500835D01*
X117294358Y-111505906D01*
X117378443Y-111522632D01*
X117412168Y-111532862D01*
X117422048Y-111535859D01*
X117422050Y-111535860D01*
X117427955Y-111537651D01*
X117507164Y-111570460D01*
X117552787Y-111594846D01*
X117624082Y-111642484D01*
X117664076Y-111675306D01*
X117724694Y-111735924D01*
X117757516Y-111775918D01*
X117805154Y-111847213D01*
X117829540Y-111892836D01*
X117862349Y-111972045D01*
X117877368Y-112021557D01*
X117894094Y-112105642D01*
X117899165Y-112157131D01*
X117899165Y-112175551D01*
X117899767Y-112187803D01*
X117901573Y-112206140D01*
X117901573Y-112693860D01*
X117897107Y-112739203D01*
X117885668Y-112776913D01*
X117878097Y-112791078D01*
X117868720Y-112813717D01*
X117863940Y-112837750D01*
X117863940Y-112862255D01*
X117868721Y-112886288D01*
X117878097Y-112908922D01*
X117885668Y-112923087D01*
X117885670Y-112923092D01*
X117885670Y-112923093D01*
X117891403Y-112941991D01*
X117897107Y-112960797D01*
X117901573Y-113006140D01*
X117901573Y-113493860D01*
X117899767Y-113512197D01*
X117899165Y-113524449D01*
X117899165Y-113542869D01*
X117894094Y-113594358D01*
X117877368Y-113678443D01*
X117862349Y-113727955D01*
X117829540Y-113807164D01*
X117805154Y-113852787D01*
X117757516Y-113924082D01*
X117724694Y-113964076D01*
X117664076Y-114024694D01*
X117624082Y-114057516D01*
X117552787Y-114105154D01*
X117507164Y-114129540D01*
X117427955Y-114162349D01*
X117422050Y-114164140D01*
X117422048Y-114164141D01*
X117412168Y-114167138D01*
X117378443Y-114177368D01*
X117294358Y-114194094D01*
X117242869Y-114199165D01*
X117224449Y-114199165D01*
X117212197Y-114199767D01*
X117193860Y-114201573D01*
X116706140Y-114201573D01*
X116687803Y-114199767D01*
X116675551Y-114199165D01*
X116657131Y-114199165D01*
X116605642Y-114194094D01*
X116521557Y-114177368D01*
X116487832Y-114167138D01*
X116477952Y-114164141D01*
X116477950Y-114164140D01*
X116472045Y-114162349D01*
X116392836Y-114129540D01*
X116347213Y-114105154D01*
X116275918Y-114057516D01*
X116235924Y-114024694D01*
X116175306Y-113964076D01*
X116142484Y-113924082D01*
X116094846Y-113852787D01*
X116070460Y-113807164D01*
X116037651Y-113727955D01*
X116022632Y-113678443D01*
X116005906Y-113594358D01*
X116000835Y-113542869D01*
X116000835Y-113524449D01*
X116000233Y-113512197D01*
X115998427Y-113493860D01*
X115998427Y-113006140D01*
X116002893Y-112960797D01*
X116008598Y-112941991D01*
X116014330Y-112923093D01*
X116014330Y-112923092D01*
X116014332Y-112923087D01*
X116021903Y-112908922D01*
X116031280Y-112886283D01*
X116036060Y-112862250D01*
X116036060Y-112837745D01*
X116031279Y-112813712D01*
X116021903Y-112791078D01*
X116014332Y-112776913D01*
X116002893Y-112739203D01*
X115998427Y-112693860D01*
X115998427Y-112206140D01*
X116000233Y-112187803D01*
X116000835Y-112175551D01*
X116000835Y-112157131D01*
X116005906Y-112105642D01*
X116022632Y-112021557D01*
X116037651Y-111972045D01*
X116070460Y-111892836D01*
X116094846Y-111847213D01*
X116142484Y-111775918D01*
X116175306Y-111735924D01*
X116235924Y-111675306D01*
X116275918Y-111642484D01*
X116347213Y-111594846D01*
X116392836Y-111570460D01*
X116472045Y-111537651D01*
X116477950Y-111535860D01*
X116477952Y-111535859D01*
X116487832Y-111532862D01*
X116521557Y-111522632D01*
X116605642Y-111505906D01*
X116657131Y-111500835D01*
X116675551Y-111500835D01*
X116687803Y-111500233D01*
X116706140Y-111498427D01*
X117193860Y-111498427D01*
X117212197Y-111500233D01*
X117212197Y-111500233D01*
G37*
G36*
X106150000Y-113750000D02*
X104850000Y-113750000D01*
X104850000Y-112550000D01*
X106150000Y-112550000D01*
X106150000Y-113750000D01*
X106150000Y-113750000D01*
G37*
G36*
X112650000Y-113550000D02*
X111350000Y-113550000D01*
X111350000Y-112350000D01*
X112650000Y-112350000D01*
X112650000Y-113550000D01*
X112650000Y-113550000D01*
G37*
G36*
X108450000Y-113350000D02*
X107050000Y-113350000D01*
X107050000Y-111950000D01*
X108450000Y-111950000D01*
X108450000Y-113350000D01*
X108450000Y-113350000D01*
G37*
G36*
X114935530Y-111605710D02*
X114985379Y-111620831D01*
X115031311Y-111645382D01*
X115071574Y-111678426D01*
X115104618Y-111718689D01*
X115129169Y-111764621D01*
X115144290Y-111814470D01*
X115150000Y-111872444D01*
X115150000Y-112877556D01*
X115144290Y-112935530D01*
X115129169Y-112985379D01*
X115104618Y-113031311D01*
X115071574Y-113071574D01*
X115031311Y-113104618D01*
X114985379Y-113129169D01*
X114935530Y-113144290D01*
X114877556Y-113150000D01*
X113622444Y-113150000D01*
X113564470Y-113144290D01*
X113514621Y-113129169D01*
X113468689Y-113104618D01*
X113428426Y-113071574D01*
X113395382Y-113031311D01*
X113370831Y-112985379D01*
X113355710Y-112935530D01*
X113350000Y-112877556D01*
X113350000Y-111872444D01*
X113355710Y-111814470D01*
X113370831Y-111764621D01*
X113395382Y-111718689D01*
X113428426Y-111678426D01*
X113468689Y-111645382D01*
X113514621Y-111620831D01*
X113564470Y-111605710D01*
X113622444Y-111600000D01*
X114877556Y-111600000D01*
X114935530Y-111605710D01*
X114935530Y-111605710D01*
G37*
G36*
X99560530Y-109755710D02*
X99610379Y-109770831D01*
X99656311Y-109795382D01*
X99696574Y-109828426D01*
X99729618Y-109868689D01*
X99754169Y-109914621D01*
X99769290Y-109964470D01*
X99775000Y-110022444D01*
X99775000Y-111277556D01*
X99769290Y-111335530D01*
X99754169Y-111385379D01*
X99729618Y-111431311D01*
X99696574Y-111471574D01*
X99656311Y-111504618D01*
X99610379Y-111529169D01*
X99560530Y-111544290D01*
X99502556Y-111550000D01*
X98497444Y-111550000D01*
X98439470Y-111544290D01*
X98389621Y-111529169D01*
X98343689Y-111504618D01*
X98303426Y-111471574D01*
X98270382Y-111431311D01*
X98245831Y-111385379D01*
X98230710Y-111335530D01*
X98225000Y-111277556D01*
X98225000Y-110022444D01*
X98230710Y-109964470D01*
X98245831Y-109914621D01*
X98270382Y-109868689D01*
X98303426Y-109828426D01*
X98343689Y-109795382D01*
X98389621Y-109770831D01*
X98439470Y-109755710D01*
X98497444Y-109750000D01*
X99502556Y-109750000D01*
X99560530Y-109755710D01*
X99560530Y-109755710D01*
G37*
G36*
X101610530Y-109755710D02*
X101660379Y-109770831D01*
X101706311Y-109795382D01*
X101746574Y-109828426D01*
X101779618Y-109868689D01*
X101804169Y-109914621D01*
X101819290Y-109964470D01*
X101825000Y-110022444D01*
X101825000Y-111277556D01*
X101819290Y-111335530D01*
X101804169Y-111385379D01*
X101779618Y-111431311D01*
X101746574Y-111471574D01*
X101706311Y-111504618D01*
X101660379Y-111529169D01*
X101610530Y-111544290D01*
X101552556Y-111550000D01*
X100547444Y-111550000D01*
X100489470Y-111544290D01*
X100439621Y-111529169D01*
X100393689Y-111504618D01*
X100353426Y-111471574D01*
X100320382Y-111431311D01*
X100295831Y-111385379D01*
X100280710Y-111335530D01*
X100275000Y-111277556D01*
X100275000Y-110022444D01*
X100280710Y-109964470D01*
X100295831Y-109914621D01*
X100320382Y-109868689D01*
X100353426Y-109828426D01*
X100393689Y-109795382D01*
X100439621Y-109770831D01*
X100489470Y-109755710D01*
X100547444Y-109750000D01*
X101552556Y-109750000D01*
X101610530Y-109755710D01*
X101610530Y-109755710D01*
G37*
G36*
X108810530Y-109005710D02*
X108860379Y-109020831D01*
X108906311Y-109045382D01*
X108946574Y-109078426D01*
X108979618Y-109118689D01*
X109004169Y-109164621D01*
X109019290Y-109214470D01*
X109025000Y-109272444D01*
X109025000Y-110527556D01*
X109019290Y-110585530D01*
X109004169Y-110635379D01*
X108979618Y-110681311D01*
X108946574Y-110721574D01*
X108906311Y-110754618D01*
X108860379Y-110779169D01*
X108810530Y-110794290D01*
X108752556Y-110800000D01*
X107747444Y-110800000D01*
X107689470Y-110794290D01*
X107639621Y-110779169D01*
X107593689Y-110754618D01*
X107553426Y-110721574D01*
X107520382Y-110681311D01*
X107495831Y-110635379D01*
X107480710Y-110585530D01*
X107475000Y-110527556D01*
X107475000Y-109272444D01*
X107480710Y-109214470D01*
X107495831Y-109164621D01*
X107520382Y-109118689D01*
X107553426Y-109078426D01*
X107593689Y-109045382D01*
X107639621Y-109020831D01*
X107689470Y-109005710D01*
X107747444Y-109000000D01*
X108752556Y-109000000D01*
X108810530Y-109005710D01*
X108810530Y-109005710D01*
G37*
G36*
X110860530Y-109005710D02*
X110910379Y-109020831D01*
X110956311Y-109045382D01*
X110996574Y-109078426D01*
X111029618Y-109118689D01*
X111054169Y-109164621D01*
X111069290Y-109214470D01*
X111075000Y-109272444D01*
X111075000Y-110527556D01*
X111069290Y-110585530D01*
X111054169Y-110635379D01*
X111029618Y-110681311D01*
X110996574Y-110721574D01*
X110956311Y-110754618D01*
X110910379Y-110779169D01*
X110860530Y-110794290D01*
X110802556Y-110800000D01*
X109797444Y-110800000D01*
X109739470Y-110794290D01*
X109689621Y-110779169D01*
X109643689Y-110754618D01*
X109603426Y-110721574D01*
X109570382Y-110681311D01*
X109545831Y-110635379D01*
X109530710Y-110585530D01*
X109525000Y-110527556D01*
X109525000Y-109272444D01*
X109530710Y-109214470D01*
X109545831Y-109164621D01*
X109570382Y-109118689D01*
X109603426Y-109078426D01*
X109643689Y-109045382D01*
X109689621Y-109020831D01*
X109739470Y-109005710D01*
X109797444Y-109000000D01*
X110802556Y-109000000D01*
X110860530Y-109005710D01*
X110860530Y-109005710D01*
G37*
G36*
X123350000Y-109850000D02*
X120150000Y-109850000D01*
X120150000Y-107450000D01*
X123350000Y-107450000D01*
X123350000Y-109850000D01*
X123350000Y-109850000D01*
G37*
G36*
X113835530Y-108030710D02*
X113885379Y-108045831D01*
X113931311Y-108070382D01*
X113971574Y-108103426D01*
X114004618Y-108143689D01*
X114029169Y-108189621D01*
X114044290Y-108239470D01*
X114050000Y-108297444D01*
X114050000Y-109302556D01*
X114044290Y-109360530D01*
X114029169Y-109410379D01*
X114004618Y-109456311D01*
X113971574Y-109496574D01*
X113931311Y-109529618D01*
X113885379Y-109554169D01*
X113835530Y-109569290D01*
X113777556Y-109575000D01*
X112522444Y-109575000D01*
X112464470Y-109569290D01*
X112414621Y-109554169D01*
X112368689Y-109529618D01*
X112328426Y-109496574D01*
X112295382Y-109456311D01*
X112270831Y-109410379D01*
X112255710Y-109360530D01*
X112250000Y-109302556D01*
X112250000Y-108297444D01*
X112255710Y-108239470D01*
X112270831Y-108189621D01*
X112295382Y-108143689D01*
X112328426Y-108103426D01*
X112368689Y-108070382D01*
X112414621Y-108045831D01*
X112464470Y-108030710D01*
X112522444Y-108025000D01*
X113777556Y-108025000D01*
X113835530Y-108030710D01*
X113835530Y-108030710D01*
G37*
G36*
X116935530Y-108005710D02*
X116985379Y-108020831D01*
X117031311Y-108045382D01*
X117071574Y-108078426D01*
X117104618Y-108118689D01*
X117129169Y-108164621D01*
X117144290Y-108214470D01*
X117150000Y-108272444D01*
X117150000Y-109277556D01*
X117144290Y-109335530D01*
X117129169Y-109385379D01*
X117104618Y-109431311D01*
X117071574Y-109471574D01*
X117031311Y-109504618D01*
X116985379Y-109529169D01*
X116935530Y-109544290D01*
X116877556Y-109550000D01*
X115622444Y-109550000D01*
X115564470Y-109544290D01*
X115514621Y-109529169D01*
X115468689Y-109504618D01*
X115428426Y-109471574D01*
X115395382Y-109431311D01*
X115370831Y-109385379D01*
X115355710Y-109335530D01*
X115350000Y-109277556D01*
X115350000Y-108272444D01*
X115355710Y-108214470D01*
X115370831Y-108164621D01*
X115395382Y-108118689D01*
X115428426Y-108078426D01*
X115468689Y-108045382D01*
X115514621Y-108020831D01*
X115564470Y-108005710D01*
X115622444Y-108000000D01*
X116877556Y-108000000D01*
X116935530Y-108005710D01*
X116935530Y-108005710D01*
G37*
G36*
X97154183Y-107976900D02*
X97271871Y-108025649D01*
X97281574Y-108029668D01*
X97396224Y-108106274D01*
X97493726Y-108203776D01*
X97539608Y-108272444D01*
X97570332Y-108318426D01*
X97623100Y-108445817D01*
X97650000Y-108581055D01*
X97650000Y-108718945D01*
X97623100Y-108854183D01*
X97570984Y-108980000D01*
X97570332Y-108981574D01*
X97493726Y-109096224D01*
X97396224Y-109193726D01*
X97367312Y-109213044D01*
X97281574Y-109270332D01*
X97154183Y-109323100D01*
X97018945Y-109350000D01*
X96881055Y-109350000D01*
X96745817Y-109323100D01*
X96618426Y-109270332D01*
X96532688Y-109213044D01*
X96503776Y-109193726D01*
X96406274Y-109096224D01*
X96329668Y-108981574D01*
X96329016Y-108980000D01*
X96276900Y-108854183D01*
X96250000Y-108718945D01*
X96250000Y-108581055D01*
X96276900Y-108445817D01*
X96329668Y-108318426D01*
X96360392Y-108272444D01*
X96406274Y-108203776D01*
X96503776Y-108106274D01*
X96618426Y-108029668D01*
X96628129Y-108025649D01*
X96745817Y-107976900D01*
X96881055Y-107950000D01*
X97018945Y-107950000D01*
X97154183Y-107976900D01*
X97154183Y-107976900D01*
G37*
G36*
X101775000Y-108980000D02*
X98825000Y-108980000D01*
X98825000Y-107520000D01*
X101775000Y-107520000D01*
X101775000Y-108980000D01*
X101775000Y-108980000D01*
G37*
G36*
X110835530Y-105755710D02*
X110885379Y-105770831D01*
X110931311Y-105795382D01*
X110971574Y-105828426D01*
X111004618Y-105868689D01*
X111029169Y-105914621D01*
X111044290Y-105964470D01*
X111050000Y-106022444D01*
X111050000Y-107277556D01*
X111044290Y-107335530D01*
X111029169Y-107385379D01*
X111004618Y-107431311D01*
X110971574Y-107471574D01*
X110931311Y-107504618D01*
X110885379Y-107529169D01*
X110835530Y-107544290D01*
X110777556Y-107550000D01*
X109772444Y-107550000D01*
X109714470Y-107544290D01*
X109664621Y-107529169D01*
X109618689Y-107504618D01*
X109578426Y-107471574D01*
X109545382Y-107431311D01*
X109520831Y-107385379D01*
X109505710Y-107335530D01*
X109500000Y-107277556D01*
X109500000Y-106022444D01*
X109505710Y-105964470D01*
X109520831Y-105914621D01*
X109545382Y-105868689D01*
X109578426Y-105828426D01*
X109618689Y-105795382D01*
X109664621Y-105770831D01*
X109714470Y-105755710D01*
X109772444Y-105750000D01*
X110777556Y-105750000D01*
X110835530Y-105755710D01*
X110835530Y-105755710D01*
G37*
G36*
X108785530Y-105755710D02*
X108835379Y-105770831D01*
X108881311Y-105795382D01*
X108921574Y-105828426D01*
X108954618Y-105868689D01*
X108979169Y-105914621D01*
X108994290Y-105964470D01*
X109000000Y-106022444D01*
X109000000Y-107277556D01*
X108994290Y-107335530D01*
X108979169Y-107385379D01*
X108954618Y-107431311D01*
X108921574Y-107471574D01*
X108881311Y-107504618D01*
X108835379Y-107529169D01*
X108785530Y-107544290D01*
X108727556Y-107550000D01*
X107722444Y-107550000D01*
X107664470Y-107544290D01*
X107614621Y-107529169D01*
X107568689Y-107504618D01*
X107528426Y-107471574D01*
X107495382Y-107431311D01*
X107470831Y-107385379D01*
X107455710Y-107335530D01*
X107450000Y-107277556D01*
X107450000Y-106022444D01*
X107455710Y-105964470D01*
X107470831Y-105914621D01*
X107495382Y-105868689D01*
X107528426Y-105828426D01*
X107568689Y-105795382D01*
X107614621Y-105770831D01*
X107664470Y-105755710D01*
X107722444Y-105750000D01*
X108727556Y-105750000D01*
X108785530Y-105755710D01*
X108785530Y-105755710D01*
G37*
G36*
X113835530Y-105980710D02*
X113885379Y-105995831D01*
X113931311Y-106020382D01*
X113971574Y-106053426D01*
X114004618Y-106093689D01*
X114029169Y-106139621D01*
X114044290Y-106189470D01*
X114050000Y-106247444D01*
X114050000Y-107252556D01*
X114044290Y-107310530D01*
X114029169Y-107360379D01*
X114004618Y-107406311D01*
X113971574Y-107446574D01*
X113931311Y-107479618D01*
X113885379Y-107504169D01*
X113835530Y-107519290D01*
X113777556Y-107525000D01*
X112522444Y-107525000D01*
X112464470Y-107519290D01*
X112414621Y-107504169D01*
X112368689Y-107479618D01*
X112328426Y-107446574D01*
X112295382Y-107406311D01*
X112270831Y-107360379D01*
X112255710Y-107310530D01*
X112250000Y-107252556D01*
X112250000Y-106247444D01*
X112255710Y-106189470D01*
X112270831Y-106139621D01*
X112295382Y-106093689D01*
X112328426Y-106053426D01*
X112368689Y-106020382D01*
X112414621Y-105995831D01*
X112464470Y-105980710D01*
X112522444Y-105975000D01*
X113777556Y-105975000D01*
X113835530Y-105980710D01*
X113835530Y-105980710D01*
G37*
G36*
X116935530Y-105955710D02*
X116985379Y-105970831D01*
X117031311Y-105995382D01*
X117071574Y-106028426D01*
X117104618Y-106068689D01*
X117129169Y-106114621D01*
X117144290Y-106164470D01*
X117150000Y-106222444D01*
X117150000Y-107227556D01*
X117144290Y-107285530D01*
X117129169Y-107335379D01*
X117104618Y-107381311D01*
X117071574Y-107421574D01*
X117031311Y-107454618D01*
X116985379Y-107479169D01*
X116935530Y-107494290D01*
X116877556Y-107500000D01*
X115622444Y-107500000D01*
X115564470Y-107494290D01*
X115514621Y-107479169D01*
X115468689Y-107454618D01*
X115428426Y-107421574D01*
X115395382Y-107381311D01*
X115370831Y-107335379D01*
X115355710Y-107285530D01*
X115350000Y-107227556D01*
X115350000Y-106222444D01*
X115355710Y-106164470D01*
X115370831Y-106114621D01*
X115395382Y-106068689D01*
X115428426Y-106028426D01*
X115468689Y-105995382D01*
X115514621Y-105970831D01*
X115564470Y-105955710D01*
X115622444Y-105950000D01*
X116877556Y-105950000D01*
X116935530Y-105955710D01*
X116935530Y-105955710D01*
G37*
G36*
X97154183Y-105876900D02*
X97281574Y-105929668D01*
X97396224Y-106006274D01*
X97493726Y-106103776D01*
X97529963Y-106158009D01*
X97570332Y-106218426D01*
X97623100Y-106345817D01*
X97650000Y-106481055D01*
X97650000Y-106618945D01*
X97623100Y-106754183D01*
X97570332Y-106881574D01*
X97493725Y-106996225D01*
X97396225Y-107093725D01*
X97281574Y-107170332D01*
X97154183Y-107223100D01*
X97018945Y-107250000D01*
X96881055Y-107250000D01*
X96745817Y-107223100D01*
X96618426Y-107170332D01*
X96503775Y-107093725D01*
X96406275Y-106996225D01*
X96329668Y-106881574D01*
X96276900Y-106754183D01*
X96250000Y-106618945D01*
X96250000Y-106481055D01*
X96276900Y-106345817D01*
X96329668Y-106218426D01*
X96370037Y-106158009D01*
X96406274Y-106103776D01*
X96503776Y-106006274D01*
X96618426Y-105929668D01*
X96745817Y-105876900D01*
X96881055Y-105850000D01*
X97018945Y-105850000D01*
X97154183Y-105876900D01*
X97154183Y-105876900D01*
G37*
G36*
X101775000Y-106780000D02*
X100725000Y-106780000D01*
X100725000Y-105320000D01*
X101775000Y-105320000D01*
X101775000Y-106780000D01*
X101775000Y-106780000D01*
G37*
G36*
X99875000Y-106780000D02*
X98825000Y-106780000D01*
X98825000Y-105320000D01*
X99875000Y-105320000D01*
X99875000Y-106780000D01*
X99875000Y-106780000D01*
G37*
G36*
X97154183Y-103776900D02*
X97281574Y-103829668D01*
X97396225Y-103906275D01*
X97493725Y-104003775D01*
X97570332Y-104118426D01*
X97623100Y-104245817D01*
X97650000Y-104381055D01*
X97650000Y-104518945D01*
X97623100Y-104654183D01*
X97570332Y-104781574D01*
X97493725Y-104896225D01*
X97396225Y-104993725D01*
X97281574Y-105070332D01*
X97154183Y-105123100D01*
X97018945Y-105150000D01*
X96881055Y-105150000D01*
X96745817Y-105123100D01*
X96618426Y-105070332D01*
X96503775Y-104993725D01*
X96406275Y-104896225D01*
X96329668Y-104781574D01*
X96276900Y-104654183D01*
X96250000Y-104518945D01*
X96250000Y-104381055D01*
X96276900Y-104245817D01*
X96329668Y-104118426D01*
X96406275Y-104003775D01*
X96503775Y-103906275D01*
X96618426Y-103829668D01*
X96745817Y-103776900D01*
X96881055Y-103750000D01*
X97018945Y-103750000D01*
X97154183Y-103776900D01*
X97154183Y-103776900D01*
G37*
G36*
X101785530Y-102955710D02*
X101835379Y-102970831D01*
X101881311Y-102995382D01*
X101921574Y-103028426D01*
X101954618Y-103068689D01*
X101979169Y-103114621D01*
X101994290Y-103164470D01*
X102000000Y-103222444D01*
X102000000Y-104477556D01*
X101994290Y-104535530D01*
X101979169Y-104585379D01*
X101954618Y-104631311D01*
X101921574Y-104671574D01*
X101881311Y-104704618D01*
X101835379Y-104729169D01*
X101785530Y-104744290D01*
X101727556Y-104750000D01*
X100722444Y-104750000D01*
X100664470Y-104744290D01*
X100614621Y-104729169D01*
X100568689Y-104704618D01*
X100528426Y-104671574D01*
X100495382Y-104631311D01*
X100470831Y-104585379D01*
X100455710Y-104535530D01*
X100450000Y-104477556D01*
X100450000Y-103222444D01*
X100455710Y-103164470D01*
X100470831Y-103114621D01*
X100495382Y-103068689D01*
X100528426Y-103028426D01*
X100568689Y-102995382D01*
X100614621Y-102970831D01*
X100664470Y-102955710D01*
X100722444Y-102950000D01*
X101727556Y-102950000D01*
X101785530Y-102955710D01*
X101785530Y-102955710D01*
G37*
G36*
X103835530Y-102955710D02*
X103885379Y-102970831D01*
X103931311Y-102995382D01*
X103971574Y-103028426D01*
X104004618Y-103068689D01*
X104029169Y-103114621D01*
X104044290Y-103164470D01*
X104050000Y-103222444D01*
X104050000Y-104477556D01*
X104044290Y-104535530D01*
X104029169Y-104585379D01*
X104004618Y-104631311D01*
X103971574Y-104671574D01*
X103931311Y-104704618D01*
X103885379Y-104729169D01*
X103835530Y-104744290D01*
X103777556Y-104750000D01*
X102772444Y-104750000D01*
X102714470Y-104744290D01*
X102664621Y-104729169D01*
X102618689Y-104704618D01*
X102578426Y-104671574D01*
X102545382Y-104631311D01*
X102520831Y-104585379D01*
X102505710Y-104535530D01*
X102500000Y-104477556D01*
X102500000Y-103222444D01*
X102505710Y-103164470D01*
X102520831Y-103114621D01*
X102545382Y-103068689D01*
X102578426Y-103028426D01*
X102618689Y-102995382D01*
X102664621Y-102970831D01*
X102714470Y-102955710D01*
X102772444Y-102950000D01*
X103777556Y-102950000D01*
X103835530Y-102955710D01*
X103835530Y-102955710D01*
G37*
G36*
X107450000Y-101575000D02*
X107452402Y-101599386D01*
X107459515Y-101622835D01*
X107471066Y-101644446D01*
X107486612Y-101663388D01*
X107505554Y-101678934D01*
X107527165Y-101690485D01*
X107550614Y-101697598D01*
X107575000Y-101700000D01*
X108401000Y-101700000D01*
X108401000Y-102456000D01*
X108403402Y-102480386D01*
X108410515Y-102503835D01*
X108422066Y-102525446D01*
X108437612Y-102544388D01*
X108456554Y-102559934D01*
X108478165Y-102571485D01*
X108501614Y-102578598D01*
X108526000Y-102581000D01*
X115917000Y-102581000D01*
X115941386Y-102578598D01*
X115964835Y-102571485D01*
X115986446Y-102559934D01*
X116005388Y-102544388D01*
X116020934Y-102525446D01*
X116032485Y-102503835D01*
X116039598Y-102480386D01*
X116042000Y-102456000D01*
X116042000Y-101700000D01*
X116925000Y-101700000D01*
X116949386Y-101697598D01*
X116972835Y-101690485D01*
X116994446Y-101678934D01*
X117013388Y-101663388D01*
X117028934Y-101644446D01*
X117040485Y-101622835D01*
X117047598Y-101599386D01*
X117050000Y-101575000D01*
X117050000Y-92031000D01*
X118950000Y-92031000D01*
X118950000Y-101713159D01*
X118944402Y-101731614D01*
X118942000Y-101756000D01*
X118942000Y-104600000D01*
X116041409Y-104600000D01*
X116039598Y-104581614D01*
X116032485Y-104558165D01*
X116020934Y-104536554D01*
X116005388Y-104517612D01*
X115986446Y-104502066D01*
X115964835Y-104490515D01*
X115941386Y-104483402D01*
X115917000Y-104481000D01*
X108526000Y-104481000D01*
X108501614Y-104483402D01*
X108478165Y-104490515D01*
X108456554Y-104502066D01*
X108437612Y-104517612D01*
X108422066Y-104536554D01*
X108410515Y-104558165D01*
X108403402Y-104581614D01*
X108401591Y-104600000D01*
X105501000Y-104600000D01*
X105501000Y-101673555D01*
X105513388Y-101663388D01*
X105528934Y-101644446D01*
X105540485Y-101622835D01*
X105547598Y-101599386D01*
X105550000Y-101575000D01*
X105550000Y-92031000D01*
X107450000Y-92031000D01*
X107450000Y-101575000D01*
X107450000Y-101575000D01*
G37*
G36*
X123300000Y-103750000D02*
X120100000Y-103750000D01*
X120100000Y-101350000D01*
X123300000Y-101350000D01*
X123300000Y-103750000D01*
X123300000Y-103750000D01*
G37*
G36*
X97249490Y-103445640D02*
X95250510Y-103445640D01*
X95250510Y-102048640D01*
X97249490Y-102048640D01*
X97249490Y-103445640D01*
X97249490Y-103445640D01*
G37*
G36*
X103935530Y-100705710D02*
X103985379Y-100720831D01*
X104031311Y-100745382D01*
X104071574Y-100778426D01*
X104104618Y-100818689D01*
X104129169Y-100864621D01*
X104144290Y-100914470D01*
X104150000Y-100972444D01*
X104150000Y-101977556D01*
X104144290Y-102035530D01*
X104129169Y-102085379D01*
X104104618Y-102131311D01*
X104071574Y-102171574D01*
X104031311Y-102204618D01*
X103985379Y-102229169D01*
X103935530Y-102244290D01*
X103877556Y-102250000D01*
X102622444Y-102250000D01*
X102564470Y-102244290D01*
X102514621Y-102229169D01*
X102468689Y-102204618D01*
X102428426Y-102171574D01*
X102395382Y-102131311D01*
X102370831Y-102085379D01*
X102355710Y-102035530D01*
X102350000Y-101977556D01*
X102350000Y-100972444D01*
X102355710Y-100914470D01*
X102370831Y-100864621D01*
X102395382Y-100818689D01*
X102428426Y-100778426D01*
X102468689Y-100745382D01*
X102514621Y-100720831D01*
X102564470Y-100705710D01*
X102622444Y-100700000D01*
X103877556Y-100700000D01*
X103935530Y-100705710D01*
X103935530Y-100705710D01*
G37*
G36*
X100997260Y-101847980D02*
X99249740Y-101847980D01*
X99249740Y-96049160D01*
X100997260Y-96049160D01*
X100997260Y-101847980D01*
X100997260Y-101847980D01*
G37*
G36*
X103935530Y-98655710D02*
X103985379Y-98670831D01*
X104031311Y-98695382D01*
X104071574Y-98728426D01*
X104104618Y-98768689D01*
X104129169Y-98814621D01*
X104144290Y-98864470D01*
X104150000Y-98922444D01*
X104150000Y-99927556D01*
X104144290Y-99985530D01*
X104129169Y-100035379D01*
X104104618Y-100081311D01*
X104071574Y-100121574D01*
X104031311Y-100154618D01*
X103985379Y-100179169D01*
X103935530Y-100194290D01*
X103877556Y-100200000D01*
X102622444Y-100200000D01*
X102564470Y-100194290D01*
X102514621Y-100179169D01*
X102468689Y-100154618D01*
X102428426Y-100121574D01*
X102395382Y-100081311D01*
X102370831Y-100035379D01*
X102355710Y-99985530D01*
X102350000Y-99927556D01*
X102350000Y-98922444D01*
X102355710Y-98864470D01*
X102370831Y-98814621D01*
X102395382Y-98768689D01*
X102428426Y-98728426D01*
X102468689Y-98695382D01*
X102514621Y-98670831D01*
X102564470Y-98655710D01*
X102622444Y-98650000D01*
X103877556Y-98650000D01*
X103935530Y-98655710D01*
X103935530Y-98655710D01*
G37*
G36*
X121829184Y-95401901D02*
X121956575Y-95454669D01*
X122071226Y-95531276D01*
X122168726Y-95628776D01*
X122245333Y-95743427D01*
X122298101Y-95870818D01*
X122325001Y-96006056D01*
X122325001Y-96143946D01*
X122298101Y-96279184D01*
X122245333Y-96406575D01*
X122168726Y-96521226D01*
X122071226Y-96618726D01*
X121956576Y-96695333D01*
X121922338Y-96709515D01*
X121900727Y-96721066D01*
X121881785Y-96736611D01*
X121866239Y-96755554D01*
X121854688Y-96777164D01*
X121847575Y-96800613D01*
X121845173Y-96825000D01*
X121847575Y-96849386D01*
X121854688Y-96872835D01*
X121866239Y-96894446D01*
X121881784Y-96913388D01*
X121900727Y-96928934D01*
X121922337Y-96940485D01*
X121945786Y-96947598D01*
X121970173Y-96950000D01*
X123300000Y-96950000D01*
X123300000Y-99350000D01*
X120100000Y-99350000D01*
X120100000Y-96950000D01*
X121279829Y-96950000D01*
X121304215Y-96947598D01*
X121327664Y-96940485D01*
X121349275Y-96928934D01*
X121368217Y-96913388D01*
X121383763Y-96894446D01*
X121395314Y-96872835D01*
X121402427Y-96849386D01*
X121404829Y-96825000D01*
X121402427Y-96800614D01*
X121395314Y-96777165D01*
X121383763Y-96755554D01*
X121368217Y-96736612D01*
X121349275Y-96721066D01*
X121327664Y-96709515D01*
X121293426Y-96695333D01*
X121178776Y-96618726D01*
X121081276Y-96521226D01*
X121004669Y-96406575D01*
X120951901Y-96279184D01*
X120925001Y-96143946D01*
X120925001Y-96006056D01*
X120951901Y-95870818D01*
X121004669Y-95743427D01*
X121081276Y-95628776D01*
X121178776Y-95531276D01*
X121293427Y-95454669D01*
X121420818Y-95401901D01*
X121556056Y-95375001D01*
X121693946Y-95375001D01*
X121829184Y-95401901D01*
X121829184Y-95401901D01*
G37*
G36*
X97249490Y-95848500D02*
X95250510Y-95848500D01*
X95250510Y-94451500D01*
X97249490Y-94451500D01*
X97249490Y-95848500D01*
X97249490Y-95848500D01*
G37*
G36*
X123350000Y-93050000D02*
X121909815Y-93050000D01*
X121885429Y-93052402D01*
X121861980Y-93059515D01*
X121840369Y-93071066D01*
X121821427Y-93086612D01*
X121805881Y-93105554D01*
X121794330Y-93127165D01*
X121787217Y-93150614D01*
X121784815Y-93175000D01*
X121787217Y-93199386D01*
X121794330Y-93222835D01*
X121805881Y-93244446D01*
X121821427Y-93263388D01*
X121840369Y-93278934D01*
X121861980Y-93290485D01*
X121956576Y-93329668D01*
X122071226Y-93406275D01*
X122168726Y-93503775D01*
X122245333Y-93618426D01*
X122298101Y-93745817D01*
X122325001Y-93881055D01*
X122325001Y-94018945D01*
X122298101Y-94154183D01*
X122245333Y-94281574D01*
X122168726Y-94396225D01*
X122071226Y-94493725D01*
X121956575Y-94570332D01*
X121829184Y-94623100D01*
X121693946Y-94650000D01*
X121556056Y-94650000D01*
X121420818Y-94623100D01*
X121293427Y-94570332D01*
X121178776Y-94493725D01*
X121081276Y-94396225D01*
X121004669Y-94281574D01*
X120951901Y-94154183D01*
X120925001Y-94018945D01*
X120925001Y-93881055D01*
X120951901Y-93745817D01*
X121004669Y-93618426D01*
X121081276Y-93503775D01*
X121178776Y-93406275D01*
X121293426Y-93329668D01*
X121388022Y-93290485D01*
X121409633Y-93278934D01*
X121428575Y-93263388D01*
X121444121Y-93244446D01*
X121455672Y-93222836D01*
X121462785Y-93199386D01*
X121465187Y-93175000D01*
X121462785Y-93150614D01*
X121455672Y-93127165D01*
X121444121Y-93105554D01*
X121428575Y-93086612D01*
X121409633Y-93071066D01*
X121388023Y-93059515D01*
X121364573Y-93052402D01*
X121340187Y-93050000D01*
X120150000Y-93050000D01*
X120150000Y-90650000D01*
X123350000Y-90650000D01*
X123350000Y-93050000D01*
X123350000Y-93050000D01*
G37*
G36*
X104700000Y-93600000D02*
X102300000Y-93600000D01*
X102300000Y-91200000D01*
X104700000Y-91200000D01*
X104700000Y-93600000D01*
X104700000Y-93600000D01*
G37*
G36*
X97700000Y-93600000D02*
X95300000Y-93600000D01*
X95300000Y-91200000D01*
X97700000Y-91200000D01*
X97700000Y-93600000D01*
X97700000Y-93600000D01*
G37*
G36*
X123350000Y-88650000D02*
X120150000Y-88650000D01*
X120150000Y-86250000D01*
X123350000Y-86250000D01*
X123350000Y-88650000D01*
X123350000Y-88650000D01*
G37*
G36*
X104700000Y-86600000D02*
X102300000Y-86600000D01*
X102300000Y-84200000D01*
X104700000Y-84200000D01*
X104700000Y-86600000D01*
X104700000Y-86600000D01*
G37*
G36*
X97652000Y-86552000D02*
X96252000Y-86552000D01*
X96252000Y-85152000D01*
X97652000Y-85152000D01*
X97652000Y-86552000D01*
X97652000Y-86552000D01*
G37*
G36*
X122350000Y-85550000D02*
X120950000Y-85550000D01*
X120950000Y-84150000D01*
X122350000Y-84150000D01*
X122350000Y-85550000D01*
X122350000Y-85550000D01*
G37*
M02*
