G04 #@! TF.FileFunction,Soldermask,Bot*
%FSLAX46Y46*%
G04 Gerber Fmt 4.6, Leading zero omitted, Abs format (unit mm)*
G04 Created by KiCad (PCBNEW 4.0.7-e2-6376~58~ubuntu16.04.1) date Fri Jun 15 01:41:50 2018*
%MOMM*%
%LPD*%
G01*
G04 APERTURE LIST*
%ADD10C,0.100000*%
%ADD11R,1.900000X1.200000*%
%ADD12R,1.200000X1.900000*%
%ADD13R,2.900000X2.900000*%
%ADD14R,1.050000X1.960000*%
%ADD15R,1.747520X0.797560*%
%ADD16R,1.998980X1.397000*%
%ADD17R,2.400000X2.400000*%
%ADD18R,1.400000X1.400000*%
%ADD19R,1.600000X2.400000*%
%ADD20R,1.900000X1.650000*%
%ADD21R,1.650000X1.900000*%
%ADD22R,1.300000X1.200000*%
%ADD23R,1.900000X1.700000*%
%ADD24R,1.700000X1.900000*%
%ADD25R,2.400000X3.400000*%
G04 APERTURE END LIST*
D10*
D11*
X118000000Y-92631000D03*
X118000000Y-93831000D03*
X118000000Y-95031000D03*
X118000000Y-96231000D03*
X118000000Y-97431000D03*
X118000000Y-98631000D03*
X118000000Y-99831000D03*
X118000000Y-101031000D03*
D12*
X115250000Y-103531000D03*
X114050000Y-103531000D03*
X112850000Y-103531000D03*
X111650000Y-103531000D03*
X110450000Y-103531000D03*
X109250000Y-103531000D03*
D11*
X106500000Y-101031000D03*
X106500000Y-99831000D03*
X106500000Y-98631000D03*
X106500000Y-97431000D03*
X106500000Y-96231000D03*
X106500000Y-95031000D03*
X106500000Y-93831000D03*
X106500000Y-92631000D03*
D13*
X117492000Y-103150000D03*
X106951000Y-103150000D03*
D14*
X98750000Y-107850000D03*
X97800000Y-107850000D03*
X96850000Y-107850000D03*
X96850000Y-105150000D03*
X98750000Y-105150000D03*
D15*
X100123500Y-97448700D03*
X100123500Y-98449460D03*
X100123500Y-96447940D03*
D16*
X96250000Y-95150000D03*
X96250000Y-102747140D03*
D15*
X100123500Y-99450220D03*
X100123500Y-100448440D03*
X100123500Y-101449200D03*
D17*
X96500000Y-85150000D03*
D18*
X103048000Y-85602000D03*
D17*
X103500000Y-92150000D03*
X96500000Y-92150000D03*
D19*
X122550000Y-108650000D03*
X120950000Y-108650000D03*
X122550000Y-113050000D03*
X120950000Y-113050000D03*
X122550000Y-87450000D03*
X120950000Y-87450000D03*
X122550000Y-91850000D03*
X120950000Y-91850000D03*
X122500000Y-98150000D03*
X120900000Y-98150000D03*
X122500000Y-102550000D03*
X120900000Y-102550000D03*
D20*
X101000000Y-103650000D03*
X103500000Y-103650000D03*
X97250000Y-110400000D03*
X99750000Y-110400000D03*
X104750000Y-110400000D03*
X102250000Y-110400000D03*
X107500000Y-106400000D03*
X110000000Y-106400000D03*
D21*
X114250000Y-114650000D03*
X114250000Y-112150000D03*
D18*
X107750000Y-114900000D03*
X107750000Y-112400000D03*
D22*
X105500000Y-113150000D03*
X105500000Y-115050000D03*
X103500000Y-114100000D03*
D23*
X101000000Y-106900000D03*
X103700000Y-106900000D03*
D24*
X113500000Y-109150000D03*
X113500000Y-106450000D03*
X116250000Y-109100000D03*
X116250000Y-106400000D03*
D23*
X107500000Y-108900000D03*
X110200000Y-108900000D03*
D14*
X110250000Y-111900000D03*
X111200000Y-111900000D03*
X112150000Y-111900000D03*
X112150000Y-114600000D03*
X110250000Y-114600000D03*
D25*
X97500000Y-113900000D03*
X100500000Y-113900000D03*
M02*
