G04 #@! TF.GenerationSoftware,KiCad,Pcbnew,5.0.2-bee76a0~70~ubuntu18.04.1*
G04 #@! TF.CreationDate,2019-03-22T13:37:18+09:00*
G04 #@! TF.ProjectId,GRRNble,4752524e-626c-4652-9e6b-696361645f70,rev?*
G04 #@! TF.SameCoordinates,Original*
G04 #@! TF.FileFunction,Copper,L1,Top*
G04 #@! TF.FilePolarity,Positive*
%FSLAX46Y46*%
G04 Gerber Fmt 4.6, Leading zero omitted, Abs format (unit mm)*
G04 Created by KiCad (PCBNEW 5.0.2-bee76a0~70~ubuntu18.04.1) date 2019年03月22日 13時37分18秒*
%MOMM*%
%LPD*%
G01*
G04 APERTURE LIST*
G04 #@! TA.AperFunction,SMDPad,CuDef*
%ADD10R,0.350000X4.000000*%
G04 #@! TD*
G04 #@! TA.AperFunction,SMDPad,CuDef*
%ADD11R,0.900000X0.800000*%
G04 #@! TD*
G04 #@! TA.AperFunction,Conductor*
%ADD12C,0.100000*%
G04 #@! TD*
G04 #@! TA.AperFunction,SMDPad,CuDef*
%ADD13C,1.150000*%
G04 #@! TD*
G04 #@! TA.AperFunction,SMDPad,CuDef*
%ADD14R,1.750000X1.800000*%
G04 #@! TD*
G04 #@! TA.AperFunction,SMDPad,CuDef*
%ADD15R,1.000000X0.250000*%
G04 #@! TD*
G04 #@! TA.AperFunction,SMDPad,CuDef*
%ADD16R,0.250000X1.000000*%
G04 #@! TD*
G04 #@! TA.AperFunction,ComponentPad*
%ADD17C,1.000000*%
G04 #@! TD*
G04 #@! TA.AperFunction,ComponentPad*
%ADD18R,1.000000X1.000000*%
G04 #@! TD*
G04 #@! TA.AperFunction,BGAPad,CuDef*
%ADD19C,1.000000*%
G04 #@! TD*
G04 #@! TA.AperFunction,ViaPad*
%ADD20C,0.800000*%
G04 #@! TD*
G04 #@! TA.AperFunction,Conductor*
%ADD21C,0.250000*%
G04 #@! TD*
G04 #@! TA.AperFunction,Conductor*
%ADD22C,0.254000*%
G04 #@! TD*
G04 APERTURE END LIST*
D10*
G04 #@! TO.P,U3,1*
G04 #@! TO.N,GND*
X98950000Y-106650000D03*
G04 #@! TO.P,U3,2*
G04 #@! TO.N,Net-(C5-Pad1)*
X99650000Y-106650000D03*
G04 #@! TO.P,U3,3*
G04 #@! TO.N,Net-(C5-Pad2)*
X100350000Y-106650000D03*
G04 #@! TO.P,U3,4*
G04 #@! TO.N,Net-(C6-Pad1)*
X101050000Y-106650000D03*
G04 #@! TO.P,U3,5*
G04 #@! TO.N,Net-(C6-Pad2)*
X101750000Y-106650000D03*
G04 #@! TO.P,U3,6*
G04 #@! TO.N,+3V3*
X102450000Y-106650000D03*
G04 #@! TO.P,U3,7*
G04 #@! TO.N,N/C*
X103150000Y-106650000D03*
G04 #@! TO.P,U3,8*
G04 #@! TO.N,GND*
X103850000Y-106650000D03*
G04 #@! TO.P,U3,9*
G04 #@! TO.N,+3V3*
X104550000Y-106650000D03*
G04 #@! TO.P,U3,10*
G04 #@! TO.N,GND*
X105250000Y-106650000D03*
G04 #@! TO.P,U3,11*
G04 #@! TO.N,Net-(C11-Pad1)*
X105950000Y-106650000D03*
G04 #@! TO.P,U3,12*
G04 #@! TO.N,GND*
X106650000Y-106650000D03*
G04 #@! TO.P,U3,13*
X107350000Y-106650000D03*
G04 #@! TO.P,U3,14*
G04 #@! TO.N,Net-(C11-Pad1)*
X108050000Y-106650000D03*
G04 #@! TO.P,U3,15*
G04 #@! TO.N,GND*
X108750000Y-106650000D03*
G04 #@! TO.P,U3,16*
X109450000Y-106650000D03*
G04 #@! TO.P,U3,17*
X110150000Y-106650000D03*
G04 #@! TO.P,U3,18*
G04 #@! TO.N,SCL*
X110850000Y-106650000D03*
G04 #@! TO.P,U3,19*
G04 #@! TO.N,SDA*
X111550000Y-106650000D03*
G04 #@! TO.P,U3,20*
X112250000Y-106650000D03*
G04 #@! TO.P,U3,21*
G04 #@! TO.N,GND*
X112950000Y-106650000D03*
G04 #@! TO.P,U3,22*
X113650000Y-106650000D03*
G04 #@! TO.P,U3,23*
X114350000Y-106650000D03*
G04 #@! TO.P,U3,24*
X115050000Y-106650000D03*
G04 #@! TO.P,U3,25*
X115750000Y-106650000D03*
G04 #@! TO.P,U3,26*
G04 #@! TO.N,Net-(R4-Pad1)*
X116450000Y-106650000D03*
G04 #@! TO.P,U3,27*
G04 #@! TO.N,Net-(C7-Pad1)*
X117150000Y-106650000D03*
G04 #@! TO.P,U3,28*
G04 #@! TO.N,Net-(C8-Pad1)*
X117850000Y-106650000D03*
G04 #@! TO.P,U3,29*
G04 #@! TO.N,GND*
X118550000Y-106650000D03*
G04 #@! TO.P,U3,30*
X119250000Y-106650000D03*
G04 #@! TD*
D11*
G04 #@! TO.P,Q2,1*
G04 #@! TO.N,Net-(Q2-Pad1)*
X115350000Y-87400000D03*
G04 #@! TO.P,Q2,2*
G04 #@! TO.N,GND*
X115350000Y-85500000D03*
G04 #@! TO.P,Q2,3*
G04 #@! TO.N,Net-(Q2-Pad3)*
X113350000Y-86450000D03*
G04 #@! TD*
G04 #@! TO.P,Q3,1*
G04 #@! TO.N,Net-(Q3-Pad1)*
X100000000Y-85400000D03*
G04 #@! TO.P,Q3,2*
G04 #@! TO.N,+BATT*
X100000000Y-87300000D03*
G04 #@! TO.P,Q3,3*
G04 #@! TO.N,Net-(Q3-Pad3)*
X102000000Y-86350000D03*
G04 #@! TD*
D12*
G04 #@! TO.N,GND*
G04 #@! TO.C,C1*
G36*
X103824505Y-100426204D02*
X103848773Y-100429804D01*
X103872572Y-100435765D01*
X103895671Y-100444030D01*
X103917850Y-100454520D01*
X103938893Y-100467132D01*
X103958599Y-100481747D01*
X103976777Y-100498223D01*
X103993253Y-100516401D01*
X104007868Y-100536107D01*
X104020480Y-100557150D01*
X104030970Y-100579329D01*
X104039235Y-100602428D01*
X104045196Y-100626227D01*
X104048796Y-100650495D01*
X104050000Y-100674999D01*
X104050000Y-101325001D01*
X104048796Y-101349505D01*
X104045196Y-101373773D01*
X104039235Y-101397572D01*
X104030970Y-101420671D01*
X104020480Y-101442850D01*
X104007868Y-101463893D01*
X103993253Y-101483599D01*
X103976777Y-101501777D01*
X103958599Y-101518253D01*
X103938893Y-101532868D01*
X103917850Y-101545480D01*
X103895671Y-101555970D01*
X103872572Y-101564235D01*
X103848773Y-101570196D01*
X103824505Y-101573796D01*
X103800001Y-101575000D01*
X102899999Y-101575000D01*
X102875495Y-101573796D01*
X102851227Y-101570196D01*
X102827428Y-101564235D01*
X102804329Y-101555970D01*
X102782150Y-101545480D01*
X102761107Y-101532868D01*
X102741401Y-101518253D01*
X102723223Y-101501777D01*
X102706747Y-101483599D01*
X102692132Y-101463893D01*
X102679520Y-101442850D01*
X102669030Y-101420671D01*
X102660765Y-101397572D01*
X102654804Y-101373773D01*
X102651204Y-101349505D01*
X102650000Y-101325001D01*
X102650000Y-100674999D01*
X102651204Y-100650495D01*
X102654804Y-100626227D01*
X102660765Y-100602428D01*
X102669030Y-100579329D01*
X102679520Y-100557150D01*
X102692132Y-100536107D01*
X102706747Y-100516401D01*
X102723223Y-100498223D01*
X102741401Y-100481747D01*
X102761107Y-100467132D01*
X102782150Y-100454520D01*
X102804329Y-100444030D01*
X102827428Y-100435765D01*
X102851227Y-100429804D01*
X102875495Y-100426204D01*
X102899999Y-100425000D01*
X103800001Y-100425000D01*
X103824505Y-100426204D01*
X103824505Y-100426204D01*
G37*
D13*
G04 #@! TD*
G04 #@! TO.P,C1,2*
G04 #@! TO.N,GND*
X103350000Y-101000000D03*
D12*
G04 #@! TO.N,Net-(C1-Pad1)*
G04 #@! TO.C,C1*
G36*
X103824505Y-98376204D02*
X103848773Y-98379804D01*
X103872572Y-98385765D01*
X103895671Y-98394030D01*
X103917850Y-98404520D01*
X103938893Y-98417132D01*
X103958599Y-98431747D01*
X103976777Y-98448223D01*
X103993253Y-98466401D01*
X104007868Y-98486107D01*
X104020480Y-98507150D01*
X104030970Y-98529329D01*
X104039235Y-98552428D01*
X104045196Y-98576227D01*
X104048796Y-98600495D01*
X104050000Y-98624999D01*
X104050000Y-99275001D01*
X104048796Y-99299505D01*
X104045196Y-99323773D01*
X104039235Y-99347572D01*
X104030970Y-99370671D01*
X104020480Y-99392850D01*
X104007868Y-99413893D01*
X103993253Y-99433599D01*
X103976777Y-99451777D01*
X103958599Y-99468253D01*
X103938893Y-99482868D01*
X103917850Y-99495480D01*
X103895671Y-99505970D01*
X103872572Y-99514235D01*
X103848773Y-99520196D01*
X103824505Y-99523796D01*
X103800001Y-99525000D01*
X102899999Y-99525000D01*
X102875495Y-99523796D01*
X102851227Y-99520196D01*
X102827428Y-99514235D01*
X102804329Y-99505970D01*
X102782150Y-99495480D01*
X102761107Y-99482868D01*
X102741401Y-99468253D01*
X102723223Y-99451777D01*
X102706747Y-99433599D01*
X102692132Y-99413893D01*
X102679520Y-99392850D01*
X102669030Y-99370671D01*
X102660765Y-99347572D01*
X102654804Y-99323773D01*
X102651204Y-99299505D01*
X102650000Y-99275001D01*
X102650000Y-98624999D01*
X102651204Y-98600495D01*
X102654804Y-98576227D01*
X102660765Y-98552428D01*
X102669030Y-98529329D01*
X102679520Y-98507150D01*
X102692132Y-98486107D01*
X102706747Y-98466401D01*
X102723223Y-98448223D01*
X102741401Y-98431747D01*
X102761107Y-98417132D01*
X102782150Y-98404520D01*
X102804329Y-98394030D01*
X102827428Y-98385765D01*
X102851227Y-98379804D01*
X102875495Y-98376204D01*
X102899999Y-98375000D01*
X103800001Y-98375000D01*
X103824505Y-98376204D01*
X103824505Y-98376204D01*
G37*
D13*
G04 #@! TD*
G04 #@! TO.P,C1,1*
G04 #@! TO.N,Net-(C1-Pad1)*
X103350000Y-98950000D03*
D12*
G04 #@! TO.N,+3V3*
G04 #@! TO.C,C2*
G36*
X106874505Y-86951204D02*
X106898773Y-86954804D01*
X106922572Y-86960765D01*
X106945671Y-86969030D01*
X106967850Y-86979520D01*
X106988893Y-86992132D01*
X107008599Y-87006747D01*
X107026777Y-87023223D01*
X107043253Y-87041401D01*
X107057868Y-87061107D01*
X107070480Y-87082150D01*
X107080970Y-87104329D01*
X107089235Y-87127428D01*
X107095196Y-87151227D01*
X107098796Y-87175495D01*
X107100000Y-87199999D01*
X107100000Y-88100001D01*
X107098796Y-88124505D01*
X107095196Y-88148773D01*
X107089235Y-88172572D01*
X107080970Y-88195671D01*
X107070480Y-88217850D01*
X107057868Y-88238893D01*
X107043253Y-88258599D01*
X107026777Y-88276777D01*
X107008599Y-88293253D01*
X106988893Y-88307868D01*
X106967850Y-88320480D01*
X106945671Y-88330970D01*
X106922572Y-88339235D01*
X106898773Y-88345196D01*
X106874505Y-88348796D01*
X106850001Y-88350000D01*
X106199999Y-88350000D01*
X106175495Y-88348796D01*
X106151227Y-88345196D01*
X106127428Y-88339235D01*
X106104329Y-88330970D01*
X106082150Y-88320480D01*
X106061107Y-88307868D01*
X106041401Y-88293253D01*
X106023223Y-88276777D01*
X106006747Y-88258599D01*
X105992132Y-88238893D01*
X105979520Y-88217850D01*
X105969030Y-88195671D01*
X105960765Y-88172572D01*
X105954804Y-88148773D01*
X105951204Y-88124505D01*
X105950000Y-88100001D01*
X105950000Y-87199999D01*
X105951204Y-87175495D01*
X105954804Y-87151227D01*
X105960765Y-87127428D01*
X105969030Y-87104329D01*
X105979520Y-87082150D01*
X105992132Y-87061107D01*
X106006747Y-87041401D01*
X106023223Y-87023223D01*
X106041401Y-87006747D01*
X106061107Y-86992132D01*
X106082150Y-86979520D01*
X106104329Y-86969030D01*
X106127428Y-86960765D01*
X106151227Y-86954804D01*
X106175495Y-86951204D01*
X106199999Y-86950000D01*
X106850001Y-86950000D01*
X106874505Y-86951204D01*
X106874505Y-86951204D01*
G37*
D13*
G04 #@! TD*
G04 #@! TO.P,C2,1*
G04 #@! TO.N,+3V3*
X106525000Y-87650000D03*
D12*
G04 #@! TO.N,GND*
G04 #@! TO.C,C2*
G36*
X108924505Y-86951204D02*
X108948773Y-86954804D01*
X108972572Y-86960765D01*
X108995671Y-86969030D01*
X109017850Y-86979520D01*
X109038893Y-86992132D01*
X109058599Y-87006747D01*
X109076777Y-87023223D01*
X109093253Y-87041401D01*
X109107868Y-87061107D01*
X109120480Y-87082150D01*
X109130970Y-87104329D01*
X109139235Y-87127428D01*
X109145196Y-87151227D01*
X109148796Y-87175495D01*
X109150000Y-87199999D01*
X109150000Y-88100001D01*
X109148796Y-88124505D01*
X109145196Y-88148773D01*
X109139235Y-88172572D01*
X109130970Y-88195671D01*
X109120480Y-88217850D01*
X109107868Y-88238893D01*
X109093253Y-88258599D01*
X109076777Y-88276777D01*
X109058599Y-88293253D01*
X109038893Y-88307868D01*
X109017850Y-88320480D01*
X108995671Y-88330970D01*
X108972572Y-88339235D01*
X108948773Y-88345196D01*
X108924505Y-88348796D01*
X108900001Y-88350000D01*
X108249999Y-88350000D01*
X108225495Y-88348796D01*
X108201227Y-88345196D01*
X108177428Y-88339235D01*
X108154329Y-88330970D01*
X108132150Y-88320480D01*
X108111107Y-88307868D01*
X108091401Y-88293253D01*
X108073223Y-88276777D01*
X108056747Y-88258599D01*
X108042132Y-88238893D01*
X108029520Y-88217850D01*
X108019030Y-88195671D01*
X108010765Y-88172572D01*
X108004804Y-88148773D01*
X108001204Y-88124505D01*
X108000000Y-88100001D01*
X108000000Y-87199999D01*
X108001204Y-87175495D01*
X108004804Y-87151227D01*
X108010765Y-87127428D01*
X108019030Y-87104329D01*
X108029520Y-87082150D01*
X108042132Y-87061107D01*
X108056747Y-87041401D01*
X108073223Y-87023223D01*
X108091401Y-87006747D01*
X108111107Y-86992132D01*
X108132150Y-86979520D01*
X108154329Y-86969030D01*
X108177428Y-86960765D01*
X108201227Y-86954804D01*
X108225495Y-86951204D01*
X108249999Y-86950000D01*
X108900001Y-86950000D01*
X108924505Y-86951204D01*
X108924505Y-86951204D01*
G37*
D13*
G04 #@! TD*
G04 #@! TO.P,C2,2*
G04 #@! TO.N,GND*
X108575000Y-87650000D03*
D12*
G04 #@! TO.N,GND*
G04 #@! TO.C,C3*
G36*
X97524505Y-100426204D02*
X97548773Y-100429804D01*
X97572572Y-100435765D01*
X97595671Y-100444030D01*
X97617850Y-100454520D01*
X97638893Y-100467132D01*
X97658599Y-100481747D01*
X97676777Y-100498223D01*
X97693253Y-100516401D01*
X97707868Y-100536107D01*
X97720480Y-100557150D01*
X97730970Y-100579329D01*
X97739235Y-100602428D01*
X97745196Y-100626227D01*
X97748796Y-100650495D01*
X97750000Y-100674999D01*
X97750000Y-101325001D01*
X97748796Y-101349505D01*
X97745196Y-101373773D01*
X97739235Y-101397572D01*
X97730970Y-101420671D01*
X97720480Y-101442850D01*
X97707868Y-101463893D01*
X97693253Y-101483599D01*
X97676777Y-101501777D01*
X97658599Y-101518253D01*
X97638893Y-101532868D01*
X97617850Y-101545480D01*
X97595671Y-101555970D01*
X97572572Y-101564235D01*
X97548773Y-101570196D01*
X97524505Y-101573796D01*
X97500001Y-101575000D01*
X96599999Y-101575000D01*
X96575495Y-101573796D01*
X96551227Y-101570196D01*
X96527428Y-101564235D01*
X96504329Y-101555970D01*
X96482150Y-101545480D01*
X96461107Y-101532868D01*
X96441401Y-101518253D01*
X96423223Y-101501777D01*
X96406747Y-101483599D01*
X96392132Y-101463893D01*
X96379520Y-101442850D01*
X96369030Y-101420671D01*
X96360765Y-101397572D01*
X96354804Y-101373773D01*
X96351204Y-101349505D01*
X96350000Y-101325001D01*
X96350000Y-100674999D01*
X96351204Y-100650495D01*
X96354804Y-100626227D01*
X96360765Y-100602428D01*
X96369030Y-100579329D01*
X96379520Y-100557150D01*
X96392132Y-100536107D01*
X96406747Y-100516401D01*
X96423223Y-100498223D01*
X96441401Y-100481747D01*
X96461107Y-100467132D01*
X96482150Y-100454520D01*
X96504329Y-100444030D01*
X96527428Y-100435765D01*
X96551227Y-100429804D01*
X96575495Y-100426204D01*
X96599999Y-100425000D01*
X97500001Y-100425000D01*
X97524505Y-100426204D01*
X97524505Y-100426204D01*
G37*
D13*
G04 #@! TD*
G04 #@! TO.P,C3,2*
G04 #@! TO.N,GND*
X97050000Y-101000000D03*
D12*
G04 #@! TO.N,Net-(C3-Pad1)*
G04 #@! TO.C,C3*
G36*
X97524505Y-98376204D02*
X97548773Y-98379804D01*
X97572572Y-98385765D01*
X97595671Y-98394030D01*
X97617850Y-98404520D01*
X97638893Y-98417132D01*
X97658599Y-98431747D01*
X97676777Y-98448223D01*
X97693253Y-98466401D01*
X97707868Y-98486107D01*
X97720480Y-98507150D01*
X97730970Y-98529329D01*
X97739235Y-98552428D01*
X97745196Y-98576227D01*
X97748796Y-98600495D01*
X97750000Y-98624999D01*
X97750000Y-99275001D01*
X97748796Y-99299505D01*
X97745196Y-99323773D01*
X97739235Y-99347572D01*
X97730970Y-99370671D01*
X97720480Y-99392850D01*
X97707868Y-99413893D01*
X97693253Y-99433599D01*
X97676777Y-99451777D01*
X97658599Y-99468253D01*
X97638893Y-99482868D01*
X97617850Y-99495480D01*
X97595671Y-99505970D01*
X97572572Y-99514235D01*
X97548773Y-99520196D01*
X97524505Y-99523796D01*
X97500001Y-99525000D01*
X96599999Y-99525000D01*
X96575495Y-99523796D01*
X96551227Y-99520196D01*
X96527428Y-99514235D01*
X96504329Y-99505970D01*
X96482150Y-99495480D01*
X96461107Y-99482868D01*
X96441401Y-99468253D01*
X96423223Y-99451777D01*
X96406747Y-99433599D01*
X96392132Y-99413893D01*
X96379520Y-99392850D01*
X96369030Y-99370671D01*
X96360765Y-99347572D01*
X96354804Y-99323773D01*
X96351204Y-99299505D01*
X96350000Y-99275001D01*
X96350000Y-98624999D01*
X96351204Y-98600495D01*
X96354804Y-98576227D01*
X96360765Y-98552428D01*
X96369030Y-98529329D01*
X96379520Y-98507150D01*
X96392132Y-98486107D01*
X96406747Y-98466401D01*
X96423223Y-98448223D01*
X96441401Y-98431747D01*
X96461107Y-98417132D01*
X96482150Y-98404520D01*
X96504329Y-98394030D01*
X96527428Y-98385765D01*
X96551227Y-98379804D01*
X96575495Y-98376204D01*
X96599999Y-98375000D01*
X97500001Y-98375000D01*
X97524505Y-98376204D01*
X97524505Y-98376204D01*
G37*
D13*
G04 #@! TD*
G04 #@! TO.P,C3,1*
G04 #@! TO.N,Net-(C3-Pad1)*
X97050000Y-98950000D03*
D12*
G04 #@! TO.N,Net-(C4-Pad1)*
G04 #@! TO.C,C4*
G36*
X100824505Y-98351204D02*
X100848773Y-98354804D01*
X100872572Y-98360765D01*
X100895671Y-98369030D01*
X100917850Y-98379520D01*
X100938893Y-98392132D01*
X100958599Y-98406747D01*
X100976777Y-98423223D01*
X100993253Y-98441401D01*
X101007868Y-98461107D01*
X101020480Y-98482150D01*
X101030970Y-98504329D01*
X101039235Y-98527428D01*
X101045196Y-98551227D01*
X101048796Y-98575495D01*
X101050000Y-98599999D01*
X101050000Y-99250001D01*
X101048796Y-99274505D01*
X101045196Y-99298773D01*
X101039235Y-99322572D01*
X101030970Y-99345671D01*
X101020480Y-99367850D01*
X101007868Y-99388893D01*
X100993253Y-99408599D01*
X100976777Y-99426777D01*
X100958599Y-99443253D01*
X100938893Y-99457868D01*
X100917850Y-99470480D01*
X100895671Y-99480970D01*
X100872572Y-99489235D01*
X100848773Y-99495196D01*
X100824505Y-99498796D01*
X100800001Y-99500000D01*
X99899999Y-99500000D01*
X99875495Y-99498796D01*
X99851227Y-99495196D01*
X99827428Y-99489235D01*
X99804329Y-99480970D01*
X99782150Y-99470480D01*
X99761107Y-99457868D01*
X99741401Y-99443253D01*
X99723223Y-99426777D01*
X99706747Y-99408599D01*
X99692132Y-99388893D01*
X99679520Y-99367850D01*
X99669030Y-99345671D01*
X99660765Y-99322572D01*
X99654804Y-99298773D01*
X99651204Y-99274505D01*
X99650000Y-99250001D01*
X99650000Y-98599999D01*
X99651204Y-98575495D01*
X99654804Y-98551227D01*
X99660765Y-98527428D01*
X99669030Y-98504329D01*
X99679520Y-98482150D01*
X99692132Y-98461107D01*
X99706747Y-98441401D01*
X99723223Y-98423223D01*
X99741401Y-98406747D01*
X99761107Y-98392132D01*
X99782150Y-98379520D01*
X99804329Y-98369030D01*
X99827428Y-98360765D01*
X99851227Y-98354804D01*
X99875495Y-98351204D01*
X99899999Y-98350000D01*
X100800001Y-98350000D01*
X100824505Y-98351204D01*
X100824505Y-98351204D01*
G37*
D13*
G04 #@! TD*
G04 #@! TO.P,C4,1*
G04 #@! TO.N,Net-(C4-Pad1)*
X100350000Y-98925000D03*
D12*
G04 #@! TO.N,GND*
G04 #@! TO.C,C4*
G36*
X100824505Y-100401204D02*
X100848773Y-100404804D01*
X100872572Y-100410765D01*
X100895671Y-100419030D01*
X100917850Y-100429520D01*
X100938893Y-100442132D01*
X100958599Y-100456747D01*
X100976777Y-100473223D01*
X100993253Y-100491401D01*
X101007868Y-100511107D01*
X101020480Y-100532150D01*
X101030970Y-100554329D01*
X101039235Y-100577428D01*
X101045196Y-100601227D01*
X101048796Y-100625495D01*
X101050000Y-100649999D01*
X101050000Y-101300001D01*
X101048796Y-101324505D01*
X101045196Y-101348773D01*
X101039235Y-101372572D01*
X101030970Y-101395671D01*
X101020480Y-101417850D01*
X101007868Y-101438893D01*
X100993253Y-101458599D01*
X100976777Y-101476777D01*
X100958599Y-101493253D01*
X100938893Y-101507868D01*
X100917850Y-101520480D01*
X100895671Y-101530970D01*
X100872572Y-101539235D01*
X100848773Y-101545196D01*
X100824505Y-101548796D01*
X100800001Y-101550000D01*
X99899999Y-101550000D01*
X99875495Y-101548796D01*
X99851227Y-101545196D01*
X99827428Y-101539235D01*
X99804329Y-101530970D01*
X99782150Y-101520480D01*
X99761107Y-101507868D01*
X99741401Y-101493253D01*
X99723223Y-101476777D01*
X99706747Y-101458599D01*
X99692132Y-101438893D01*
X99679520Y-101417850D01*
X99669030Y-101395671D01*
X99660765Y-101372572D01*
X99654804Y-101348773D01*
X99651204Y-101324505D01*
X99650000Y-101300001D01*
X99650000Y-100649999D01*
X99651204Y-100625495D01*
X99654804Y-100601227D01*
X99660765Y-100577428D01*
X99669030Y-100554329D01*
X99679520Y-100532150D01*
X99692132Y-100511107D01*
X99706747Y-100491401D01*
X99723223Y-100473223D01*
X99741401Y-100456747D01*
X99761107Y-100442132D01*
X99782150Y-100429520D01*
X99804329Y-100419030D01*
X99827428Y-100410765D01*
X99851227Y-100404804D01*
X99875495Y-100401204D01*
X99899999Y-100400000D01*
X100800001Y-100400000D01*
X100824505Y-100401204D01*
X100824505Y-100401204D01*
G37*
D13*
G04 #@! TD*
G04 #@! TO.P,C4,2*
G04 #@! TO.N,GND*
X100350000Y-100975000D03*
D12*
G04 #@! TO.N,Net-(C5-Pad2)*
G04 #@! TO.C,C5*
G36*
X97408505Y-113775204D02*
X97432773Y-113778804D01*
X97456572Y-113784765D01*
X97479671Y-113793030D01*
X97501850Y-113803520D01*
X97522893Y-113816132D01*
X97542599Y-113830747D01*
X97560777Y-113847223D01*
X97577253Y-113865401D01*
X97591868Y-113885107D01*
X97604480Y-113906150D01*
X97614970Y-113928329D01*
X97623235Y-113951428D01*
X97629196Y-113975227D01*
X97632796Y-113999495D01*
X97634000Y-114023999D01*
X97634000Y-114674001D01*
X97632796Y-114698505D01*
X97629196Y-114722773D01*
X97623235Y-114746572D01*
X97614970Y-114769671D01*
X97604480Y-114791850D01*
X97591868Y-114812893D01*
X97577253Y-114832599D01*
X97560777Y-114850777D01*
X97542599Y-114867253D01*
X97522893Y-114881868D01*
X97501850Y-114894480D01*
X97479671Y-114904970D01*
X97456572Y-114913235D01*
X97432773Y-114919196D01*
X97408505Y-114922796D01*
X97384001Y-114924000D01*
X96483999Y-114924000D01*
X96459495Y-114922796D01*
X96435227Y-114919196D01*
X96411428Y-114913235D01*
X96388329Y-114904970D01*
X96366150Y-114894480D01*
X96345107Y-114881868D01*
X96325401Y-114867253D01*
X96307223Y-114850777D01*
X96290747Y-114832599D01*
X96276132Y-114812893D01*
X96263520Y-114791850D01*
X96253030Y-114769671D01*
X96244765Y-114746572D01*
X96238804Y-114722773D01*
X96235204Y-114698505D01*
X96234000Y-114674001D01*
X96234000Y-114023999D01*
X96235204Y-113999495D01*
X96238804Y-113975227D01*
X96244765Y-113951428D01*
X96253030Y-113928329D01*
X96263520Y-113906150D01*
X96276132Y-113885107D01*
X96290747Y-113865401D01*
X96307223Y-113847223D01*
X96325401Y-113830747D01*
X96345107Y-113816132D01*
X96366150Y-113803520D01*
X96388329Y-113793030D01*
X96411428Y-113784765D01*
X96435227Y-113778804D01*
X96459495Y-113775204D01*
X96483999Y-113774000D01*
X97384001Y-113774000D01*
X97408505Y-113775204D01*
X97408505Y-113775204D01*
G37*
D13*
G04 #@! TD*
G04 #@! TO.P,C5,2*
G04 #@! TO.N,Net-(C5-Pad2)*
X96934000Y-114349000D03*
D12*
G04 #@! TO.N,Net-(C5-Pad1)*
G04 #@! TO.C,C5*
G36*
X97408505Y-111725204D02*
X97432773Y-111728804D01*
X97456572Y-111734765D01*
X97479671Y-111743030D01*
X97501850Y-111753520D01*
X97522893Y-111766132D01*
X97542599Y-111780747D01*
X97560777Y-111797223D01*
X97577253Y-111815401D01*
X97591868Y-111835107D01*
X97604480Y-111856150D01*
X97614970Y-111878329D01*
X97623235Y-111901428D01*
X97629196Y-111925227D01*
X97632796Y-111949495D01*
X97634000Y-111973999D01*
X97634000Y-112624001D01*
X97632796Y-112648505D01*
X97629196Y-112672773D01*
X97623235Y-112696572D01*
X97614970Y-112719671D01*
X97604480Y-112741850D01*
X97591868Y-112762893D01*
X97577253Y-112782599D01*
X97560777Y-112800777D01*
X97542599Y-112817253D01*
X97522893Y-112831868D01*
X97501850Y-112844480D01*
X97479671Y-112854970D01*
X97456572Y-112863235D01*
X97432773Y-112869196D01*
X97408505Y-112872796D01*
X97384001Y-112874000D01*
X96483999Y-112874000D01*
X96459495Y-112872796D01*
X96435227Y-112869196D01*
X96411428Y-112863235D01*
X96388329Y-112854970D01*
X96366150Y-112844480D01*
X96345107Y-112831868D01*
X96325401Y-112817253D01*
X96307223Y-112800777D01*
X96290747Y-112782599D01*
X96276132Y-112762893D01*
X96263520Y-112741850D01*
X96253030Y-112719671D01*
X96244765Y-112696572D01*
X96238804Y-112672773D01*
X96235204Y-112648505D01*
X96234000Y-112624001D01*
X96234000Y-111973999D01*
X96235204Y-111949495D01*
X96238804Y-111925227D01*
X96244765Y-111901428D01*
X96253030Y-111878329D01*
X96263520Y-111856150D01*
X96276132Y-111835107D01*
X96290747Y-111815401D01*
X96307223Y-111797223D01*
X96325401Y-111780747D01*
X96345107Y-111766132D01*
X96366150Y-111753520D01*
X96388329Y-111743030D01*
X96411428Y-111734765D01*
X96435227Y-111728804D01*
X96459495Y-111725204D01*
X96483999Y-111724000D01*
X97384001Y-111724000D01*
X97408505Y-111725204D01*
X97408505Y-111725204D01*
G37*
D13*
G04 #@! TD*
G04 #@! TO.P,C5,1*
G04 #@! TO.N,Net-(C5-Pad1)*
X96934000Y-112299000D03*
D12*
G04 #@! TO.N,Net-(C6-Pad1)*
G04 #@! TO.C,C6*
G36*
X99948505Y-111725204D02*
X99972773Y-111728804D01*
X99996572Y-111734765D01*
X100019671Y-111743030D01*
X100041850Y-111753520D01*
X100062893Y-111766132D01*
X100082599Y-111780747D01*
X100100777Y-111797223D01*
X100117253Y-111815401D01*
X100131868Y-111835107D01*
X100144480Y-111856150D01*
X100154970Y-111878329D01*
X100163235Y-111901428D01*
X100169196Y-111925227D01*
X100172796Y-111949495D01*
X100174000Y-111973999D01*
X100174000Y-112624001D01*
X100172796Y-112648505D01*
X100169196Y-112672773D01*
X100163235Y-112696572D01*
X100154970Y-112719671D01*
X100144480Y-112741850D01*
X100131868Y-112762893D01*
X100117253Y-112782599D01*
X100100777Y-112800777D01*
X100082599Y-112817253D01*
X100062893Y-112831868D01*
X100041850Y-112844480D01*
X100019671Y-112854970D01*
X99996572Y-112863235D01*
X99972773Y-112869196D01*
X99948505Y-112872796D01*
X99924001Y-112874000D01*
X99023999Y-112874000D01*
X98999495Y-112872796D01*
X98975227Y-112869196D01*
X98951428Y-112863235D01*
X98928329Y-112854970D01*
X98906150Y-112844480D01*
X98885107Y-112831868D01*
X98865401Y-112817253D01*
X98847223Y-112800777D01*
X98830747Y-112782599D01*
X98816132Y-112762893D01*
X98803520Y-112741850D01*
X98793030Y-112719671D01*
X98784765Y-112696572D01*
X98778804Y-112672773D01*
X98775204Y-112648505D01*
X98774000Y-112624001D01*
X98774000Y-111973999D01*
X98775204Y-111949495D01*
X98778804Y-111925227D01*
X98784765Y-111901428D01*
X98793030Y-111878329D01*
X98803520Y-111856150D01*
X98816132Y-111835107D01*
X98830747Y-111815401D01*
X98847223Y-111797223D01*
X98865401Y-111780747D01*
X98885107Y-111766132D01*
X98906150Y-111753520D01*
X98928329Y-111743030D01*
X98951428Y-111734765D01*
X98975227Y-111728804D01*
X98999495Y-111725204D01*
X99023999Y-111724000D01*
X99924001Y-111724000D01*
X99948505Y-111725204D01*
X99948505Y-111725204D01*
G37*
D13*
G04 #@! TD*
G04 #@! TO.P,C6,1*
G04 #@! TO.N,Net-(C6-Pad1)*
X99474000Y-112299000D03*
D12*
G04 #@! TO.N,Net-(C6-Pad2)*
G04 #@! TO.C,C6*
G36*
X99948505Y-113775204D02*
X99972773Y-113778804D01*
X99996572Y-113784765D01*
X100019671Y-113793030D01*
X100041850Y-113803520D01*
X100062893Y-113816132D01*
X100082599Y-113830747D01*
X100100777Y-113847223D01*
X100117253Y-113865401D01*
X100131868Y-113885107D01*
X100144480Y-113906150D01*
X100154970Y-113928329D01*
X100163235Y-113951428D01*
X100169196Y-113975227D01*
X100172796Y-113999495D01*
X100174000Y-114023999D01*
X100174000Y-114674001D01*
X100172796Y-114698505D01*
X100169196Y-114722773D01*
X100163235Y-114746572D01*
X100154970Y-114769671D01*
X100144480Y-114791850D01*
X100131868Y-114812893D01*
X100117253Y-114832599D01*
X100100777Y-114850777D01*
X100082599Y-114867253D01*
X100062893Y-114881868D01*
X100041850Y-114894480D01*
X100019671Y-114904970D01*
X99996572Y-114913235D01*
X99972773Y-114919196D01*
X99948505Y-114922796D01*
X99924001Y-114924000D01*
X99023999Y-114924000D01*
X98999495Y-114922796D01*
X98975227Y-114919196D01*
X98951428Y-114913235D01*
X98928329Y-114904970D01*
X98906150Y-114894480D01*
X98885107Y-114881868D01*
X98865401Y-114867253D01*
X98847223Y-114850777D01*
X98830747Y-114832599D01*
X98816132Y-114812893D01*
X98803520Y-114791850D01*
X98793030Y-114769671D01*
X98784765Y-114746572D01*
X98778804Y-114722773D01*
X98775204Y-114698505D01*
X98774000Y-114674001D01*
X98774000Y-114023999D01*
X98775204Y-113999495D01*
X98778804Y-113975227D01*
X98784765Y-113951428D01*
X98793030Y-113928329D01*
X98803520Y-113906150D01*
X98816132Y-113885107D01*
X98830747Y-113865401D01*
X98847223Y-113847223D01*
X98865401Y-113830747D01*
X98885107Y-113816132D01*
X98906150Y-113803520D01*
X98928329Y-113793030D01*
X98951428Y-113784765D01*
X98975227Y-113778804D01*
X98999495Y-113775204D01*
X99023999Y-113774000D01*
X99924001Y-113774000D01*
X99948505Y-113775204D01*
X99948505Y-113775204D01*
G37*
D13*
G04 #@! TD*
G04 #@! TO.P,C6,2*
G04 #@! TO.N,Net-(C6-Pad2)*
X99474000Y-114349000D03*
D12*
G04 #@! TO.N,Net-(C7-Pad1)*
G04 #@! TO.C,C7*
G36*
X120024505Y-111751204D02*
X120048773Y-111754804D01*
X120072572Y-111760765D01*
X120095671Y-111769030D01*
X120117850Y-111779520D01*
X120138893Y-111792132D01*
X120158599Y-111806747D01*
X120176777Y-111823223D01*
X120193253Y-111841401D01*
X120207868Y-111861107D01*
X120220480Y-111882150D01*
X120230970Y-111904329D01*
X120239235Y-111927428D01*
X120245196Y-111951227D01*
X120248796Y-111975495D01*
X120250000Y-111999999D01*
X120250000Y-112650001D01*
X120248796Y-112674505D01*
X120245196Y-112698773D01*
X120239235Y-112722572D01*
X120230970Y-112745671D01*
X120220480Y-112767850D01*
X120207868Y-112788893D01*
X120193253Y-112808599D01*
X120176777Y-112826777D01*
X120158599Y-112843253D01*
X120138893Y-112857868D01*
X120117850Y-112870480D01*
X120095671Y-112880970D01*
X120072572Y-112889235D01*
X120048773Y-112895196D01*
X120024505Y-112898796D01*
X120000001Y-112900000D01*
X119099999Y-112900000D01*
X119075495Y-112898796D01*
X119051227Y-112895196D01*
X119027428Y-112889235D01*
X119004329Y-112880970D01*
X118982150Y-112870480D01*
X118961107Y-112857868D01*
X118941401Y-112843253D01*
X118923223Y-112826777D01*
X118906747Y-112808599D01*
X118892132Y-112788893D01*
X118879520Y-112767850D01*
X118869030Y-112745671D01*
X118860765Y-112722572D01*
X118854804Y-112698773D01*
X118851204Y-112674505D01*
X118850000Y-112650001D01*
X118850000Y-111999999D01*
X118851204Y-111975495D01*
X118854804Y-111951227D01*
X118860765Y-111927428D01*
X118869030Y-111904329D01*
X118879520Y-111882150D01*
X118892132Y-111861107D01*
X118906747Y-111841401D01*
X118923223Y-111823223D01*
X118941401Y-111806747D01*
X118961107Y-111792132D01*
X118982150Y-111779520D01*
X119004329Y-111769030D01*
X119027428Y-111760765D01*
X119051227Y-111754804D01*
X119075495Y-111751204D01*
X119099999Y-111750000D01*
X120000001Y-111750000D01*
X120024505Y-111751204D01*
X120024505Y-111751204D01*
G37*
D13*
G04 #@! TD*
G04 #@! TO.P,C7,1*
G04 #@! TO.N,Net-(C7-Pad1)*
X119550000Y-112325000D03*
D12*
G04 #@! TO.N,GND*
G04 #@! TO.C,C7*
G36*
X120024505Y-113801204D02*
X120048773Y-113804804D01*
X120072572Y-113810765D01*
X120095671Y-113819030D01*
X120117850Y-113829520D01*
X120138893Y-113842132D01*
X120158599Y-113856747D01*
X120176777Y-113873223D01*
X120193253Y-113891401D01*
X120207868Y-113911107D01*
X120220480Y-113932150D01*
X120230970Y-113954329D01*
X120239235Y-113977428D01*
X120245196Y-114001227D01*
X120248796Y-114025495D01*
X120250000Y-114049999D01*
X120250000Y-114700001D01*
X120248796Y-114724505D01*
X120245196Y-114748773D01*
X120239235Y-114772572D01*
X120230970Y-114795671D01*
X120220480Y-114817850D01*
X120207868Y-114838893D01*
X120193253Y-114858599D01*
X120176777Y-114876777D01*
X120158599Y-114893253D01*
X120138893Y-114907868D01*
X120117850Y-114920480D01*
X120095671Y-114930970D01*
X120072572Y-114939235D01*
X120048773Y-114945196D01*
X120024505Y-114948796D01*
X120000001Y-114950000D01*
X119099999Y-114950000D01*
X119075495Y-114948796D01*
X119051227Y-114945196D01*
X119027428Y-114939235D01*
X119004329Y-114930970D01*
X118982150Y-114920480D01*
X118961107Y-114907868D01*
X118941401Y-114893253D01*
X118923223Y-114876777D01*
X118906747Y-114858599D01*
X118892132Y-114838893D01*
X118879520Y-114817850D01*
X118869030Y-114795671D01*
X118860765Y-114772572D01*
X118854804Y-114748773D01*
X118851204Y-114724505D01*
X118850000Y-114700001D01*
X118850000Y-114049999D01*
X118851204Y-114025495D01*
X118854804Y-114001227D01*
X118860765Y-113977428D01*
X118869030Y-113954329D01*
X118879520Y-113932150D01*
X118892132Y-113911107D01*
X118906747Y-113891401D01*
X118923223Y-113873223D01*
X118941401Y-113856747D01*
X118961107Y-113842132D01*
X118982150Y-113829520D01*
X119004329Y-113819030D01*
X119027428Y-113810765D01*
X119051227Y-113804804D01*
X119075495Y-113801204D01*
X119099999Y-113800000D01*
X120000001Y-113800000D01*
X120024505Y-113801204D01*
X120024505Y-113801204D01*
G37*
D13*
G04 #@! TD*
G04 #@! TO.P,C7,2*
G04 #@! TO.N,GND*
X119550000Y-114375000D03*
D12*
G04 #@! TO.N,Net-(C8-Pad1)*
G04 #@! TO.C,C8*
G36*
X122224505Y-111751204D02*
X122248773Y-111754804D01*
X122272572Y-111760765D01*
X122295671Y-111769030D01*
X122317850Y-111779520D01*
X122338893Y-111792132D01*
X122358599Y-111806747D01*
X122376777Y-111823223D01*
X122393253Y-111841401D01*
X122407868Y-111861107D01*
X122420480Y-111882150D01*
X122430970Y-111904329D01*
X122439235Y-111927428D01*
X122445196Y-111951227D01*
X122448796Y-111975495D01*
X122450000Y-111999999D01*
X122450000Y-112650001D01*
X122448796Y-112674505D01*
X122445196Y-112698773D01*
X122439235Y-112722572D01*
X122430970Y-112745671D01*
X122420480Y-112767850D01*
X122407868Y-112788893D01*
X122393253Y-112808599D01*
X122376777Y-112826777D01*
X122358599Y-112843253D01*
X122338893Y-112857868D01*
X122317850Y-112870480D01*
X122295671Y-112880970D01*
X122272572Y-112889235D01*
X122248773Y-112895196D01*
X122224505Y-112898796D01*
X122200001Y-112900000D01*
X121299999Y-112900000D01*
X121275495Y-112898796D01*
X121251227Y-112895196D01*
X121227428Y-112889235D01*
X121204329Y-112880970D01*
X121182150Y-112870480D01*
X121161107Y-112857868D01*
X121141401Y-112843253D01*
X121123223Y-112826777D01*
X121106747Y-112808599D01*
X121092132Y-112788893D01*
X121079520Y-112767850D01*
X121069030Y-112745671D01*
X121060765Y-112722572D01*
X121054804Y-112698773D01*
X121051204Y-112674505D01*
X121050000Y-112650001D01*
X121050000Y-111999999D01*
X121051204Y-111975495D01*
X121054804Y-111951227D01*
X121060765Y-111927428D01*
X121069030Y-111904329D01*
X121079520Y-111882150D01*
X121092132Y-111861107D01*
X121106747Y-111841401D01*
X121123223Y-111823223D01*
X121141401Y-111806747D01*
X121161107Y-111792132D01*
X121182150Y-111779520D01*
X121204329Y-111769030D01*
X121227428Y-111760765D01*
X121251227Y-111754804D01*
X121275495Y-111751204D01*
X121299999Y-111750000D01*
X122200001Y-111750000D01*
X122224505Y-111751204D01*
X122224505Y-111751204D01*
G37*
D13*
G04 #@! TD*
G04 #@! TO.P,C8,1*
G04 #@! TO.N,Net-(C8-Pad1)*
X121750000Y-112325000D03*
D12*
G04 #@! TO.N,GND*
G04 #@! TO.C,C8*
G36*
X122224505Y-113801204D02*
X122248773Y-113804804D01*
X122272572Y-113810765D01*
X122295671Y-113819030D01*
X122317850Y-113829520D01*
X122338893Y-113842132D01*
X122358599Y-113856747D01*
X122376777Y-113873223D01*
X122393253Y-113891401D01*
X122407868Y-113911107D01*
X122420480Y-113932150D01*
X122430970Y-113954329D01*
X122439235Y-113977428D01*
X122445196Y-114001227D01*
X122448796Y-114025495D01*
X122450000Y-114049999D01*
X122450000Y-114700001D01*
X122448796Y-114724505D01*
X122445196Y-114748773D01*
X122439235Y-114772572D01*
X122430970Y-114795671D01*
X122420480Y-114817850D01*
X122407868Y-114838893D01*
X122393253Y-114858599D01*
X122376777Y-114876777D01*
X122358599Y-114893253D01*
X122338893Y-114907868D01*
X122317850Y-114920480D01*
X122295671Y-114930970D01*
X122272572Y-114939235D01*
X122248773Y-114945196D01*
X122224505Y-114948796D01*
X122200001Y-114950000D01*
X121299999Y-114950000D01*
X121275495Y-114948796D01*
X121251227Y-114945196D01*
X121227428Y-114939235D01*
X121204329Y-114930970D01*
X121182150Y-114920480D01*
X121161107Y-114907868D01*
X121141401Y-114893253D01*
X121123223Y-114876777D01*
X121106747Y-114858599D01*
X121092132Y-114838893D01*
X121079520Y-114817850D01*
X121069030Y-114795671D01*
X121060765Y-114772572D01*
X121054804Y-114748773D01*
X121051204Y-114724505D01*
X121050000Y-114700001D01*
X121050000Y-114049999D01*
X121051204Y-114025495D01*
X121054804Y-114001227D01*
X121060765Y-113977428D01*
X121069030Y-113954329D01*
X121079520Y-113932150D01*
X121092132Y-113911107D01*
X121106747Y-113891401D01*
X121123223Y-113873223D01*
X121141401Y-113856747D01*
X121161107Y-113842132D01*
X121182150Y-113829520D01*
X121204329Y-113819030D01*
X121227428Y-113810765D01*
X121251227Y-113804804D01*
X121275495Y-113801204D01*
X121299999Y-113800000D01*
X122200001Y-113800000D01*
X122224505Y-113801204D01*
X122224505Y-113801204D01*
G37*
D13*
G04 #@! TD*
G04 #@! TO.P,C8,2*
G04 #@! TO.N,GND*
X121750000Y-114375000D03*
D12*
G04 #@! TO.N,GND*
G04 #@! TO.C,C9*
G36*
X102844505Y-111685204D02*
X102868773Y-111688804D01*
X102892572Y-111694765D01*
X102915671Y-111703030D01*
X102937850Y-111713520D01*
X102958893Y-111726132D01*
X102978599Y-111740747D01*
X102996777Y-111757223D01*
X103013253Y-111775401D01*
X103027868Y-111795107D01*
X103040480Y-111816150D01*
X103050970Y-111838329D01*
X103059235Y-111861428D01*
X103065196Y-111885227D01*
X103068796Y-111909495D01*
X103070000Y-111933999D01*
X103070000Y-112584001D01*
X103068796Y-112608505D01*
X103065196Y-112632773D01*
X103059235Y-112656572D01*
X103050970Y-112679671D01*
X103040480Y-112701850D01*
X103027868Y-112722893D01*
X103013253Y-112742599D01*
X102996777Y-112760777D01*
X102978599Y-112777253D01*
X102958893Y-112791868D01*
X102937850Y-112804480D01*
X102915671Y-112814970D01*
X102892572Y-112823235D01*
X102868773Y-112829196D01*
X102844505Y-112832796D01*
X102820001Y-112834000D01*
X101919999Y-112834000D01*
X101895495Y-112832796D01*
X101871227Y-112829196D01*
X101847428Y-112823235D01*
X101824329Y-112814970D01*
X101802150Y-112804480D01*
X101781107Y-112791868D01*
X101761401Y-112777253D01*
X101743223Y-112760777D01*
X101726747Y-112742599D01*
X101712132Y-112722893D01*
X101699520Y-112701850D01*
X101689030Y-112679671D01*
X101680765Y-112656572D01*
X101674804Y-112632773D01*
X101671204Y-112608505D01*
X101670000Y-112584001D01*
X101670000Y-111933999D01*
X101671204Y-111909495D01*
X101674804Y-111885227D01*
X101680765Y-111861428D01*
X101689030Y-111838329D01*
X101699520Y-111816150D01*
X101712132Y-111795107D01*
X101726747Y-111775401D01*
X101743223Y-111757223D01*
X101761401Y-111740747D01*
X101781107Y-111726132D01*
X101802150Y-111713520D01*
X101824329Y-111703030D01*
X101847428Y-111694765D01*
X101871227Y-111688804D01*
X101895495Y-111685204D01*
X101919999Y-111684000D01*
X102820001Y-111684000D01*
X102844505Y-111685204D01*
X102844505Y-111685204D01*
G37*
D13*
G04 #@! TD*
G04 #@! TO.P,C9,2*
G04 #@! TO.N,GND*
X102370000Y-112259000D03*
D12*
G04 #@! TO.N,+3V3*
G04 #@! TO.C,C9*
G36*
X102844505Y-113735204D02*
X102868773Y-113738804D01*
X102892572Y-113744765D01*
X102915671Y-113753030D01*
X102937850Y-113763520D01*
X102958893Y-113776132D01*
X102978599Y-113790747D01*
X102996777Y-113807223D01*
X103013253Y-113825401D01*
X103027868Y-113845107D01*
X103040480Y-113866150D01*
X103050970Y-113888329D01*
X103059235Y-113911428D01*
X103065196Y-113935227D01*
X103068796Y-113959495D01*
X103070000Y-113983999D01*
X103070000Y-114634001D01*
X103068796Y-114658505D01*
X103065196Y-114682773D01*
X103059235Y-114706572D01*
X103050970Y-114729671D01*
X103040480Y-114751850D01*
X103027868Y-114772893D01*
X103013253Y-114792599D01*
X102996777Y-114810777D01*
X102978599Y-114827253D01*
X102958893Y-114841868D01*
X102937850Y-114854480D01*
X102915671Y-114864970D01*
X102892572Y-114873235D01*
X102868773Y-114879196D01*
X102844505Y-114882796D01*
X102820001Y-114884000D01*
X101919999Y-114884000D01*
X101895495Y-114882796D01*
X101871227Y-114879196D01*
X101847428Y-114873235D01*
X101824329Y-114864970D01*
X101802150Y-114854480D01*
X101781107Y-114841868D01*
X101761401Y-114827253D01*
X101743223Y-114810777D01*
X101726747Y-114792599D01*
X101712132Y-114772893D01*
X101699520Y-114751850D01*
X101689030Y-114729671D01*
X101680765Y-114706572D01*
X101674804Y-114682773D01*
X101671204Y-114658505D01*
X101670000Y-114634001D01*
X101670000Y-113983999D01*
X101671204Y-113959495D01*
X101674804Y-113935227D01*
X101680765Y-113911428D01*
X101689030Y-113888329D01*
X101699520Y-113866150D01*
X101712132Y-113845107D01*
X101726747Y-113825401D01*
X101743223Y-113807223D01*
X101761401Y-113790747D01*
X101781107Y-113776132D01*
X101802150Y-113763520D01*
X101824329Y-113753030D01*
X101847428Y-113744765D01*
X101871227Y-113738804D01*
X101895495Y-113735204D01*
X101919999Y-113734000D01*
X102820001Y-113734000D01*
X102844505Y-113735204D01*
X102844505Y-113735204D01*
G37*
D13*
G04 #@! TD*
G04 #@! TO.P,C9,1*
G04 #@! TO.N,+3V3*
X102370000Y-114309000D03*
D12*
G04 #@! TO.N,GND*
G04 #@! TO.C,C10*
G36*
X105130505Y-111685204D02*
X105154773Y-111688804D01*
X105178572Y-111694765D01*
X105201671Y-111703030D01*
X105223850Y-111713520D01*
X105244893Y-111726132D01*
X105264599Y-111740747D01*
X105282777Y-111757223D01*
X105299253Y-111775401D01*
X105313868Y-111795107D01*
X105326480Y-111816150D01*
X105336970Y-111838329D01*
X105345235Y-111861428D01*
X105351196Y-111885227D01*
X105354796Y-111909495D01*
X105356000Y-111933999D01*
X105356000Y-112584001D01*
X105354796Y-112608505D01*
X105351196Y-112632773D01*
X105345235Y-112656572D01*
X105336970Y-112679671D01*
X105326480Y-112701850D01*
X105313868Y-112722893D01*
X105299253Y-112742599D01*
X105282777Y-112760777D01*
X105264599Y-112777253D01*
X105244893Y-112791868D01*
X105223850Y-112804480D01*
X105201671Y-112814970D01*
X105178572Y-112823235D01*
X105154773Y-112829196D01*
X105130505Y-112832796D01*
X105106001Y-112834000D01*
X104205999Y-112834000D01*
X104181495Y-112832796D01*
X104157227Y-112829196D01*
X104133428Y-112823235D01*
X104110329Y-112814970D01*
X104088150Y-112804480D01*
X104067107Y-112791868D01*
X104047401Y-112777253D01*
X104029223Y-112760777D01*
X104012747Y-112742599D01*
X103998132Y-112722893D01*
X103985520Y-112701850D01*
X103975030Y-112679671D01*
X103966765Y-112656572D01*
X103960804Y-112632773D01*
X103957204Y-112608505D01*
X103956000Y-112584001D01*
X103956000Y-111933999D01*
X103957204Y-111909495D01*
X103960804Y-111885227D01*
X103966765Y-111861428D01*
X103975030Y-111838329D01*
X103985520Y-111816150D01*
X103998132Y-111795107D01*
X104012747Y-111775401D01*
X104029223Y-111757223D01*
X104047401Y-111740747D01*
X104067107Y-111726132D01*
X104088150Y-111713520D01*
X104110329Y-111703030D01*
X104133428Y-111694765D01*
X104157227Y-111688804D01*
X104181495Y-111685204D01*
X104205999Y-111684000D01*
X105106001Y-111684000D01*
X105130505Y-111685204D01*
X105130505Y-111685204D01*
G37*
D13*
G04 #@! TD*
G04 #@! TO.P,C10,2*
G04 #@! TO.N,GND*
X104656000Y-112259000D03*
D12*
G04 #@! TO.N,+3V3*
G04 #@! TO.C,C10*
G36*
X105130505Y-113735204D02*
X105154773Y-113738804D01*
X105178572Y-113744765D01*
X105201671Y-113753030D01*
X105223850Y-113763520D01*
X105244893Y-113776132D01*
X105264599Y-113790747D01*
X105282777Y-113807223D01*
X105299253Y-113825401D01*
X105313868Y-113845107D01*
X105326480Y-113866150D01*
X105336970Y-113888329D01*
X105345235Y-113911428D01*
X105351196Y-113935227D01*
X105354796Y-113959495D01*
X105356000Y-113983999D01*
X105356000Y-114634001D01*
X105354796Y-114658505D01*
X105351196Y-114682773D01*
X105345235Y-114706572D01*
X105336970Y-114729671D01*
X105326480Y-114751850D01*
X105313868Y-114772893D01*
X105299253Y-114792599D01*
X105282777Y-114810777D01*
X105264599Y-114827253D01*
X105244893Y-114841868D01*
X105223850Y-114854480D01*
X105201671Y-114864970D01*
X105178572Y-114873235D01*
X105154773Y-114879196D01*
X105130505Y-114882796D01*
X105106001Y-114884000D01*
X104205999Y-114884000D01*
X104181495Y-114882796D01*
X104157227Y-114879196D01*
X104133428Y-114873235D01*
X104110329Y-114864970D01*
X104088150Y-114854480D01*
X104067107Y-114841868D01*
X104047401Y-114827253D01*
X104029223Y-114810777D01*
X104012747Y-114792599D01*
X103998132Y-114772893D01*
X103985520Y-114751850D01*
X103975030Y-114729671D01*
X103966765Y-114706572D01*
X103960804Y-114682773D01*
X103957204Y-114658505D01*
X103956000Y-114634001D01*
X103956000Y-113983999D01*
X103957204Y-113959495D01*
X103960804Y-113935227D01*
X103966765Y-113911428D01*
X103975030Y-113888329D01*
X103985520Y-113866150D01*
X103998132Y-113845107D01*
X104012747Y-113825401D01*
X104029223Y-113807223D01*
X104047401Y-113790747D01*
X104067107Y-113776132D01*
X104088150Y-113763520D01*
X104110329Y-113753030D01*
X104133428Y-113744765D01*
X104157227Y-113738804D01*
X104181495Y-113735204D01*
X104205999Y-113734000D01*
X105106001Y-113734000D01*
X105130505Y-113735204D01*
X105130505Y-113735204D01*
G37*
D13*
G04 #@! TD*
G04 #@! TO.P,C10,1*
G04 #@! TO.N,+3V3*
X104656000Y-114309000D03*
D12*
G04 #@! TO.N,Net-(C11-Pad1)*
G04 #@! TO.C,C11*
G36*
X110210505Y-113735204D02*
X110234773Y-113738804D01*
X110258572Y-113744765D01*
X110281671Y-113753030D01*
X110303850Y-113763520D01*
X110324893Y-113776132D01*
X110344599Y-113790747D01*
X110362777Y-113807223D01*
X110379253Y-113825401D01*
X110393868Y-113845107D01*
X110406480Y-113866150D01*
X110416970Y-113888329D01*
X110425235Y-113911428D01*
X110431196Y-113935227D01*
X110434796Y-113959495D01*
X110436000Y-113983999D01*
X110436000Y-114634001D01*
X110434796Y-114658505D01*
X110431196Y-114682773D01*
X110425235Y-114706572D01*
X110416970Y-114729671D01*
X110406480Y-114751850D01*
X110393868Y-114772893D01*
X110379253Y-114792599D01*
X110362777Y-114810777D01*
X110344599Y-114827253D01*
X110324893Y-114841868D01*
X110303850Y-114854480D01*
X110281671Y-114864970D01*
X110258572Y-114873235D01*
X110234773Y-114879196D01*
X110210505Y-114882796D01*
X110186001Y-114884000D01*
X109285999Y-114884000D01*
X109261495Y-114882796D01*
X109237227Y-114879196D01*
X109213428Y-114873235D01*
X109190329Y-114864970D01*
X109168150Y-114854480D01*
X109147107Y-114841868D01*
X109127401Y-114827253D01*
X109109223Y-114810777D01*
X109092747Y-114792599D01*
X109078132Y-114772893D01*
X109065520Y-114751850D01*
X109055030Y-114729671D01*
X109046765Y-114706572D01*
X109040804Y-114682773D01*
X109037204Y-114658505D01*
X109036000Y-114634001D01*
X109036000Y-113983999D01*
X109037204Y-113959495D01*
X109040804Y-113935227D01*
X109046765Y-113911428D01*
X109055030Y-113888329D01*
X109065520Y-113866150D01*
X109078132Y-113845107D01*
X109092747Y-113825401D01*
X109109223Y-113807223D01*
X109127401Y-113790747D01*
X109147107Y-113776132D01*
X109168150Y-113763520D01*
X109190329Y-113753030D01*
X109213428Y-113744765D01*
X109237227Y-113738804D01*
X109261495Y-113735204D01*
X109285999Y-113734000D01*
X110186001Y-113734000D01*
X110210505Y-113735204D01*
X110210505Y-113735204D01*
G37*
D13*
G04 #@! TD*
G04 #@! TO.P,C11,1*
G04 #@! TO.N,Net-(C11-Pad1)*
X109736000Y-114309000D03*
D12*
G04 #@! TO.N,GND*
G04 #@! TO.C,C11*
G36*
X110210505Y-111685204D02*
X110234773Y-111688804D01*
X110258572Y-111694765D01*
X110281671Y-111703030D01*
X110303850Y-111713520D01*
X110324893Y-111726132D01*
X110344599Y-111740747D01*
X110362777Y-111757223D01*
X110379253Y-111775401D01*
X110393868Y-111795107D01*
X110406480Y-111816150D01*
X110416970Y-111838329D01*
X110425235Y-111861428D01*
X110431196Y-111885227D01*
X110434796Y-111909495D01*
X110436000Y-111933999D01*
X110436000Y-112584001D01*
X110434796Y-112608505D01*
X110431196Y-112632773D01*
X110425235Y-112656572D01*
X110416970Y-112679671D01*
X110406480Y-112701850D01*
X110393868Y-112722893D01*
X110379253Y-112742599D01*
X110362777Y-112760777D01*
X110344599Y-112777253D01*
X110324893Y-112791868D01*
X110303850Y-112804480D01*
X110281671Y-112814970D01*
X110258572Y-112823235D01*
X110234773Y-112829196D01*
X110210505Y-112832796D01*
X110186001Y-112834000D01*
X109285999Y-112834000D01*
X109261495Y-112832796D01*
X109237227Y-112829196D01*
X109213428Y-112823235D01*
X109190329Y-112814970D01*
X109168150Y-112804480D01*
X109147107Y-112791868D01*
X109127401Y-112777253D01*
X109109223Y-112760777D01*
X109092747Y-112742599D01*
X109078132Y-112722893D01*
X109065520Y-112701850D01*
X109055030Y-112679671D01*
X109046765Y-112656572D01*
X109040804Y-112632773D01*
X109037204Y-112608505D01*
X109036000Y-112584001D01*
X109036000Y-111933999D01*
X109037204Y-111909495D01*
X109040804Y-111885227D01*
X109046765Y-111861428D01*
X109055030Y-111838329D01*
X109065520Y-111816150D01*
X109078132Y-111795107D01*
X109092747Y-111775401D01*
X109109223Y-111757223D01*
X109127401Y-111740747D01*
X109147107Y-111726132D01*
X109168150Y-111713520D01*
X109190329Y-111703030D01*
X109213428Y-111694765D01*
X109237227Y-111688804D01*
X109261495Y-111685204D01*
X109285999Y-111684000D01*
X110186001Y-111684000D01*
X110210505Y-111685204D01*
X110210505Y-111685204D01*
G37*
D13*
G04 #@! TD*
G04 #@! TO.P,C11,2*
G04 #@! TO.N,GND*
X109736000Y-112259000D03*
D12*
G04 #@! TO.N,DTR*
G04 #@! TO.C,R1*
G36*
X97408505Y-92439204D02*
X97432773Y-92442804D01*
X97456572Y-92448765D01*
X97479671Y-92457030D01*
X97501850Y-92467520D01*
X97522893Y-92480132D01*
X97542599Y-92494747D01*
X97560777Y-92511223D01*
X97577253Y-92529401D01*
X97591868Y-92549107D01*
X97604480Y-92570150D01*
X97614970Y-92592329D01*
X97623235Y-92615428D01*
X97629196Y-92639227D01*
X97632796Y-92663495D01*
X97634000Y-92687999D01*
X97634000Y-93338001D01*
X97632796Y-93362505D01*
X97629196Y-93386773D01*
X97623235Y-93410572D01*
X97614970Y-93433671D01*
X97604480Y-93455850D01*
X97591868Y-93476893D01*
X97577253Y-93496599D01*
X97560777Y-93514777D01*
X97542599Y-93531253D01*
X97522893Y-93545868D01*
X97501850Y-93558480D01*
X97479671Y-93568970D01*
X97456572Y-93577235D01*
X97432773Y-93583196D01*
X97408505Y-93586796D01*
X97384001Y-93588000D01*
X96483999Y-93588000D01*
X96459495Y-93586796D01*
X96435227Y-93583196D01*
X96411428Y-93577235D01*
X96388329Y-93568970D01*
X96366150Y-93558480D01*
X96345107Y-93545868D01*
X96325401Y-93531253D01*
X96307223Y-93514777D01*
X96290747Y-93496599D01*
X96276132Y-93476893D01*
X96263520Y-93455850D01*
X96253030Y-93433671D01*
X96244765Y-93410572D01*
X96238804Y-93386773D01*
X96235204Y-93362505D01*
X96234000Y-93338001D01*
X96234000Y-92687999D01*
X96235204Y-92663495D01*
X96238804Y-92639227D01*
X96244765Y-92615428D01*
X96253030Y-92592329D01*
X96263520Y-92570150D01*
X96276132Y-92549107D01*
X96290747Y-92529401D01*
X96307223Y-92511223D01*
X96325401Y-92494747D01*
X96345107Y-92480132D01*
X96366150Y-92467520D01*
X96388329Y-92457030D01*
X96411428Y-92448765D01*
X96435227Y-92442804D01*
X96459495Y-92439204D01*
X96483999Y-92438000D01*
X97384001Y-92438000D01*
X97408505Y-92439204D01*
X97408505Y-92439204D01*
G37*
D13*
G04 #@! TD*
G04 #@! TO.P,R1,2*
G04 #@! TO.N,DTR*
X96934000Y-93013000D03*
D12*
G04 #@! TO.N,+3V3*
G04 #@! TO.C,R1*
G36*
X97408505Y-90389204D02*
X97432773Y-90392804D01*
X97456572Y-90398765D01*
X97479671Y-90407030D01*
X97501850Y-90417520D01*
X97522893Y-90430132D01*
X97542599Y-90444747D01*
X97560777Y-90461223D01*
X97577253Y-90479401D01*
X97591868Y-90499107D01*
X97604480Y-90520150D01*
X97614970Y-90542329D01*
X97623235Y-90565428D01*
X97629196Y-90589227D01*
X97632796Y-90613495D01*
X97634000Y-90637999D01*
X97634000Y-91288001D01*
X97632796Y-91312505D01*
X97629196Y-91336773D01*
X97623235Y-91360572D01*
X97614970Y-91383671D01*
X97604480Y-91405850D01*
X97591868Y-91426893D01*
X97577253Y-91446599D01*
X97560777Y-91464777D01*
X97542599Y-91481253D01*
X97522893Y-91495868D01*
X97501850Y-91508480D01*
X97479671Y-91518970D01*
X97456572Y-91527235D01*
X97432773Y-91533196D01*
X97408505Y-91536796D01*
X97384001Y-91538000D01*
X96483999Y-91538000D01*
X96459495Y-91536796D01*
X96435227Y-91533196D01*
X96411428Y-91527235D01*
X96388329Y-91518970D01*
X96366150Y-91508480D01*
X96345107Y-91495868D01*
X96325401Y-91481253D01*
X96307223Y-91464777D01*
X96290747Y-91446599D01*
X96276132Y-91426893D01*
X96263520Y-91405850D01*
X96253030Y-91383671D01*
X96244765Y-91360572D01*
X96238804Y-91336773D01*
X96235204Y-91312505D01*
X96234000Y-91288001D01*
X96234000Y-90637999D01*
X96235204Y-90613495D01*
X96238804Y-90589227D01*
X96244765Y-90565428D01*
X96253030Y-90542329D01*
X96263520Y-90520150D01*
X96276132Y-90499107D01*
X96290747Y-90479401D01*
X96307223Y-90461223D01*
X96325401Y-90444747D01*
X96345107Y-90430132D01*
X96366150Y-90417520D01*
X96388329Y-90407030D01*
X96411428Y-90398765D01*
X96435227Y-90392804D01*
X96459495Y-90389204D01*
X96483999Y-90388000D01*
X97384001Y-90388000D01*
X97408505Y-90389204D01*
X97408505Y-90389204D01*
G37*
D13*
G04 #@! TD*
G04 #@! TO.P,R1,1*
G04 #@! TO.N,+3V3*
X96934000Y-90963000D03*
D12*
G04 #@! TO.N,+3V3*
G04 #@! TO.C,R2*
G36*
X100710505Y-90389204D02*
X100734773Y-90392804D01*
X100758572Y-90398765D01*
X100781671Y-90407030D01*
X100803850Y-90417520D01*
X100824893Y-90430132D01*
X100844599Y-90444747D01*
X100862777Y-90461223D01*
X100879253Y-90479401D01*
X100893868Y-90499107D01*
X100906480Y-90520150D01*
X100916970Y-90542329D01*
X100925235Y-90565428D01*
X100931196Y-90589227D01*
X100934796Y-90613495D01*
X100936000Y-90637999D01*
X100936000Y-91288001D01*
X100934796Y-91312505D01*
X100931196Y-91336773D01*
X100925235Y-91360572D01*
X100916970Y-91383671D01*
X100906480Y-91405850D01*
X100893868Y-91426893D01*
X100879253Y-91446599D01*
X100862777Y-91464777D01*
X100844599Y-91481253D01*
X100824893Y-91495868D01*
X100803850Y-91508480D01*
X100781671Y-91518970D01*
X100758572Y-91527235D01*
X100734773Y-91533196D01*
X100710505Y-91536796D01*
X100686001Y-91538000D01*
X99785999Y-91538000D01*
X99761495Y-91536796D01*
X99737227Y-91533196D01*
X99713428Y-91527235D01*
X99690329Y-91518970D01*
X99668150Y-91508480D01*
X99647107Y-91495868D01*
X99627401Y-91481253D01*
X99609223Y-91464777D01*
X99592747Y-91446599D01*
X99578132Y-91426893D01*
X99565520Y-91405850D01*
X99555030Y-91383671D01*
X99546765Y-91360572D01*
X99540804Y-91336773D01*
X99537204Y-91312505D01*
X99536000Y-91288001D01*
X99536000Y-90637999D01*
X99537204Y-90613495D01*
X99540804Y-90589227D01*
X99546765Y-90565428D01*
X99555030Y-90542329D01*
X99565520Y-90520150D01*
X99578132Y-90499107D01*
X99592747Y-90479401D01*
X99609223Y-90461223D01*
X99627401Y-90444747D01*
X99647107Y-90430132D01*
X99668150Y-90417520D01*
X99690329Y-90407030D01*
X99713428Y-90398765D01*
X99737227Y-90392804D01*
X99761495Y-90389204D01*
X99785999Y-90388000D01*
X100686001Y-90388000D01*
X100710505Y-90389204D01*
X100710505Y-90389204D01*
G37*
D13*
G04 #@! TD*
G04 #@! TO.P,R2,1*
G04 #@! TO.N,+3V3*
X100236000Y-90963000D03*
D12*
G04 #@! TO.N,CTS*
G04 #@! TO.C,R2*
G36*
X100710505Y-92439204D02*
X100734773Y-92442804D01*
X100758572Y-92448765D01*
X100781671Y-92457030D01*
X100803850Y-92467520D01*
X100824893Y-92480132D01*
X100844599Y-92494747D01*
X100862777Y-92511223D01*
X100879253Y-92529401D01*
X100893868Y-92549107D01*
X100906480Y-92570150D01*
X100916970Y-92592329D01*
X100925235Y-92615428D01*
X100931196Y-92639227D01*
X100934796Y-92663495D01*
X100936000Y-92687999D01*
X100936000Y-93338001D01*
X100934796Y-93362505D01*
X100931196Y-93386773D01*
X100925235Y-93410572D01*
X100916970Y-93433671D01*
X100906480Y-93455850D01*
X100893868Y-93476893D01*
X100879253Y-93496599D01*
X100862777Y-93514777D01*
X100844599Y-93531253D01*
X100824893Y-93545868D01*
X100803850Y-93558480D01*
X100781671Y-93568970D01*
X100758572Y-93577235D01*
X100734773Y-93583196D01*
X100710505Y-93586796D01*
X100686001Y-93588000D01*
X99785999Y-93588000D01*
X99761495Y-93586796D01*
X99737227Y-93583196D01*
X99713428Y-93577235D01*
X99690329Y-93568970D01*
X99668150Y-93558480D01*
X99647107Y-93545868D01*
X99627401Y-93531253D01*
X99609223Y-93514777D01*
X99592747Y-93496599D01*
X99578132Y-93476893D01*
X99565520Y-93455850D01*
X99555030Y-93433671D01*
X99546765Y-93410572D01*
X99540804Y-93386773D01*
X99537204Y-93362505D01*
X99536000Y-93338001D01*
X99536000Y-92687999D01*
X99537204Y-92663495D01*
X99540804Y-92639227D01*
X99546765Y-92615428D01*
X99555030Y-92592329D01*
X99565520Y-92570150D01*
X99578132Y-92549107D01*
X99592747Y-92529401D01*
X99609223Y-92511223D01*
X99627401Y-92494747D01*
X99647107Y-92480132D01*
X99668150Y-92467520D01*
X99690329Y-92457030D01*
X99713428Y-92448765D01*
X99737227Y-92442804D01*
X99761495Y-92439204D01*
X99785999Y-92438000D01*
X100686001Y-92438000D01*
X100710505Y-92439204D01*
X100710505Y-92439204D01*
G37*
D13*
G04 #@! TD*
G04 #@! TO.P,R2,2*
G04 #@! TO.N,CTS*
X100236000Y-93013000D03*
D12*
G04 #@! TO.N,CTS*
G04 #@! TO.C,R3*
G36*
X103758505Y-92439204D02*
X103782773Y-92442804D01*
X103806572Y-92448765D01*
X103829671Y-92457030D01*
X103851850Y-92467520D01*
X103872893Y-92480132D01*
X103892599Y-92494747D01*
X103910777Y-92511223D01*
X103927253Y-92529401D01*
X103941868Y-92549107D01*
X103954480Y-92570150D01*
X103964970Y-92592329D01*
X103973235Y-92615428D01*
X103979196Y-92639227D01*
X103982796Y-92663495D01*
X103984000Y-92687999D01*
X103984000Y-93338001D01*
X103982796Y-93362505D01*
X103979196Y-93386773D01*
X103973235Y-93410572D01*
X103964970Y-93433671D01*
X103954480Y-93455850D01*
X103941868Y-93476893D01*
X103927253Y-93496599D01*
X103910777Y-93514777D01*
X103892599Y-93531253D01*
X103872893Y-93545868D01*
X103851850Y-93558480D01*
X103829671Y-93568970D01*
X103806572Y-93577235D01*
X103782773Y-93583196D01*
X103758505Y-93586796D01*
X103734001Y-93588000D01*
X102833999Y-93588000D01*
X102809495Y-93586796D01*
X102785227Y-93583196D01*
X102761428Y-93577235D01*
X102738329Y-93568970D01*
X102716150Y-93558480D01*
X102695107Y-93545868D01*
X102675401Y-93531253D01*
X102657223Y-93514777D01*
X102640747Y-93496599D01*
X102626132Y-93476893D01*
X102613520Y-93455850D01*
X102603030Y-93433671D01*
X102594765Y-93410572D01*
X102588804Y-93386773D01*
X102585204Y-93362505D01*
X102584000Y-93338001D01*
X102584000Y-92687999D01*
X102585204Y-92663495D01*
X102588804Y-92639227D01*
X102594765Y-92615428D01*
X102603030Y-92592329D01*
X102613520Y-92570150D01*
X102626132Y-92549107D01*
X102640747Y-92529401D01*
X102657223Y-92511223D01*
X102675401Y-92494747D01*
X102695107Y-92480132D01*
X102716150Y-92467520D01*
X102738329Y-92457030D01*
X102761428Y-92448765D01*
X102785227Y-92442804D01*
X102809495Y-92439204D01*
X102833999Y-92438000D01*
X103734001Y-92438000D01*
X103758505Y-92439204D01*
X103758505Y-92439204D01*
G37*
D13*
G04 #@! TD*
G04 #@! TO.P,R3,1*
G04 #@! TO.N,CTS*
X103284000Y-93013000D03*
D12*
G04 #@! TO.N,TXD*
G04 #@! TO.C,R3*
G36*
X103758505Y-90389204D02*
X103782773Y-90392804D01*
X103806572Y-90398765D01*
X103829671Y-90407030D01*
X103851850Y-90417520D01*
X103872893Y-90430132D01*
X103892599Y-90444747D01*
X103910777Y-90461223D01*
X103927253Y-90479401D01*
X103941868Y-90499107D01*
X103954480Y-90520150D01*
X103964970Y-90542329D01*
X103973235Y-90565428D01*
X103979196Y-90589227D01*
X103982796Y-90613495D01*
X103984000Y-90637999D01*
X103984000Y-91288001D01*
X103982796Y-91312505D01*
X103979196Y-91336773D01*
X103973235Y-91360572D01*
X103964970Y-91383671D01*
X103954480Y-91405850D01*
X103941868Y-91426893D01*
X103927253Y-91446599D01*
X103910777Y-91464777D01*
X103892599Y-91481253D01*
X103872893Y-91495868D01*
X103851850Y-91508480D01*
X103829671Y-91518970D01*
X103806572Y-91527235D01*
X103782773Y-91533196D01*
X103758505Y-91536796D01*
X103734001Y-91538000D01*
X102833999Y-91538000D01*
X102809495Y-91536796D01*
X102785227Y-91533196D01*
X102761428Y-91527235D01*
X102738329Y-91518970D01*
X102716150Y-91508480D01*
X102695107Y-91495868D01*
X102675401Y-91481253D01*
X102657223Y-91464777D01*
X102640747Y-91446599D01*
X102626132Y-91426893D01*
X102613520Y-91405850D01*
X102603030Y-91383671D01*
X102594765Y-91360572D01*
X102588804Y-91336773D01*
X102585204Y-91312505D01*
X102584000Y-91288001D01*
X102584000Y-90637999D01*
X102585204Y-90613495D01*
X102588804Y-90589227D01*
X102594765Y-90565428D01*
X102603030Y-90542329D01*
X102613520Y-90520150D01*
X102626132Y-90499107D01*
X102640747Y-90479401D01*
X102657223Y-90461223D01*
X102675401Y-90444747D01*
X102695107Y-90430132D01*
X102716150Y-90417520D01*
X102738329Y-90407030D01*
X102761428Y-90398765D01*
X102785227Y-90392804D01*
X102809495Y-90389204D01*
X102833999Y-90388000D01*
X103734001Y-90388000D01*
X103758505Y-90389204D01*
X103758505Y-90389204D01*
G37*
D13*
G04 #@! TD*
G04 #@! TO.P,R3,2*
G04 #@! TO.N,TXD*
X103284000Y-90963000D03*
D12*
G04 #@! TO.N,Net-(R4-Pad1)*
G04 #@! TO.C,R4*
G36*
X117824505Y-111726204D02*
X117848773Y-111729804D01*
X117872572Y-111735765D01*
X117895671Y-111744030D01*
X117917850Y-111754520D01*
X117938893Y-111767132D01*
X117958599Y-111781747D01*
X117976777Y-111798223D01*
X117993253Y-111816401D01*
X118007868Y-111836107D01*
X118020480Y-111857150D01*
X118030970Y-111879329D01*
X118039235Y-111902428D01*
X118045196Y-111926227D01*
X118048796Y-111950495D01*
X118050000Y-111974999D01*
X118050000Y-112625001D01*
X118048796Y-112649505D01*
X118045196Y-112673773D01*
X118039235Y-112697572D01*
X118030970Y-112720671D01*
X118020480Y-112742850D01*
X118007868Y-112763893D01*
X117993253Y-112783599D01*
X117976777Y-112801777D01*
X117958599Y-112818253D01*
X117938893Y-112832868D01*
X117917850Y-112845480D01*
X117895671Y-112855970D01*
X117872572Y-112864235D01*
X117848773Y-112870196D01*
X117824505Y-112873796D01*
X117800001Y-112875000D01*
X116899999Y-112875000D01*
X116875495Y-112873796D01*
X116851227Y-112870196D01*
X116827428Y-112864235D01*
X116804329Y-112855970D01*
X116782150Y-112845480D01*
X116761107Y-112832868D01*
X116741401Y-112818253D01*
X116723223Y-112801777D01*
X116706747Y-112783599D01*
X116692132Y-112763893D01*
X116679520Y-112742850D01*
X116669030Y-112720671D01*
X116660765Y-112697572D01*
X116654804Y-112673773D01*
X116651204Y-112649505D01*
X116650000Y-112625001D01*
X116650000Y-111974999D01*
X116651204Y-111950495D01*
X116654804Y-111926227D01*
X116660765Y-111902428D01*
X116669030Y-111879329D01*
X116679520Y-111857150D01*
X116692132Y-111836107D01*
X116706747Y-111816401D01*
X116723223Y-111798223D01*
X116741401Y-111781747D01*
X116761107Y-111767132D01*
X116782150Y-111754520D01*
X116804329Y-111744030D01*
X116827428Y-111735765D01*
X116851227Y-111729804D01*
X116875495Y-111726204D01*
X116899999Y-111725000D01*
X117800001Y-111725000D01*
X117824505Y-111726204D01*
X117824505Y-111726204D01*
G37*
D13*
G04 #@! TD*
G04 #@! TO.P,R4,1*
G04 #@! TO.N,Net-(R4-Pad1)*
X117350000Y-112300000D03*
D12*
G04 #@! TO.N,GND*
G04 #@! TO.C,R4*
G36*
X117824505Y-113776204D02*
X117848773Y-113779804D01*
X117872572Y-113785765D01*
X117895671Y-113794030D01*
X117917850Y-113804520D01*
X117938893Y-113817132D01*
X117958599Y-113831747D01*
X117976777Y-113848223D01*
X117993253Y-113866401D01*
X118007868Y-113886107D01*
X118020480Y-113907150D01*
X118030970Y-113929329D01*
X118039235Y-113952428D01*
X118045196Y-113976227D01*
X118048796Y-114000495D01*
X118050000Y-114024999D01*
X118050000Y-114675001D01*
X118048796Y-114699505D01*
X118045196Y-114723773D01*
X118039235Y-114747572D01*
X118030970Y-114770671D01*
X118020480Y-114792850D01*
X118007868Y-114813893D01*
X117993253Y-114833599D01*
X117976777Y-114851777D01*
X117958599Y-114868253D01*
X117938893Y-114882868D01*
X117917850Y-114895480D01*
X117895671Y-114905970D01*
X117872572Y-114914235D01*
X117848773Y-114920196D01*
X117824505Y-114923796D01*
X117800001Y-114925000D01*
X116899999Y-114925000D01*
X116875495Y-114923796D01*
X116851227Y-114920196D01*
X116827428Y-114914235D01*
X116804329Y-114905970D01*
X116782150Y-114895480D01*
X116761107Y-114882868D01*
X116741401Y-114868253D01*
X116723223Y-114851777D01*
X116706747Y-114833599D01*
X116692132Y-114813893D01*
X116679520Y-114792850D01*
X116669030Y-114770671D01*
X116660765Y-114747572D01*
X116654804Y-114723773D01*
X116651204Y-114699505D01*
X116650000Y-114675001D01*
X116650000Y-114024999D01*
X116651204Y-114000495D01*
X116654804Y-113976227D01*
X116660765Y-113952428D01*
X116669030Y-113929329D01*
X116679520Y-113907150D01*
X116692132Y-113886107D01*
X116706747Y-113866401D01*
X116723223Y-113848223D01*
X116741401Y-113831747D01*
X116761107Y-113817132D01*
X116782150Y-113804520D01*
X116804329Y-113794030D01*
X116827428Y-113785765D01*
X116851227Y-113779804D01*
X116875495Y-113776204D01*
X116899999Y-113775000D01*
X117800001Y-113775000D01*
X117824505Y-113776204D01*
X117824505Y-113776204D01*
G37*
D13*
G04 #@! TD*
G04 #@! TO.P,R4,2*
G04 #@! TO.N,GND*
X117350000Y-114350000D03*
D12*
G04 #@! TO.N,SDA*
G04 #@! TO.C,R5*
G36*
X115290505Y-111685204D02*
X115314773Y-111688804D01*
X115338572Y-111694765D01*
X115361671Y-111703030D01*
X115383850Y-111713520D01*
X115404893Y-111726132D01*
X115424599Y-111740747D01*
X115442777Y-111757223D01*
X115459253Y-111775401D01*
X115473868Y-111795107D01*
X115486480Y-111816150D01*
X115496970Y-111838329D01*
X115505235Y-111861428D01*
X115511196Y-111885227D01*
X115514796Y-111909495D01*
X115516000Y-111933999D01*
X115516000Y-112584001D01*
X115514796Y-112608505D01*
X115511196Y-112632773D01*
X115505235Y-112656572D01*
X115496970Y-112679671D01*
X115486480Y-112701850D01*
X115473868Y-112722893D01*
X115459253Y-112742599D01*
X115442777Y-112760777D01*
X115424599Y-112777253D01*
X115404893Y-112791868D01*
X115383850Y-112804480D01*
X115361671Y-112814970D01*
X115338572Y-112823235D01*
X115314773Y-112829196D01*
X115290505Y-112832796D01*
X115266001Y-112834000D01*
X114365999Y-112834000D01*
X114341495Y-112832796D01*
X114317227Y-112829196D01*
X114293428Y-112823235D01*
X114270329Y-112814970D01*
X114248150Y-112804480D01*
X114227107Y-112791868D01*
X114207401Y-112777253D01*
X114189223Y-112760777D01*
X114172747Y-112742599D01*
X114158132Y-112722893D01*
X114145520Y-112701850D01*
X114135030Y-112679671D01*
X114126765Y-112656572D01*
X114120804Y-112632773D01*
X114117204Y-112608505D01*
X114116000Y-112584001D01*
X114116000Y-111933999D01*
X114117204Y-111909495D01*
X114120804Y-111885227D01*
X114126765Y-111861428D01*
X114135030Y-111838329D01*
X114145520Y-111816150D01*
X114158132Y-111795107D01*
X114172747Y-111775401D01*
X114189223Y-111757223D01*
X114207401Y-111740747D01*
X114227107Y-111726132D01*
X114248150Y-111713520D01*
X114270329Y-111703030D01*
X114293428Y-111694765D01*
X114317227Y-111688804D01*
X114341495Y-111685204D01*
X114365999Y-111684000D01*
X115266001Y-111684000D01*
X115290505Y-111685204D01*
X115290505Y-111685204D01*
G37*
D13*
G04 #@! TD*
G04 #@! TO.P,R5,2*
G04 #@! TO.N,SDA*
X114816000Y-112259000D03*
D12*
G04 #@! TO.N,+3V3*
G04 #@! TO.C,R5*
G36*
X115290505Y-113735204D02*
X115314773Y-113738804D01*
X115338572Y-113744765D01*
X115361671Y-113753030D01*
X115383850Y-113763520D01*
X115404893Y-113776132D01*
X115424599Y-113790747D01*
X115442777Y-113807223D01*
X115459253Y-113825401D01*
X115473868Y-113845107D01*
X115486480Y-113866150D01*
X115496970Y-113888329D01*
X115505235Y-113911428D01*
X115511196Y-113935227D01*
X115514796Y-113959495D01*
X115516000Y-113983999D01*
X115516000Y-114634001D01*
X115514796Y-114658505D01*
X115511196Y-114682773D01*
X115505235Y-114706572D01*
X115496970Y-114729671D01*
X115486480Y-114751850D01*
X115473868Y-114772893D01*
X115459253Y-114792599D01*
X115442777Y-114810777D01*
X115424599Y-114827253D01*
X115404893Y-114841868D01*
X115383850Y-114854480D01*
X115361671Y-114864970D01*
X115338572Y-114873235D01*
X115314773Y-114879196D01*
X115290505Y-114882796D01*
X115266001Y-114884000D01*
X114365999Y-114884000D01*
X114341495Y-114882796D01*
X114317227Y-114879196D01*
X114293428Y-114873235D01*
X114270329Y-114864970D01*
X114248150Y-114854480D01*
X114227107Y-114841868D01*
X114207401Y-114827253D01*
X114189223Y-114810777D01*
X114172747Y-114792599D01*
X114158132Y-114772893D01*
X114145520Y-114751850D01*
X114135030Y-114729671D01*
X114126765Y-114706572D01*
X114120804Y-114682773D01*
X114117204Y-114658505D01*
X114116000Y-114634001D01*
X114116000Y-113983999D01*
X114117204Y-113959495D01*
X114120804Y-113935227D01*
X114126765Y-113911428D01*
X114135030Y-113888329D01*
X114145520Y-113866150D01*
X114158132Y-113845107D01*
X114172747Y-113825401D01*
X114189223Y-113807223D01*
X114207401Y-113790747D01*
X114227107Y-113776132D01*
X114248150Y-113763520D01*
X114270329Y-113753030D01*
X114293428Y-113744765D01*
X114317227Y-113738804D01*
X114341495Y-113735204D01*
X114365999Y-113734000D01*
X115266001Y-113734000D01*
X115290505Y-113735204D01*
X115290505Y-113735204D01*
G37*
D13*
G04 #@! TD*
G04 #@! TO.P,R5,1*
G04 #@! TO.N,+3V3*
X114816000Y-114309000D03*
D12*
G04 #@! TO.N,+3V3*
G04 #@! TO.C,R6*
G36*
X112750505Y-113735204D02*
X112774773Y-113738804D01*
X112798572Y-113744765D01*
X112821671Y-113753030D01*
X112843850Y-113763520D01*
X112864893Y-113776132D01*
X112884599Y-113790747D01*
X112902777Y-113807223D01*
X112919253Y-113825401D01*
X112933868Y-113845107D01*
X112946480Y-113866150D01*
X112956970Y-113888329D01*
X112965235Y-113911428D01*
X112971196Y-113935227D01*
X112974796Y-113959495D01*
X112976000Y-113983999D01*
X112976000Y-114634001D01*
X112974796Y-114658505D01*
X112971196Y-114682773D01*
X112965235Y-114706572D01*
X112956970Y-114729671D01*
X112946480Y-114751850D01*
X112933868Y-114772893D01*
X112919253Y-114792599D01*
X112902777Y-114810777D01*
X112884599Y-114827253D01*
X112864893Y-114841868D01*
X112843850Y-114854480D01*
X112821671Y-114864970D01*
X112798572Y-114873235D01*
X112774773Y-114879196D01*
X112750505Y-114882796D01*
X112726001Y-114884000D01*
X111825999Y-114884000D01*
X111801495Y-114882796D01*
X111777227Y-114879196D01*
X111753428Y-114873235D01*
X111730329Y-114864970D01*
X111708150Y-114854480D01*
X111687107Y-114841868D01*
X111667401Y-114827253D01*
X111649223Y-114810777D01*
X111632747Y-114792599D01*
X111618132Y-114772893D01*
X111605520Y-114751850D01*
X111595030Y-114729671D01*
X111586765Y-114706572D01*
X111580804Y-114682773D01*
X111577204Y-114658505D01*
X111576000Y-114634001D01*
X111576000Y-113983999D01*
X111577204Y-113959495D01*
X111580804Y-113935227D01*
X111586765Y-113911428D01*
X111595030Y-113888329D01*
X111605520Y-113866150D01*
X111618132Y-113845107D01*
X111632747Y-113825401D01*
X111649223Y-113807223D01*
X111667401Y-113790747D01*
X111687107Y-113776132D01*
X111708150Y-113763520D01*
X111730329Y-113753030D01*
X111753428Y-113744765D01*
X111777227Y-113738804D01*
X111801495Y-113735204D01*
X111825999Y-113734000D01*
X112726001Y-113734000D01*
X112750505Y-113735204D01*
X112750505Y-113735204D01*
G37*
D13*
G04 #@! TD*
G04 #@! TO.P,R6,1*
G04 #@! TO.N,+3V3*
X112276000Y-114309000D03*
D12*
G04 #@! TO.N,SCL*
G04 #@! TO.C,R6*
G36*
X112750505Y-111685204D02*
X112774773Y-111688804D01*
X112798572Y-111694765D01*
X112821671Y-111703030D01*
X112843850Y-111713520D01*
X112864893Y-111726132D01*
X112884599Y-111740747D01*
X112902777Y-111757223D01*
X112919253Y-111775401D01*
X112933868Y-111795107D01*
X112946480Y-111816150D01*
X112956970Y-111838329D01*
X112965235Y-111861428D01*
X112971196Y-111885227D01*
X112974796Y-111909495D01*
X112976000Y-111933999D01*
X112976000Y-112584001D01*
X112974796Y-112608505D01*
X112971196Y-112632773D01*
X112965235Y-112656572D01*
X112956970Y-112679671D01*
X112946480Y-112701850D01*
X112933868Y-112722893D01*
X112919253Y-112742599D01*
X112902777Y-112760777D01*
X112884599Y-112777253D01*
X112864893Y-112791868D01*
X112843850Y-112804480D01*
X112821671Y-112814970D01*
X112798572Y-112823235D01*
X112774773Y-112829196D01*
X112750505Y-112832796D01*
X112726001Y-112834000D01*
X111825999Y-112834000D01*
X111801495Y-112832796D01*
X111777227Y-112829196D01*
X111753428Y-112823235D01*
X111730329Y-112814970D01*
X111708150Y-112804480D01*
X111687107Y-112791868D01*
X111667401Y-112777253D01*
X111649223Y-112760777D01*
X111632747Y-112742599D01*
X111618132Y-112722893D01*
X111605520Y-112701850D01*
X111595030Y-112679671D01*
X111586765Y-112656572D01*
X111580804Y-112632773D01*
X111577204Y-112608505D01*
X111576000Y-112584001D01*
X111576000Y-111933999D01*
X111577204Y-111909495D01*
X111580804Y-111885227D01*
X111586765Y-111861428D01*
X111595030Y-111838329D01*
X111605520Y-111816150D01*
X111618132Y-111795107D01*
X111632747Y-111775401D01*
X111649223Y-111757223D01*
X111667401Y-111740747D01*
X111687107Y-111726132D01*
X111708150Y-111713520D01*
X111730329Y-111703030D01*
X111753428Y-111694765D01*
X111777227Y-111688804D01*
X111801495Y-111685204D01*
X111825999Y-111684000D01*
X112726001Y-111684000D01*
X112750505Y-111685204D01*
X112750505Y-111685204D01*
G37*
D13*
G04 #@! TD*
G04 #@! TO.P,R6,2*
G04 #@! TO.N,SCL*
X112276000Y-112259000D03*
D12*
G04 #@! TO.N,+3V3*
G04 #@! TO.C,R7*
G36*
X107670505Y-113735204D02*
X107694773Y-113738804D01*
X107718572Y-113744765D01*
X107741671Y-113753030D01*
X107763850Y-113763520D01*
X107784893Y-113776132D01*
X107804599Y-113790747D01*
X107822777Y-113807223D01*
X107839253Y-113825401D01*
X107853868Y-113845107D01*
X107866480Y-113866150D01*
X107876970Y-113888329D01*
X107885235Y-113911428D01*
X107891196Y-113935227D01*
X107894796Y-113959495D01*
X107896000Y-113983999D01*
X107896000Y-114634001D01*
X107894796Y-114658505D01*
X107891196Y-114682773D01*
X107885235Y-114706572D01*
X107876970Y-114729671D01*
X107866480Y-114751850D01*
X107853868Y-114772893D01*
X107839253Y-114792599D01*
X107822777Y-114810777D01*
X107804599Y-114827253D01*
X107784893Y-114841868D01*
X107763850Y-114854480D01*
X107741671Y-114864970D01*
X107718572Y-114873235D01*
X107694773Y-114879196D01*
X107670505Y-114882796D01*
X107646001Y-114884000D01*
X106745999Y-114884000D01*
X106721495Y-114882796D01*
X106697227Y-114879196D01*
X106673428Y-114873235D01*
X106650329Y-114864970D01*
X106628150Y-114854480D01*
X106607107Y-114841868D01*
X106587401Y-114827253D01*
X106569223Y-114810777D01*
X106552747Y-114792599D01*
X106538132Y-114772893D01*
X106525520Y-114751850D01*
X106515030Y-114729671D01*
X106506765Y-114706572D01*
X106500804Y-114682773D01*
X106497204Y-114658505D01*
X106496000Y-114634001D01*
X106496000Y-113983999D01*
X106497204Y-113959495D01*
X106500804Y-113935227D01*
X106506765Y-113911428D01*
X106515030Y-113888329D01*
X106525520Y-113866150D01*
X106538132Y-113845107D01*
X106552747Y-113825401D01*
X106569223Y-113807223D01*
X106587401Y-113790747D01*
X106607107Y-113776132D01*
X106628150Y-113763520D01*
X106650329Y-113753030D01*
X106673428Y-113744765D01*
X106697227Y-113738804D01*
X106721495Y-113735204D01*
X106745999Y-113734000D01*
X107646001Y-113734000D01*
X107670505Y-113735204D01*
X107670505Y-113735204D01*
G37*
D13*
G04 #@! TD*
G04 #@! TO.P,R7,2*
G04 #@! TO.N,+3V3*
X107196000Y-114309000D03*
D12*
G04 #@! TO.N,Net-(C11-Pad1)*
G04 #@! TO.C,R7*
G36*
X107670505Y-111685204D02*
X107694773Y-111688804D01*
X107718572Y-111694765D01*
X107741671Y-111703030D01*
X107763850Y-111713520D01*
X107784893Y-111726132D01*
X107804599Y-111740747D01*
X107822777Y-111757223D01*
X107839253Y-111775401D01*
X107853868Y-111795107D01*
X107866480Y-111816150D01*
X107876970Y-111838329D01*
X107885235Y-111861428D01*
X107891196Y-111885227D01*
X107894796Y-111909495D01*
X107896000Y-111933999D01*
X107896000Y-112584001D01*
X107894796Y-112608505D01*
X107891196Y-112632773D01*
X107885235Y-112656572D01*
X107876970Y-112679671D01*
X107866480Y-112701850D01*
X107853868Y-112722893D01*
X107839253Y-112742599D01*
X107822777Y-112760777D01*
X107804599Y-112777253D01*
X107784893Y-112791868D01*
X107763850Y-112804480D01*
X107741671Y-112814970D01*
X107718572Y-112823235D01*
X107694773Y-112829196D01*
X107670505Y-112832796D01*
X107646001Y-112834000D01*
X106745999Y-112834000D01*
X106721495Y-112832796D01*
X106697227Y-112829196D01*
X106673428Y-112823235D01*
X106650329Y-112814970D01*
X106628150Y-112804480D01*
X106607107Y-112791868D01*
X106587401Y-112777253D01*
X106569223Y-112760777D01*
X106552747Y-112742599D01*
X106538132Y-112722893D01*
X106525520Y-112701850D01*
X106515030Y-112679671D01*
X106506765Y-112656572D01*
X106500804Y-112632773D01*
X106497204Y-112608505D01*
X106496000Y-112584001D01*
X106496000Y-111933999D01*
X106497204Y-111909495D01*
X106500804Y-111885227D01*
X106506765Y-111861428D01*
X106515030Y-111838329D01*
X106525520Y-111816150D01*
X106538132Y-111795107D01*
X106552747Y-111775401D01*
X106569223Y-111757223D01*
X106587401Y-111740747D01*
X106607107Y-111726132D01*
X106628150Y-111713520D01*
X106650329Y-111703030D01*
X106673428Y-111694765D01*
X106697227Y-111688804D01*
X106721495Y-111685204D01*
X106745999Y-111684000D01*
X107646001Y-111684000D01*
X107670505Y-111685204D01*
X107670505Y-111685204D01*
G37*
D13*
G04 #@! TD*
G04 #@! TO.P,R7,1*
G04 #@! TO.N,Net-(C11-Pad1)*
X107196000Y-112259000D03*
D12*
G04 #@! TO.N,BATT_ENABLE*
G04 #@! TO.C,R12*
G36*
X118124505Y-86926204D02*
X118148773Y-86929804D01*
X118172572Y-86935765D01*
X118195671Y-86944030D01*
X118217850Y-86954520D01*
X118238893Y-86967132D01*
X118258599Y-86981747D01*
X118276777Y-86998223D01*
X118293253Y-87016401D01*
X118307868Y-87036107D01*
X118320480Y-87057150D01*
X118330970Y-87079329D01*
X118339235Y-87102428D01*
X118345196Y-87126227D01*
X118348796Y-87150495D01*
X118350000Y-87174999D01*
X118350000Y-87825001D01*
X118348796Y-87849505D01*
X118345196Y-87873773D01*
X118339235Y-87897572D01*
X118330970Y-87920671D01*
X118320480Y-87942850D01*
X118307868Y-87963893D01*
X118293253Y-87983599D01*
X118276777Y-88001777D01*
X118258599Y-88018253D01*
X118238893Y-88032868D01*
X118217850Y-88045480D01*
X118195671Y-88055970D01*
X118172572Y-88064235D01*
X118148773Y-88070196D01*
X118124505Y-88073796D01*
X118100001Y-88075000D01*
X117199999Y-88075000D01*
X117175495Y-88073796D01*
X117151227Y-88070196D01*
X117127428Y-88064235D01*
X117104329Y-88055970D01*
X117082150Y-88045480D01*
X117061107Y-88032868D01*
X117041401Y-88018253D01*
X117023223Y-88001777D01*
X117006747Y-87983599D01*
X116992132Y-87963893D01*
X116979520Y-87942850D01*
X116969030Y-87920671D01*
X116960765Y-87897572D01*
X116954804Y-87873773D01*
X116951204Y-87849505D01*
X116950000Y-87825001D01*
X116950000Y-87174999D01*
X116951204Y-87150495D01*
X116954804Y-87126227D01*
X116960765Y-87102428D01*
X116969030Y-87079329D01*
X116979520Y-87057150D01*
X116992132Y-87036107D01*
X117006747Y-87016401D01*
X117023223Y-86998223D01*
X117041401Y-86981747D01*
X117061107Y-86967132D01*
X117082150Y-86954520D01*
X117104329Y-86944030D01*
X117127428Y-86935765D01*
X117151227Y-86929804D01*
X117175495Y-86926204D01*
X117199999Y-86925000D01*
X118100001Y-86925000D01*
X118124505Y-86926204D01*
X118124505Y-86926204D01*
G37*
D13*
G04 #@! TD*
G04 #@! TO.P,R12,2*
G04 #@! TO.N,BATT_ENABLE*
X117650000Y-87500000D03*
D12*
G04 #@! TO.N,Net-(Q2-Pad1)*
G04 #@! TO.C,R12*
G36*
X118124505Y-84876204D02*
X118148773Y-84879804D01*
X118172572Y-84885765D01*
X118195671Y-84894030D01*
X118217850Y-84904520D01*
X118238893Y-84917132D01*
X118258599Y-84931747D01*
X118276777Y-84948223D01*
X118293253Y-84966401D01*
X118307868Y-84986107D01*
X118320480Y-85007150D01*
X118330970Y-85029329D01*
X118339235Y-85052428D01*
X118345196Y-85076227D01*
X118348796Y-85100495D01*
X118350000Y-85124999D01*
X118350000Y-85775001D01*
X118348796Y-85799505D01*
X118345196Y-85823773D01*
X118339235Y-85847572D01*
X118330970Y-85870671D01*
X118320480Y-85892850D01*
X118307868Y-85913893D01*
X118293253Y-85933599D01*
X118276777Y-85951777D01*
X118258599Y-85968253D01*
X118238893Y-85982868D01*
X118217850Y-85995480D01*
X118195671Y-86005970D01*
X118172572Y-86014235D01*
X118148773Y-86020196D01*
X118124505Y-86023796D01*
X118100001Y-86025000D01*
X117199999Y-86025000D01*
X117175495Y-86023796D01*
X117151227Y-86020196D01*
X117127428Y-86014235D01*
X117104329Y-86005970D01*
X117082150Y-85995480D01*
X117061107Y-85982868D01*
X117041401Y-85968253D01*
X117023223Y-85951777D01*
X117006747Y-85933599D01*
X116992132Y-85913893D01*
X116979520Y-85892850D01*
X116969030Y-85870671D01*
X116960765Y-85847572D01*
X116954804Y-85823773D01*
X116951204Y-85799505D01*
X116950000Y-85775001D01*
X116950000Y-85124999D01*
X116951204Y-85100495D01*
X116954804Y-85076227D01*
X116960765Y-85052428D01*
X116969030Y-85029329D01*
X116979520Y-85007150D01*
X116992132Y-84986107D01*
X117006747Y-84966401D01*
X117023223Y-84948223D01*
X117041401Y-84931747D01*
X117061107Y-84917132D01*
X117082150Y-84904520D01*
X117104329Y-84894030D01*
X117127428Y-84885765D01*
X117151227Y-84879804D01*
X117175495Y-84876204D01*
X117199999Y-84875000D01*
X118100001Y-84875000D01*
X118124505Y-84876204D01*
X118124505Y-84876204D01*
G37*
D13*
G04 #@! TD*
G04 #@! TO.P,R12,1*
G04 #@! TO.N,Net-(Q2-Pad1)*
X117650000Y-85450000D03*
D12*
G04 #@! TO.N,+BATT*
G04 #@! TO.C,R13*
G36*
X97474505Y-86951204D02*
X97498773Y-86954804D01*
X97522572Y-86960765D01*
X97545671Y-86969030D01*
X97567850Y-86979520D01*
X97588893Y-86992132D01*
X97608599Y-87006747D01*
X97626777Y-87023223D01*
X97643253Y-87041401D01*
X97657868Y-87061107D01*
X97670480Y-87082150D01*
X97680970Y-87104329D01*
X97689235Y-87127428D01*
X97695196Y-87151227D01*
X97698796Y-87175495D01*
X97700000Y-87199999D01*
X97700000Y-87850001D01*
X97698796Y-87874505D01*
X97695196Y-87898773D01*
X97689235Y-87922572D01*
X97680970Y-87945671D01*
X97670480Y-87967850D01*
X97657868Y-87988893D01*
X97643253Y-88008599D01*
X97626777Y-88026777D01*
X97608599Y-88043253D01*
X97588893Y-88057868D01*
X97567850Y-88070480D01*
X97545671Y-88080970D01*
X97522572Y-88089235D01*
X97498773Y-88095196D01*
X97474505Y-88098796D01*
X97450001Y-88100000D01*
X96549999Y-88100000D01*
X96525495Y-88098796D01*
X96501227Y-88095196D01*
X96477428Y-88089235D01*
X96454329Y-88080970D01*
X96432150Y-88070480D01*
X96411107Y-88057868D01*
X96391401Y-88043253D01*
X96373223Y-88026777D01*
X96356747Y-88008599D01*
X96342132Y-87988893D01*
X96329520Y-87967850D01*
X96319030Y-87945671D01*
X96310765Y-87922572D01*
X96304804Y-87898773D01*
X96301204Y-87874505D01*
X96300000Y-87850001D01*
X96300000Y-87199999D01*
X96301204Y-87175495D01*
X96304804Y-87151227D01*
X96310765Y-87127428D01*
X96319030Y-87104329D01*
X96329520Y-87082150D01*
X96342132Y-87061107D01*
X96356747Y-87041401D01*
X96373223Y-87023223D01*
X96391401Y-87006747D01*
X96411107Y-86992132D01*
X96432150Y-86979520D01*
X96454329Y-86969030D01*
X96477428Y-86960765D01*
X96501227Y-86954804D01*
X96525495Y-86951204D01*
X96549999Y-86950000D01*
X97450001Y-86950000D01*
X97474505Y-86951204D01*
X97474505Y-86951204D01*
G37*
D13*
G04 #@! TD*
G04 #@! TO.P,R13,1*
G04 #@! TO.N,+BATT*
X97000000Y-87525000D03*
D12*
G04 #@! TO.N,Net-(Q3-Pad1)*
G04 #@! TO.C,R13*
G36*
X97474505Y-84901204D02*
X97498773Y-84904804D01*
X97522572Y-84910765D01*
X97545671Y-84919030D01*
X97567850Y-84929520D01*
X97588893Y-84942132D01*
X97608599Y-84956747D01*
X97626777Y-84973223D01*
X97643253Y-84991401D01*
X97657868Y-85011107D01*
X97670480Y-85032150D01*
X97680970Y-85054329D01*
X97689235Y-85077428D01*
X97695196Y-85101227D01*
X97698796Y-85125495D01*
X97700000Y-85149999D01*
X97700000Y-85800001D01*
X97698796Y-85824505D01*
X97695196Y-85848773D01*
X97689235Y-85872572D01*
X97680970Y-85895671D01*
X97670480Y-85917850D01*
X97657868Y-85938893D01*
X97643253Y-85958599D01*
X97626777Y-85976777D01*
X97608599Y-85993253D01*
X97588893Y-86007868D01*
X97567850Y-86020480D01*
X97545671Y-86030970D01*
X97522572Y-86039235D01*
X97498773Y-86045196D01*
X97474505Y-86048796D01*
X97450001Y-86050000D01*
X96549999Y-86050000D01*
X96525495Y-86048796D01*
X96501227Y-86045196D01*
X96477428Y-86039235D01*
X96454329Y-86030970D01*
X96432150Y-86020480D01*
X96411107Y-86007868D01*
X96391401Y-85993253D01*
X96373223Y-85976777D01*
X96356747Y-85958599D01*
X96342132Y-85938893D01*
X96329520Y-85917850D01*
X96319030Y-85895671D01*
X96310765Y-85872572D01*
X96304804Y-85848773D01*
X96301204Y-85824505D01*
X96300000Y-85800001D01*
X96300000Y-85149999D01*
X96301204Y-85125495D01*
X96304804Y-85101227D01*
X96310765Y-85077428D01*
X96319030Y-85054329D01*
X96329520Y-85032150D01*
X96342132Y-85011107D01*
X96356747Y-84991401D01*
X96373223Y-84973223D01*
X96391401Y-84956747D01*
X96411107Y-84942132D01*
X96432150Y-84929520D01*
X96454329Y-84919030D01*
X96477428Y-84910765D01*
X96501227Y-84904804D01*
X96525495Y-84901204D01*
X96549999Y-84900000D01*
X97450001Y-84900000D01*
X97474505Y-84901204D01*
X97474505Y-84901204D01*
G37*
D13*
G04 #@! TD*
G04 #@! TO.P,R13,2*
G04 #@! TO.N,Net-(Q3-Pad1)*
X97000000Y-85475000D03*
D12*
G04 #@! TO.N,Net-(Q3-Pad1)*
G04 #@! TO.C,R14*
G36*
X106899505Y-84751204D02*
X106923773Y-84754804D01*
X106947572Y-84760765D01*
X106970671Y-84769030D01*
X106992850Y-84779520D01*
X107013893Y-84792132D01*
X107033599Y-84806747D01*
X107051777Y-84823223D01*
X107068253Y-84841401D01*
X107082868Y-84861107D01*
X107095480Y-84882150D01*
X107105970Y-84904329D01*
X107114235Y-84927428D01*
X107120196Y-84951227D01*
X107123796Y-84975495D01*
X107125000Y-84999999D01*
X107125000Y-85900001D01*
X107123796Y-85924505D01*
X107120196Y-85948773D01*
X107114235Y-85972572D01*
X107105970Y-85995671D01*
X107095480Y-86017850D01*
X107082868Y-86038893D01*
X107068253Y-86058599D01*
X107051777Y-86076777D01*
X107033599Y-86093253D01*
X107013893Y-86107868D01*
X106992850Y-86120480D01*
X106970671Y-86130970D01*
X106947572Y-86139235D01*
X106923773Y-86145196D01*
X106899505Y-86148796D01*
X106875001Y-86150000D01*
X106224999Y-86150000D01*
X106200495Y-86148796D01*
X106176227Y-86145196D01*
X106152428Y-86139235D01*
X106129329Y-86130970D01*
X106107150Y-86120480D01*
X106086107Y-86107868D01*
X106066401Y-86093253D01*
X106048223Y-86076777D01*
X106031747Y-86058599D01*
X106017132Y-86038893D01*
X106004520Y-86017850D01*
X105994030Y-85995671D01*
X105985765Y-85972572D01*
X105979804Y-85948773D01*
X105976204Y-85924505D01*
X105975000Y-85900001D01*
X105975000Y-84999999D01*
X105976204Y-84975495D01*
X105979804Y-84951227D01*
X105985765Y-84927428D01*
X105994030Y-84904329D01*
X106004520Y-84882150D01*
X106017132Y-84861107D01*
X106031747Y-84841401D01*
X106048223Y-84823223D01*
X106066401Y-84806747D01*
X106086107Y-84792132D01*
X106107150Y-84779520D01*
X106129329Y-84769030D01*
X106152428Y-84760765D01*
X106176227Y-84754804D01*
X106200495Y-84751204D01*
X106224999Y-84750000D01*
X106875001Y-84750000D01*
X106899505Y-84751204D01*
X106899505Y-84751204D01*
G37*
D13*
G04 #@! TD*
G04 #@! TO.P,R14,1*
G04 #@! TO.N,Net-(Q3-Pad1)*
X106550000Y-85450000D03*
D12*
G04 #@! TO.N,Net-(Q2-Pad3)*
G04 #@! TO.C,R14*
G36*
X108949505Y-84751204D02*
X108973773Y-84754804D01*
X108997572Y-84760765D01*
X109020671Y-84769030D01*
X109042850Y-84779520D01*
X109063893Y-84792132D01*
X109083599Y-84806747D01*
X109101777Y-84823223D01*
X109118253Y-84841401D01*
X109132868Y-84861107D01*
X109145480Y-84882150D01*
X109155970Y-84904329D01*
X109164235Y-84927428D01*
X109170196Y-84951227D01*
X109173796Y-84975495D01*
X109175000Y-84999999D01*
X109175000Y-85900001D01*
X109173796Y-85924505D01*
X109170196Y-85948773D01*
X109164235Y-85972572D01*
X109155970Y-85995671D01*
X109145480Y-86017850D01*
X109132868Y-86038893D01*
X109118253Y-86058599D01*
X109101777Y-86076777D01*
X109083599Y-86093253D01*
X109063893Y-86107868D01*
X109042850Y-86120480D01*
X109020671Y-86130970D01*
X108997572Y-86139235D01*
X108973773Y-86145196D01*
X108949505Y-86148796D01*
X108925001Y-86150000D01*
X108274999Y-86150000D01*
X108250495Y-86148796D01*
X108226227Y-86145196D01*
X108202428Y-86139235D01*
X108179329Y-86130970D01*
X108157150Y-86120480D01*
X108136107Y-86107868D01*
X108116401Y-86093253D01*
X108098223Y-86076777D01*
X108081747Y-86058599D01*
X108067132Y-86038893D01*
X108054520Y-86017850D01*
X108044030Y-85995671D01*
X108035765Y-85972572D01*
X108029804Y-85948773D01*
X108026204Y-85924505D01*
X108025000Y-85900001D01*
X108025000Y-84999999D01*
X108026204Y-84975495D01*
X108029804Y-84951227D01*
X108035765Y-84927428D01*
X108044030Y-84904329D01*
X108054520Y-84882150D01*
X108067132Y-84861107D01*
X108081747Y-84841401D01*
X108098223Y-84823223D01*
X108116401Y-84806747D01*
X108136107Y-84792132D01*
X108157150Y-84779520D01*
X108179329Y-84769030D01*
X108202428Y-84760765D01*
X108226227Y-84754804D01*
X108250495Y-84751204D01*
X108274999Y-84750000D01*
X108925001Y-84750000D01*
X108949505Y-84751204D01*
X108949505Y-84751204D01*
G37*
D13*
G04 #@! TD*
G04 #@! TO.P,R14,2*
G04 #@! TO.N,Net-(Q2-Pad3)*
X108600000Y-85450000D03*
D12*
G04 #@! TO.N,BATT_LEVEL*
G04 #@! TO.C,R15*
G36*
X104474505Y-86951204D02*
X104498773Y-86954804D01*
X104522572Y-86960765D01*
X104545671Y-86969030D01*
X104567850Y-86979520D01*
X104588893Y-86992132D01*
X104608599Y-87006747D01*
X104626777Y-87023223D01*
X104643253Y-87041401D01*
X104657868Y-87061107D01*
X104670480Y-87082150D01*
X104680970Y-87104329D01*
X104689235Y-87127428D01*
X104695196Y-87151227D01*
X104698796Y-87175495D01*
X104700000Y-87199999D01*
X104700000Y-87850001D01*
X104698796Y-87874505D01*
X104695196Y-87898773D01*
X104689235Y-87922572D01*
X104680970Y-87945671D01*
X104670480Y-87967850D01*
X104657868Y-87988893D01*
X104643253Y-88008599D01*
X104626777Y-88026777D01*
X104608599Y-88043253D01*
X104588893Y-88057868D01*
X104567850Y-88070480D01*
X104545671Y-88080970D01*
X104522572Y-88089235D01*
X104498773Y-88095196D01*
X104474505Y-88098796D01*
X104450001Y-88100000D01*
X103549999Y-88100000D01*
X103525495Y-88098796D01*
X103501227Y-88095196D01*
X103477428Y-88089235D01*
X103454329Y-88080970D01*
X103432150Y-88070480D01*
X103411107Y-88057868D01*
X103391401Y-88043253D01*
X103373223Y-88026777D01*
X103356747Y-88008599D01*
X103342132Y-87988893D01*
X103329520Y-87967850D01*
X103319030Y-87945671D01*
X103310765Y-87922572D01*
X103304804Y-87898773D01*
X103301204Y-87874505D01*
X103300000Y-87850001D01*
X103300000Y-87199999D01*
X103301204Y-87175495D01*
X103304804Y-87151227D01*
X103310765Y-87127428D01*
X103319030Y-87104329D01*
X103329520Y-87082150D01*
X103342132Y-87061107D01*
X103356747Y-87041401D01*
X103373223Y-87023223D01*
X103391401Y-87006747D01*
X103411107Y-86992132D01*
X103432150Y-86979520D01*
X103454329Y-86969030D01*
X103477428Y-86960765D01*
X103501227Y-86954804D01*
X103525495Y-86951204D01*
X103549999Y-86950000D01*
X104450001Y-86950000D01*
X104474505Y-86951204D01*
X104474505Y-86951204D01*
G37*
D13*
G04 #@! TD*
G04 #@! TO.P,R15,2*
G04 #@! TO.N,BATT_LEVEL*
X104000000Y-87525000D03*
D12*
G04 #@! TO.N,Net-(Q3-Pad3)*
G04 #@! TO.C,R15*
G36*
X104474505Y-84901204D02*
X104498773Y-84904804D01*
X104522572Y-84910765D01*
X104545671Y-84919030D01*
X104567850Y-84929520D01*
X104588893Y-84942132D01*
X104608599Y-84956747D01*
X104626777Y-84973223D01*
X104643253Y-84991401D01*
X104657868Y-85011107D01*
X104670480Y-85032150D01*
X104680970Y-85054329D01*
X104689235Y-85077428D01*
X104695196Y-85101227D01*
X104698796Y-85125495D01*
X104700000Y-85149999D01*
X104700000Y-85800001D01*
X104698796Y-85824505D01*
X104695196Y-85848773D01*
X104689235Y-85872572D01*
X104680970Y-85895671D01*
X104670480Y-85917850D01*
X104657868Y-85938893D01*
X104643253Y-85958599D01*
X104626777Y-85976777D01*
X104608599Y-85993253D01*
X104588893Y-86007868D01*
X104567850Y-86020480D01*
X104545671Y-86030970D01*
X104522572Y-86039235D01*
X104498773Y-86045196D01*
X104474505Y-86048796D01*
X104450001Y-86050000D01*
X103549999Y-86050000D01*
X103525495Y-86048796D01*
X103501227Y-86045196D01*
X103477428Y-86039235D01*
X103454329Y-86030970D01*
X103432150Y-86020480D01*
X103411107Y-86007868D01*
X103391401Y-85993253D01*
X103373223Y-85976777D01*
X103356747Y-85958599D01*
X103342132Y-85938893D01*
X103329520Y-85917850D01*
X103319030Y-85895671D01*
X103310765Y-85872572D01*
X103304804Y-85848773D01*
X103301204Y-85824505D01*
X103300000Y-85800001D01*
X103300000Y-85149999D01*
X103301204Y-85125495D01*
X103304804Y-85101227D01*
X103310765Y-85077428D01*
X103319030Y-85054329D01*
X103329520Y-85032150D01*
X103342132Y-85011107D01*
X103356747Y-84991401D01*
X103373223Y-84973223D01*
X103391401Y-84956747D01*
X103411107Y-84942132D01*
X103432150Y-84929520D01*
X103454329Y-84919030D01*
X103477428Y-84910765D01*
X103501227Y-84904804D01*
X103525495Y-84901204D01*
X103549999Y-84900000D01*
X104450001Y-84900000D01*
X104474505Y-84901204D01*
X104474505Y-84901204D01*
G37*
D13*
G04 #@! TD*
G04 #@! TO.P,R15,1*
G04 #@! TO.N,Net-(Q3-Pad3)*
X104000000Y-85475000D03*
D12*
G04 #@! TO.N,BATT_LEVEL*
G04 #@! TO.C,R16*
G36*
X111624505Y-86976204D02*
X111648773Y-86979804D01*
X111672572Y-86985765D01*
X111695671Y-86994030D01*
X111717850Y-87004520D01*
X111738893Y-87017132D01*
X111758599Y-87031747D01*
X111776777Y-87048223D01*
X111793253Y-87066401D01*
X111807868Y-87086107D01*
X111820480Y-87107150D01*
X111830970Y-87129329D01*
X111839235Y-87152428D01*
X111845196Y-87176227D01*
X111848796Y-87200495D01*
X111850000Y-87224999D01*
X111850000Y-87875001D01*
X111848796Y-87899505D01*
X111845196Y-87923773D01*
X111839235Y-87947572D01*
X111830970Y-87970671D01*
X111820480Y-87992850D01*
X111807868Y-88013893D01*
X111793253Y-88033599D01*
X111776777Y-88051777D01*
X111758599Y-88068253D01*
X111738893Y-88082868D01*
X111717850Y-88095480D01*
X111695671Y-88105970D01*
X111672572Y-88114235D01*
X111648773Y-88120196D01*
X111624505Y-88123796D01*
X111600001Y-88125000D01*
X110699999Y-88125000D01*
X110675495Y-88123796D01*
X110651227Y-88120196D01*
X110627428Y-88114235D01*
X110604329Y-88105970D01*
X110582150Y-88095480D01*
X110561107Y-88082868D01*
X110541401Y-88068253D01*
X110523223Y-88051777D01*
X110506747Y-88033599D01*
X110492132Y-88013893D01*
X110479520Y-87992850D01*
X110469030Y-87970671D01*
X110460765Y-87947572D01*
X110454804Y-87923773D01*
X110451204Y-87899505D01*
X110450000Y-87875001D01*
X110450000Y-87224999D01*
X110451204Y-87200495D01*
X110454804Y-87176227D01*
X110460765Y-87152428D01*
X110469030Y-87129329D01*
X110479520Y-87107150D01*
X110492132Y-87086107D01*
X110506747Y-87066401D01*
X110523223Y-87048223D01*
X110541401Y-87031747D01*
X110561107Y-87017132D01*
X110582150Y-87004520D01*
X110604329Y-86994030D01*
X110627428Y-86985765D01*
X110651227Y-86979804D01*
X110675495Y-86976204D01*
X110699999Y-86975000D01*
X111600001Y-86975000D01*
X111624505Y-86976204D01*
X111624505Y-86976204D01*
G37*
D13*
G04 #@! TD*
G04 #@! TO.P,R16,1*
G04 #@! TO.N,BATT_LEVEL*
X111150000Y-87550000D03*
D12*
G04 #@! TO.N,GND*
G04 #@! TO.C,R16*
G36*
X111624505Y-84926204D02*
X111648773Y-84929804D01*
X111672572Y-84935765D01*
X111695671Y-84944030D01*
X111717850Y-84954520D01*
X111738893Y-84967132D01*
X111758599Y-84981747D01*
X111776777Y-84998223D01*
X111793253Y-85016401D01*
X111807868Y-85036107D01*
X111820480Y-85057150D01*
X111830970Y-85079329D01*
X111839235Y-85102428D01*
X111845196Y-85126227D01*
X111848796Y-85150495D01*
X111850000Y-85174999D01*
X111850000Y-85825001D01*
X111848796Y-85849505D01*
X111845196Y-85873773D01*
X111839235Y-85897572D01*
X111830970Y-85920671D01*
X111820480Y-85942850D01*
X111807868Y-85963893D01*
X111793253Y-85983599D01*
X111776777Y-86001777D01*
X111758599Y-86018253D01*
X111738893Y-86032868D01*
X111717850Y-86045480D01*
X111695671Y-86055970D01*
X111672572Y-86064235D01*
X111648773Y-86070196D01*
X111624505Y-86073796D01*
X111600001Y-86075000D01*
X110699999Y-86075000D01*
X110675495Y-86073796D01*
X110651227Y-86070196D01*
X110627428Y-86064235D01*
X110604329Y-86055970D01*
X110582150Y-86045480D01*
X110561107Y-86032868D01*
X110541401Y-86018253D01*
X110523223Y-86001777D01*
X110506747Y-85983599D01*
X110492132Y-85963893D01*
X110479520Y-85942850D01*
X110469030Y-85920671D01*
X110460765Y-85897572D01*
X110454804Y-85873773D01*
X110451204Y-85849505D01*
X110450000Y-85825001D01*
X110450000Y-85174999D01*
X110451204Y-85150495D01*
X110454804Y-85126227D01*
X110460765Y-85102428D01*
X110469030Y-85079329D01*
X110479520Y-85057150D01*
X110492132Y-85036107D01*
X110506747Y-85016401D01*
X110523223Y-84998223D01*
X110541401Y-84981747D01*
X110561107Y-84967132D01*
X110582150Y-84954520D01*
X110604329Y-84944030D01*
X110627428Y-84935765D01*
X110651227Y-84929804D01*
X110675495Y-84926204D01*
X110699999Y-84925000D01*
X111600001Y-84925000D01*
X111624505Y-84926204D01*
X111624505Y-84926204D01*
G37*
D13*
G04 #@! TD*
G04 #@! TO.P,R16,2*
G04 #@! TO.N,GND*
X111150000Y-85500000D03*
D14*
G04 #@! TO.P,Y1,1*
G04 #@! TO.N,Net-(C3-Pad1)*
X97200000Y-96350000D03*
G04 #@! TO.P,Y1,2*
G04 #@! TO.N,Net-(C4-Pad1)*
X100450000Y-96350000D03*
G04 #@! TD*
D15*
G04 #@! TO.P,U1,1*
G04 #@! TO.N,N/C*
X106220000Y-92556000D03*
G04 #@! TO.P,U1,2*
X106220000Y-93056000D03*
G04 #@! TO.P,U1,3*
X106220000Y-93556000D03*
G04 #@! TO.P,U1,4*
X106220000Y-94056000D03*
G04 #@! TO.P,U1,5*
G04 #@! TO.N,CTS*
X106220000Y-94556000D03*
G04 #@! TO.P,U1,6*
G04 #@! TO.N,DTR*
X106220000Y-95056000D03*
G04 #@! TO.P,U1,7*
G04 #@! TO.N,Net-(C3-Pad1)*
X106220000Y-95556000D03*
G04 #@! TO.P,U1,8*
G04 #@! TO.N,Net-(C4-Pad1)*
X106220000Y-96056000D03*
G04 #@! TO.P,U1,9*
G04 #@! TO.N,GND*
X106220000Y-96556000D03*
G04 #@! TO.P,U1,10*
X106220000Y-97056000D03*
G04 #@! TO.P,U1,11*
X106220000Y-97556000D03*
G04 #@! TO.P,U1,12*
G04 #@! TO.N,Net-(C1-Pad1)*
X106220000Y-98056000D03*
G04 #@! TO.P,U1,13*
G04 #@! TO.N,GND*
X106220000Y-98556000D03*
G04 #@! TO.P,U1,14*
X106220000Y-99056000D03*
G04 #@! TO.P,U1,15*
G04 #@! TO.N,+3V3*
X106220000Y-99556000D03*
G04 #@! TO.P,U1,16*
X106220000Y-100056000D03*
D16*
G04 #@! TO.P,U1,17*
G04 #@! TO.N,SCL*
X108170000Y-102006000D03*
G04 #@! TO.P,U1,18*
G04 #@! TO.N,SDA*
X108670000Y-102006000D03*
G04 #@! TO.P,U1,19*
G04 #@! TO.N,N/C*
X109170000Y-102006000D03*
G04 #@! TO.P,U1,20*
X109670000Y-102006000D03*
G04 #@! TO.P,U1,21*
G04 #@! TO.N,STAT*
X110170000Y-102006000D03*
G04 #@! TO.P,U1,22*
G04 #@! TO.N,N/C*
X110670000Y-102006000D03*
G04 #@! TO.P,U1,23*
X111170000Y-102006000D03*
G04 #@! TO.P,U1,24*
X111670000Y-102006000D03*
G04 #@! TO.P,U1,25*
X112170000Y-102006000D03*
G04 #@! TO.P,U1,26*
X112670000Y-102006000D03*
G04 #@! TO.P,U1,27*
G04 #@! TO.N,WAKEHW*
X113170000Y-102006000D03*
G04 #@! TO.P,U1,28*
G04 #@! TO.N,WAKESW*
X113670000Y-102006000D03*
G04 #@! TO.P,U1,29*
G04 #@! TO.N,VDD*
X114170000Y-102006000D03*
G04 #@! TO.P,U1,30*
G04 #@! TO.N,N/C*
X114670000Y-102006000D03*
G04 #@! TO.P,U1,31*
X115170000Y-102006000D03*
G04 #@! TO.P,U1,32*
G04 #@! TO.N,PIO1*
X115670000Y-102006000D03*
D15*
G04 #@! TO.P,U1,33*
G04 #@! TO.N,N/C*
X117620000Y-100056000D03*
G04 #@! TO.P,U1,34*
X117620000Y-99556000D03*
G04 #@! TO.P,U1,35*
X117620000Y-99056000D03*
G04 #@! TO.P,U1,36*
X117620000Y-98556000D03*
G04 #@! TO.P,U1,37*
X117620000Y-98056000D03*
G04 #@! TO.P,U1,38*
X117620000Y-97556000D03*
G04 #@! TO.P,U1,39*
X117620000Y-97056000D03*
G04 #@! TO.P,U1,40*
G04 #@! TO.N,SW3*
X117620000Y-96556000D03*
G04 #@! TO.P,U1,41*
G04 #@! TO.N,SW1*
X117620000Y-96056000D03*
G04 #@! TO.P,U1,42*
G04 #@! TO.N,SW2*
X117620000Y-95556000D03*
G04 #@! TO.P,U1,43*
G04 #@! TO.N,Net-(U1-Pad43)*
X117620000Y-95056000D03*
G04 #@! TO.P,U1,44*
G04 #@! TO.N,RXD*
X117620000Y-94556000D03*
G04 #@! TO.P,U1,45*
G04 #@! TO.N,TXD*
X117620000Y-94056000D03*
G04 #@! TO.P,U1,46*
G04 #@! TO.N,D6*
X117620000Y-93556000D03*
G04 #@! TO.P,U1,47*
G04 #@! TO.N,N/C*
X117620000Y-93056000D03*
G04 #@! TO.P,U1,48*
G04 #@! TO.N,A6*
X117620000Y-92556000D03*
D16*
G04 #@! TO.P,U1,49*
G04 #@! TO.N,A5*
X115670000Y-90606000D03*
G04 #@! TO.P,U1,50*
G04 #@! TO.N,A4*
X115170000Y-90606000D03*
G04 #@! TO.P,U1,51*
G04 #@! TO.N,A3*
X114670000Y-90606000D03*
G04 #@! TO.P,U1,52*
G04 #@! TO.N,A2*
X114170000Y-90606000D03*
G04 #@! TO.P,U1,53*
G04 #@! TO.N,BATT_ENABLE*
X113670000Y-90606000D03*
G04 #@! TO.P,U1,54*
G04 #@! TO.N,BATT_LEVEL*
X113170000Y-90606000D03*
G04 #@! TO.P,U1,55*
G04 #@! TO.N,GND*
X112670000Y-90606000D03*
G04 #@! TO.P,U1,56*
G04 #@! TO.N,+3V3*
X112170000Y-90606000D03*
G04 #@! TO.P,U1,57*
G04 #@! TO.N,N/C*
X111670000Y-90606000D03*
G04 #@! TO.P,U1,58*
X111170000Y-90606000D03*
G04 #@! TO.P,U1,59*
G04 #@! TO.N,D8/RXD*
X110670000Y-90606000D03*
G04 #@! TO.P,U1,60*
G04 #@! TO.N,D7/TXD*
X110170000Y-90606000D03*
G04 #@! TO.P,U1,61*
G04 #@! TO.N,N/C*
X109670000Y-90606000D03*
G04 #@! TO.P,U1,62*
X109170000Y-90606000D03*
G04 #@! TO.P,U1,63*
X108670000Y-90606000D03*
G04 #@! TO.P,U1,64*
X108170000Y-90606000D03*
G04 #@! TD*
D17*
G04 #@! TO.P,SCL,1*
G04 #@! TO.N,SCL*
X96950000Y-108650000D03*
G04 #@! TD*
G04 #@! TO.P,SDA,1*
G04 #@! TO.N,SDA*
X96950000Y-106550000D03*
G04 #@! TD*
G04 #@! TO.P,D6,1*
G04 #@! TO.N,D6*
X121625001Y-96075001D03*
G04 #@! TD*
G04 #@! TO.P,A6,1*
G04 #@! TO.N,A6*
X121625001Y-93950000D03*
G04 #@! TD*
G04 #@! TO.P,3V,1*
G04 #@! TO.N,+3V3*
X96950000Y-104450000D03*
G04 #@! TD*
D18*
G04 #@! TO.P,GND,1*
G04 #@! TO.N,GND*
X121650000Y-84850000D03*
G04 #@! TD*
D19*
G04 #@! TO.P,A2,1*
G04 #@! TO.N,A2*
X121650000Y-86650000D03*
G04 #@! TD*
G04 #@! TO.P,A3,1*
G04 #@! TO.N,A3*
X121650000Y-88350000D03*
G04 #@! TD*
G04 #@! TO.P,A4,1*
G04 #@! TO.N,A4*
X121650000Y-90050000D03*
G04 #@! TD*
G04 #@! TO.P,A5,1*
G04 #@! TO.N,A5*
X121650000Y-91750000D03*
G04 #@! TD*
D20*
G04 #@! TO.N,GND*
X113250000Y-92650004D03*
X119750000Y-85250000D03*
X111000000Y-111650000D03*
X115550018Y-110850000D03*
X102850000Y-110650000D03*
X120850002Y-110450000D03*
X116050000Y-99650000D03*
X105950000Y-110950000D03*
X109250000Y-98150000D03*
X98650000Y-101000000D03*
G04 #@! TO.N,+3V3*
X112000000Y-92650000D03*
X116150000Y-115450000D03*
X108475008Y-99424998D03*
X120468085Y-104290021D03*
G04 #@! TO.N,RXD*
X108542907Y-94351698D03*
G04 #@! TO.N,TXD*
X98750000Y-92150000D03*
G04 #@! TO.N,DTR*
X98750000Y-93400000D03*
G04 #@! TO.N,CTS*
X101750000Y-100150000D03*
X102750000Y-96900000D03*
X101750000Y-93650000D03*
G04 #@! TO.N,SW3*
X120550000Y-99950000D03*
G04 #@! TO.N,SW1*
X121466236Y-104350992D03*
G04 #@! TO.N,SW2*
X119800023Y-95550000D03*
G04 #@! TO.N,+BATT*
X103500000Y-115400000D03*
G04 #@! TO.N,VDD*
X119549994Y-101850000D03*
G04 #@! TO.N,STAT*
X120550000Y-106950000D03*
G04 #@! TO.N,D8/RXD*
X111167940Y-93454707D03*
G04 #@! TO.N,D7/TXD*
X110442930Y-94247773D03*
G04 #@! TO.N,WAKESW*
X113650000Y-100150000D03*
G04 #@! TO.N,WAKEHW*
X111760000Y-100330000D03*
G04 #@! TO.N,PIO1*
X114650000Y-100654684D03*
G04 #@! TO.N,Net-(U1-Pad43)*
X106000000Y-91180999D03*
G04 #@! TD*
D21*
G04 #@! TO.N,GND*
X107045001Y-98605999D02*
X107045001Y-98150000D01*
X106595000Y-97056000D02*
X106220000Y-97056000D01*
X105250000Y-106650000D02*
X105250000Y-104463590D01*
X105250000Y-104463590D02*
X106023599Y-103689991D01*
X106023599Y-103689991D02*
X108314991Y-103689991D01*
X108314991Y-103689991D02*
X108750000Y-104125000D01*
X108750000Y-104125000D02*
X108750000Y-106650000D01*
X105250000Y-108900000D02*
X105325001Y-108975001D01*
X105325001Y-108975001D02*
X106574999Y-108975001D01*
X106574999Y-108975001D02*
X106650000Y-108900000D01*
X106650000Y-108900000D02*
X106650000Y-106650000D01*
X106220000Y-99056000D02*
X106595000Y-99056000D01*
X106595000Y-99056000D02*
X107045001Y-98605999D01*
X107045001Y-97506001D02*
X106595000Y-97056000D01*
X106220000Y-97056000D02*
X106220000Y-96556000D01*
X106220000Y-97556000D02*
X106220000Y-97056000D01*
X106220000Y-99056000D02*
X106220000Y-98648001D01*
X107350000Y-106650000D02*
X107350000Y-108475000D01*
X112950000Y-106650000D02*
X112950000Y-108475000D01*
X113650000Y-106650000D02*
X113650000Y-108475000D01*
X114350000Y-106650000D02*
X114350000Y-108475000D01*
X115050000Y-106650000D02*
X115050000Y-108475000D01*
X119250000Y-106650000D02*
X118550000Y-106650000D01*
X115750000Y-106650000D02*
X112950000Y-106650000D01*
X110150000Y-106650000D02*
X108750000Y-106650000D01*
X107350000Y-106650000D02*
X106650000Y-106650000D01*
X109450000Y-108900000D02*
X109450000Y-106650000D01*
X107045001Y-98150000D02*
X107045001Y-97506001D01*
X112670000Y-92070004D02*
X113250000Y-92650004D01*
X112670000Y-90606000D02*
X112670000Y-92070004D01*
X105250000Y-106650000D02*
X105250000Y-108900000D01*
X109450000Y-110100000D02*
X109450000Y-106650000D01*
X111000000Y-111650000D02*
X109450000Y-110100000D01*
X110391000Y-112259000D02*
X111000000Y-111650000D01*
X109736000Y-112259000D02*
X110391000Y-112259000D01*
X105279372Y-106679372D02*
X105250000Y-106650000D01*
X104656000Y-112259000D02*
X105279372Y-111635628D01*
X104656000Y-112259000D02*
X102370000Y-112259000D01*
X112670000Y-89706410D02*
X112670000Y-90606000D01*
X112076579Y-89112989D02*
X112670000Y-89706410D01*
X110037989Y-89112989D02*
X112076579Y-89112989D01*
X108575000Y-87650000D02*
X110037989Y-89112989D01*
X111150000Y-85500000D02*
X115350000Y-85500000D01*
X119049990Y-84549990D02*
X119750000Y-85250000D01*
X116350010Y-84549990D02*
X119049990Y-84549990D01*
X115400000Y-85500000D02*
X116350010Y-84549990D01*
X115350000Y-85500000D02*
X115400000Y-85500000D01*
X115550018Y-109649982D02*
X115750000Y-109450000D01*
X115550018Y-110850000D02*
X115550018Y-109649982D01*
X115750000Y-109450000D02*
X115750000Y-106650000D01*
X121750000Y-114375000D02*
X119550000Y-114375000D01*
X117375000Y-114375000D02*
X117350000Y-114350000D01*
X119550000Y-114375000D02*
X117375000Y-114375000D01*
X115999991Y-111299973D02*
X115550018Y-110850000D01*
X115999991Y-112999991D02*
X115999991Y-111299973D01*
X117350000Y-114350000D02*
X115999991Y-112999991D01*
X102370000Y-111130000D02*
X102850000Y-110650000D01*
X102370000Y-112259000D02*
X102370000Y-111130000D01*
X115750000Y-104400000D02*
X115825001Y-104324999D01*
X118474999Y-104324999D02*
X118550000Y-104400000D01*
X115825001Y-104324999D02*
X118474999Y-104324999D01*
X118550000Y-104400000D02*
X118550000Y-106650000D01*
X115750000Y-106650000D02*
X115750000Y-104400000D01*
X118550000Y-109050000D02*
X119250001Y-109750001D01*
X119250000Y-106650000D02*
X119250001Y-109750001D01*
X118550000Y-106650000D02*
X118550000Y-109050000D01*
X119950000Y-110450000D02*
X120850002Y-110450000D01*
X119250001Y-109750001D02*
X119950000Y-110450000D01*
X100325000Y-101000000D02*
X100350000Y-100975000D01*
X97050000Y-101000000D02*
X100325000Y-101000000D01*
X105294000Y-99056000D02*
X103350000Y-101000000D01*
X106220000Y-99056000D02*
X105294000Y-99056000D01*
X103850000Y-104400000D02*
X103850000Y-106650000D01*
X103925001Y-104324999D02*
X103850000Y-104400000D01*
X104985001Y-104324999D02*
X103925001Y-104324999D01*
X105250000Y-104589998D02*
X104985001Y-104324999D01*
X105250000Y-106650000D02*
X105250000Y-104589998D01*
X99025001Y-104324999D02*
X98950000Y-104400000D01*
X98950000Y-104400000D02*
X98950000Y-106650000D01*
X103585001Y-104324999D02*
X99025001Y-104324999D01*
X103850000Y-104589998D02*
X103585001Y-104324999D01*
X103850000Y-106650000D02*
X103850000Y-104589998D01*
X105279372Y-110950000D02*
X105279372Y-106679372D01*
X105279372Y-111635628D02*
X105279372Y-110950000D01*
X105279372Y-110950000D02*
X105950000Y-110950000D01*
X107045001Y-98150000D02*
X109250000Y-98150000D01*
X114550000Y-98150000D02*
X109250000Y-98150000D01*
X116050000Y-99650000D02*
X114550000Y-98150000D01*
X98650000Y-100800000D02*
X98650000Y-101000000D01*
X97050000Y-101000000D02*
X98650000Y-101000000D01*
X121250000Y-85250000D02*
X121650000Y-84850000D01*
X119750000Y-85250000D02*
X121250000Y-85250000D01*
G04 #@! TO.N,+3V3*
X102116000Y-114534000D02*
X102116000Y-114409000D01*
X112170000Y-89856000D02*
X112170000Y-90606000D01*
X102475000Y-106675000D02*
X102450000Y-106650000D01*
X96934000Y-90638000D02*
X96934000Y-90738000D01*
X100236000Y-90638000D02*
X101136000Y-90638000D01*
X101136000Y-90638000D02*
X102211001Y-89562999D01*
X111876999Y-89562999D02*
X112170000Y-89856000D01*
X106220000Y-100056000D02*
X106220000Y-99556000D01*
X105845000Y-100056000D02*
X106220000Y-100056000D01*
X112000000Y-91576998D02*
X112000000Y-92650000D01*
X112170000Y-91406998D02*
X112000000Y-91576998D01*
X112170000Y-90606000D02*
X112170000Y-91406998D01*
X114816000Y-114309000D02*
X112276000Y-114309000D01*
X101100000Y-110726998D02*
X102450000Y-109376998D01*
X104756000Y-114634000D02*
X104656000Y-114534000D01*
X102370000Y-114409000D02*
X101100000Y-113139000D01*
X112276000Y-114634000D02*
X112276000Y-114734000D01*
X107196000Y-114734000D02*
X107196000Y-114634000D01*
X102370000Y-114534000D02*
X102370000Y-114409000D01*
X101100000Y-113139000D02*
X101100000Y-110726998D01*
X102450000Y-109376998D02*
X102450000Y-106650000D01*
X108096010Y-115209010D02*
X107196000Y-114309000D01*
X111375990Y-115209010D02*
X108096010Y-115209010D01*
X112276000Y-114309000D02*
X111375990Y-115209010D01*
X107196000Y-114309000D02*
X104656000Y-114309000D01*
X104656000Y-114309000D02*
X102370000Y-114309000D01*
X96934000Y-90963000D02*
X100236000Y-90963000D01*
X106650000Y-89562999D02*
X111876999Y-89562999D01*
X102211001Y-89562999D02*
X106650000Y-89562999D01*
X106525000Y-89437999D02*
X106650000Y-89562999D01*
X106525000Y-87650000D02*
X106525000Y-89437999D01*
X114816000Y-114309000D02*
X115957000Y-115450000D01*
X115957000Y-115450000D02*
X116150000Y-115450000D01*
X106220000Y-100056000D02*
X107844006Y-100056000D01*
X107844006Y-100056000D02*
X108475008Y-99424998D01*
X119924992Y-100624992D02*
X120468085Y-101168085D01*
X120468085Y-101168085D02*
X120468085Y-104290021D01*
X115693310Y-100624992D02*
X119924992Y-100624992D01*
X114493316Y-99424998D02*
X115693310Y-100624992D01*
X108475008Y-99424998D02*
X114493316Y-99424998D01*
X104550000Y-108900000D02*
X104550000Y-106650000D01*
X104474999Y-108975001D02*
X104550000Y-108900000D01*
X102525001Y-108975001D02*
X104474999Y-108975001D01*
X102450000Y-108900000D02*
X102525001Y-108975001D01*
X102450000Y-106650000D02*
X102450000Y-108900000D01*
X106220000Y-100431000D02*
X103851010Y-102799990D01*
X98600010Y-102799990D02*
X96950000Y-104450000D01*
X103851010Y-102799990D02*
X98600010Y-102799990D01*
X106220000Y-100056000D02*
X106220000Y-100431000D01*
G04 #@! TO.N,Net-(C1-Pad1)*
X105044000Y-98056000D02*
X106220000Y-98056000D01*
X104150000Y-98950000D02*
X105044000Y-98056000D01*
X103350000Y-98950000D02*
X104150000Y-98950000D01*
G04 #@! TO.N,Net-(C3-Pad1)*
X104702180Y-95556000D02*
X106220000Y-95556000D01*
X104271179Y-95124999D02*
X104702180Y-95556000D01*
X98400001Y-95124999D02*
X104271179Y-95124999D01*
X97200000Y-96325000D02*
X98400001Y-95124999D01*
X97200000Y-96350000D02*
X97200000Y-96325000D01*
X97200000Y-98800000D02*
X97050000Y-98950000D01*
X97200000Y-96350000D02*
X97200000Y-98800000D01*
G04 #@! TO.N,Net-(C4-Pad1)*
X100744000Y-96056000D02*
X100450000Y-96350000D01*
X106220000Y-96056000D02*
X100744000Y-96056000D01*
X100450000Y-98825000D02*
X100350000Y-98925000D01*
X100450000Y-96350000D02*
X100450000Y-98825000D01*
G04 #@! TO.N,Net-(C5-Pad1)*
X96934000Y-111426002D02*
X96934000Y-112299000D01*
X99650000Y-108710002D02*
X96934000Y-111426002D01*
X99650000Y-106650000D02*
X99650000Y-108710002D01*
G04 #@! TO.N,Net-(C5-Pad2)*
X96934000Y-114449000D02*
X96934000Y-114574000D01*
X97034000Y-114349000D02*
X97500000Y-113883000D01*
X96934000Y-114349000D02*
X97034000Y-114349000D01*
X97500000Y-113883000D02*
X96934000Y-114449000D01*
X97959010Y-111290990D02*
X100350000Y-108900000D01*
X97959010Y-113323990D02*
X97959010Y-111290990D01*
X100350000Y-108900000D02*
X100350000Y-106650000D01*
X96934000Y-114349000D02*
X97959010Y-113323990D01*
G04 #@! TO.N,Net-(C6-Pad1)*
X99474000Y-112299000D02*
X99474000Y-112074000D01*
X101050000Y-108836410D02*
X101050000Y-106650000D01*
X99474000Y-110412410D02*
X101050000Y-108836410D01*
X99474000Y-112299000D02*
X99474000Y-110412410D01*
G04 #@! TO.N,Net-(C6-Pad2)*
X99474000Y-114574000D02*
X99574000Y-114349000D01*
X99574000Y-114349000D02*
X99474000Y-114349000D01*
X100499010Y-113323990D02*
X99474000Y-114349000D01*
X101750000Y-108900000D02*
X100499010Y-110150990D01*
X100499010Y-110150990D02*
X100499010Y-113323990D01*
X101750000Y-106650000D02*
X101750000Y-108900000D01*
G04 #@! TO.N,Net-(C7-Pad1)*
X117150000Y-109925000D02*
X119550000Y-112325000D01*
X117150000Y-106650000D02*
X117150000Y-109925000D01*
G04 #@! TO.N,Net-(C8-Pad1)*
X120849990Y-111424990D02*
X121750000Y-112325000D01*
X117850000Y-106650000D02*
X117850000Y-109523002D01*
X119751988Y-111424990D02*
X120849990Y-111424990D01*
X117850000Y-109523002D02*
X119751988Y-111424990D01*
G04 #@! TO.N,RXD*
X117609400Y-94545400D02*
X117620000Y-94556000D01*
X116870000Y-94556000D02*
X115718356Y-95707644D01*
X109898853Y-95707644D02*
X108542907Y-94351698D01*
X117620000Y-94556000D02*
X116870000Y-94556000D01*
X115718356Y-95707644D02*
X109898853Y-95707644D01*
G04 #@! TO.N,TXD*
X103284000Y-90638000D02*
X103284000Y-90738000D01*
X99315685Y-92150000D02*
X98750000Y-92150000D01*
X99352695Y-92112990D02*
X99315685Y-92150000D01*
X100674200Y-92112990D02*
X99352695Y-92112990D01*
X101824190Y-90963000D02*
X100674200Y-92112990D01*
X103284000Y-90963000D02*
X101824190Y-90963000D01*
X103907372Y-90339628D02*
X103284000Y-90963000D01*
X106231631Y-90339628D02*
X103907372Y-90339628D01*
X109000000Y-93051676D02*
X108943679Y-93051676D01*
X108943679Y-93051676D02*
X106231631Y-90339628D01*
X106404322Y-90455998D02*
X109000000Y-93051676D01*
X109717928Y-93769604D02*
X109717928Y-94595775D01*
X115531956Y-95257634D02*
X116733590Y-94056000D01*
X116733590Y-94056000D02*
X117620000Y-94056000D01*
X109717928Y-94595775D02*
X110379787Y-95257634D01*
X109000000Y-93051676D02*
X109717928Y-93769604D01*
X110379787Y-95257634D02*
X115531956Y-95257634D01*
G04 #@! TO.N,DTR*
X98363000Y-93013000D02*
X98750000Y-93400000D01*
X96934000Y-93013000D02*
X98363000Y-93013000D01*
X96934000Y-93338000D02*
X96996000Y-93400000D01*
X106170010Y-95006010D02*
X104788599Y-95006009D01*
X96934000Y-93438000D02*
X96934000Y-93338000D01*
X106220000Y-95056000D02*
X106170010Y-95006010D01*
X104788599Y-95006009D02*
X104232590Y-94450000D01*
X104232590Y-94450000D02*
X97946000Y-94450000D01*
X97946000Y-94450000D02*
X96934000Y-93438000D01*
G04 #@! TO.N,CTS*
X103757000Y-93338000D02*
X104975000Y-94556000D01*
X104975000Y-94556000D02*
X106220000Y-94556000D01*
X103284000Y-93338000D02*
X103757000Y-93338000D01*
X101750000Y-100150000D02*
X101750000Y-97900000D01*
X101750000Y-97900000D02*
X102750000Y-96900000D01*
X103284000Y-93013000D02*
X101750000Y-93013000D01*
X101750000Y-93013000D02*
X100236000Y-93013000D01*
X101750000Y-93013000D02*
X101750000Y-93650000D01*
G04 #@! TO.N,Net-(R4-Pad1)*
X116492000Y-106608000D02*
X116450000Y-106650000D01*
X116450000Y-111400000D02*
X116450000Y-106650000D01*
X117350000Y-112300000D02*
X116450000Y-111400000D01*
G04 #@! TO.N,SCL*
X112276000Y-111934000D02*
X112276000Y-110934000D01*
X112276000Y-110934000D02*
X110850000Y-109508000D01*
X110850000Y-109508000D02*
X110850000Y-106650000D01*
X108170000Y-102006000D02*
X108170000Y-102892410D01*
X110850000Y-104589998D02*
X110850000Y-106650000D01*
X108170000Y-102892410D02*
X109602589Y-104324999D01*
X109602589Y-104324999D02*
X110585001Y-104324999D01*
X110585001Y-104324999D02*
X110850000Y-104589998D01*
X107094000Y-102006000D02*
X108170000Y-102006000D01*
X105860018Y-103239982D02*
X107094000Y-102006000D01*
X105837198Y-103239982D02*
X105860018Y-103239982D01*
X98838601Y-103874989D02*
X105171401Y-103874989D01*
X98449999Y-107150001D02*
X98449999Y-104263591D01*
X96950000Y-108650000D02*
X98449999Y-107150001D01*
X105171401Y-103874989D02*
X105186796Y-103890384D01*
X98449999Y-104263591D02*
X98838601Y-103874989D01*
X105186796Y-103890384D02*
X105837198Y-103239982D01*
G04 #@! TO.N,SDA*
X112250000Y-109268000D02*
X112250000Y-106650000D01*
X108670000Y-102006000D02*
X108670000Y-102756000D01*
X111550000Y-104400000D02*
X111550000Y-106650000D01*
X108670000Y-102756000D02*
X109788989Y-103874989D01*
X111024989Y-103874989D02*
X111550000Y-104400000D01*
X109788989Y-103874989D02*
X111024989Y-103874989D01*
X111550000Y-106650000D02*
X111550000Y-108475000D01*
X111550000Y-106650000D02*
X111550000Y-108568000D01*
X112250000Y-109693000D02*
X112250000Y-106650000D01*
X114816000Y-112259000D02*
X112250000Y-109693000D01*
X111550000Y-106650000D02*
X112250000Y-106650000D01*
X108670000Y-101256000D02*
X108670000Y-102006000D01*
X108594999Y-101180999D02*
X108670000Y-101256000D01*
X96950000Y-106550000D02*
X97999990Y-105500010D01*
X105190770Y-103250000D02*
X107259771Y-101180999D01*
X97999990Y-105500010D02*
X97999990Y-104077190D01*
X97999990Y-104077190D02*
X98827180Y-103250000D01*
X98827180Y-103250000D02*
X105190770Y-103250000D01*
X107259771Y-101180999D02*
X108594999Y-101180999D01*
G04 #@! TO.N,SW3*
X120550000Y-98736000D02*
X120550000Y-99950000D01*
X117620000Y-96556000D02*
X118370000Y-96556000D01*
X118370000Y-96556000D02*
X120550000Y-98736000D01*
G04 #@! TO.N,SW1*
X118506410Y-96056000D02*
X121466236Y-99015826D01*
X121466236Y-99015826D02*
X121466236Y-104350992D01*
X117620000Y-96056000D02*
X118506410Y-96056000D01*
G04 #@! TO.N,SW2*
X117620000Y-95556000D02*
X119794023Y-95556000D01*
X119794023Y-95556000D02*
X119800023Y-95550000D01*
G04 #@! TO.N,Net-(C11-Pad1)*
X105950000Y-106650000D02*
X105950000Y-104400000D01*
X105950000Y-104400000D02*
X106210000Y-104140000D01*
X107790000Y-104140000D02*
X108050000Y-104400000D01*
X108050000Y-104400000D02*
X108050000Y-106650000D01*
X106210000Y-104140000D02*
X107790000Y-104140000D01*
X109736000Y-114534000D02*
X109736000Y-114409000D01*
X109736000Y-114409000D02*
X107261000Y-111934000D01*
X107261000Y-111934000D02*
X107196000Y-111934000D01*
X107196000Y-111934000D02*
X107196000Y-110934000D01*
X107196000Y-110934000D02*
X108050000Y-110080000D01*
X108050000Y-110080000D02*
X108050000Y-106650000D01*
G04 #@! TO.N,+BATT*
X99775000Y-87525000D02*
X100000000Y-87300000D01*
X97000000Y-87525000D02*
X99775000Y-87525000D01*
X95886999Y-88638001D02*
X97000000Y-87525000D01*
X95886999Y-114890189D02*
X95886999Y-88638001D01*
X96396810Y-115400000D02*
X95886999Y-114890189D01*
X103500000Y-115400000D02*
X96396810Y-115400000D01*
G04 #@! TO.N,Net-(Q2-Pad1)*
X115700000Y-87400000D02*
X117650000Y-85450000D01*
X115350000Y-87400000D02*
X115700000Y-87400000D01*
G04 #@! TO.N,Net-(Q2-Pad3)*
X110511810Y-86450000D02*
X113350000Y-86450000D01*
X110135182Y-86073372D02*
X110511810Y-86450000D01*
X109223372Y-86073372D02*
X110135182Y-86073372D01*
X108600000Y-85450000D02*
X109223372Y-86073372D01*
G04 #@! TO.N,Net-(Q3-Pad1)*
X99750000Y-85150000D02*
X100000000Y-85400000D01*
X99925000Y-85475000D02*
X100000000Y-85400000D01*
X97000000Y-85475000D02*
X99925000Y-85475000D01*
X105674990Y-84574990D02*
X106550000Y-85450000D01*
X101525010Y-84574990D02*
X105674990Y-84574990D01*
X100700000Y-85400000D02*
X101525010Y-84574990D01*
X100000000Y-85400000D02*
X100700000Y-85400000D01*
G04 #@! TO.N,Net-(Q3-Pad3)*
X102000000Y-86350000D02*
X102900000Y-86350000D01*
X102900000Y-86350000D02*
X104000000Y-85250000D01*
X104000000Y-85250000D02*
X104000000Y-85150000D01*
G04 #@! TO.N,VDD*
X114170000Y-102756000D02*
X114245001Y-102831001D01*
X118568993Y-102831001D02*
X119549994Y-101850000D01*
X114245001Y-102831001D02*
X118568993Y-102831001D01*
X114170000Y-102006000D02*
X114170000Y-102756000D01*
G04 #@! TO.N,BATT_ENABLE*
X113670000Y-90606000D02*
X113719999Y-90556001D01*
X113670000Y-90606000D02*
X113670000Y-88730000D01*
X113670000Y-88730000D02*
X114274999Y-88125001D01*
X114274999Y-88125001D02*
X117024999Y-88125001D01*
X117024999Y-88125001D02*
X117650000Y-87500000D01*
G04 #@! TO.N,BATT_LEVEL*
X113170000Y-89856000D02*
X113170000Y-90606000D01*
X113170000Y-89796000D02*
X113170000Y-90606000D01*
X113170000Y-89570000D02*
X113170000Y-90606000D01*
X111150000Y-87550000D02*
X113170000Y-89570000D01*
X110150000Y-87550000D02*
X111150000Y-87550000D01*
X109224990Y-86624990D02*
X110150000Y-87550000D01*
X105700010Y-86624990D02*
X109224990Y-86624990D01*
X104000000Y-87525000D02*
X104800000Y-87525000D01*
X104800000Y-87525000D02*
X105700010Y-86624990D01*
G04 #@! TO.N,STAT*
X119750001Y-106150001D02*
X120550000Y-106950000D01*
X118641012Y-103281010D02*
X119750001Y-104389999D01*
X110695010Y-103281010D02*
X118641012Y-103281010D01*
X110170000Y-102756000D02*
X110695010Y-103281010D01*
X110170000Y-102006000D02*
X110170000Y-102756000D01*
X119750001Y-104389999D02*
X119750001Y-106150001D01*
G04 #@! TO.N,D8/RXD*
X110670000Y-90606000D02*
X110670000Y-92956767D01*
X110670000Y-92956767D02*
X111167940Y-93454707D01*
G04 #@! TO.N,D7/TXD*
X110170000Y-90606000D02*
X110170000Y-90982000D01*
X110170000Y-93974843D02*
X110442930Y-94247773D01*
X110170000Y-90606000D02*
X110170000Y-93974843D01*
G04 #@! TO.N,WAKESW*
X113670000Y-100170000D02*
X113650000Y-100150000D01*
X113670000Y-102006000D02*
X113670000Y-100170000D01*
G04 #@! TO.N,WAKEHW*
X112325685Y-100330000D02*
X111760000Y-100330000D01*
X113170000Y-101174315D02*
X112325685Y-100330000D01*
X113170000Y-102006000D02*
X113170000Y-101174315D01*
G04 #@! TO.N,PIO1*
X115068684Y-100654684D02*
X114650000Y-100654684D01*
X115670000Y-101256000D02*
X115068684Y-100654684D01*
X115670000Y-102006000D02*
X115670000Y-101256000D01*
G04 #@! TO.N,Net-(U1-Pad43)*
X117006410Y-95056000D02*
X117620000Y-95056000D01*
X115904757Y-96157653D02*
X117006410Y-95056000D01*
X109434649Y-96157653D02*
X115904757Y-96157653D01*
X106000000Y-91180999D02*
X107817906Y-92998905D01*
X107817906Y-94699699D02*
X109243205Y-96124998D01*
X109530658Y-96157654D02*
X115904756Y-96157654D01*
X109498002Y-96124998D02*
X109530658Y-96157654D01*
X115904756Y-96157654D02*
X117006410Y-95056000D01*
X107817906Y-92998905D02*
X107817906Y-94699699D01*
X109243205Y-96124998D02*
X109498002Y-96124998D01*
G04 #@! TO.N,D6*
X119106000Y-93556000D02*
X117620000Y-93556000D01*
X121625001Y-96075001D02*
X119106000Y-93556000D01*
G04 #@! TO.N,A6*
X120231001Y-92556000D02*
X117620000Y-92556000D01*
X121625001Y-93950000D02*
X120231001Y-92556000D01*
G04 #@! TO.N,A2*
X119724989Y-88575011D02*
X121650000Y-86650000D01*
X115314579Y-88575011D02*
X119724989Y-88575011D01*
X114170000Y-89719590D02*
X115314579Y-88575011D01*
X114170000Y-90606000D02*
X114170000Y-89719590D01*
G04 #@! TO.N,A3*
X120974979Y-89025021D02*
X121650000Y-88350000D01*
X115500979Y-89025021D02*
X120974979Y-89025021D01*
X114670000Y-89856000D02*
X115500979Y-89025021D01*
X114670000Y-90606000D02*
X114670000Y-89856000D01*
G04 #@! TO.N,A4*
X121150001Y-89550001D02*
X115612409Y-89550001D01*
X121650000Y-90050000D02*
X121150001Y-89550001D01*
X115170000Y-89992410D02*
X115170000Y-90606000D01*
X115612409Y-89550001D02*
X115170000Y-89992410D01*
G04 #@! TO.N,A5*
X120506000Y-90606000D02*
X115670000Y-90606000D01*
X121650000Y-91750000D02*
X120506000Y-90606000D01*
G04 #@! TD*
D22*
G04 #@! TO.N,GND*
G36*
X117477000Y-114223000D02*
X118348750Y-114223000D01*
X118373750Y-114248000D01*
X119423000Y-114248000D01*
X119423000Y-114228000D01*
X119677000Y-114228000D01*
X119677000Y-114248000D01*
X121623000Y-114248000D01*
X121623000Y-114228000D01*
X121877000Y-114228000D01*
X121877000Y-114248000D01*
X121897000Y-114248000D01*
X121897000Y-114502000D01*
X121877000Y-114502000D01*
X121877000Y-115426250D01*
X122035750Y-115585000D01*
X122540000Y-115585000D01*
X122540000Y-116107968D01*
X122472862Y-116135777D01*
X122148438Y-116352549D01*
X122015988Y-116485000D01*
X121977988Y-116523000D01*
X96522013Y-116523000D01*
X96351562Y-116352550D01*
X96351561Y-116352549D01*
X96027138Y-116135776D01*
X95960000Y-116107967D01*
X95960000Y-116022176D01*
X96100273Y-116115904D01*
X96321958Y-116160000D01*
X96321962Y-116160000D01*
X96396810Y-116174888D01*
X96471658Y-116160000D01*
X102796289Y-116160000D01*
X102913720Y-116277431D01*
X103294126Y-116435000D01*
X103705874Y-116435000D01*
X104086280Y-116277431D01*
X104377431Y-115986280D01*
X104535000Y-115605874D01*
X104535000Y-115531440D01*
X105106001Y-115531440D01*
X105449436Y-115463127D01*
X105740586Y-115268586D01*
X105873946Y-115069000D01*
X105978054Y-115069000D01*
X106111414Y-115268586D01*
X106402564Y-115463127D01*
X106745999Y-115531440D01*
X107343638Y-115531440D01*
X107505683Y-115693485D01*
X107548081Y-115756939D01*
X107611534Y-115799337D01*
X107611536Y-115799339D01*
X107736912Y-115883112D01*
X107799473Y-115924914D01*
X108021158Y-115969010D01*
X108021162Y-115969010D01*
X108096009Y-115983898D01*
X108170856Y-115969010D01*
X111301143Y-115969010D01*
X111375990Y-115983898D01*
X111450837Y-115969010D01*
X111450842Y-115969010D01*
X111672527Y-115924914D01*
X111923919Y-115756939D01*
X111966321Y-115693481D01*
X112128362Y-115531440D01*
X112726001Y-115531440D01*
X113069436Y-115463127D01*
X113360586Y-115268586D01*
X113493946Y-115069000D01*
X113598054Y-115069000D01*
X113731414Y-115268586D01*
X114022564Y-115463127D01*
X114365999Y-115531440D01*
X114963638Y-115531440D01*
X115134041Y-115701842D01*
X115272569Y-116036280D01*
X115563720Y-116327431D01*
X115944126Y-116485000D01*
X116355874Y-116485000D01*
X116736280Y-116327431D01*
X117027431Y-116036280D01*
X117185000Y-115655874D01*
X117185000Y-115439250D01*
X117223000Y-115401250D01*
X117223000Y-114477000D01*
X117477000Y-114477000D01*
X117477000Y-115401250D01*
X117635750Y-115560000D01*
X118176310Y-115560000D01*
X118409699Y-115463327D01*
X118437500Y-115435526D01*
X118490301Y-115488327D01*
X118723690Y-115585000D01*
X119264250Y-115585000D01*
X119423000Y-115426250D01*
X119423000Y-114502000D01*
X119677000Y-114502000D01*
X119677000Y-115426250D01*
X119835750Y-115585000D01*
X120376310Y-115585000D01*
X120609699Y-115488327D01*
X120650000Y-115448026D01*
X120690301Y-115488327D01*
X120923690Y-115585000D01*
X121464250Y-115585000D01*
X121623000Y-115426250D01*
X121623000Y-114502000D01*
X119677000Y-114502000D01*
X119423000Y-114502000D01*
X118551250Y-114502000D01*
X118526250Y-114477000D01*
X117477000Y-114477000D01*
X117223000Y-114477000D01*
X117203000Y-114477000D01*
X117203000Y-114223000D01*
X117223000Y-114223000D01*
X117223000Y-114203000D01*
X117477000Y-114203000D01*
X117477000Y-114223000D01*
X117477000Y-114223000D01*
G37*
X117477000Y-114223000D02*
X118348750Y-114223000D01*
X118373750Y-114248000D01*
X119423000Y-114248000D01*
X119423000Y-114228000D01*
X119677000Y-114228000D01*
X119677000Y-114248000D01*
X121623000Y-114248000D01*
X121623000Y-114228000D01*
X121877000Y-114228000D01*
X121877000Y-114248000D01*
X121897000Y-114248000D01*
X121897000Y-114502000D01*
X121877000Y-114502000D01*
X121877000Y-115426250D01*
X122035750Y-115585000D01*
X122540000Y-115585000D01*
X122540000Y-116107968D01*
X122472862Y-116135777D01*
X122148438Y-116352549D01*
X122015988Y-116485000D01*
X121977988Y-116523000D01*
X96522013Y-116523000D01*
X96351562Y-116352550D01*
X96351561Y-116352549D01*
X96027138Y-116135776D01*
X95960000Y-116107967D01*
X95960000Y-116022176D01*
X96100273Y-116115904D01*
X96321958Y-116160000D01*
X96321962Y-116160000D01*
X96396810Y-116174888D01*
X96471658Y-116160000D01*
X102796289Y-116160000D01*
X102913720Y-116277431D01*
X103294126Y-116435000D01*
X103705874Y-116435000D01*
X104086280Y-116277431D01*
X104377431Y-115986280D01*
X104535000Y-115605874D01*
X104535000Y-115531440D01*
X105106001Y-115531440D01*
X105449436Y-115463127D01*
X105740586Y-115268586D01*
X105873946Y-115069000D01*
X105978054Y-115069000D01*
X106111414Y-115268586D01*
X106402564Y-115463127D01*
X106745999Y-115531440D01*
X107343638Y-115531440D01*
X107505683Y-115693485D01*
X107548081Y-115756939D01*
X107611534Y-115799337D01*
X107611536Y-115799339D01*
X107736912Y-115883112D01*
X107799473Y-115924914D01*
X108021158Y-115969010D01*
X108021162Y-115969010D01*
X108096009Y-115983898D01*
X108170856Y-115969010D01*
X111301143Y-115969010D01*
X111375990Y-115983898D01*
X111450837Y-115969010D01*
X111450842Y-115969010D01*
X111672527Y-115924914D01*
X111923919Y-115756939D01*
X111966321Y-115693481D01*
X112128362Y-115531440D01*
X112726001Y-115531440D01*
X113069436Y-115463127D01*
X113360586Y-115268586D01*
X113493946Y-115069000D01*
X113598054Y-115069000D01*
X113731414Y-115268586D01*
X114022564Y-115463127D01*
X114365999Y-115531440D01*
X114963638Y-115531440D01*
X115134041Y-115701842D01*
X115272569Y-116036280D01*
X115563720Y-116327431D01*
X115944126Y-116485000D01*
X116355874Y-116485000D01*
X116736280Y-116327431D01*
X117027431Y-116036280D01*
X117185000Y-115655874D01*
X117185000Y-115439250D01*
X117223000Y-115401250D01*
X117223000Y-114477000D01*
X117477000Y-114477000D01*
X117477000Y-115401250D01*
X117635750Y-115560000D01*
X118176310Y-115560000D01*
X118409699Y-115463327D01*
X118437500Y-115435526D01*
X118490301Y-115488327D01*
X118723690Y-115585000D01*
X119264250Y-115585000D01*
X119423000Y-115426250D01*
X119423000Y-114502000D01*
X119677000Y-114502000D01*
X119677000Y-115426250D01*
X119835750Y-115585000D01*
X120376310Y-115585000D01*
X120609699Y-115488327D01*
X120650000Y-115448026D01*
X120690301Y-115488327D01*
X120923690Y-115585000D01*
X121464250Y-115585000D01*
X121623000Y-115426250D01*
X121623000Y-114502000D01*
X119677000Y-114502000D01*
X119423000Y-114502000D01*
X118551250Y-114502000D01*
X118526250Y-114477000D01*
X117477000Y-114477000D01*
X117223000Y-114477000D01*
X117203000Y-114477000D01*
X117203000Y-114223000D01*
X117223000Y-114223000D01*
X117223000Y-114203000D01*
X117477000Y-114203000D01*
X117477000Y-114223000D01*
G36*
X116070873Y-112968436D02*
X116265414Y-113259586D01*
X116266597Y-113260377D01*
X116111673Y-113415302D01*
X116047741Y-113569647D01*
X115900586Y-113349414D01*
X115802687Y-113284000D01*
X115900586Y-113218586D01*
X116070152Y-112964813D01*
X116070873Y-112968436D01*
X116070873Y-112968436D01*
G37*
X116070873Y-112968436D02*
X116265414Y-113259586D01*
X116266597Y-113260377D01*
X116111673Y-113415302D01*
X116047741Y-113569647D01*
X115900586Y-113349414D01*
X115802687Y-113284000D01*
X115900586Y-113218586D01*
X116070152Y-112964813D01*
X116070873Y-112968436D01*
G36*
X109537500Y-109110525D02*
X109537500Y-109126250D01*
X109696250Y-109285000D01*
X109751309Y-109285000D01*
X109800000Y-109264832D01*
X109848691Y-109285000D01*
X109903750Y-109285000D01*
X110022998Y-109165752D01*
X110022998Y-109285000D01*
X110090000Y-109285000D01*
X110090000Y-109433153D01*
X110075112Y-109508000D01*
X110090000Y-109582847D01*
X110090000Y-109582851D01*
X110134096Y-109804536D01*
X110302071Y-110055929D01*
X110365530Y-110098331D01*
X111416329Y-111149130D01*
X111191414Y-111299414D01*
X111051039Y-111509500D01*
X110974327Y-111324302D01*
X110795699Y-111145673D01*
X110562310Y-111049000D01*
X110021750Y-111049000D01*
X109863000Y-111207750D01*
X109863000Y-112132000D01*
X109883000Y-112132000D01*
X109883000Y-112386000D01*
X109863000Y-112386000D01*
X109863000Y-112406000D01*
X109609000Y-112406000D01*
X109609000Y-112386000D01*
X109589000Y-112386000D01*
X109589000Y-112132000D01*
X109609000Y-112132000D01*
X109609000Y-111207750D01*
X109450250Y-111049000D01*
X108909690Y-111049000D01*
X108676301Y-111145673D01*
X108497673Y-111324302D01*
X108420961Y-111509500D01*
X108280586Y-111299414D01*
X108055671Y-111149130D01*
X108534476Y-110670327D01*
X108597929Y-110627929D01*
X108640327Y-110564476D01*
X108640329Y-110564474D01*
X108741934Y-110412410D01*
X108765904Y-110376537D01*
X108810000Y-110154852D01*
X108810000Y-110154848D01*
X108824888Y-110080001D01*
X108810000Y-110005154D01*
X108810000Y-109285000D01*
X108877002Y-109285000D01*
X108877002Y-109165752D01*
X108996250Y-109285000D01*
X109051309Y-109285000D01*
X109100000Y-109264832D01*
X109148691Y-109285000D01*
X109203750Y-109285000D01*
X109362500Y-109126250D01*
X109362500Y-109110525D01*
X109450000Y-109023026D01*
X109537500Y-109110525D01*
X109537500Y-109110525D01*
G37*
X109537500Y-109110525D02*
X109537500Y-109126250D01*
X109696250Y-109285000D01*
X109751309Y-109285000D01*
X109800000Y-109264832D01*
X109848691Y-109285000D01*
X109903750Y-109285000D01*
X110022998Y-109165752D01*
X110022998Y-109285000D01*
X110090000Y-109285000D01*
X110090000Y-109433153D01*
X110075112Y-109508000D01*
X110090000Y-109582847D01*
X110090000Y-109582851D01*
X110134096Y-109804536D01*
X110302071Y-110055929D01*
X110365530Y-110098331D01*
X111416329Y-111149130D01*
X111191414Y-111299414D01*
X111051039Y-111509500D01*
X110974327Y-111324302D01*
X110795699Y-111145673D01*
X110562310Y-111049000D01*
X110021750Y-111049000D01*
X109863000Y-111207750D01*
X109863000Y-112132000D01*
X109883000Y-112132000D01*
X109883000Y-112386000D01*
X109863000Y-112386000D01*
X109863000Y-112406000D01*
X109609000Y-112406000D01*
X109609000Y-112386000D01*
X109589000Y-112386000D01*
X109589000Y-112132000D01*
X109609000Y-112132000D01*
X109609000Y-111207750D01*
X109450250Y-111049000D01*
X108909690Y-111049000D01*
X108676301Y-111145673D01*
X108497673Y-111324302D01*
X108420961Y-111509500D01*
X108280586Y-111299414D01*
X108055671Y-111149130D01*
X108534476Y-110670327D01*
X108597929Y-110627929D01*
X108640327Y-110564476D01*
X108640329Y-110564474D01*
X108741934Y-110412410D01*
X108765904Y-110376537D01*
X108810000Y-110154852D01*
X108810000Y-110154848D01*
X108824888Y-110080001D01*
X108810000Y-110005154D01*
X108810000Y-109285000D01*
X108877002Y-109285000D01*
X108877002Y-109165752D01*
X108996250Y-109285000D01*
X109051309Y-109285000D01*
X109100000Y-109264832D01*
X109148691Y-109285000D01*
X109203750Y-109285000D01*
X109362500Y-109126250D01*
X109362500Y-109110525D01*
X109450000Y-109023026D01*
X109537500Y-109110525D01*
G36*
X106737500Y-109110525D02*
X106737500Y-109126250D01*
X106896250Y-109285000D01*
X106951309Y-109285000D01*
X107000000Y-109264832D01*
X107048691Y-109285000D01*
X107103750Y-109285000D01*
X107222998Y-109165752D01*
X107222998Y-109285000D01*
X107290000Y-109285000D01*
X107290000Y-109765197D01*
X106711527Y-110343671D01*
X106648072Y-110386071D01*
X106605672Y-110449527D01*
X106605671Y-110449528D01*
X106480097Y-110637463D01*
X106421112Y-110934000D01*
X106436001Y-111008851D01*
X106436001Y-111098222D01*
X106402564Y-111104873D01*
X106111414Y-111299414D01*
X105971039Y-111509500D01*
X105894327Y-111324302D01*
X105715699Y-111145673D01*
X105482310Y-111049000D01*
X104941750Y-111049000D01*
X104783000Y-111207750D01*
X104783000Y-112132000D01*
X104803000Y-112132000D01*
X104803000Y-112386000D01*
X104783000Y-112386000D01*
X104783000Y-112406000D01*
X104529000Y-112406000D01*
X104529000Y-112386000D01*
X102497000Y-112386000D01*
X102497000Y-112406000D01*
X102243000Y-112406000D01*
X102243000Y-112386000D01*
X102223000Y-112386000D01*
X102223000Y-112132000D01*
X102243000Y-112132000D01*
X102243000Y-111207750D01*
X102497000Y-111207750D01*
X102497000Y-112132000D01*
X104529000Y-112132000D01*
X104529000Y-111207750D01*
X104370250Y-111049000D01*
X103829690Y-111049000D01*
X103596301Y-111145673D01*
X103513000Y-111228974D01*
X103429699Y-111145673D01*
X103196310Y-111049000D01*
X102655750Y-111049000D01*
X102497000Y-111207750D01*
X102243000Y-111207750D01*
X102084250Y-111049000D01*
X101860000Y-111049000D01*
X101860000Y-111041799D01*
X102934476Y-109967325D01*
X102997929Y-109924927D01*
X103040327Y-109861474D01*
X103040329Y-109861472D01*
X103124834Y-109735001D01*
X104400152Y-109735001D01*
X104474999Y-109749889D01*
X104549846Y-109735001D01*
X104549851Y-109735001D01*
X104771536Y-109690905D01*
X105022928Y-109522930D01*
X105052969Y-109477970D01*
X105097929Y-109447929D01*
X105265904Y-109196537D01*
X105291270Y-109069015D01*
X105317191Y-109107809D01*
X105337500Y-109121379D01*
X105337500Y-109126250D01*
X105496250Y-109285000D01*
X105551309Y-109285000D01*
X105603589Y-109263345D01*
X105775000Y-109297440D01*
X106125000Y-109297440D01*
X106296411Y-109263345D01*
X106348691Y-109285000D01*
X106403750Y-109285000D01*
X106562500Y-109126250D01*
X106562500Y-109121379D01*
X106582809Y-109107809D01*
X106643682Y-109016708D01*
X106737500Y-109110525D01*
X106737500Y-109110525D01*
G37*
X106737500Y-109110525D02*
X106737500Y-109126250D01*
X106896250Y-109285000D01*
X106951309Y-109285000D01*
X107000000Y-109264832D01*
X107048691Y-109285000D01*
X107103750Y-109285000D01*
X107222998Y-109165752D01*
X107222998Y-109285000D01*
X107290000Y-109285000D01*
X107290000Y-109765197D01*
X106711527Y-110343671D01*
X106648072Y-110386071D01*
X106605672Y-110449527D01*
X106605671Y-110449528D01*
X106480097Y-110637463D01*
X106421112Y-110934000D01*
X106436001Y-111008851D01*
X106436001Y-111098222D01*
X106402564Y-111104873D01*
X106111414Y-111299414D01*
X105971039Y-111509500D01*
X105894327Y-111324302D01*
X105715699Y-111145673D01*
X105482310Y-111049000D01*
X104941750Y-111049000D01*
X104783000Y-111207750D01*
X104783000Y-112132000D01*
X104803000Y-112132000D01*
X104803000Y-112386000D01*
X104783000Y-112386000D01*
X104783000Y-112406000D01*
X104529000Y-112406000D01*
X104529000Y-112386000D01*
X102497000Y-112386000D01*
X102497000Y-112406000D01*
X102243000Y-112406000D01*
X102243000Y-112386000D01*
X102223000Y-112386000D01*
X102223000Y-112132000D01*
X102243000Y-112132000D01*
X102243000Y-111207750D01*
X102497000Y-111207750D01*
X102497000Y-112132000D01*
X104529000Y-112132000D01*
X104529000Y-111207750D01*
X104370250Y-111049000D01*
X103829690Y-111049000D01*
X103596301Y-111145673D01*
X103513000Y-111228974D01*
X103429699Y-111145673D01*
X103196310Y-111049000D01*
X102655750Y-111049000D01*
X102497000Y-111207750D01*
X102243000Y-111207750D01*
X102084250Y-111049000D01*
X101860000Y-111049000D01*
X101860000Y-111041799D01*
X102934476Y-109967325D01*
X102997929Y-109924927D01*
X103040327Y-109861474D01*
X103040329Y-109861472D01*
X103124834Y-109735001D01*
X104400152Y-109735001D01*
X104474999Y-109749889D01*
X104549846Y-109735001D01*
X104549851Y-109735001D01*
X104771536Y-109690905D01*
X105022928Y-109522930D01*
X105052969Y-109477970D01*
X105097929Y-109447929D01*
X105265904Y-109196537D01*
X105291270Y-109069015D01*
X105317191Y-109107809D01*
X105337500Y-109121379D01*
X105337500Y-109126250D01*
X105496250Y-109285000D01*
X105551309Y-109285000D01*
X105603589Y-109263345D01*
X105775000Y-109297440D01*
X106125000Y-109297440D01*
X106296411Y-109263345D01*
X106348691Y-109285000D01*
X106403750Y-109285000D01*
X106562500Y-109126250D01*
X106562500Y-109121379D01*
X106582809Y-109107809D01*
X106643682Y-109016708D01*
X106737500Y-109110525D01*
G36*
X120662794Y-96717927D02*
X120982075Y-97037208D01*
X121399235Y-97210001D01*
X121850767Y-97210001D01*
X122267927Y-97037208D01*
X122540001Y-96765134D01*
X122540000Y-111170190D01*
X122200001Y-111102560D01*
X121602362Y-111102560D01*
X121440321Y-110940519D01*
X121397919Y-110877061D01*
X121146527Y-110709086D01*
X120924842Y-110664990D01*
X120924837Y-110664990D01*
X120849990Y-110650102D01*
X120775143Y-110664990D01*
X120066790Y-110664990D01*
X118677002Y-109275203D01*
X118677002Y-109165752D01*
X118796250Y-109285000D01*
X118851309Y-109285000D01*
X118900000Y-109264832D01*
X118948691Y-109285000D01*
X119003750Y-109285000D01*
X119162500Y-109126250D01*
X119162500Y-109110525D01*
X119263327Y-109009699D01*
X119337500Y-108830630D01*
X119337500Y-109126250D01*
X119496250Y-109285000D01*
X119551309Y-109285000D01*
X119784698Y-109188327D01*
X119963327Y-109009699D01*
X120060000Y-108776310D01*
X120060000Y-107867311D01*
X120344126Y-107985000D01*
X120755874Y-107985000D01*
X121136280Y-107827431D01*
X121427431Y-107536280D01*
X121585000Y-107155874D01*
X121585000Y-106744126D01*
X121427431Y-106363720D01*
X121136280Y-106072569D01*
X120755874Y-105915000D01*
X120589802Y-105915000D01*
X120510001Y-105835199D01*
X120510001Y-105325021D01*
X120673959Y-105325021D01*
X120893562Y-105234059D01*
X121260362Y-105385992D01*
X121672110Y-105385992D01*
X122052516Y-105228423D01*
X122343667Y-104937272D01*
X122501236Y-104556866D01*
X122501236Y-104145118D01*
X122343667Y-103764712D01*
X122226236Y-103647281D01*
X122226236Y-99090672D01*
X122241124Y-99015825D01*
X122226236Y-98940978D01*
X122226236Y-98940974D01*
X122182140Y-98719289D01*
X122014165Y-98467897D01*
X121950709Y-98425497D01*
X120079658Y-96554447D01*
X120386303Y-96427431D01*
X120496728Y-96317006D01*
X120662794Y-96717927D01*
X120662794Y-96717927D01*
G37*
X120662794Y-96717927D02*
X120982075Y-97037208D01*
X121399235Y-97210001D01*
X121850767Y-97210001D01*
X122267927Y-97037208D01*
X122540001Y-96765134D01*
X122540000Y-111170190D01*
X122200001Y-111102560D01*
X121602362Y-111102560D01*
X121440321Y-110940519D01*
X121397919Y-110877061D01*
X121146527Y-110709086D01*
X120924842Y-110664990D01*
X120924837Y-110664990D01*
X120849990Y-110650102D01*
X120775143Y-110664990D01*
X120066790Y-110664990D01*
X118677002Y-109275203D01*
X118677002Y-109165752D01*
X118796250Y-109285000D01*
X118851309Y-109285000D01*
X118900000Y-109264832D01*
X118948691Y-109285000D01*
X119003750Y-109285000D01*
X119162500Y-109126250D01*
X119162500Y-109110525D01*
X119263327Y-109009699D01*
X119337500Y-108830630D01*
X119337500Y-109126250D01*
X119496250Y-109285000D01*
X119551309Y-109285000D01*
X119784698Y-109188327D01*
X119963327Y-109009699D01*
X120060000Y-108776310D01*
X120060000Y-107867311D01*
X120344126Y-107985000D01*
X120755874Y-107985000D01*
X121136280Y-107827431D01*
X121427431Y-107536280D01*
X121585000Y-107155874D01*
X121585000Y-106744126D01*
X121427431Y-106363720D01*
X121136280Y-106072569D01*
X120755874Y-105915000D01*
X120589802Y-105915000D01*
X120510001Y-105835199D01*
X120510001Y-105325021D01*
X120673959Y-105325021D01*
X120893562Y-105234059D01*
X121260362Y-105385992D01*
X121672110Y-105385992D01*
X122052516Y-105228423D01*
X122343667Y-104937272D01*
X122501236Y-104556866D01*
X122501236Y-104145118D01*
X122343667Y-103764712D01*
X122226236Y-103647281D01*
X122226236Y-99090672D01*
X122241124Y-99015825D01*
X122226236Y-98940978D01*
X122226236Y-98940974D01*
X122182140Y-98719289D01*
X122014165Y-98467897D01*
X121950709Y-98425497D01*
X120079658Y-96554447D01*
X120386303Y-96427431D01*
X120496728Y-96317006D01*
X120662794Y-96717927D01*
G36*
X115137500Y-109110525D02*
X115137500Y-109126250D01*
X115296250Y-109285000D01*
X115351309Y-109285000D01*
X115400000Y-109264832D01*
X115448691Y-109285000D01*
X115503750Y-109285000D01*
X115622998Y-109165752D01*
X115622998Y-109285000D01*
X115690000Y-109285000D01*
X115690000Y-111158704D01*
X115609436Y-111104873D01*
X115266001Y-111036560D01*
X114668362Y-111036560D01*
X113010000Y-109378199D01*
X113010000Y-109285000D01*
X113077002Y-109285000D01*
X113077002Y-109165752D01*
X113196250Y-109285000D01*
X113251309Y-109285000D01*
X113300000Y-109264832D01*
X113348691Y-109285000D01*
X113403750Y-109285000D01*
X113562500Y-109126250D01*
X113562500Y-109110525D01*
X113650000Y-109023026D01*
X113737500Y-109110525D01*
X113737500Y-109126250D01*
X113896250Y-109285000D01*
X113951309Y-109285000D01*
X114000000Y-109264832D01*
X114048691Y-109285000D01*
X114103750Y-109285000D01*
X114262500Y-109126250D01*
X114262500Y-109110525D01*
X114350000Y-109023026D01*
X114437500Y-109110525D01*
X114437500Y-109126250D01*
X114596250Y-109285000D01*
X114651309Y-109285000D01*
X114700000Y-109264832D01*
X114748691Y-109285000D01*
X114803750Y-109285000D01*
X114962500Y-109126250D01*
X114962500Y-109110525D01*
X115050000Y-109023026D01*
X115137500Y-109110525D01*
X115137500Y-109110525D01*
G37*
X115137500Y-109110525D02*
X115137500Y-109126250D01*
X115296250Y-109285000D01*
X115351309Y-109285000D01*
X115400000Y-109264832D01*
X115448691Y-109285000D01*
X115503750Y-109285000D01*
X115622998Y-109165752D01*
X115622998Y-109285000D01*
X115690000Y-109285000D01*
X115690000Y-111158704D01*
X115609436Y-111104873D01*
X115266001Y-111036560D01*
X114668362Y-111036560D01*
X113010000Y-109378199D01*
X113010000Y-109285000D01*
X113077002Y-109285000D01*
X113077002Y-109165752D01*
X113196250Y-109285000D01*
X113251309Y-109285000D01*
X113300000Y-109264832D01*
X113348691Y-109285000D01*
X113403750Y-109285000D01*
X113562500Y-109126250D01*
X113562500Y-109110525D01*
X113650000Y-109023026D01*
X113737500Y-109110525D01*
X113737500Y-109126250D01*
X113896250Y-109285000D01*
X113951309Y-109285000D01*
X114000000Y-109264832D01*
X114048691Y-109285000D01*
X114103750Y-109285000D01*
X114262500Y-109126250D01*
X114262500Y-109110525D01*
X114350000Y-109023026D01*
X114437500Y-109110525D01*
X114437500Y-109126250D01*
X114596250Y-109285000D01*
X114651309Y-109285000D01*
X114700000Y-109264832D01*
X114748691Y-109285000D01*
X114803750Y-109285000D01*
X114962500Y-109126250D01*
X114962500Y-109110525D01*
X115050000Y-109023026D01*
X115137500Y-109110525D01*
G36*
X119337500Y-106812301D02*
X119337500Y-106913250D01*
X119201252Y-106777002D01*
X119302201Y-106777002D01*
X119337500Y-106812301D01*
X119337500Y-106812301D01*
G37*
X119337500Y-106812301D02*
X119337500Y-106913250D01*
X119201252Y-106777002D01*
X119302201Y-106777002D01*
X119337500Y-106812301D01*
G36*
X109498750Y-106523000D02*
X109597000Y-106523000D01*
X109597000Y-106777000D01*
X109498750Y-106777000D01*
X109450000Y-106825750D01*
X109401250Y-106777000D01*
X109303000Y-106777000D01*
X109303000Y-106523000D01*
X109401250Y-106523000D01*
X109421250Y-106503000D01*
X109478750Y-106503000D01*
X109498750Y-106523000D01*
X109498750Y-106523000D01*
G37*
X109498750Y-106523000D02*
X109597000Y-106523000D01*
X109597000Y-106777000D01*
X109498750Y-106777000D01*
X109450000Y-106825750D01*
X109401250Y-106777000D01*
X109303000Y-106777000D01*
X109303000Y-106523000D01*
X109401250Y-106523000D01*
X109421250Y-106503000D01*
X109478750Y-106503000D01*
X109498750Y-106523000D01*
G36*
X113698750Y-106523000D02*
X114301250Y-106523000D01*
X114321250Y-106503000D01*
X114378750Y-106503000D01*
X114398750Y-106523000D01*
X115001250Y-106523000D01*
X115021250Y-106503000D01*
X115078750Y-106503000D01*
X115098750Y-106523000D01*
X115197000Y-106523000D01*
X115197000Y-106777000D01*
X115098750Y-106777000D01*
X115050000Y-106825750D01*
X115001250Y-106777000D01*
X114398750Y-106777000D01*
X114350000Y-106825750D01*
X114301250Y-106777000D01*
X113698750Y-106777000D01*
X113650000Y-106825750D01*
X113601250Y-106777000D01*
X113503000Y-106777000D01*
X113503000Y-106523000D01*
X113601250Y-106523000D01*
X113621250Y-106503000D01*
X113678750Y-106503000D01*
X113698750Y-106523000D01*
X113698750Y-106523000D01*
G37*
X113698750Y-106523000D02*
X114301250Y-106523000D01*
X114321250Y-106503000D01*
X114378750Y-106503000D01*
X114398750Y-106523000D01*
X115001250Y-106523000D01*
X115021250Y-106503000D01*
X115078750Y-106503000D01*
X115098750Y-106523000D01*
X115197000Y-106523000D01*
X115197000Y-106777000D01*
X115098750Y-106777000D01*
X115050000Y-106825750D01*
X115001250Y-106777000D01*
X114398750Y-106777000D01*
X114350000Y-106825750D01*
X114301250Y-106777000D01*
X113698750Y-106777000D01*
X113650000Y-106825750D01*
X113601250Y-106777000D01*
X113503000Y-106777000D01*
X113503000Y-106523000D01*
X113601250Y-106523000D01*
X113621250Y-106503000D01*
X113678750Y-106503000D01*
X113698750Y-106523000D01*
G36*
X115877002Y-104134248D02*
X115877002Y-104041010D01*
X115970240Y-104041010D01*
X115877002Y-104134248D01*
X115877002Y-104134248D01*
G37*
X115877002Y-104134248D02*
X115877002Y-104041010D01*
X115970240Y-104041010D01*
X115877002Y-104134248D01*
G36*
X98927560Y-97250000D02*
X98976843Y-97497765D01*
X99117191Y-97707809D01*
X99327235Y-97848157D01*
X99414826Y-97865580D01*
X99265414Y-97965414D01*
X99070873Y-98256564D01*
X99002560Y-98599999D01*
X99002560Y-99250001D01*
X99070873Y-99593436D01*
X99265414Y-99884586D01*
X99266597Y-99885377D01*
X99111673Y-100040302D01*
X99015000Y-100273691D01*
X99015000Y-100689250D01*
X99173750Y-100848000D01*
X100223000Y-100848000D01*
X100223000Y-100828000D01*
X100477000Y-100828000D01*
X100477000Y-100848000D01*
X100497000Y-100848000D01*
X100497000Y-101102000D01*
X100477000Y-101102000D01*
X100477000Y-101122000D01*
X100223000Y-101122000D01*
X100223000Y-101102000D01*
X99173750Y-101102000D01*
X99015000Y-101260750D01*
X99015000Y-101676309D01*
X99111673Y-101909698D01*
X99241964Y-102039990D01*
X98674858Y-102039990D01*
X98600010Y-102025102D01*
X98525162Y-102039990D01*
X98525158Y-102039990D01*
X98303473Y-102084086D01*
X98052081Y-102252061D01*
X98009681Y-102315517D01*
X97010199Y-103315000D01*
X96724234Y-103315000D01*
X96646999Y-103346992D01*
X96646999Y-102210000D01*
X96764250Y-102210000D01*
X96923000Y-102051250D01*
X96923000Y-101127000D01*
X97177000Y-101127000D01*
X97177000Y-102051250D01*
X97335750Y-102210000D01*
X97876310Y-102210000D01*
X98109699Y-102113327D01*
X98288327Y-101934698D01*
X98385000Y-101701309D01*
X98385000Y-101285750D01*
X98226250Y-101127000D01*
X97177000Y-101127000D01*
X96923000Y-101127000D01*
X96903000Y-101127000D01*
X96903000Y-100873000D01*
X96923000Y-100873000D01*
X96923000Y-100853000D01*
X97177000Y-100853000D01*
X97177000Y-100873000D01*
X98226250Y-100873000D01*
X98385000Y-100714250D01*
X98385000Y-100298691D01*
X98288327Y-100065302D01*
X98133403Y-99910377D01*
X98134586Y-99909586D01*
X98329127Y-99618436D01*
X98397440Y-99275001D01*
X98397440Y-98624999D01*
X98329127Y-98281564D01*
X98134586Y-97990414D01*
X97995441Y-97897440D01*
X98075000Y-97897440D01*
X98322765Y-97848157D01*
X98532809Y-97707809D01*
X98673157Y-97497765D01*
X98722440Y-97250000D01*
X98722440Y-95884999D01*
X98927560Y-95884999D01*
X98927560Y-97250000D01*
X98927560Y-97250000D01*
G37*
X98927560Y-97250000D02*
X98976843Y-97497765D01*
X99117191Y-97707809D01*
X99327235Y-97848157D01*
X99414826Y-97865580D01*
X99265414Y-97965414D01*
X99070873Y-98256564D01*
X99002560Y-98599999D01*
X99002560Y-99250001D01*
X99070873Y-99593436D01*
X99265414Y-99884586D01*
X99266597Y-99885377D01*
X99111673Y-100040302D01*
X99015000Y-100273691D01*
X99015000Y-100689250D01*
X99173750Y-100848000D01*
X100223000Y-100848000D01*
X100223000Y-100828000D01*
X100477000Y-100828000D01*
X100477000Y-100848000D01*
X100497000Y-100848000D01*
X100497000Y-101102000D01*
X100477000Y-101102000D01*
X100477000Y-101122000D01*
X100223000Y-101122000D01*
X100223000Y-101102000D01*
X99173750Y-101102000D01*
X99015000Y-101260750D01*
X99015000Y-101676309D01*
X99111673Y-101909698D01*
X99241964Y-102039990D01*
X98674858Y-102039990D01*
X98600010Y-102025102D01*
X98525162Y-102039990D01*
X98525158Y-102039990D01*
X98303473Y-102084086D01*
X98052081Y-102252061D01*
X98009681Y-102315517D01*
X97010199Y-103315000D01*
X96724234Y-103315000D01*
X96646999Y-103346992D01*
X96646999Y-102210000D01*
X96764250Y-102210000D01*
X96923000Y-102051250D01*
X96923000Y-101127000D01*
X97177000Y-101127000D01*
X97177000Y-102051250D01*
X97335750Y-102210000D01*
X97876310Y-102210000D01*
X98109699Y-102113327D01*
X98288327Y-101934698D01*
X98385000Y-101701309D01*
X98385000Y-101285750D01*
X98226250Y-101127000D01*
X97177000Y-101127000D01*
X96923000Y-101127000D01*
X96903000Y-101127000D01*
X96903000Y-100873000D01*
X96923000Y-100873000D01*
X96923000Y-100853000D01*
X97177000Y-100853000D01*
X97177000Y-100873000D01*
X98226250Y-100873000D01*
X98385000Y-100714250D01*
X98385000Y-100298691D01*
X98288327Y-100065302D01*
X98133403Y-99910377D01*
X98134586Y-99909586D01*
X98329127Y-99618436D01*
X98397440Y-99275001D01*
X98397440Y-98624999D01*
X98329127Y-98281564D01*
X98134586Y-97990414D01*
X97995441Y-97897440D01*
X98075000Y-97897440D01*
X98322765Y-97848157D01*
X98532809Y-97707809D01*
X98673157Y-97497765D01*
X98722440Y-97250000D01*
X98722440Y-95884999D01*
X98927560Y-95884999D01*
X98927560Y-97250000D01*
G36*
X103477000Y-100873000D02*
X103497000Y-100873000D01*
X103497000Y-101127000D01*
X103477000Y-101127000D01*
X103477000Y-101147000D01*
X103223000Y-101147000D01*
X103223000Y-101127000D01*
X103203000Y-101127000D01*
X103203000Y-100873000D01*
X103223000Y-100873000D01*
X103223000Y-100853000D01*
X103477000Y-100853000D01*
X103477000Y-100873000D01*
X103477000Y-100873000D01*
G37*
X103477000Y-100873000D02*
X103497000Y-100873000D01*
X103497000Y-101127000D01*
X103477000Y-101127000D01*
X103477000Y-101147000D01*
X103223000Y-101147000D01*
X103223000Y-101127000D01*
X103203000Y-101127000D01*
X103203000Y-100873000D01*
X103223000Y-100873000D01*
X103223000Y-100853000D01*
X103477000Y-100853000D01*
X103477000Y-100873000D01*
G36*
X105085000Y-99183002D02*
X105121999Y-99183002D01*
X105121843Y-99183235D01*
X105107647Y-99254603D01*
X105085000Y-99277250D01*
X105085000Y-99307310D01*
X105093217Y-99327148D01*
X105072560Y-99431000D01*
X105072560Y-99681000D01*
X105097424Y-99806000D01*
X105072560Y-99931000D01*
X105072560Y-100043688D01*
X105070111Y-100056000D01*
X105072560Y-100068312D01*
X105072560Y-100181000D01*
X105121843Y-100428765D01*
X105132093Y-100444105D01*
X104685000Y-100891199D01*
X104685000Y-100872998D01*
X104526252Y-100872998D01*
X104685000Y-100714250D01*
X104685000Y-100298691D01*
X104588327Y-100065302D01*
X104433403Y-99910377D01*
X104434586Y-99909586D01*
X104629127Y-99618436D01*
X104646225Y-99532476D01*
X104697929Y-99497929D01*
X104740331Y-99434470D01*
X105085000Y-99089802D01*
X105085000Y-99183002D01*
X105085000Y-99183002D01*
G37*
X105085000Y-99183002D02*
X105121999Y-99183002D01*
X105121843Y-99183235D01*
X105107647Y-99254603D01*
X105085000Y-99277250D01*
X105085000Y-99307310D01*
X105093217Y-99327148D01*
X105072560Y-99431000D01*
X105072560Y-99681000D01*
X105097424Y-99806000D01*
X105072560Y-99931000D01*
X105072560Y-100043688D01*
X105070111Y-100056000D01*
X105072560Y-100068312D01*
X105072560Y-100181000D01*
X105121843Y-100428765D01*
X105132093Y-100444105D01*
X104685000Y-100891199D01*
X104685000Y-100872998D01*
X104526252Y-100872998D01*
X104685000Y-100714250D01*
X104685000Y-100298691D01*
X104588327Y-100065302D01*
X104433403Y-99910377D01*
X104434586Y-99909586D01*
X104629127Y-99618436D01*
X104646225Y-99532476D01*
X104697929Y-99497929D01*
X104740331Y-99434470D01*
X105085000Y-99089802D01*
X105085000Y-99183002D01*
G36*
X108652875Y-96609470D02*
X108695276Y-96672927D01*
X108946668Y-96840902D01*
X109168353Y-96884998D01*
X109168357Y-96884998D01*
X109243204Y-96899886D01*
X109256840Y-96897174D01*
X109359797Y-96917653D01*
X109455801Y-96917653D01*
X109455806Y-96917654D01*
X109455810Y-96917654D01*
X109530658Y-96932542D01*
X109605506Y-96917654D01*
X115829909Y-96917654D01*
X115904756Y-96932542D01*
X115979603Y-96917654D01*
X115979608Y-96917654D01*
X116201293Y-96873558D01*
X116452685Y-96705583D01*
X116452686Y-96705582D01*
X116472560Y-96675838D01*
X116472560Y-96681000D01*
X116497424Y-96806000D01*
X116472560Y-96931000D01*
X116472560Y-97181000D01*
X116497424Y-97306000D01*
X116472560Y-97431000D01*
X116472560Y-97681000D01*
X116497424Y-97806000D01*
X116472560Y-97931000D01*
X116472560Y-98181000D01*
X116497424Y-98306000D01*
X116472560Y-98431000D01*
X116472560Y-98681000D01*
X116497424Y-98806000D01*
X116472560Y-98931000D01*
X116472560Y-99181000D01*
X116497424Y-99306000D01*
X116472560Y-99431000D01*
X116472560Y-99681000D01*
X116497424Y-99806000D01*
X116485690Y-99864992D01*
X116008112Y-99864992D01*
X115083647Y-98940528D01*
X115041245Y-98877069D01*
X114789853Y-98709094D01*
X114568168Y-98664998D01*
X114568163Y-98664998D01*
X114493316Y-98650110D01*
X114418469Y-98664998D01*
X109178719Y-98664998D01*
X109061288Y-98547567D01*
X108680882Y-98389998D01*
X108269134Y-98389998D01*
X107888728Y-98547567D01*
X107597577Y-98838718D01*
X107440008Y-99219124D01*
X107440008Y-99296000D01*
X107355000Y-99296000D01*
X107355000Y-99277250D01*
X107332353Y-99254603D01*
X107318157Y-99183235D01*
X107237100Y-99061926D01*
X107258327Y-99040699D01*
X107335597Y-98854153D01*
X107355000Y-98834750D01*
X107355000Y-98777250D01*
X107335597Y-98757847D01*
X107258327Y-98571301D01*
X107237100Y-98550074D01*
X107318157Y-98428765D01*
X107332353Y-98357397D01*
X107355000Y-98334750D01*
X107355000Y-98304690D01*
X107346783Y-98284852D01*
X107367440Y-98181000D01*
X107367440Y-97931000D01*
X107346783Y-97827148D01*
X107355000Y-97807310D01*
X107355000Y-97777250D01*
X107332353Y-97754603D01*
X107318157Y-97683235D01*
X107237100Y-97561926D01*
X107258327Y-97540699D01*
X107335597Y-97354153D01*
X107355000Y-97334750D01*
X107355000Y-97277250D01*
X107335597Y-97257847D01*
X107258327Y-97071301D01*
X107243026Y-97056000D01*
X107258327Y-97040699D01*
X107335597Y-96854153D01*
X107355000Y-96834750D01*
X107355000Y-96777250D01*
X107335597Y-96757847D01*
X107258327Y-96571301D01*
X107237100Y-96550074D01*
X107318157Y-96428765D01*
X107332353Y-96357397D01*
X107355000Y-96334750D01*
X107355000Y-96304690D01*
X107346783Y-96284852D01*
X107367440Y-96181000D01*
X107367440Y-95931000D01*
X107342576Y-95806000D01*
X107367440Y-95681000D01*
X107367440Y-95431000D01*
X107342576Y-95306000D01*
X107343709Y-95300303D01*
X108652875Y-96609470D01*
X108652875Y-96609470D01*
G37*
X108652875Y-96609470D02*
X108695276Y-96672927D01*
X108946668Y-96840902D01*
X109168353Y-96884998D01*
X109168357Y-96884998D01*
X109243204Y-96899886D01*
X109256840Y-96897174D01*
X109359797Y-96917653D01*
X109455801Y-96917653D01*
X109455806Y-96917654D01*
X109455810Y-96917654D01*
X109530658Y-96932542D01*
X109605506Y-96917654D01*
X115829909Y-96917654D01*
X115904756Y-96932542D01*
X115979603Y-96917654D01*
X115979608Y-96917654D01*
X116201293Y-96873558D01*
X116452685Y-96705583D01*
X116452686Y-96705582D01*
X116472560Y-96675838D01*
X116472560Y-96681000D01*
X116497424Y-96806000D01*
X116472560Y-96931000D01*
X116472560Y-97181000D01*
X116497424Y-97306000D01*
X116472560Y-97431000D01*
X116472560Y-97681000D01*
X116497424Y-97806000D01*
X116472560Y-97931000D01*
X116472560Y-98181000D01*
X116497424Y-98306000D01*
X116472560Y-98431000D01*
X116472560Y-98681000D01*
X116497424Y-98806000D01*
X116472560Y-98931000D01*
X116472560Y-99181000D01*
X116497424Y-99306000D01*
X116472560Y-99431000D01*
X116472560Y-99681000D01*
X116497424Y-99806000D01*
X116485690Y-99864992D01*
X116008112Y-99864992D01*
X115083647Y-98940528D01*
X115041245Y-98877069D01*
X114789853Y-98709094D01*
X114568168Y-98664998D01*
X114568163Y-98664998D01*
X114493316Y-98650110D01*
X114418469Y-98664998D01*
X109178719Y-98664998D01*
X109061288Y-98547567D01*
X108680882Y-98389998D01*
X108269134Y-98389998D01*
X107888728Y-98547567D01*
X107597577Y-98838718D01*
X107440008Y-99219124D01*
X107440008Y-99296000D01*
X107355000Y-99296000D01*
X107355000Y-99277250D01*
X107332353Y-99254603D01*
X107318157Y-99183235D01*
X107237100Y-99061926D01*
X107258327Y-99040699D01*
X107335597Y-98854153D01*
X107355000Y-98834750D01*
X107355000Y-98777250D01*
X107335597Y-98757847D01*
X107258327Y-98571301D01*
X107237100Y-98550074D01*
X107318157Y-98428765D01*
X107332353Y-98357397D01*
X107355000Y-98334750D01*
X107355000Y-98304690D01*
X107346783Y-98284852D01*
X107367440Y-98181000D01*
X107367440Y-97931000D01*
X107346783Y-97827148D01*
X107355000Y-97807310D01*
X107355000Y-97777250D01*
X107332353Y-97754603D01*
X107318157Y-97683235D01*
X107237100Y-97561926D01*
X107258327Y-97540699D01*
X107335597Y-97354153D01*
X107355000Y-97334750D01*
X107355000Y-97277250D01*
X107335597Y-97257847D01*
X107258327Y-97071301D01*
X107243026Y-97056000D01*
X107258327Y-97040699D01*
X107335597Y-96854153D01*
X107355000Y-96834750D01*
X107355000Y-96777250D01*
X107335597Y-96757847D01*
X107258327Y-96571301D01*
X107237100Y-96550074D01*
X107318157Y-96428765D01*
X107332353Y-96357397D01*
X107355000Y-96334750D01*
X107355000Y-96304690D01*
X107346783Y-96284852D01*
X107367440Y-96181000D01*
X107367440Y-95931000D01*
X107342576Y-95806000D01*
X107367440Y-95681000D01*
X107367440Y-95431000D01*
X107342576Y-95306000D01*
X107343709Y-95300303D01*
X108652875Y-96609470D01*
G36*
X120515000Y-91689802D02*
X120515000Y-91837602D01*
X120305853Y-91796000D01*
X120305848Y-91796000D01*
X120231001Y-91781112D01*
X120156154Y-91796000D01*
X118182541Y-91796000D01*
X118120000Y-91783560D01*
X117120000Y-91783560D01*
X116872235Y-91832843D01*
X116662191Y-91973191D01*
X116521843Y-92183235D01*
X116472560Y-92431000D01*
X116472560Y-92681000D01*
X116497424Y-92806000D01*
X116472560Y-92931000D01*
X116472560Y-93181000D01*
X116497424Y-93306000D01*
X116492849Y-93328997D01*
X116437053Y-93340096D01*
X116185661Y-93508071D01*
X116143261Y-93571527D01*
X115217155Y-94497634D01*
X111459710Y-94497634D01*
X111477930Y-94453647D01*
X111477930Y-94446581D01*
X111754220Y-94332138D01*
X112045371Y-94040987D01*
X112192825Y-93685000D01*
X112205874Y-93685000D01*
X112586280Y-93527431D01*
X112877431Y-93236280D01*
X113035000Y-92855874D01*
X113035000Y-92444126D01*
X112877431Y-92063720D01*
X112760000Y-91946289D01*
X112760000Y-91891963D01*
X112873039Y-91722789D01*
X112891250Y-91741000D01*
X112921310Y-91741000D01*
X112941148Y-91732783D01*
X113045000Y-91753440D01*
X113295000Y-91753440D01*
X113420000Y-91728576D01*
X113545000Y-91753440D01*
X113795000Y-91753440D01*
X113920000Y-91728576D01*
X114045000Y-91753440D01*
X114295000Y-91753440D01*
X114420000Y-91728576D01*
X114545000Y-91753440D01*
X114795000Y-91753440D01*
X114920000Y-91728576D01*
X115045000Y-91753440D01*
X115295000Y-91753440D01*
X115420000Y-91728576D01*
X115545000Y-91753440D01*
X115795000Y-91753440D01*
X116042765Y-91704157D01*
X116252809Y-91563809D01*
X116384982Y-91366000D01*
X120191199Y-91366000D01*
X120515000Y-91689802D01*
X120515000Y-91689802D01*
G37*
X120515000Y-91689802D02*
X120515000Y-91837602D01*
X120305853Y-91796000D01*
X120305848Y-91796000D01*
X120231001Y-91781112D01*
X120156154Y-91796000D01*
X118182541Y-91796000D01*
X118120000Y-91783560D01*
X117120000Y-91783560D01*
X116872235Y-91832843D01*
X116662191Y-91973191D01*
X116521843Y-92183235D01*
X116472560Y-92431000D01*
X116472560Y-92681000D01*
X116497424Y-92806000D01*
X116472560Y-92931000D01*
X116472560Y-93181000D01*
X116497424Y-93306000D01*
X116492849Y-93328997D01*
X116437053Y-93340096D01*
X116185661Y-93508071D01*
X116143261Y-93571527D01*
X115217155Y-94497634D01*
X111459710Y-94497634D01*
X111477930Y-94453647D01*
X111477930Y-94446581D01*
X111754220Y-94332138D01*
X112045371Y-94040987D01*
X112192825Y-93685000D01*
X112205874Y-93685000D01*
X112586280Y-93527431D01*
X112877431Y-93236280D01*
X113035000Y-92855874D01*
X113035000Y-92444126D01*
X112877431Y-92063720D01*
X112760000Y-91946289D01*
X112760000Y-91891963D01*
X112873039Y-91722789D01*
X112891250Y-91741000D01*
X112921310Y-91741000D01*
X112941148Y-91732783D01*
X113045000Y-91753440D01*
X113295000Y-91753440D01*
X113420000Y-91728576D01*
X113545000Y-91753440D01*
X113795000Y-91753440D01*
X113920000Y-91728576D01*
X114045000Y-91753440D01*
X114295000Y-91753440D01*
X114420000Y-91728576D01*
X114545000Y-91753440D01*
X114795000Y-91753440D01*
X114920000Y-91728576D01*
X115045000Y-91753440D01*
X115295000Y-91753440D01*
X115420000Y-91728576D01*
X115545000Y-91753440D01*
X115795000Y-91753440D01*
X116042765Y-91704157D01*
X116252809Y-91563809D01*
X116384982Y-91366000D01*
X120191199Y-91366000D01*
X120515000Y-91689802D01*
G36*
X120790302Y-83811673D02*
X120611673Y-83990301D01*
X120515000Y-84223690D01*
X120515000Y-84564250D01*
X120673750Y-84723000D01*
X121523000Y-84723000D01*
X121523000Y-84703000D01*
X121777000Y-84703000D01*
X121777000Y-84723000D01*
X121797000Y-84723000D01*
X121797000Y-84977000D01*
X121777000Y-84977000D01*
X121777000Y-84997000D01*
X121523000Y-84997000D01*
X121523000Y-84977000D01*
X120673750Y-84977000D01*
X120515000Y-85135750D01*
X120515000Y-85476310D01*
X120611673Y-85709699D01*
X120790302Y-85888327D01*
X120801784Y-85893083D01*
X120687793Y-86007074D01*
X120515000Y-86424234D01*
X120515000Y-86710198D01*
X119410188Y-87815011D01*
X118997440Y-87815011D01*
X118997440Y-87174999D01*
X118929127Y-86831564D01*
X118734586Y-86540414D01*
X118636687Y-86475000D01*
X118734586Y-86409586D01*
X118929127Y-86118436D01*
X118997440Y-85775001D01*
X118997440Y-85124999D01*
X118929127Y-84781564D01*
X118734586Y-84490414D01*
X118443436Y-84295873D01*
X118100001Y-84227560D01*
X117199999Y-84227560D01*
X116856564Y-84295873D01*
X116565414Y-84490414D01*
X116370873Y-84781564D01*
X116365859Y-84806770D01*
X116338327Y-84740301D01*
X116159698Y-84561673D01*
X115926309Y-84465000D01*
X115635750Y-84465000D01*
X115477000Y-84623750D01*
X115477000Y-85373000D01*
X115497000Y-85373000D01*
X115497000Y-85627000D01*
X115477000Y-85627000D01*
X115477000Y-85647000D01*
X115223000Y-85647000D01*
X115223000Y-85627000D01*
X114423750Y-85627000D01*
X114338219Y-85712531D01*
X114257809Y-85592191D01*
X114047765Y-85451843D01*
X113800000Y-85402560D01*
X112900000Y-85402560D01*
X112652235Y-85451843D01*
X112442191Y-85592191D01*
X112381809Y-85682559D01*
X112326250Y-85627000D01*
X111277000Y-85627000D01*
X111277000Y-85647000D01*
X111023000Y-85647000D01*
X111023000Y-85627000D01*
X111003000Y-85627000D01*
X111003000Y-85373000D01*
X111023000Y-85373000D01*
X111023000Y-84448750D01*
X111277000Y-84448750D01*
X111277000Y-85373000D01*
X112326250Y-85373000D01*
X112485000Y-85214250D01*
X112485000Y-84973690D01*
X114265000Y-84973690D01*
X114265000Y-85214250D01*
X114423750Y-85373000D01*
X115223000Y-85373000D01*
X115223000Y-84623750D01*
X115064250Y-84465000D01*
X114773691Y-84465000D01*
X114540302Y-84561673D01*
X114361673Y-84740301D01*
X114265000Y-84973690D01*
X112485000Y-84973690D01*
X112485000Y-84798691D01*
X112388327Y-84565302D01*
X112209699Y-84386673D01*
X111976310Y-84290000D01*
X111435750Y-84290000D01*
X111277000Y-84448750D01*
X111023000Y-84448750D01*
X110864250Y-84290000D01*
X110323690Y-84290000D01*
X110090301Y-84386673D01*
X109911673Y-84565302D01*
X109815000Y-84798691D01*
X109815000Y-84962595D01*
X109754127Y-84656564D01*
X109559586Y-84365414D01*
X109268436Y-84170873D01*
X108925001Y-84102560D01*
X108274999Y-84102560D01*
X107931564Y-84170873D01*
X107640414Y-84365414D01*
X107575000Y-84463313D01*
X107509586Y-84365414D01*
X107218436Y-84170873D01*
X106875001Y-84102560D01*
X106277361Y-84102560D01*
X106265321Y-84090520D01*
X106222919Y-84027061D01*
X105971527Y-83859086D01*
X105749842Y-83814990D01*
X105749837Y-83814990D01*
X105674990Y-83800102D01*
X105600143Y-83814990D01*
X101599856Y-83814990D01*
X101525009Y-83800102D01*
X101450162Y-83814990D01*
X101450158Y-83814990D01*
X101228473Y-83859086D01*
X101228471Y-83859087D01*
X101228472Y-83859087D01*
X101040536Y-83984661D01*
X101040534Y-83984663D01*
X100977081Y-84027061D01*
X100934683Y-84090515D01*
X100635700Y-84389498D01*
X100450000Y-84352560D01*
X99550000Y-84352560D01*
X99302235Y-84401843D01*
X99092191Y-84542191D01*
X98976723Y-84715000D01*
X98217946Y-84715000D01*
X98084586Y-84515414D01*
X97793436Y-84320873D01*
X97450001Y-84252560D01*
X96549999Y-84252560D01*
X96206564Y-84320873D01*
X95960000Y-84485622D01*
X95960000Y-84192033D01*
X96027138Y-84164224D01*
X96351561Y-83947451D01*
X96439926Y-83859086D01*
X96522013Y-83777000D01*
X120874010Y-83777000D01*
X120790302Y-83811673D01*
X120790302Y-83811673D01*
G37*
X120790302Y-83811673D02*
X120611673Y-83990301D01*
X120515000Y-84223690D01*
X120515000Y-84564250D01*
X120673750Y-84723000D01*
X121523000Y-84723000D01*
X121523000Y-84703000D01*
X121777000Y-84703000D01*
X121777000Y-84723000D01*
X121797000Y-84723000D01*
X121797000Y-84977000D01*
X121777000Y-84977000D01*
X121777000Y-84997000D01*
X121523000Y-84997000D01*
X121523000Y-84977000D01*
X120673750Y-84977000D01*
X120515000Y-85135750D01*
X120515000Y-85476310D01*
X120611673Y-85709699D01*
X120790302Y-85888327D01*
X120801784Y-85893083D01*
X120687793Y-86007074D01*
X120515000Y-86424234D01*
X120515000Y-86710198D01*
X119410188Y-87815011D01*
X118997440Y-87815011D01*
X118997440Y-87174999D01*
X118929127Y-86831564D01*
X118734586Y-86540414D01*
X118636687Y-86475000D01*
X118734586Y-86409586D01*
X118929127Y-86118436D01*
X118997440Y-85775001D01*
X118997440Y-85124999D01*
X118929127Y-84781564D01*
X118734586Y-84490414D01*
X118443436Y-84295873D01*
X118100001Y-84227560D01*
X117199999Y-84227560D01*
X116856564Y-84295873D01*
X116565414Y-84490414D01*
X116370873Y-84781564D01*
X116365859Y-84806770D01*
X116338327Y-84740301D01*
X116159698Y-84561673D01*
X115926309Y-84465000D01*
X115635750Y-84465000D01*
X115477000Y-84623750D01*
X115477000Y-85373000D01*
X115497000Y-85373000D01*
X115497000Y-85627000D01*
X115477000Y-85627000D01*
X115477000Y-85647000D01*
X115223000Y-85647000D01*
X115223000Y-85627000D01*
X114423750Y-85627000D01*
X114338219Y-85712531D01*
X114257809Y-85592191D01*
X114047765Y-85451843D01*
X113800000Y-85402560D01*
X112900000Y-85402560D01*
X112652235Y-85451843D01*
X112442191Y-85592191D01*
X112381809Y-85682559D01*
X112326250Y-85627000D01*
X111277000Y-85627000D01*
X111277000Y-85647000D01*
X111023000Y-85647000D01*
X111023000Y-85627000D01*
X111003000Y-85627000D01*
X111003000Y-85373000D01*
X111023000Y-85373000D01*
X111023000Y-84448750D01*
X111277000Y-84448750D01*
X111277000Y-85373000D01*
X112326250Y-85373000D01*
X112485000Y-85214250D01*
X112485000Y-84973690D01*
X114265000Y-84973690D01*
X114265000Y-85214250D01*
X114423750Y-85373000D01*
X115223000Y-85373000D01*
X115223000Y-84623750D01*
X115064250Y-84465000D01*
X114773691Y-84465000D01*
X114540302Y-84561673D01*
X114361673Y-84740301D01*
X114265000Y-84973690D01*
X112485000Y-84973690D01*
X112485000Y-84798691D01*
X112388327Y-84565302D01*
X112209699Y-84386673D01*
X111976310Y-84290000D01*
X111435750Y-84290000D01*
X111277000Y-84448750D01*
X111023000Y-84448750D01*
X110864250Y-84290000D01*
X110323690Y-84290000D01*
X110090301Y-84386673D01*
X109911673Y-84565302D01*
X109815000Y-84798691D01*
X109815000Y-84962595D01*
X109754127Y-84656564D01*
X109559586Y-84365414D01*
X109268436Y-84170873D01*
X108925001Y-84102560D01*
X108274999Y-84102560D01*
X107931564Y-84170873D01*
X107640414Y-84365414D01*
X107575000Y-84463313D01*
X107509586Y-84365414D01*
X107218436Y-84170873D01*
X106875001Y-84102560D01*
X106277361Y-84102560D01*
X106265321Y-84090520D01*
X106222919Y-84027061D01*
X105971527Y-83859086D01*
X105749842Y-83814990D01*
X105749837Y-83814990D01*
X105674990Y-83800102D01*
X105600143Y-83814990D01*
X101599856Y-83814990D01*
X101525009Y-83800102D01*
X101450162Y-83814990D01*
X101450158Y-83814990D01*
X101228473Y-83859086D01*
X101228471Y-83859087D01*
X101228472Y-83859087D01*
X101040536Y-83984661D01*
X101040534Y-83984663D01*
X100977081Y-84027061D01*
X100934683Y-84090515D01*
X100635700Y-84389498D01*
X100450000Y-84352560D01*
X99550000Y-84352560D01*
X99302235Y-84401843D01*
X99092191Y-84542191D01*
X98976723Y-84715000D01*
X98217946Y-84715000D01*
X98084586Y-84515414D01*
X97793436Y-84320873D01*
X97450001Y-84252560D01*
X96549999Y-84252560D01*
X96206564Y-84320873D01*
X95960000Y-84485622D01*
X95960000Y-84192033D01*
X96027138Y-84164224D01*
X96351561Y-83947451D01*
X96439926Y-83859086D01*
X96522013Y-83777000D01*
X120874010Y-83777000D01*
X120790302Y-83811673D01*
G36*
X108702000Y-87523000D02*
X108722000Y-87523000D01*
X108722000Y-87777000D01*
X108702000Y-87777000D01*
X108702000Y-87797000D01*
X108448000Y-87797000D01*
X108448000Y-87777000D01*
X108428000Y-87777000D01*
X108428000Y-87523000D01*
X108448000Y-87523000D01*
X108448000Y-87503000D01*
X108702000Y-87503000D01*
X108702000Y-87523000D01*
X108702000Y-87523000D01*
G37*
X108702000Y-87523000D02*
X108722000Y-87523000D01*
X108722000Y-87777000D01*
X108702000Y-87777000D01*
X108702000Y-87797000D01*
X108448000Y-87797000D01*
X108448000Y-87777000D01*
X108428000Y-87777000D01*
X108428000Y-87523000D01*
X108448000Y-87523000D01*
X108448000Y-87503000D01*
X108702000Y-87503000D01*
X108702000Y-87523000D01*
G04 #@! TD*
M02*
