G04 #@! TF.GenerationSoftware,KiCad,Pcbnew,5.0.2-bee76a0~70~ubuntu18.04.1*
G04 #@! TF.CreationDate,2019-02-14T23:13:42+09:00*
G04 #@! TF.ProjectId,GRRNble,4752524e-626c-4652-9e6b-696361645f70,rev?*
G04 #@! TF.SameCoordinates,Original*
G04 #@! TF.FileFunction,Soldermask,Bot*
G04 #@! TF.FilePolarity,Negative*
%FSLAX46Y46*%
G04 Gerber Fmt 4.6, Leading zero omitted, Abs format (unit mm)*
G04 Created by KiCad (PCBNEW 5.0.2-bee76a0~70~ubuntu18.04.1) date 2019年02月14日 23時13分42秒*
%MOMM*%
%LPD*%
G01*
G04 APERTURE LIST*
%ADD10C,0.100000*%
G04 APERTURE END LIST*
D10*
G36*
X106150000Y-115650000D02*
X104850000Y-115650000D01*
X104850000Y-114450000D01*
X106150000Y-114450000D01*
X106150000Y-115650000D01*
X106150000Y-115650000D01*
G37*
G36*
X115075000Y-115600000D02*
X113425000Y-115600000D01*
X113425000Y-113700000D01*
X115075000Y-113700000D01*
X115075000Y-115600000D01*
X115075000Y-115600000D01*
G37*
G36*
X108450000Y-115600000D02*
X107050000Y-115600000D01*
X107050000Y-114200000D01*
X108450000Y-114200000D01*
X108450000Y-115600000D01*
X108450000Y-115600000D01*
G37*
G36*
X101700000Y-115600000D02*
X99300000Y-115600000D01*
X99300000Y-112200000D01*
X101700000Y-112200000D01*
X101700000Y-115600000D01*
X101700000Y-115600000D01*
G37*
G36*
X98700000Y-115600000D02*
X96300000Y-115600000D01*
X96300000Y-112200000D01*
X98700000Y-112200000D01*
X98700000Y-115600000D01*
X98700000Y-115600000D01*
G37*
G36*
X110775000Y-115580000D02*
X109725000Y-115580000D01*
X109725000Y-113620000D01*
X110775000Y-113620000D01*
X110775000Y-115580000D01*
X110775000Y-115580000D01*
G37*
G36*
X112675000Y-115580000D02*
X111625000Y-115580000D01*
X111625000Y-113620000D01*
X112675000Y-113620000D01*
X112675000Y-115580000D01*
X112675000Y-115580000D01*
G37*
G36*
X104150000Y-114700000D02*
X102850000Y-114700000D01*
X102850000Y-113500000D01*
X104150000Y-113500000D01*
X104150000Y-114700000D01*
X104150000Y-114700000D01*
G37*
G36*
X123350000Y-114250000D02*
X120150000Y-114250000D01*
X120150000Y-111850000D01*
X123350000Y-111850000D01*
X123350000Y-114250000D01*
X123350000Y-114250000D01*
G37*
G36*
X106150000Y-113750000D02*
X104850000Y-113750000D01*
X104850000Y-112550000D01*
X106150000Y-112550000D01*
X106150000Y-113750000D01*
X106150000Y-113750000D01*
G37*
G36*
X115075000Y-113100000D02*
X113425000Y-113100000D01*
X113425000Y-111200000D01*
X115075000Y-111200000D01*
X115075000Y-113100000D01*
X115075000Y-113100000D01*
G37*
G36*
X108450000Y-113100000D02*
X107050000Y-113100000D01*
X107050000Y-111700000D01*
X108450000Y-111700000D01*
X108450000Y-113100000D01*
X108450000Y-113100000D01*
G37*
G36*
X112675000Y-112880000D02*
X109725000Y-112880000D01*
X109725000Y-110920000D01*
X112675000Y-110920000D01*
X112675000Y-112880000D01*
X112675000Y-112880000D01*
G37*
G36*
X100700000Y-111225000D02*
X98800000Y-111225000D01*
X98800000Y-109575000D01*
X100700000Y-109575000D01*
X100700000Y-111225000D01*
X100700000Y-111225000D01*
G37*
G36*
X98200000Y-111225000D02*
X96300000Y-111225000D01*
X96300000Y-109575000D01*
X98200000Y-109575000D01*
X98200000Y-111225000D01*
X98200000Y-111225000D01*
G37*
G36*
X105700000Y-111225000D02*
X103800000Y-111225000D01*
X103800000Y-109575000D01*
X105700000Y-109575000D01*
X105700000Y-111225000D01*
X105700000Y-111225000D01*
G37*
G36*
X103200000Y-111225000D02*
X101300000Y-111225000D01*
X101300000Y-109575000D01*
X103200000Y-109575000D01*
X103200000Y-111225000D01*
X103200000Y-111225000D01*
G37*
G36*
X114350000Y-110100000D02*
X112650000Y-110100000D01*
X112650000Y-108200000D01*
X114350000Y-108200000D01*
X114350000Y-110100000D01*
X114350000Y-110100000D01*
G37*
G36*
X117100000Y-110050000D02*
X115400000Y-110050000D01*
X115400000Y-108150000D01*
X117100000Y-108150000D01*
X117100000Y-110050000D01*
X117100000Y-110050000D01*
G37*
G36*
X123350000Y-109850000D02*
X120150000Y-109850000D01*
X120150000Y-107450000D01*
X123350000Y-107450000D01*
X123350000Y-109850000D01*
X123350000Y-109850000D01*
G37*
G36*
X108450000Y-109750000D02*
X106550000Y-109750000D01*
X106550000Y-108050000D01*
X108450000Y-108050000D01*
X108450000Y-109750000D01*
X108450000Y-109750000D01*
G37*
G36*
X111150000Y-109750000D02*
X109250000Y-109750000D01*
X109250000Y-108050000D01*
X111150000Y-108050000D01*
X111150000Y-109750000D01*
X111150000Y-109750000D01*
G37*
G36*
X99275000Y-108830000D02*
X96325000Y-108830000D01*
X96325000Y-106870000D01*
X99275000Y-106870000D01*
X99275000Y-108830000D01*
X99275000Y-108830000D01*
G37*
G36*
X101950000Y-107750000D02*
X100050000Y-107750000D01*
X100050000Y-106050000D01*
X101950000Y-106050000D01*
X101950000Y-107750000D01*
X101950000Y-107750000D01*
G37*
G36*
X104650000Y-107750000D02*
X102750000Y-107750000D01*
X102750000Y-106050000D01*
X104650000Y-106050000D01*
X104650000Y-107750000D01*
X104650000Y-107750000D01*
G37*
G36*
X114350000Y-107400000D02*
X112650000Y-107400000D01*
X112650000Y-105500000D01*
X114350000Y-105500000D01*
X114350000Y-107400000D01*
X114350000Y-107400000D01*
G37*
G36*
X117100000Y-107350000D02*
X115400000Y-107350000D01*
X115400000Y-105450000D01*
X117100000Y-105450000D01*
X117100000Y-107350000D01*
X117100000Y-107350000D01*
G37*
G36*
X110950000Y-107225000D02*
X109050000Y-107225000D01*
X109050000Y-105575000D01*
X110950000Y-105575000D01*
X110950000Y-107225000D01*
X110950000Y-107225000D01*
G37*
G36*
X108450000Y-107225000D02*
X106550000Y-107225000D01*
X106550000Y-105575000D01*
X108450000Y-105575000D01*
X108450000Y-107225000D01*
X108450000Y-107225000D01*
G37*
G36*
X99275000Y-106130000D02*
X98225000Y-106130000D01*
X98225000Y-104170000D01*
X99275000Y-104170000D01*
X99275000Y-106130000D01*
X99275000Y-106130000D01*
G37*
G36*
X97375000Y-106130000D02*
X96325000Y-106130000D01*
X96325000Y-104170000D01*
X97375000Y-104170000D01*
X97375000Y-106130000D01*
X97375000Y-106130000D01*
G37*
G36*
X107450000Y-101575000D02*
X107452402Y-101599386D01*
X107459515Y-101622835D01*
X107471066Y-101644446D01*
X107486612Y-101663388D01*
X107505554Y-101678934D01*
X107527165Y-101690485D01*
X107550614Y-101697598D01*
X107575000Y-101700000D01*
X108401000Y-101700000D01*
X108401000Y-102456000D01*
X108403402Y-102480386D01*
X108410515Y-102503835D01*
X108422066Y-102525446D01*
X108437612Y-102544388D01*
X108456554Y-102559934D01*
X108478165Y-102571485D01*
X108501614Y-102578598D01*
X108526000Y-102581000D01*
X115917000Y-102581000D01*
X115941386Y-102578598D01*
X115964835Y-102571485D01*
X115986446Y-102559934D01*
X116005388Y-102544388D01*
X116020934Y-102525446D01*
X116032485Y-102503835D01*
X116039598Y-102480386D01*
X116042000Y-102456000D01*
X116042000Y-101700000D01*
X116925000Y-101700000D01*
X116949386Y-101697598D01*
X116972835Y-101690485D01*
X116994446Y-101678934D01*
X117013388Y-101663388D01*
X117028934Y-101644446D01*
X117040485Y-101622835D01*
X117047598Y-101599386D01*
X117050000Y-101575000D01*
X117050000Y-92031000D01*
X118950000Y-92031000D01*
X118950000Y-101713159D01*
X118944402Y-101731614D01*
X118942000Y-101756000D01*
X118942000Y-104600000D01*
X116041409Y-104600000D01*
X116039598Y-104581614D01*
X116032485Y-104558165D01*
X116020934Y-104536554D01*
X116005388Y-104517612D01*
X115986446Y-104502066D01*
X115964835Y-104490515D01*
X115941386Y-104483402D01*
X115917000Y-104481000D01*
X108526000Y-104481000D01*
X108501614Y-104483402D01*
X108478165Y-104490515D01*
X108456554Y-104502066D01*
X108437612Y-104517612D01*
X108422066Y-104536554D01*
X108410515Y-104558165D01*
X108403402Y-104581614D01*
X108401591Y-104600000D01*
X105501000Y-104600000D01*
X105501000Y-101673555D01*
X105513388Y-101663388D01*
X105528934Y-101644446D01*
X105540485Y-101622835D01*
X105547598Y-101599386D01*
X105550000Y-101575000D01*
X105550000Y-92031000D01*
X107450000Y-92031000D01*
X107450000Y-101575000D01*
X107450000Y-101575000D01*
G37*
G36*
X104450000Y-104475000D02*
X102550000Y-104475000D01*
X102550000Y-102825000D01*
X104450000Y-102825000D01*
X104450000Y-104475000D01*
X104450000Y-104475000D01*
G37*
G36*
X101950000Y-104475000D02*
X100050000Y-104475000D01*
X100050000Y-102825000D01*
X101950000Y-102825000D01*
X101950000Y-104475000D01*
X101950000Y-104475000D01*
G37*
G36*
X123300000Y-103750000D02*
X120100000Y-103750000D01*
X120100000Y-101350000D01*
X123300000Y-101350000D01*
X123300000Y-103750000D01*
X123300000Y-103750000D01*
G37*
G36*
X97249490Y-103445640D02*
X95250510Y-103445640D01*
X95250510Y-102048640D01*
X97249490Y-102048640D01*
X97249490Y-103445640D01*
X97249490Y-103445640D01*
G37*
G36*
X100997260Y-101847980D02*
X99249740Y-101847980D01*
X99249740Y-96049160D01*
X100997260Y-96049160D01*
X100997260Y-101847980D01*
X100997260Y-101847980D01*
G37*
G36*
X123300000Y-99350000D02*
X120100000Y-99350000D01*
X120100000Y-96950000D01*
X123300000Y-96950000D01*
X123300000Y-99350000D01*
X123300000Y-99350000D01*
G37*
G36*
X97249490Y-95848500D02*
X95250510Y-95848500D01*
X95250510Y-94451500D01*
X97249490Y-94451500D01*
X97249490Y-95848500D01*
X97249490Y-95848500D01*
G37*
G36*
X97700000Y-93350000D02*
X95300000Y-93350000D01*
X95300000Y-90950000D01*
X97700000Y-90950000D01*
X97700000Y-93350000D01*
X97700000Y-93350000D01*
G37*
G36*
X104700000Y-93350000D02*
X102300000Y-93350000D01*
X102300000Y-90950000D01*
X104700000Y-90950000D01*
X104700000Y-93350000D01*
X104700000Y-93350000D01*
G37*
G36*
X123350000Y-93050000D02*
X120150000Y-93050000D01*
X120150000Y-90650000D01*
X123350000Y-90650000D01*
X123350000Y-93050000D01*
X123350000Y-93050000D01*
G37*
G36*
X123350000Y-88650000D02*
X120150000Y-88650000D01*
X120150000Y-86250000D01*
X123350000Y-86250000D01*
X123350000Y-88650000D01*
X123350000Y-88650000D01*
G37*
G36*
X97700000Y-86350000D02*
X95300000Y-86350000D01*
X95300000Y-83950000D01*
X97700000Y-83950000D01*
X97700000Y-86350000D01*
X97700000Y-86350000D01*
G37*
G36*
X103748000Y-86302000D02*
X102348000Y-86302000D01*
X102348000Y-84902000D01*
X103748000Y-84902000D01*
X103748000Y-86302000D01*
X103748000Y-86302000D01*
G37*
M02*
