M48
;DRILL file {KiCad 5.0.2-bee76a0~70~ubuntu18.04.1} date 2019年03月22日 13時38分43秒
;FORMAT={-:-/ absolute / inch / decimal}
FMAT,2
INCH,TZ
T1C0.0157
T2C0.0197
%
G90
G05
T1
X3.8839Y-3.9764
X3.8878Y-3.628
X3.8878Y-3.6772
X4.0059Y-3.687
X4.0059Y-3.9429
X4.0453Y-3.815
X4.0492Y-4.3563
X4.0748Y-4.5433
X4.1713Y-4.3681
X4.1732Y-3.5898
X4.2707Y-3.9144
X4.2733Y-3.7146
X4.3012Y-3.8642
X4.3481Y-3.7105
X4.3701Y-4.3957
X4.3767Y-3.6793
X4.4Y-3.95
X4.4094Y-3.6476
X4.4587Y-3.6476
X4.4744Y-3.9429
X4.5138Y-3.9628
X4.5492Y-4.3642
X4.5689Y-3.9232
X4.5728Y-4.5453
X4.7067Y-4.0098
X4.7146Y-3.3563
X4.7165Y-3.7618
X4.7428Y-4.1059
X4.7461Y-3.935
X4.7461Y-4.2106
X4.7579Y-4.3484
X4.7821Y-4.1083
T2
X4.7884Y-3.6988
X3.8169Y-4.1949
X3.8169Y-4.2776
X4.7884Y-3.7825
X3.8169Y-4.1122
X4.7894Y-3.3406
T0
M30
