G04 #@! TF.GenerationSoftware,KiCad,Pcbnew,5.0.2-bee76a0~70~ubuntu18.04.1*
G04 #@! TF.CreationDate,2019-03-22T13:37:18+09:00*
G04 #@! TF.ProjectId,GRRNble,4752524e-626c-4652-9e6b-696361645f70,rev?*
G04 #@! TF.SameCoordinates,Original*
G04 #@! TF.FileFunction,Copper,L2,Bot*
G04 #@! TF.FilePolarity,Positive*
%FSLAX46Y46*%
G04 Gerber Fmt 4.6, Leading zero omitted, Abs format (unit mm)*
G04 Created by KiCad (PCBNEW 5.0.2-bee76a0~70~ubuntu18.04.1) date 2019年03月22日 13時37分18秒*
%MOMM*%
%LPD*%
G01*
G04 APERTURE LIST*
G04 #@! TA.AperFunction,SMDPad,CuDef*
%ADD10R,1.500000X0.800000*%
G04 #@! TD*
G04 #@! TA.AperFunction,SMDPad,CuDef*
%ADD11R,0.800000X1.500000*%
G04 #@! TD*
G04 #@! TA.AperFunction,SMDPad,CuDef*
%ADD12R,2.500000X2.500000*%
G04 #@! TD*
G04 #@! TA.AperFunction,SMDPad,CuDef*
%ADD13R,1.549400X0.599440*%
G04 #@! TD*
G04 #@! TA.AperFunction,SMDPad,CuDef*
%ADD14R,1.800860X1.198880*%
G04 #@! TD*
G04 #@! TA.AperFunction,SMDPad,CuDef*
%ADD15R,2.000000X2.000000*%
G04 #@! TD*
G04 #@! TA.AperFunction,SMDPad,CuDef*
%ADD16R,1.000000X1.000000*%
G04 #@! TD*
G04 #@! TA.AperFunction,SMDPad,CuDef*
%ADD17R,1.200000X2.000000*%
G04 #@! TD*
G04 #@! TA.AperFunction,SMDPad,CuDef*
%ADD18R,2.000000X3.000000*%
G04 #@! TD*
G04 #@! TA.AperFunction,Conductor*
%ADD19C,0.100000*%
G04 #@! TD*
G04 #@! TA.AperFunction,SMDPad,CuDef*
%ADD20C,1.150000*%
G04 #@! TD*
G04 #@! TA.AperFunction,SMDPad,CuDef*
%ADD21R,0.900000X0.800000*%
G04 #@! TD*
G04 #@! TA.AperFunction,SMDPad,CuDef*
%ADD22R,0.650000X1.060000*%
G04 #@! TD*
G04 #@! TA.AperFunction,SMDPad,CuDef*
%ADD23C,0.500000*%
G04 #@! TD*
G04 #@! TA.AperFunction,ComponentPad*
%ADD24C,1.000000*%
G04 #@! TD*
G04 #@! TA.AperFunction,ComponentPad*
%ADD25R,1.000000X1.000000*%
G04 #@! TD*
G04 #@! TA.AperFunction,ViaPad*
%ADD26C,0.800000*%
G04 #@! TD*
G04 #@! TA.AperFunction,Conductor*
%ADD27C,0.250000*%
G04 #@! TD*
G04 #@! TA.AperFunction,Conductor*
%ADD28C,0.254000*%
G04 #@! TD*
G04 APERTURE END LIST*
D10*
G04 #@! TO.P,U5,1*
G04 #@! TO.N,GND*
X118000000Y-92631000D03*
G04 #@! TO.P,U5,2*
G04 #@! TO.N,N/C*
X118000000Y-93831000D03*
G04 #@! TO.P,U5,3*
X118000000Y-95031000D03*
G04 #@! TO.P,U5,4*
X118000000Y-96231000D03*
G04 #@! TO.P,U5,5*
G04 #@! TO.N,D8/RXD*
X118000000Y-97431000D03*
G04 #@! TO.P,U5,6*
G04 #@! TO.N,D7/TXD*
X118000000Y-98631000D03*
G04 #@! TO.P,U5,7*
G04 #@! TO.N,WAKESW*
X118000000Y-99831000D03*
G04 #@! TO.P,U5,8*
G04 #@! TO.N,N/C*
X118000000Y-101031000D03*
D11*
G04 #@! TO.P,U5,10*
G04 #@! TO.N,PIO1*
X115250000Y-103531000D03*
G04 #@! TO.P,U5,11*
G04 #@! TO.N,N/C*
X114050000Y-103531000D03*
G04 #@! TO.P,U5,12*
X112850000Y-103531000D03*
G04 #@! TO.P,U5,13*
X111650000Y-103531000D03*
G04 #@! TO.P,U5,14*
X110450000Y-103531000D03*
G04 #@! TO.P,U5,15*
G04 #@! TO.N,WAKEHW*
X109250000Y-103531000D03*
D10*
G04 #@! TO.P,U5,17*
G04 #@! TO.N,N/C*
X106500000Y-101031000D03*
G04 #@! TO.P,U5,18*
X106500000Y-99831000D03*
G04 #@! TO.P,U5,19*
X106500000Y-98631000D03*
G04 #@! TO.P,U5,20*
X106500000Y-97431000D03*
G04 #@! TO.P,U5,21*
X106500000Y-96231000D03*
G04 #@! TO.P,U5,22*
X106500000Y-95031000D03*
G04 #@! TO.P,U5,23*
G04 #@! TO.N,+3V3*
X106500000Y-93831000D03*
G04 #@! TO.P,U5,24*
G04 #@! TO.N,GND*
X106500000Y-92631000D03*
D12*
G04 #@! TO.P,U5,9*
X117492000Y-103150000D03*
G04 #@! TO.P,U5,16*
X106951000Y-103150000D03*
G04 #@! TD*
D13*
G04 #@! TO.P,J1,2*
G04 #@! TO.N,RXD*
X100123500Y-97448700D03*
G04 #@! TO.P,J1,3*
G04 #@! TO.N,TXD*
X100123500Y-98449460D03*
G04 #@! TO.P,J1,1*
G04 #@! TO.N,DTR*
X100123500Y-96447940D03*
D14*
G04 #@! TO.P,J1,M1*
G04 #@! TO.N,N/C*
X96250000Y-95150000D03*
G04 #@! TO.P,J1,M2*
X96250000Y-102747140D03*
D13*
G04 #@! TO.P,J1,4*
G04 #@! TO.N,Net-(C12-Pad1)*
X100123500Y-99450220D03*
G04 #@! TO.P,J1,5*
G04 #@! TO.N,CTS*
X100123500Y-100448440D03*
G04 #@! TO.P,J1,6*
G04 #@! TO.N,GND*
X100123500Y-101449200D03*
G04 #@! TD*
D15*
G04 #@! TO.P,U2,3*
G04 #@! TO.N,N/C*
X96500000Y-92400000D03*
D16*
G04 #@! TO.P,U2,4*
X96952000Y-85852000D03*
D15*
G04 #@! TO.P,U2,1*
G04 #@! TO.N,Net-(U1-Pad43)*
X103500000Y-85400000D03*
G04 #@! TO.P,U2,2*
G04 #@! TO.N,GND*
X103500000Y-92400000D03*
G04 #@! TD*
D17*
G04 #@! TO.P,SW1,1*
G04 #@! TO.N,SW1*
X122550000Y-108650000D03*
G04 #@! TO.P,SW1,2*
G04 #@! TO.N,GND*
X120950000Y-108650000D03*
G04 #@! TO.P,SW1,*
G04 #@! TO.N,*
X122550000Y-113050000D03*
X120950000Y-113050000D03*
G04 #@! TD*
G04 #@! TO.P,SW2,1*
G04 #@! TO.N,SW2*
X122550000Y-87450000D03*
G04 #@! TO.P,SW2,2*
G04 #@! TO.N,GND*
X120950000Y-87450000D03*
G04 #@! TO.P,SW2,*
G04 #@! TO.N,*
X122550000Y-91850000D03*
X120950000Y-91850000D03*
G04 #@! TD*
G04 #@! TO.P,SW3,1*
G04 #@! TO.N,SW3*
X122500000Y-98150000D03*
G04 #@! TO.P,SW3,2*
G04 #@! TO.N,GND*
X120900000Y-98150000D03*
G04 #@! TO.P,SW3,*
G04 #@! TO.N,*
X122500000Y-102550000D03*
X120900000Y-102550000D03*
G04 #@! TD*
D18*
G04 #@! TO.P,BT1,1*
G04 #@! TO.N,+BATT*
X97500000Y-113900000D03*
G04 #@! TO.P,BT1,2*
G04 #@! TO.N,GND*
X100500000Y-113900000D03*
G04 #@! TD*
D19*
G04 #@! TO.N,Net-(C12-Pad1)*
G04 #@! TO.C,R11*
G36*
X110624505Y-105951204D02*
X110648773Y-105954804D01*
X110672572Y-105960765D01*
X110695671Y-105969030D01*
X110717850Y-105979520D01*
X110738893Y-105992132D01*
X110758599Y-106006747D01*
X110776777Y-106023223D01*
X110793253Y-106041401D01*
X110807868Y-106061107D01*
X110820480Y-106082150D01*
X110830970Y-106104329D01*
X110839235Y-106127428D01*
X110845196Y-106151227D01*
X110848796Y-106175495D01*
X110850000Y-106199999D01*
X110850000Y-107100001D01*
X110848796Y-107124505D01*
X110845196Y-107148773D01*
X110839235Y-107172572D01*
X110830970Y-107195671D01*
X110820480Y-107217850D01*
X110807868Y-107238893D01*
X110793253Y-107258599D01*
X110776777Y-107276777D01*
X110758599Y-107293253D01*
X110738893Y-107307868D01*
X110717850Y-107320480D01*
X110695671Y-107330970D01*
X110672572Y-107339235D01*
X110648773Y-107345196D01*
X110624505Y-107348796D01*
X110600001Y-107350000D01*
X109949999Y-107350000D01*
X109925495Y-107348796D01*
X109901227Y-107345196D01*
X109877428Y-107339235D01*
X109854329Y-107330970D01*
X109832150Y-107320480D01*
X109811107Y-107307868D01*
X109791401Y-107293253D01*
X109773223Y-107276777D01*
X109756747Y-107258599D01*
X109742132Y-107238893D01*
X109729520Y-107217850D01*
X109719030Y-107195671D01*
X109710765Y-107172572D01*
X109704804Y-107148773D01*
X109701204Y-107124505D01*
X109700000Y-107100001D01*
X109700000Y-106199999D01*
X109701204Y-106175495D01*
X109704804Y-106151227D01*
X109710765Y-106127428D01*
X109719030Y-106104329D01*
X109729520Y-106082150D01*
X109742132Y-106061107D01*
X109756747Y-106041401D01*
X109773223Y-106023223D01*
X109791401Y-106006747D01*
X109811107Y-105992132D01*
X109832150Y-105979520D01*
X109854329Y-105969030D01*
X109877428Y-105960765D01*
X109901227Y-105954804D01*
X109925495Y-105951204D01*
X109949999Y-105950000D01*
X110600001Y-105950000D01*
X110624505Y-105951204D01*
X110624505Y-105951204D01*
G37*
D20*
G04 #@! TD*
G04 #@! TO.P,R11,1*
G04 #@! TO.N,Net-(C12-Pad1)*
X110275000Y-106650000D03*
D19*
G04 #@! TO.N,GND*
G04 #@! TO.C,R11*
G36*
X108574505Y-105951204D02*
X108598773Y-105954804D01*
X108622572Y-105960765D01*
X108645671Y-105969030D01*
X108667850Y-105979520D01*
X108688893Y-105992132D01*
X108708599Y-106006747D01*
X108726777Y-106023223D01*
X108743253Y-106041401D01*
X108757868Y-106061107D01*
X108770480Y-106082150D01*
X108780970Y-106104329D01*
X108789235Y-106127428D01*
X108795196Y-106151227D01*
X108798796Y-106175495D01*
X108800000Y-106199999D01*
X108800000Y-107100001D01*
X108798796Y-107124505D01*
X108795196Y-107148773D01*
X108789235Y-107172572D01*
X108780970Y-107195671D01*
X108770480Y-107217850D01*
X108757868Y-107238893D01*
X108743253Y-107258599D01*
X108726777Y-107276777D01*
X108708599Y-107293253D01*
X108688893Y-107307868D01*
X108667850Y-107320480D01*
X108645671Y-107330970D01*
X108622572Y-107339235D01*
X108598773Y-107345196D01*
X108574505Y-107348796D01*
X108550001Y-107350000D01*
X107899999Y-107350000D01*
X107875495Y-107348796D01*
X107851227Y-107345196D01*
X107827428Y-107339235D01*
X107804329Y-107330970D01*
X107782150Y-107320480D01*
X107761107Y-107307868D01*
X107741401Y-107293253D01*
X107723223Y-107276777D01*
X107706747Y-107258599D01*
X107692132Y-107238893D01*
X107679520Y-107217850D01*
X107669030Y-107195671D01*
X107660765Y-107172572D01*
X107654804Y-107148773D01*
X107651204Y-107124505D01*
X107650000Y-107100001D01*
X107650000Y-106199999D01*
X107651204Y-106175495D01*
X107654804Y-106151227D01*
X107660765Y-106127428D01*
X107669030Y-106104329D01*
X107679520Y-106082150D01*
X107692132Y-106061107D01*
X107706747Y-106041401D01*
X107723223Y-106023223D01*
X107741401Y-106006747D01*
X107761107Y-105992132D01*
X107782150Y-105979520D01*
X107804329Y-105969030D01*
X107827428Y-105960765D01*
X107851227Y-105954804D01*
X107875495Y-105951204D01*
X107899999Y-105950000D01*
X108550001Y-105950000D01*
X108574505Y-105951204D01*
X108574505Y-105951204D01*
G37*
D20*
G04 #@! TD*
G04 #@! TO.P,R11,2*
G04 #@! TO.N,GND*
X108225000Y-106650000D03*
D21*
G04 #@! TO.P,U6,1*
G04 #@! TO.N,GND*
X112000000Y-112950000D03*
G04 #@! TO.P,U6,2*
G04 #@! TO.N,+3V3*
X112000000Y-114850000D03*
G04 #@! TO.P,U6,3*
G04 #@! TO.N,+5V*
X110000000Y-113900000D03*
G04 #@! TD*
G04 #@! TO.P,Q1,3*
G04 #@! TO.N,+BATT*
X103500000Y-114100000D03*
G04 #@! TO.P,Q1,2*
G04 #@! TO.N,+5V*
X105500000Y-115050000D03*
G04 #@! TO.P,Q1,1*
G04 #@! TO.N,Net-(C12-Pad1)*
X105500000Y-113150000D03*
G04 #@! TD*
D19*
G04 #@! TO.N,Net-(C12-Pad1)*
G04 #@! TO.C,C12*
G36*
X103724505Y-98851204D02*
X103748773Y-98854804D01*
X103772572Y-98860765D01*
X103795671Y-98869030D01*
X103817850Y-98879520D01*
X103838893Y-98892132D01*
X103858599Y-98906747D01*
X103876777Y-98923223D01*
X103893253Y-98941401D01*
X103907868Y-98961107D01*
X103920480Y-98982150D01*
X103930970Y-99004329D01*
X103939235Y-99027428D01*
X103945196Y-99051227D01*
X103948796Y-99075495D01*
X103950000Y-99099999D01*
X103950000Y-99750001D01*
X103948796Y-99774505D01*
X103945196Y-99798773D01*
X103939235Y-99822572D01*
X103930970Y-99845671D01*
X103920480Y-99867850D01*
X103907868Y-99888893D01*
X103893253Y-99908599D01*
X103876777Y-99926777D01*
X103858599Y-99943253D01*
X103838893Y-99957868D01*
X103817850Y-99970480D01*
X103795671Y-99980970D01*
X103772572Y-99989235D01*
X103748773Y-99995196D01*
X103724505Y-99998796D01*
X103700001Y-100000000D01*
X102799999Y-100000000D01*
X102775495Y-99998796D01*
X102751227Y-99995196D01*
X102727428Y-99989235D01*
X102704329Y-99980970D01*
X102682150Y-99970480D01*
X102661107Y-99957868D01*
X102641401Y-99943253D01*
X102623223Y-99926777D01*
X102606747Y-99908599D01*
X102592132Y-99888893D01*
X102579520Y-99867850D01*
X102569030Y-99845671D01*
X102560765Y-99822572D01*
X102554804Y-99798773D01*
X102551204Y-99774505D01*
X102550000Y-99750001D01*
X102550000Y-99099999D01*
X102551204Y-99075495D01*
X102554804Y-99051227D01*
X102560765Y-99027428D01*
X102569030Y-99004329D01*
X102579520Y-98982150D01*
X102592132Y-98961107D01*
X102606747Y-98941401D01*
X102623223Y-98923223D01*
X102641401Y-98906747D01*
X102661107Y-98892132D01*
X102682150Y-98879520D01*
X102704329Y-98869030D01*
X102727428Y-98860765D01*
X102751227Y-98854804D01*
X102775495Y-98851204D01*
X102799999Y-98850000D01*
X103700001Y-98850000D01*
X103724505Y-98851204D01*
X103724505Y-98851204D01*
G37*
D20*
G04 #@! TD*
G04 #@! TO.P,C12,1*
G04 #@! TO.N,Net-(C12-Pad1)*
X103250000Y-99425000D03*
D19*
G04 #@! TO.N,GND*
G04 #@! TO.C,C12*
G36*
X103724505Y-100901204D02*
X103748773Y-100904804D01*
X103772572Y-100910765D01*
X103795671Y-100919030D01*
X103817850Y-100929520D01*
X103838893Y-100942132D01*
X103858599Y-100956747D01*
X103876777Y-100973223D01*
X103893253Y-100991401D01*
X103907868Y-101011107D01*
X103920480Y-101032150D01*
X103930970Y-101054329D01*
X103939235Y-101077428D01*
X103945196Y-101101227D01*
X103948796Y-101125495D01*
X103950000Y-101149999D01*
X103950000Y-101800001D01*
X103948796Y-101824505D01*
X103945196Y-101848773D01*
X103939235Y-101872572D01*
X103930970Y-101895671D01*
X103920480Y-101917850D01*
X103907868Y-101938893D01*
X103893253Y-101958599D01*
X103876777Y-101976777D01*
X103858599Y-101993253D01*
X103838893Y-102007868D01*
X103817850Y-102020480D01*
X103795671Y-102030970D01*
X103772572Y-102039235D01*
X103748773Y-102045196D01*
X103724505Y-102048796D01*
X103700001Y-102050000D01*
X102799999Y-102050000D01*
X102775495Y-102048796D01*
X102751227Y-102045196D01*
X102727428Y-102039235D01*
X102704329Y-102030970D01*
X102682150Y-102020480D01*
X102661107Y-102007868D01*
X102641401Y-101993253D01*
X102623223Y-101976777D01*
X102606747Y-101958599D01*
X102592132Y-101938893D01*
X102579520Y-101917850D01*
X102569030Y-101895671D01*
X102560765Y-101872572D01*
X102554804Y-101848773D01*
X102551204Y-101824505D01*
X102550000Y-101800001D01*
X102550000Y-101149999D01*
X102551204Y-101125495D01*
X102554804Y-101101227D01*
X102560765Y-101077428D01*
X102569030Y-101054329D01*
X102579520Y-101032150D01*
X102592132Y-101011107D01*
X102606747Y-100991401D01*
X102623223Y-100973223D01*
X102641401Y-100956747D01*
X102661107Y-100942132D01*
X102682150Y-100929520D01*
X102704329Y-100919030D01*
X102727428Y-100910765D01*
X102751227Y-100904804D01*
X102775495Y-100901204D01*
X102799999Y-100900000D01*
X103700001Y-100900000D01*
X103724505Y-100901204D01*
X103724505Y-100901204D01*
G37*
D20*
G04 #@! TD*
G04 #@! TO.P,C12,2*
G04 #@! TO.N,GND*
X103250000Y-101475000D03*
D19*
G04 #@! TO.N,GND*
G04 #@! TO.C,C13*
G36*
X101399505Y-109951204D02*
X101423773Y-109954804D01*
X101447572Y-109960765D01*
X101470671Y-109969030D01*
X101492850Y-109979520D01*
X101513893Y-109992132D01*
X101533599Y-110006747D01*
X101551777Y-110023223D01*
X101568253Y-110041401D01*
X101582868Y-110061107D01*
X101595480Y-110082150D01*
X101605970Y-110104329D01*
X101614235Y-110127428D01*
X101620196Y-110151227D01*
X101623796Y-110175495D01*
X101625000Y-110199999D01*
X101625000Y-111100001D01*
X101623796Y-111124505D01*
X101620196Y-111148773D01*
X101614235Y-111172572D01*
X101605970Y-111195671D01*
X101595480Y-111217850D01*
X101582868Y-111238893D01*
X101568253Y-111258599D01*
X101551777Y-111276777D01*
X101533599Y-111293253D01*
X101513893Y-111307868D01*
X101492850Y-111320480D01*
X101470671Y-111330970D01*
X101447572Y-111339235D01*
X101423773Y-111345196D01*
X101399505Y-111348796D01*
X101375001Y-111350000D01*
X100724999Y-111350000D01*
X100700495Y-111348796D01*
X100676227Y-111345196D01*
X100652428Y-111339235D01*
X100629329Y-111330970D01*
X100607150Y-111320480D01*
X100586107Y-111307868D01*
X100566401Y-111293253D01*
X100548223Y-111276777D01*
X100531747Y-111258599D01*
X100517132Y-111238893D01*
X100504520Y-111217850D01*
X100494030Y-111195671D01*
X100485765Y-111172572D01*
X100479804Y-111148773D01*
X100476204Y-111124505D01*
X100475000Y-111100001D01*
X100475000Y-110199999D01*
X100476204Y-110175495D01*
X100479804Y-110151227D01*
X100485765Y-110127428D01*
X100494030Y-110104329D01*
X100504520Y-110082150D01*
X100517132Y-110061107D01*
X100531747Y-110041401D01*
X100548223Y-110023223D01*
X100566401Y-110006747D01*
X100586107Y-109992132D01*
X100607150Y-109979520D01*
X100629329Y-109969030D01*
X100652428Y-109960765D01*
X100676227Y-109954804D01*
X100700495Y-109951204D01*
X100724999Y-109950000D01*
X101375001Y-109950000D01*
X101399505Y-109951204D01*
X101399505Y-109951204D01*
G37*
D20*
G04 #@! TD*
G04 #@! TO.P,C13,2*
G04 #@! TO.N,GND*
X101050000Y-110650000D03*
D19*
G04 #@! TO.N,+BATT*
G04 #@! TO.C,C13*
G36*
X99349505Y-109951204D02*
X99373773Y-109954804D01*
X99397572Y-109960765D01*
X99420671Y-109969030D01*
X99442850Y-109979520D01*
X99463893Y-109992132D01*
X99483599Y-110006747D01*
X99501777Y-110023223D01*
X99518253Y-110041401D01*
X99532868Y-110061107D01*
X99545480Y-110082150D01*
X99555970Y-110104329D01*
X99564235Y-110127428D01*
X99570196Y-110151227D01*
X99573796Y-110175495D01*
X99575000Y-110199999D01*
X99575000Y-111100001D01*
X99573796Y-111124505D01*
X99570196Y-111148773D01*
X99564235Y-111172572D01*
X99555970Y-111195671D01*
X99545480Y-111217850D01*
X99532868Y-111238893D01*
X99518253Y-111258599D01*
X99501777Y-111276777D01*
X99483599Y-111293253D01*
X99463893Y-111307868D01*
X99442850Y-111320480D01*
X99420671Y-111330970D01*
X99397572Y-111339235D01*
X99373773Y-111345196D01*
X99349505Y-111348796D01*
X99325001Y-111350000D01*
X98674999Y-111350000D01*
X98650495Y-111348796D01*
X98626227Y-111345196D01*
X98602428Y-111339235D01*
X98579329Y-111330970D01*
X98557150Y-111320480D01*
X98536107Y-111307868D01*
X98516401Y-111293253D01*
X98498223Y-111276777D01*
X98481747Y-111258599D01*
X98467132Y-111238893D01*
X98454520Y-111217850D01*
X98444030Y-111195671D01*
X98435765Y-111172572D01*
X98429804Y-111148773D01*
X98426204Y-111124505D01*
X98425000Y-111100001D01*
X98425000Y-110199999D01*
X98426204Y-110175495D01*
X98429804Y-110151227D01*
X98435765Y-110127428D01*
X98444030Y-110104329D01*
X98454520Y-110082150D01*
X98467132Y-110061107D01*
X98481747Y-110041401D01*
X98498223Y-110023223D01*
X98516401Y-110006747D01*
X98536107Y-109992132D01*
X98557150Y-109979520D01*
X98579329Y-109969030D01*
X98602428Y-109960765D01*
X98626227Y-109954804D01*
X98650495Y-109951204D01*
X98674999Y-109950000D01*
X99325001Y-109950000D01*
X99349505Y-109951204D01*
X99349505Y-109951204D01*
G37*
D20*
G04 #@! TD*
G04 #@! TO.P,C13,1*
G04 #@! TO.N,+BATT*
X99000000Y-110650000D03*
D19*
G04 #@! TO.N,GND*
G04 #@! TO.C,C15*
G36*
X108599505Y-109201204D02*
X108623773Y-109204804D01*
X108647572Y-109210765D01*
X108670671Y-109219030D01*
X108692850Y-109229520D01*
X108713893Y-109242132D01*
X108733599Y-109256747D01*
X108751777Y-109273223D01*
X108768253Y-109291401D01*
X108782868Y-109311107D01*
X108795480Y-109332150D01*
X108805970Y-109354329D01*
X108814235Y-109377428D01*
X108820196Y-109401227D01*
X108823796Y-109425495D01*
X108825000Y-109449999D01*
X108825000Y-110350001D01*
X108823796Y-110374505D01*
X108820196Y-110398773D01*
X108814235Y-110422572D01*
X108805970Y-110445671D01*
X108795480Y-110467850D01*
X108782868Y-110488893D01*
X108768253Y-110508599D01*
X108751777Y-110526777D01*
X108733599Y-110543253D01*
X108713893Y-110557868D01*
X108692850Y-110570480D01*
X108670671Y-110580970D01*
X108647572Y-110589235D01*
X108623773Y-110595196D01*
X108599505Y-110598796D01*
X108575001Y-110600000D01*
X107924999Y-110600000D01*
X107900495Y-110598796D01*
X107876227Y-110595196D01*
X107852428Y-110589235D01*
X107829329Y-110580970D01*
X107807150Y-110570480D01*
X107786107Y-110557868D01*
X107766401Y-110543253D01*
X107748223Y-110526777D01*
X107731747Y-110508599D01*
X107717132Y-110488893D01*
X107704520Y-110467850D01*
X107694030Y-110445671D01*
X107685765Y-110422572D01*
X107679804Y-110398773D01*
X107676204Y-110374505D01*
X107675000Y-110350001D01*
X107675000Y-109449999D01*
X107676204Y-109425495D01*
X107679804Y-109401227D01*
X107685765Y-109377428D01*
X107694030Y-109354329D01*
X107704520Y-109332150D01*
X107717132Y-109311107D01*
X107731747Y-109291401D01*
X107748223Y-109273223D01*
X107766401Y-109256747D01*
X107786107Y-109242132D01*
X107807150Y-109229520D01*
X107829329Y-109219030D01*
X107852428Y-109210765D01*
X107876227Y-109204804D01*
X107900495Y-109201204D01*
X107924999Y-109200000D01*
X108575001Y-109200000D01*
X108599505Y-109201204D01*
X108599505Y-109201204D01*
G37*
D20*
G04 #@! TD*
G04 #@! TO.P,C15,2*
G04 #@! TO.N,GND*
X108250000Y-109900000D03*
D19*
G04 #@! TO.N,+5V*
G04 #@! TO.C,C15*
G36*
X110649505Y-109201204D02*
X110673773Y-109204804D01*
X110697572Y-109210765D01*
X110720671Y-109219030D01*
X110742850Y-109229520D01*
X110763893Y-109242132D01*
X110783599Y-109256747D01*
X110801777Y-109273223D01*
X110818253Y-109291401D01*
X110832868Y-109311107D01*
X110845480Y-109332150D01*
X110855970Y-109354329D01*
X110864235Y-109377428D01*
X110870196Y-109401227D01*
X110873796Y-109425495D01*
X110875000Y-109449999D01*
X110875000Y-110350001D01*
X110873796Y-110374505D01*
X110870196Y-110398773D01*
X110864235Y-110422572D01*
X110855970Y-110445671D01*
X110845480Y-110467850D01*
X110832868Y-110488893D01*
X110818253Y-110508599D01*
X110801777Y-110526777D01*
X110783599Y-110543253D01*
X110763893Y-110557868D01*
X110742850Y-110570480D01*
X110720671Y-110580970D01*
X110697572Y-110589235D01*
X110673773Y-110595196D01*
X110649505Y-110598796D01*
X110625001Y-110600000D01*
X109974999Y-110600000D01*
X109950495Y-110598796D01*
X109926227Y-110595196D01*
X109902428Y-110589235D01*
X109879329Y-110580970D01*
X109857150Y-110570480D01*
X109836107Y-110557868D01*
X109816401Y-110543253D01*
X109798223Y-110526777D01*
X109781747Y-110508599D01*
X109767132Y-110488893D01*
X109754520Y-110467850D01*
X109744030Y-110445671D01*
X109735765Y-110422572D01*
X109729804Y-110398773D01*
X109726204Y-110374505D01*
X109725000Y-110350001D01*
X109725000Y-109449999D01*
X109726204Y-109425495D01*
X109729804Y-109401227D01*
X109735765Y-109377428D01*
X109744030Y-109354329D01*
X109754520Y-109332150D01*
X109767132Y-109311107D01*
X109781747Y-109291401D01*
X109798223Y-109273223D01*
X109816401Y-109256747D01*
X109836107Y-109242132D01*
X109857150Y-109229520D01*
X109879329Y-109219030D01*
X109902428Y-109210765D01*
X109926227Y-109204804D01*
X109950495Y-109201204D01*
X109974999Y-109200000D01*
X110625001Y-109200000D01*
X110649505Y-109201204D01*
X110649505Y-109201204D01*
G37*
D20*
G04 #@! TD*
G04 #@! TO.P,C15,1*
G04 #@! TO.N,+5V*
X110300000Y-109900000D03*
D19*
G04 #@! TO.N,+3V3*
G04 #@! TO.C,C16*
G36*
X114724505Y-113851204D02*
X114748773Y-113854804D01*
X114772572Y-113860765D01*
X114795671Y-113869030D01*
X114817850Y-113879520D01*
X114838893Y-113892132D01*
X114858599Y-113906747D01*
X114876777Y-113923223D01*
X114893253Y-113941401D01*
X114907868Y-113961107D01*
X114920480Y-113982150D01*
X114930970Y-114004329D01*
X114939235Y-114027428D01*
X114945196Y-114051227D01*
X114948796Y-114075495D01*
X114950000Y-114099999D01*
X114950000Y-114750001D01*
X114948796Y-114774505D01*
X114945196Y-114798773D01*
X114939235Y-114822572D01*
X114930970Y-114845671D01*
X114920480Y-114867850D01*
X114907868Y-114888893D01*
X114893253Y-114908599D01*
X114876777Y-114926777D01*
X114858599Y-114943253D01*
X114838893Y-114957868D01*
X114817850Y-114970480D01*
X114795671Y-114980970D01*
X114772572Y-114989235D01*
X114748773Y-114995196D01*
X114724505Y-114998796D01*
X114700001Y-115000000D01*
X113799999Y-115000000D01*
X113775495Y-114998796D01*
X113751227Y-114995196D01*
X113727428Y-114989235D01*
X113704329Y-114980970D01*
X113682150Y-114970480D01*
X113661107Y-114957868D01*
X113641401Y-114943253D01*
X113623223Y-114926777D01*
X113606747Y-114908599D01*
X113592132Y-114888893D01*
X113579520Y-114867850D01*
X113569030Y-114845671D01*
X113560765Y-114822572D01*
X113554804Y-114798773D01*
X113551204Y-114774505D01*
X113550000Y-114750001D01*
X113550000Y-114099999D01*
X113551204Y-114075495D01*
X113554804Y-114051227D01*
X113560765Y-114027428D01*
X113569030Y-114004329D01*
X113579520Y-113982150D01*
X113592132Y-113961107D01*
X113606747Y-113941401D01*
X113623223Y-113923223D01*
X113641401Y-113906747D01*
X113661107Y-113892132D01*
X113682150Y-113879520D01*
X113704329Y-113869030D01*
X113727428Y-113860765D01*
X113751227Y-113854804D01*
X113775495Y-113851204D01*
X113799999Y-113850000D01*
X114700001Y-113850000D01*
X114724505Y-113851204D01*
X114724505Y-113851204D01*
G37*
D20*
G04 #@! TD*
G04 #@! TO.P,C16,1*
G04 #@! TO.N,+3V3*
X114250000Y-114425000D03*
D19*
G04 #@! TO.N,GND*
G04 #@! TO.C,C16*
G36*
X114724505Y-111801204D02*
X114748773Y-111804804D01*
X114772572Y-111810765D01*
X114795671Y-111819030D01*
X114817850Y-111829520D01*
X114838893Y-111842132D01*
X114858599Y-111856747D01*
X114876777Y-111873223D01*
X114893253Y-111891401D01*
X114907868Y-111911107D01*
X114920480Y-111932150D01*
X114930970Y-111954329D01*
X114939235Y-111977428D01*
X114945196Y-112001227D01*
X114948796Y-112025495D01*
X114950000Y-112049999D01*
X114950000Y-112700001D01*
X114948796Y-112724505D01*
X114945196Y-112748773D01*
X114939235Y-112772572D01*
X114930970Y-112795671D01*
X114920480Y-112817850D01*
X114907868Y-112838893D01*
X114893253Y-112858599D01*
X114876777Y-112876777D01*
X114858599Y-112893253D01*
X114838893Y-112907868D01*
X114817850Y-112920480D01*
X114795671Y-112930970D01*
X114772572Y-112939235D01*
X114748773Y-112945196D01*
X114724505Y-112948796D01*
X114700001Y-112950000D01*
X113799999Y-112950000D01*
X113775495Y-112948796D01*
X113751227Y-112945196D01*
X113727428Y-112939235D01*
X113704329Y-112930970D01*
X113682150Y-112920480D01*
X113661107Y-112907868D01*
X113641401Y-112893253D01*
X113623223Y-112876777D01*
X113606747Y-112858599D01*
X113592132Y-112838893D01*
X113579520Y-112817850D01*
X113569030Y-112795671D01*
X113560765Y-112772572D01*
X113554804Y-112748773D01*
X113551204Y-112724505D01*
X113550000Y-112700001D01*
X113550000Y-112049999D01*
X113551204Y-112025495D01*
X113554804Y-112001227D01*
X113560765Y-111977428D01*
X113569030Y-111954329D01*
X113579520Y-111932150D01*
X113592132Y-111911107D01*
X113606747Y-111891401D01*
X113623223Y-111873223D01*
X113641401Y-111856747D01*
X113661107Y-111842132D01*
X113682150Y-111829520D01*
X113704329Y-111819030D01*
X113727428Y-111810765D01*
X113751227Y-111804804D01*
X113775495Y-111801204D01*
X113799999Y-111800000D01*
X114700001Y-111800000D01*
X114724505Y-111801204D01*
X114724505Y-111801204D01*
G37*
D20*
G04 #@! TD*
G04 #@! TO.P,C16,2*
G04 #@! TO.N,GND*
X114250000Y-112375000D03*
D16*
G04 #@! TO.P,D1,1*
G04 #@! TO.N,+5V*
X107750000Y-115150000D03*
G04 #@! TO.P,D1,2*
G04 #@! TO.N,Net-(C12-Pad1)*
X107750000Y-112650000D03*
G04 #@! TD*
D19*
G04 #@! TO.N,Net-(R8-Pad1)*
G04 #@! TO.C,R8*
G36*
X101574505Y-103151204D02*
X101598773Y-103154804D01*
X101622572Y-103160765D01*
X101645671Y-103169030D01*
X101667850Y-103179520D01*
X101688893Y-103192132D01*
X101708599Y-103206747D01*
X101726777Y-103223223D01*
X101743253Y-103241401D01*
X101757868Y-103261107D01*
X101770480Y-103282150D01*
X101780970Y-103304329D01*
X101789235Y-103327428D01*
X101795196Y-103351227D01*
X101798796Y-103375495D01*
X101800000Y-103399999D01*
X101800000Y-104300001D01*
X101798796Y-104324505D01*
X101795196Y-104348773D01*
X101789235Y-104372572D01*
X101780970Y-104395671D01*
X101770480Y-104417850D01*
X101757868Y-104438893D01*
X101743253Y-104458599D01*
X101726777Y-104476777D01*
X101708599Y-104493253D01*
X101688893Y-104507868D01*
X101667850Y-104520480D01*
X101645671Y-104530970D01*
X101622572Y-104539235D01*
X101598773Y-104545196D01*
X101574505Y-104548796D01*
X101550001Y-104550000D01*
X100899999Y-104550000D01*
X100875495Y-104548796D01*
X100851227Y-104545196D01*
X100827428Y-104539235D01*
X100804329Y-104530970D01*
X100782150Y-104520480D01*
X100761107Y-104507868D01*
X100741401Y-104493253D01*
X100723223Y-104476777D01*
X100706747Y-104458599D01*
X100692132Y-104438893D01*
X100679520Y-104417850D01*
X100669030Y-104395671D01*
X100660765Y-104372572D01*
X100654804Y-104348773D01*
X100651204Y-104324505D01*
X100650000Y-104300001D01*
X100650000Y-103399999D01*
X100651204Y-103375495D01*
X100654804Y-103351227D01*
X100660765Y-103327428D01*
X100669030Y-103304329D01*
X100679520Y-103282150D01*
X100692132Y-103261107D01*
X100706747Y-103241401D01*
X100723223Y-103223223D01*
X100741401Y-103206747D01*
X100761107Y-103192132D01*
X100782150Y-103179520D01*
X100804329Y-103169030D01*
X100827428Y-103160765D01*
X100851227Y-103154804D01*
X100875495Y-103151204D01*
X100899999Y-103150000D01*
X101550001Y-103150000D01*
X101574505Y-103151204D01*
X101574505Y-103151204D01*
G37*
D20*
G04 #@! TD*
G04 #@! TO.P,R8,1*
G04 #@! TO.N,Net-(R8-Pad1)*
X101225000Y-103850000D03*
D19*
G04 #@! TO.N,GND*
G04 #@! TO.C,R8*
G36*
X103624505Y-103151204D02*
X103648773Y-103154804D01*
X103672572Y-103160765D01*
X103695671Y-103169030D01*
X103717850Y-103179520D01*
X103738893Y-103192132D01*
X103758599Y-103206747D01*
X103776777Y-103223223D01*
X103793253Y-103241401D01*
X103807868Y-103261107D01*
X103820480Y-103282150D01*
X103830970Y-103304329D01*
X103839235Y-103327428D01*
X103845196Y-103351227D01*
X103848796Y-103375495D01*
X103850000Y-103399999D01*
X103850000Y-104300001D01*
X103848796Y-104324505D01*
X103845196Y-104348773D01*
X103839235Y-104372572D01*
X103830970Y-104395671D01*
X103820480Y-104417850D01*
X103807868Y-104438893D01*
X103793253Y-104458599D01*
X103776777Y-104476777D01*
X103758599Y-104493253D01*
X103738893Y-104507868D01*
X103717850Y-104520480D01*
X103695671Y-104530970D01*
X103672572Y-104539235D01*
X103648773Y-104545196D01*
X103624505Y-104548796D01*
X103600001Y-104550000D01*
X102949999Y-104550000D01*
X102925495Y-104548796D01*
X102901227Y-104545196D01*
X102877428Y-104539235D01*
X102854329Y-104530970D01*
X102832150Y-104520480D01*
X102811107Y-104507868D01*
X102791401Y-104493253D01*
X102773223Y-104476777D01*
X102756747Y-104458599D01*
X102742132Y-104438893D01*
X102729520Y-104417850D01*
X102719030Y-104395671D01*
X102710765Y-104372572D01*
X102704804Y-104348773D01*
X102701204Y-104324505D01*
X102700000Y-104300001D01*
X102700000Y-103399999D01*
X102701204Y-103375495D01*
X102704804Y-103351227D01*
X102710765Y-103327428D01*
X102719030Y-103304329D01*
X102729520Y-103282150D01*
X102742132Y-103261107D01*
X102756747Y-103241401D01*
X102773223Y-103223223D01*
X102791401Y-103206747D01*
X102811107Y-103192132D01*
X102832150Y-103179520D01*
X102854329Y-103169030D01*
X102877428Y-103160765D01*
X102901227Y-103154804D01*
X102925495Y-103151204D01*
X102949999Y-103150000D01*
X103600001Y-103150000D01*
X103624505Y-103151204D01*
X103624505Y-103151204D01*
G37*
D20*
G04 #@! TD*
G04 #@! TO.P,R8,2*
G04 #@! TO.N,GND*
X103275000Y-103850000D03*
D19*
G04 #@! TO.N,Net-(C12-Pad1)*
G04 #@! TO.C,R9*
G36*
X113624505Y-106176204D02*
X113648773Y-106179804D01*
X113672572Y-106185765D01*
X113695671Y-106194030D01*
X113717850Y-106204520D01*
X113738893Y-106217132D01*
X113758599Y-106231747D01*
X113776777Y-106248223D01*
X113793253Y-106266401D01*
X113807868Y-106286107D01*
X113820480Y-106307150D01*
X113830970Y-106329329D01*
X113839235Y-106352428D01*
X113845196Y-106376227D01*
X113848796Y-106400495D01*
X113850000Y-106424999D01*
X113850000Y-107075001D01*
X113848796Y-107099505D01*
X113845196Y-107123773D01*
X113839235Y-107147572D01*
X113830970Y-107170671D01*
X113820480Y-107192850D01*
X113807868Y-107213893D01*
X113793253Y-107233599D01*
X113776777Y-107251777D01*
X113758599Y-107268253D01*
X113738893Y-107282868D01*
X113717850Y-107295480D01*
X113695671Y-107305970D01*
X113672572Y-107314235D01*
X113648773Y-107320196D01*
X113624505Y-107323796D01*
X113600001Y-107325000D01*
X112699999Y-107325000D01*
X112675495Y-107323796D01*
X112651227Y-107320196D01*
X112627428Y-107314235D01*
X112604329Y-107305970D01*
X112582150Y-107295480D01*
X112561107Y-107282868D01*
X112541401Y-107268253D01*
X112523223Y-107251777D01*
X112506747Y-107233599D01*
X112492132Y-107213893D01*
X112479520Y-107192850D01*
X112469030Y-107170671D01*
X112460765Y-107147572D01*
X112454804Y-107123773D01*
X112451204Y-107099505D01*
X112450000Y-107075001D01*
X112450000Y-106424999D01*
X112451204Y-106400495D01*
X112454804Y-106376227D01*
X112460765Y-106352428D01*
X112469030Y-106329329D01*
X112479520Y-106307150D01*
X112492132Y-106286107D01*
X112506747Y-106266401D01*
X112523223Y-106248223D01*
X112541401Y-106231747D01*
X112561107Y-106217132D01*
X112582150Y-106204520D01*
X112604329Y-106194030D01*
X112627428Y-106185765D01*
X112651227Y-106179804D01*
X112675495Y-106176204D01*
X112699999Y-106175000D01*
X113600001Y-106175000D01*
X113624505Y-106176204D01*
X113624505Y-106176204D01*
G37*
D20*
G04 #@! TD*
G04 #@! TO.P,R9,2*
G04 #@! TO.N,Net-(C12-Pad1)*
X113150000Y-106750000D03*
D19*
G04 #@! TO.N,VDD*
G04 #@! TO.C,R9*
G36*
X113624505Y-108226204D02*
X113648773Y-108229804D01*
X113672572Y-108235765D01*
X113695671Y-108244030D01*
X113717850Y-108254520D01*
X113738893Y-108267132D01*
X113758599Y-108281747D01*
X113776777Y-108298223D01*
X113793253Y-108316401D01*
X113807868Y-108336107D01*
X113820480Y-108357150D01*
X113830970Y-108379329D01*
X113839235Y-108402428D01*
X113845196Y-108426227D01*
X113848796Y-108450495D01*
X113850000Y-108474999D01*
X113850000Y-109125001D01*
X113848796Y-109149505D01*
X113845196Y-109173773D01*
X113839235Y-109197572D01*
X113830970Y-109220671D01*
X113820480Y-109242850D01*
X113807868Y-109263893D01*
X113793253Y-109283599D01*
X113776777Y-109301777D01*
X113758599Y-109318253D01*
X113738893Y-109332868D01*
X113717850Y-109345480D01*
X113695671Y-109355970D01*
X113672572Y-109364235D01*
X113648773Y-109370196D01*
X113624505Y-109373796D01*
X113600001Y-109375000D01*
X112699999Y-109375000D01*
X112675495Y-109373796D01*
X112651227Y-109370196D01*
X112627428Y-109364235D01*
X112604329Y-109355970D01*
X112582150Y-109345480D01*
X112561107Y-109332868D01*
X112541401Y-109318253D01*
X112523223Y-109301777D01*
X112506747Y-109283599D01*
X112492132Y-109263893D01*
X112479520Y-109242850D01*
X112469030Y-109220671D01*
X112460765Y-109197572D01*
X112454804Y-109173773D01*
X112451204Y-109149505D01*
X112450000Y-109125001D01*
X112450000Y-108474999D01*
X112451204Y-108450495D01*
X112454804Y-108426227D01*
X112460765Y-108402428D01*
X112469030Y-108379329D01*
X112479520Y-108357150D01*
X112492132Y-108336107D01*
X112506747Y-108316401D01*
X112523223Y-108298223D01*
X112541401Y-108281747D01*
X112561107Y-108267132D01*
X112582150Y-108254520D01*
X112604329Y-108244030D01*
X112627428Y-108235765D01*
X112651227Y-108229804D01*
X112675495Y-108226204D01*
X112699999Y-108225000D01*
X113600001Y-108225000D01*
X113624505Y-108226204D01*
X113624505Y-108226204D01*
G37*
D20*
G04 #@! TD*
G04 #@! TO.P,R9,1*
G04 #@! TO.N,VDD*
X113150000Y-108800000D03*
D19*
G04 #@! TO.N,GND*
G04 #@! TO.C,R10*
G36*
X116724505Y-106151204D02*
X116748773Y-106154804D01*
X116772572Y-106160765D01*
X116795671Y-106169030D01*
X116817850Y-106179520D01*
X116838893Y-106192132D01*
X116858599Y-106206747D01*
X116876777Y-106223223D01*
X116893253Y-106241401D01*
X116907868Y-106261107D01*
X116920480Y-106282150D01*
X116930970Y-106304329D01*
X116939235Y-106327428D01*
X116945196Y-106351227D01*
X116948796Y-106375495D01*
X116950000Y-106399999D01*
X116950000Y-107050001D01*
X116948796Y-107074505D01*
X116945196Y-107098773D01*
X116939235Y-107122572D01*
X116930970Y-107145671D01*
X116920480Y-107167850D01*
X116907868Y-107188893D01*
X116893253Y-107208599D01*
X116876777Y-107226777D01*
X116858599Y-107243253D01*
X116838893Y-107257868D01*
X116817850Y-107270480D01*
X116795671Y-107280970D01*
X116772572Y-107289235D01*
X116748773Y-107295196D01*
X116724505Y-107298796D01*
X116700001Y-107300000D01*
X115799999Y-107300000D01*
X115775495Y-107298796D01*
X115751227Y-107295196D01*
X115727428Y-107289235D01*
X115704329Y-107280970D01*
X115682150Y-107270480D01*
X115661107Y-107257868D01*
X115641401Y-107243253D01*
X115623223Y-107226777D01*
X115606747Y-107208599D01*
X115592132Y-107188893D01*
X115579520Y-107167850D01*
X115569030Y-107145671D01*
X115560765Y-107122572D01*
X115554804Y-107098773D01*
X115551204Y-107074505D01*
X115550000Y-107050001D01*
X115550000Y-106399999D01*
X115551204Y-106375495D01*
X115554804Y-106351227D01*
X115560765Y-106327428D01*
X115569030Y-106304329D01*
X115579520Y-106282150D01*
X115592132Y-106261107D01*
X115606747Y-106241401D01*
X115623223Y-106223223D01*
X115641401Y-106206747D01*
X115661107Y-106192132D01*
X115682150Y-106179520D01*
X115704329Y-106169030D01*
X115727428Y-106160765D01*
X115751227Y-106154804D01*
X115775495Y-106151204D01*
X115799999Y-106150000D01*
X116700001Y-106150000D01*
X116724505Y-106151204D01*
X116724505Y-106151204D01*
G37*
D20*
G04 #@! TD*
G04 #@! TO.P,R10,2*
G04 #@! TO.N,GND*
X116250000Y-106725000D03*
D19*
G04 #@! TO.N,VDD*
G04 #@! TO.C,R10*
G36*
X116724505Y-108201204D02*
X116748773Y-108204804D01*
X116772572Y-108210765D01*
X116795671Y-108219030D01*
X116817850Y-108229520D01*
X116838893Y-108242132D01*
X116858599Y-108256747D01*
X116876777Y-108273223D01*
X116893253Y-108291401D01*
X116907868Y-108311107D01*
X116920480Y-108332150D01*
X116930970Y-108354329D01*
X116939235Y-108377428D01*
X116945196Y-108401227D01*
X116948796Y-108425495D01*
X116950000Y-108449999D01*
X116950000Y-109100001D01*
X116948796Y-109124505D01*
X116945196Y-109148773D01*
X116939235Y-109172572D01*
X116930970Y-109195671D01*
X116920480Y-109217850D01*
X116907868Y-109238893D01*
X116893253Y-109258599D01*
X116876777Y-109276777D01*
X116858599Y-109293253D01*
X116838893Y-109307868D01*
X116817850Y-109320480D01*
X116795671Y-109330970D01*
X116772572Y-109339235D01*
X116748773Y-109345196D01*
X116724505Y-109348796D01*
X116700001Y-109350000D01*
X115799999Y-109350000D01*
X115775495Y-109348796D01*
X115751227Y-109345196D01*
X115727428Y-109339235D01*
X115704329Y-109330970D01*
X115682150Y-109320480D01*
X115661107Y-109307868D01*
X115641401Y-109293253D01*
X115623223Y-109276777D01*
X115606747Y-109258599D01*
X115592132Y-109238893D01*
X115579520Y-109217850D01*
X115569030Y-109195671D01*
X115560765Y-109172572D01*
X115554804Y-109148773D01*
X115551204Y-109124505D01*
X115550000Y-109100001D01*
X115550000Y-108449999D01*
X115551204Y-108425495D01*
X115554804Y-108401227D01*
X115560765Y-108377428D01*
X115569030Y-108354329D01*
X115579520Y-108332150D01*
X115592132Y-108311107D01*
X115606747Y-108291401D01*
X115623223Y-108273223D01*
X115641401Y-108256747D01*
X115661107Y-108242132D01*
X115682150Y-108229520D01*
X115704329Y-108219030D01*
X115727428Y-108210765D01*
X115751227Y-108204804D01*
X115775495Y-108201204D01*
X115799999Y-108200000D01*
X116700001Y-108200000D01*
X116724505Y-108201204D01*
X116724505Y-108201204D01*
G37*
D20*
G04 #@! TD*
G04 #@! TO.P,R10,1*
G04 #@! TO.N,VDD*
X116250000Y-108775000D03*
D22*
G04 #@! TO.P,U4,1*
G04 #@! TO.N,STAT*
X101250000Y-108250000D03*
G04 #@! TO.P,U4,2*
G04 #@! TO.N,GND*
X100300000Y-108250000D03*
G04 #@! TO.P,U4,3*
G04 #@! TO.N,+BATT*
X99350000Y-108250000D03*
G04 #@! TO.P,U4,4*
G04 #@! TO.N,Net-(C12-Pad1)*
X99350000Y-106050000D03*
G04 #@! TO.P,U4,5*
G04 #@! TO.N,Net-(R8-Pad1)*
X101250000Y-106050000D03*
G04 #@! TD*
D23*
G04 #@! TO.P,JP1,1*
G04 #@! TO.N,Net-(C12-Pad1)*
X116950000Y-112200000D03*
D19*
G04 #@! TD*
G04 #@! TO.N,Net-(C12-Pad1)*
G04 #@! TO.C,JP1*
G36*
X116200000Y-112700000D02*
X116200000Y-112200000D01*
X116200602Y-112200000D01*
X116200602Y-112175466D01*
X116205412Y-112126635D01*
X116214984Y-112078510D01*
X116229228Y-112031555D01*
X116248005Y-111986222D01*
X116271136Y-111942949D01*
X116298396Y-111902150D01*
X116329524Y-111864221D01*
X116364221Y-111829524D01*
X116402150Y-111798396D01*
X116442949Y-111771136D01*
X116486222Y-111748005D01*
X116531555Y-111729228D01*
X116578510Y-111714984D01*
X116626635Y-111705412D01*
X116675466Y-111700602D01*
X116700000Y-111700602D01*
X116700000Y-111700000D01*
X117200000Y-111700000D01*
X117200000Y-111700602D01*
X117224534Y-111700602D01*
X117273365Y-111705412D01*
X117321490Y-111714984D01*
X117368445Y-111729228D01*
X117413778Y-111748005D01*
X117457051Y-111771136D01*
X117497850Y-111798396D01*
X117535779Y-111829524D01*
X117570476Y-111864221D01*
X117601604Y-111902150D01*
X117628864Y-111942949D01*
X117651995Y-111986222D01*
X117670772Y-112031555D01*
X117685016Y-112078510D01*
X117694588Y-112126635D01*
X117699398Y-112175466D01*
X117699398Y-112200000D01*
X117700000Y-112200000D01*
X117700000Y-112700000D01*
X116200000Y-112700000D01*
X116200000Y-112700000D01*
G37*
D23*
G04 #@! TO.P,JP1,2*
G04 #@! TO.N,+3V3*
X116950000Y-113500000D03*
D19*
G04 #@! TD*
G04 #@! TO.N,+3V3*
G04 #@! TO.C,JP1*
G36*
X117699398Y-113500000D02*
X117699398Y-113524534D01*
X117694588Y-113573365D01*
X117685016Y-113621490D01*
X117670772Y-113668445D01*
X117651995Y-113713778D01*
X117628864Y-113757051D01*
X117601604Y-113797850D01*
X117570476Y-113835779D01*
X117535779Y-113870476D01*
X117497850Y-113901604D01*
X117457051Y-113928864D01*
X117413778Y-113951995D01*
X117368445Y-113970772D01*
X117321490Y-113985016D01*
X117273365Y-113994588D01*
X117224534Y-113999398D01*
X117200000Y-113999398D01*
X117200000Y-114000000D01*
X116700000Y-114000000D01*
X116700000Y-113999398D01*
X116675466Y-113999398D01*
X116626635Y-113994588D01*
X116578510Y-113985016D01*
X116531555Y-113970772D01*
X116486222Y-113951995D01*
X116442949Y-113928864D01*
X116402150Y-113901604D01*
X116364221Y-113870476D01*
X116329524Y-113835779D01*
X116298396Y-113797850D01*
X116271136Y-113757051D01*
X116248005Y-113713778D01*
X116229228Y-113668445D01*
X116214984Y-113621490D01*
X116205412Y-113573365D01*
X116200602Y-113524534D01*
X116200602Y-113500000D01*
X116200000Y-113500000D01*
X116200000Y-113000000D01*
X117700000Y-113000000D01*
X117700000Y-113500000D01*
X117699398Y-113500000D01*
X117699398Y-113500000D01*
G37*
D24*
G04 #@! TO.P,SCL,1*
G04 #@! TO.N,SCL*
X96950000Y-108650000D03*
G04 #@! TD*
G04 #@! TO.P,SDA,1*
G04 #@! TO.N,SDA*
X96950000Y-106550000D03*
G04 #@! TD*
G04 #@! TO.P,D6,1*
G04 #@! TO.N,D6*
X121625001Y-96075001D03*
G04 #@! TD*
G04 #@! TO.P,A6,1*
G04 #@! TO.N,A6*
X121625001Y-93950000D03*
G04 #@! TD*
G04 #@! TO.P,3V,1*
G04 #@! TO.N,+3V3*
X96950000Y-104450000D03*
G04 #@! TD*
D25*
G04 #@! TO.P,GND,1*
G04 #@! TO.N,GND*
X121650000Y-84850000D03*
G04 #@! TD*
D26*
G04 #@! TO.N,GND*
X113250000Y-92650004D03*
X119750000Y-85250000D03*
X111000000Y-111650000D03*
X115550018Y-110850000D03*
X102850000Y-110650000D03*
X120850002Y-110450000D03*
X116050000Y-99650000D03*
X105950000Y-110950000D03*
X109250000Y-98150000D03*
X98650000Y-101000000D03*
G04 #@! TO.N,+3V3*
X112000000Y-92650000D03*
X116150000Y-115450000D03*
X108475008Y-99424998D03*
X120468085Y-104290021D03*
G04 #@! TO.N,RXD*
X108542907Y-94351698D03*
G04 #@! TO.N,TXD*
X98750000Y-92150000D03*
G04 #@! TO.N,DTR*
X98750000Y-93400000D03*
G04 #@! TO.N,CTS*
X101750000Y-100150000D03*
X102750000Y-96900000D03*
X101750000Y-93650000D03*
G04 #@! TO.N,SW3*
X120550000Y-99950000D03*
G04 #@! TO.N,SW1*
X121466236Y-104350992D03*
G04 #@! TO.N,SW2*
X119800023Y-95550000D03*
G04 #@! TO.N,+BATT*
X103500000Y-115400000D03*
G04 #@! TO.N,VDD*
X119549994Y-101850000D03*
G04 #@! TO.N,STAT*
X120550000Y-106950000D03*
G04 #@! TO.N,D8/RXD*
X111167940Y-93454707D03*
G04 #@! TO.N,D7/TXD*
X110442930Y-94247773D03*
G04 #@! TO.N,WAKESW*
X113650000Y-100150000D03*
G04 #@! TO.N,WAKEHW*
X111760000Y-100330000D03*
G04 #@! TO.N,PIO1*
X114650000Y-100654684D03*
G04 #@! TO.N,Net-(U1-Pad43)*
X106000000Y-91180999D03*
G04 #@! TD*
D27*
G04 #@! TO.N,GND*
X106769000Y-92900000D02*
X106500000Y-92631000D01*
X118049000Y-92631000D02*
X118481000Y-92631000D01*
X116250000Y-106400000D02*
X116250000Y-106500000D01*
X107500000Y-103650000D02*
X107000000Y-103150000D01*
X107624001Y-102525999D02*
X107000000Y-103150000D01*
X117541000Y-103150000D02*
X116500000Y-102109000D01*
X116846999Y-102455999D02*
X117541000Y-103150000D01*
X100123500Y-101449200D02*
X100598480Y-101449200D01*
X99750000Y-113150000D02*
X100500000Y-113900000D01*
X107035002Y-92631000D02*
X106500000Y-92631000D01*
X117492000Y-103150000D02*
X116567014Y-102225014D01*
X108407001Y-104606001D02*
X106951000Y-103150000D01*
X116035999Y-104606001D02*
X108407001Y-104606001D01*
X117492000Y-103150000D02*
X116035999Y-104606001D01*
X103500000Y-92150000D02*
X104194010Y-91455990D01*
X120950000Y-87850000D02*
X120950000Y-87450000D01*
X120950000Y-88700000D02*
X119075038Y-90574962D01*
X120950000Y-87450000D02*
X120950000Y-88700000D01*
X118000000Y-92631000D02*
X119056038Y-92631000D01*
X119056038Y-92631000D02*
X119075038Y-92650000D01*
X119075038Y-90574962D02*
X119075038Y-92650000D01*
X105451000Y-103150000D02*
X106951000Y-103150000D01*
X105424999Y-103123999D02*
X105451000Y-103150000D01*
X105424999Y-92706001D02*
X105424999Y-103123999D01*
X105500000Y-92631000D02*
X105424999Y-92706001D01*
X106500000Y-92631000D02*
X105500000Y-92631000D01*
X102174999Y-89824999D02*
X102174999Y-84139999D01*
X103500000Y-91150000D02*
X102174999Y-89824999D01*
X103500000Y-92400000D02*
X103500000Y-91150000D01*
X113269004Y-92631000D02*
X113250000Y-92650004D01*
X118000000Y-92631000D02*
X113269004Y-92631000D01*
X108225000Y-104424000D02*
X106951000Y-103150000D01*
X108225000Y-106650000D02*
X108225000Y-104424000D01*
X117492000Y-105483000D02*
X116250000Y-106725000D01*
X117492000Y-103150000D02*
X117492000Y-105483000D01*
X108225000Y-109875000D02*
X108250000Y-109900000D01*
X108225000Y-106650000D02*
X108225000Y-109875000D01*
X102239999Y-84074999D02*
X118574999Y-84074999D01*
X119750000Y-85850000D02*
X119750000Y-85250000D01*
X118574999Y-84074999D02*
X119750000Y-85250000D01*
X120950000Y-87450000D02*
X120950000Y-87050000D01*
X120950000Y-87050000D02*
X119750000Y-85850000D01*
X114250000Y-112275000D02*
X114250000Y-112150000D01*
X114250000Y-112150000D02*
X113650000Y-112150000D01*
X111000000Y-111950000D02*
X112000000Y-112950000D01*
X111000000Y-111650000D02*
X111000000Y-111950000D01*
X112575000Y-112375000D02*
X112000000Y-112950000D01*
X114250000Y-112375000D02*
X112575000Y-112375000D01*
X114250000Y-112375000D02*
X115550018Y-111074982D01*
X115550018Y-111074982D02*
X115550018Y-110850000D01*
X103224200Y-101449200D02*
X103250000Y-101475000D01*
X100123500Y-101449200D02*
X103224200Y-101449200D01*
X103275000Y-103850000D02*
X103250000Y-103825000D01*
X103250000Y-103825000D02*
X103250000Y-101475000D01*
X103275000Y-103650000D02*
X103275000Y-103850000D01*
X103275000Y-110225000D02*
X102850000Y-110650000D01*
X103275000Y-103850000D02*
X103275000Y-110225000D01*
X100300000Y-109900000D02*
X101050000Y-110650000D01*
X100300000Y-108250000D02*
X100300000Y-109900000D01*
X101050000Y-110650000D02*
X102850000Y-110650000D01*
X101050000Y-113350000D02*
X100500000Y-113900000D01*
X101050000Y-110650000D02*
X101050000Y-113350000D01*
X120950000Y-108650000D02*
X120950000Y-110350002D01*
X120950000Y-110350002D02*
X120850002Y-110450000D01*
X116050000Y-101708000D02*
X116050000Y-99650000D01*
X117492000Y-103150000D02*
X116050000Y-101708000D01*
X107200000Y-110950000D02*
X105950000Y-110950000D01*
X108250000Y-109900000D02*
X107200000Y-110950000D01*
X113250000Y-92650004D02*
X112524995Y-91924999D01*
X112524995Y-91924999D02*
X111015589Y-91924999D01*
X109267917Y-93672671D02*
X109267917Y-97566398D01*
X111015589Y-91924999D02*
X109267917Y-93672671D01*
X109250000Y-97584315D02*
X109250000Y-98150000D01*
X109267917Y-97566398D02*
X109250000Y-97584315D01*
X100123500Y-101449200D02*
X99098800Y-101449200D01*
X99098800Y-101449200D02*
X98650000Y-101000400D01*
X98650000Y-101000400D02*
X98650000Y-101000000D01*
X119075038Y-92650000D02*
X119075001Y-92650037D01*
X119075001Y-92650037D02*
X119075001Y-95925001D01*
X120900000Y-97750000D02*
X120900000Y-98150000D01*
X119075001Y-95925001D02*
X120900000Y-97750000D01*
G04 #@! TO.N,+3V3*
X114200000Y-114600000D02*
X114250000Y-114650000D01*
X114050000Y-114850000D02*
X114250000Y-114650000D01*
X112425000Y-114425000D02*
X112000000Y-114850000D01*
X114250000Y-114425000D02*
X112425000Y-114425000D01*
X116025000Y-114425000D02*
X116950000Y-113500000D01*
X114250000Y-114425000D02*
X116025000Y-114425000D01*
X114250000Y-114425000D02*
X115125000Y-114425000D01*
X108475008Y-95356803D02*
X108475008Y-99424998D01*
X106949205Y-93831000D02*
X108475008Y-95356803D01*
X106500000Y-93831000D02*
X106949205Y-93831000D01*
X116150000Y-115450000D02*
X118025010Y-113574990D01*
X118025010Y-113574990D02*
X118025010Y-107640679D01*
X118025010Y-107640679D02*
X120468085Y-105197604D01*
X120468085Y-105197604D02*
X120468085Y-104290021D01*
X110926998Y-92650000D02*
X109717928Y-93859070D01*
X109717928Y-93859070D02*
X109717928Y-94595775D01*
X109040693Y-99424998D02*
X108475008Y-99424998D01*
X109717928Y-94595775D02*
X110094928Y-94972775D01*
X112000000Y-92650000D02*
X110926998Y-92650000D01*
X110094928Y-94972775D02*
X110094928Y-98370763D01*
X110094928Y-98370763D02*
X109040693Y-99424998D01*
X115584315Y-115450000D02*
X116150000Y-115450000D01*
X114600000Y-115450000D02*
X115584315Y-115450000D01*
X114250000Y-115100000D02*
X114600000Y-115450000D01*
X114250000Y-114425000D02*
X114250000Y-115100000D01*
G04 #@! TO.N,RXD*
X108750000Y-94144605D02*
X108542907Y-94351698D01*
X105489999Y-91905999D02*
X107394688Y-91905999D01*
X107394688Y-91905999D02*
X108542907Y-93054218D01*
X101324501Y-97625001D02*
X103098001Y-97625001D01*
X104825001Y-95898001D02*
X104825001Y-92570997D01*
X104825001Y-92570997D02*
X105489999Y-91905999D01*
X108542907Y-93054218D02*
X108542907Y-94351698D01*
X100123500Y-97448700D02*
X101148200Y-97448700D01*
X103098001Y-97625001D02*
X104825001Y-95898001D01*
X101148200Y-97448700D02*
X101324501Y-97625001D01*
G04 #@! TO.N,TXD*
X100123500Y-98449460D02*
X99464838Y-98449460D01*
X99464838Y-98449460D02*
X98024999Y-97009621D01*
X98024999Y-97009621D02*
X98024999Y-92875001D01*
X98024999Y-92875001D02*
X98750000Y-92150000D01*
G04 #@! TO.N,DTR*
X100123500Y-96447940D02*
X100123500Y-94773500D01*
X100123500Y-94773500D02*
X98750000Y-93400000D01*
G04 #@! TO.N,CTS*
X100123500Y-100448440D02*
X101451560Y-100448440D01*
X101451560Y-100448440D02*
X101750000Y-100150000D01*
X101750000Y-95900000D02*
X101750000Y-93650000D01*
X102750000Y-96900000D02*
X101750000Y-95900000D01*
G04 #@! TO.N,SW3*
X122500000Y-98150000D02*
X122500000Y-99400000D01*
X121950000Y-99950000D02*
X120550000Y-99950000D01*
X122500000Y-99400000D02*
X121950000Y-99950000D01*
G04 #@! TO.N,SW1*
X122550000Y-108650000D02*
X122550000Y-105434756D01*
X122550000Y-105434756D02*
X121466236Y-104350992D01*
G04 #@! TO.N,SW2*
X122550000Y-88035002D02*
X122550000Y-87450000D01*
X122550000Y-88034297D02*
X119800023Y-90784274D01*
X119800023Y-90784274D02*
X119800023Y-95550000D01*
X122550000Y-87450000D02*
X122550000Y-88034297D01*
G04 #@! TO.N,+BATT*
X103500000Y-114100000D02*
X103450000Y-114100000D01*
X97250000Y-113650000D02*
X97500000Y-113900000D01*
X103500000Y-114100000D02*
X103500000Y-115400000D01*
X97500000Y-113900000D02*
X97500000Y-114400000D01*
X102100000Y-115400000D02*
X103500000Y-115400000D01*
X99239999Y-115725002D02*
X101774998Y-115725002D01*
X97500000Y-113985003D02*
X99239999Y-115725002D01*
X101774998Y-115725002D02*
X102100000Y-115400000D01*
X97500000Y-113900000D02*
X97500000Y-113985003D01*
X99350000Y-108525000D02*
X99350000Y-108250000D01*
X99350000Y-110300000D02*
X99000000Y-110650000D01*
X99350000Y-108250000D02*
X99350000Y-110300000D01*
X97500000Y-112150000D02*
X97500000Y-113900000D01*
X99000000Y-110650000D02*
X97500000Y-112150000D01*
G04 #@! TO.N,Net-(C12-Pad1)*
X100123500Y-99450220D02*
X100300220Y-99450220D01*
X100300220Y-99450220D02*
X100325441Y-99424999D01*
X107000000Y-113150000D02*
X107750000Y-112400000D01*
X105500000Y-113150000D02*
X107000000Y-113150000D01*
X110400000Y-106775000D02*
X110275000Y-106650000D01*
X108500000Y-112400000D02*
X107750000Y-112400000D01*
X109150010Y-111749990D02*
X108500000Y-112400000D01*
X109150010Y-107774990D02*
X109150010Y-111749990D01*
X110275000Y-106650000D02*
X109150010Y-107774990D01*
X104275010Y-100450010D02*
X103250000Y-99425000D01*
X104275010Y-111975010D02*
X104275010Y-100450010D01*
X105450000Y-113150000D02*
X104275010Y-111975010D01*
X105500000Y-113150000D02*
X105450000Y-113150000D01*
X101173420Y-99425000D02*
X103250000Y-99425000D01*
X101148200Y-99450220D02*
X101173420Y-99425000D01*
X100123500Y-99450220D02*
X101148200Y-99450220D01*
X99350000Y-102850000D02*
X99350000Y-106050000D01*
X97924999Y-100624021D02*
X97924999Y-101424999D01*
X97924999Y-101424999D02*
X99350000Y-102850000D01*
X100123500Y-99450220D02*
X99098800Y-99450220D01*
X99098800Y-99450220D02*
X97924999Y-100624021D01*
X110375000Y-106750000D02*
X110275000Y-106650000D01*
X115473030Y-109700010D02*
X112461820Y-109700010D01*
X116950000Y-111176980D02*
X115473030Y-109700010D01*
X111650000Y-108888190D02*
X111650000Y-106750000D01*
X116950000Y-112200000D02*
X116950000Y-111176980D01*
X112461820Y-109700010D02*
X111650000Y-108888190D01*
X113150000Y-106750000D02*
X111650000Y-106750000D01*
X111650000Y-106750000D02*
X110375000Y-106750000D01*
G04 #@! TO.N,+5V*
X107850000Y-115050000D02*
X108000000Y-114900000D01*
X105500000Y-115050000D02*
X105450000Y-115050000D01*
X110000000Y-114550000D02*
X110000000Y-113900000D01*
X109650000Y-114900000D02*
X110000000Y-114550000D01*
X107750000Y-114900000D02*
X109650000Y-114900000D01*
X107600000Y-115050000D02*
X107750000Y-114900000D01*
X105500000Y-115050000D02*
X107600000Y-115050000D01*
X110000000Y-110200000D02*
X110300000Y-109900000D01*
X110000000Y-113900000D02*
X110000000Y-110200000D01*
G04 #@! TO.N,Net-(R8-Pad1)*
X101225000Y-106025000D02*
X101250000Y-106050000D01*
X101225000Y-103850000D02*
X101225000Y-106025000D01*
G04 #@! TO.N,VDD*
X116200000Y-109150000D02*
X116250000Y-109100000D01*
X116250000Y-109100000D02*
X116250000Y-109000000D01*
X113550000Y-108775000D02*
X113500000Y-108825000D01*
X116250000Y-108775000D02*
X119349138Y-105675862D01*
X119349138Y-105675862D02*
X119349138Y-102616541D01*
X119349138Y-102616541D02*
X119549994Y-102415685D01*
X119549994Y-102415685D02*
X119549994Y-101850000D01*
X113175000Y-108775000D02*
X113150000Y-108800000D01*
X116250000Y-108775000D02*
X113175000Y-108775000D01*
G04 #@! TO.N,STAT*
X96174999Y-115660001D02*
X96174999Y-114250000D01*
X96725010Y-116175012D02*
X116047998Y-116175012D01*
X96174999Y-115625001D02*
X96725010Y-116175012D01*
X96690010Y-116175012D02*
X116047998Y-116175012D01*
X96174999Y-115660001D02*
X96690010Y-116175012D01*
X96174999Y-114250000D02*
X96174999Y-115625001D01*
X96174999Y-111325001D02*
X96174999Y-114250000D01*
X101250000Y-107759998D02*
X100885001Y-107394999D01*
X98699999Y-108800001D02*
X96174999Y-111325001D01*
X101250000Y-108250000D02*
X101250000Y-107759998D01*
X100885001Y-107394999D02*
X98764999Y-107394999D01*
X98764999Y-107394999D02*
X98699999Y-107459999D01*
X98699999Y-107459999D02*
X98699999Y-108800001D01*
X119750001Y-113723001D02*
X119750001Y-107749999D01*
X119750001Y-107749999D02*
X120550000Y-106950000D01*
X116047998Y-116175012D02*
X117297990Y-116175012D01*
X117297990Y-116175012D02*
X119750001Y-113723001D01*
G04 #@! TO.N,D8/RXD*
X116481000Y-97950000D02*
X112150000Y-97950000D01*
X117000000Y-97431000D02*
X116481000Y-97950000D01*
X118000000Y-97431000D02*
X117000000Y-97431000D01*
X112150000Y-97950000D02*
X111167940Y-96967940D01*
X111167940Y-96967940D02*
X111167940Y-93454707D01*
G04 #@! TO.N,D7/TXD*
X110717929Y-94522773D02*
X110442930Y-94247773D01*
X112038577Y-98474988D02*
X110717929Y-97154340D01*
X116843988Y-98474988D02*
X112038577Y-98474988D01*
X117000000Y-98631000D02*
X116843988Y-98474988D01*
X118000000Y-98631000D02*
X117000000Y-98631000D01*
X110717929Y-97154340D02*
X110717929Y-94522773D01*
G04 #@! TO.N,WAKESW*
X118000000Y-99831000D02*
X118495998Y-99831000D01*
X118000000Y-99831000D02*
X117304002Y-99831000D01*
X116398001Y-98924999D02*
X114875001Y-98924999D01*
X117304002Y-99831000D02*
X116398001Y-98924999D01*
X114875001Y-98924999D02*
X113650000Y-100150000D01*
G04 #@! TO.N,WAKEHW*
X111451000Y-100330000D02*
X111760000Y-100330000D01*
X109250000Y-103531000D02*
X109250000Y-102531000D01*
X109250000Y-102531000D02*
X111451000Y-100330000D01*
G04 #@! TO.N,PIO1*
X115250000Y-101254684D02*
X114650000Y-100654684D01*
X115250000Y-103531000D02*
X115250000Y-101254684D01*
G04 #@! TO.N,Net-(U1-Pad43)*
X103500000Y-88680999D02*
X103500000Y-85400000D01*
X106000000Y-91180999D02*
X103500000Y-88680999D01*
G04 #@! TD*
D28*
G04 #@! TO.N,GND*
G36*
X101915000Y-101189250D02*
X102073750Y-101348000D01*
X103123000Y-101348000D01*
X103123000Y-101328000D01*
X103377000Y-101328000D01*
X103377000Y-101348000D01*
X103397000Y-101348000D01*
X103397000Y-101602000D01*
X103377000Y-101602000D01*
X103377000Y-102526250D01*
X103463250Y-102612500D01*
X103402000Y-102673750D01*
X103402000Y-103723000D01*
X103422000Y-103723000D01*
X103422000Y-103977000D01*
X103402000Y-103977000D01*
X103402000Y-105026250D01*
X103515011Y-105139261D01*
X103515010Y-111900163D01*
X103500122Y-111975010D01*
X103515010Y-112049857D01*
X103515010Y-112049861D01*
X103559106Y-112271546D01*
X103727081Y-112522939D01*
X103790540Y-112565341D01*
X104402560Y-113177362D01*
X104402560Y-113238684D01*
X104197765Y-113101843D01*
X103950000Y-113052560D01*
X103050000Y-113052560D01*
X102802235Y-113101843D01*
X102592191Y-113242191D01*
X102451843Y-113452235D01*
X102402560Y-113700000D01*
X102402560Y-114500000D01*
X102430407Y-114640000D01*
X102174846Y-114640000D01*
X102135000Y-114632074D01*
X102135000Y-114185750D01*
X101976250Y-114027000D01*
X100627000Y-114027000D01*
X100627000Y-114047000D01*
X100373000Y-114047000D01*
X100373000Y-114027000D01*
X100353000Y-114027000D01*
X100353000Y-113773000D01*
X100373000Y-113773000D01*
X100373000Y-113753000D01*
X100627000Y-113753000D01*
X100627000Y-113773000D01*
X101976250Y-113773000D01*
X102135000Y-113614250D01*
X102135000Y-112273690D01*
X102038327Y-112040301D01*
X101915157Y-111917132D01*
X101984698Y-111888327D01*
X102163327Y-111709699D01*
X102260000Y-111476310D01*
X102260000Y-110935750D01*
X102101250Y-110777000D01*
X101177000Y-110777000D01*
X101177000Y-110797000D01*
X100923000Y-110797000D01*
X100923000Y-110777000D01*
X100903000Y-110777000D01*
X100903000Y-110523000D01*
X100923000Y-110523000D01*
X100923000Y-110503000D01*
X101177000Y-110503000D01*
X101177000Y-110523000D01*
X102101250Y-110523000D01*
X102260000Y-110364250D01*
X102260000Y-109823690D01*
X102163327Y-109590301D01*
X101984698Y-109411673D01*
X101853769Y-109357440D01*
X102032809Y-109237809D01*
X102173157Y-109027765D01*
X102222440Y-108780000D01*
X102222440Y-107720000D01*
X102173157Y-107472235D01*
X102032809Y-107262191D01*
X101864905Y-107150000D01*
X102032809Y-107037809D01*
X102173157Y-106827765D01*
X102222440Y-106580000D01*
X102222440Y-105520000D01*
X102173157Y-105272235D01*
X102032809Y-105062191D01*
X102013211Y-105049096D01*
X102184586Y-104934586D01*
X102185377Y-104933403D01*
X102340302Y-105088327D01*
X102573691Y-105185000D01*
X102989250Y-105185000D01*
X103148000Y-105026250D01*
X103148000Y-103977000D01*
X103128000Y-103977000D01*
X103128000Y-103723000D01*
X103148000Y-103723000D01*
X103148000Y-102673750D01*
X103061750Y-102587500D01*
X103123000Y-102526250D01*
X103123000Y-101602000D01*
X102073750Y-101602000D01*
X101915000Y-101760750D01*
X101915000Y-102176309D01*
X102011673Y-102409698D01*
X102190301Y-102588327D01*
X102312876Y-102639099D01*
X102185377Y-102766597D01*
X102184586Y-102765414D01*
X101893436Y-102570873D01*
X101550001Y-102502560D01*
X100899999Y-102502560D01*
X100556564Y-102570873D01*
X100265414Y-102765414D01*
X100110000Y-102998007D01*
X100110000Y-102924848D01*
X100124888Y-102850000D01*
X100110000Y-102775152D01*
X100110000Y-102775148D01*
X100065904Y-102553463D01*
X100065904Y-102553462D01*
X99940329Y-102365527D01*
X99906609Y-102315061D01*
X99996500Y-102225170D01*
X99996500Y-101576200D01*
X100250500Y-101576200D01*
X100250500Y-102225170D01*
X100409250Y-102383920D01*
X101024510Y-102383920D01*
X101257899Y-102287247D01*
X101436527Y-102108618D01*
X101533200Y-101875229D01*
X101533200Y-101734950D01*
X101374450Y-101576200D01*
X100250500Y-101576200D01*
X99996500Y-101576200D01*
X99976500Y-101576200D01*
X99976500Y-101395600D01*
X100898200Y-101395600D01*
X101145965Y-101346317D01*
X101182058Y-101322200D01*
X101374450Y-101322200D01*
X101478726Y-101217924D01*
X101526407Y-101208440D01*
X101526412Y-101208440D01*
X101644253Y-101185000D01*
X101915000Y-101185000D01*
X101915000Y-101189250D01*
X101915000Y-101189250D01*
G37*
X101915000Y-101189250D02*
X102073750Y-101348000D01*
X103123000Y-101348000D01*
X103123000Y-101328000D01*
X103377000Y-101328000D01*
X103377000Y-101348000D01*
X103397000Y-101348000D01*
X103397000Y-101602000D01*
X103377000Y-101602000D01*
X103377000Y-102526250D01*
X103463250Y-102612500D01*
X103402000Y-102673750D01*
X103402000Y-103723000D01*
X103422000Y-103723000D01*
X103422000Y-103977000D01*
X103402000Y-103977000D01*
X103402000Y-105026250D01*
X103515011Y-105139261D01*
X103515010Y-111900163D01*
X103500122Y-111975010D01*
X103515010Y-112049857D01*
X103515010Y-112049861D01*
X103559106Y-112271546D01*
X103727081Y-112522939D01*
X103790540Y-112565341D01*
X104402560Y-113177362D01*
X104402560Y-113238684D01*
X104197765Y-113101843D01*
X103950000Y-113052560D01*
X103050000Y-113052560D01*
X102802235Y-113101843D01*
X102592191Y-113242191D01*
X102451843Y-113452235D01*
X102402560Y-113700000D01*
X102402560Y-114500000D01*
X102430407Y-114640000D01*
X102174846Y-114640000D01*
X102135000Y-114632074D01*
X102135000Y-114185750D01*
X101976250Y-114027000D01*
X100627000Y-114027000D01*
X100627000Y-114047000D01*
X100373000Y-114047000D01*
X100373000Y-114027000D01*
X100353000Y-114027000D01*
X100353000Y-113773000D01*
X100373000Y-113773000D01*
X100373000Y-113753000D01*
X100627000Y-113753000D01*
X100627000Y-113773000D01*
X101976250Y-113773000D01*
X102135000Y-113614250D01*
X102135000Y-112273690D01*
X102038327Y-112040301D01*
X101915157Y-111917132D01*
X101984698Y-111888327D01*
X102163327Y-111709699D01*
X102260000Y-111476310D01*
X102260000Y-110935750D01*
X102101250Y-110777000D01*
X101177000Y-110777000D01*
X101177000Y-110797000D01*
X100923000Y-110797000D01*
X100923000Y-110777000D01*
X100903000Y-110777000D01*
X100903000Y-110523000D01*
X100923000Y-110523000D01*
X100923000Y-110503000D01*
X101177000Y-110503000D01*
X101177000Y-110523000D01*
X102101250Y-110523000D01*
X102260000Y-110364250D01*
X102260000Y-109823690D01*
X102163327Y-109590301D01*
X101984698Y-109411673D01*
X101853769Y-109357440D01*
X102032809Y-109237809D01*
X102173157Y-109027765D01*
X102222440Y-108780000D01*
X102222440Y-107720000D01*
X102173157Y-107472235D01*
X102032809Y-107262191D01*
X101864905Y-107150000D01*
X102032809Y-107037809D01*
X102173157Y-106827765D01*
X102222440Y-106580000D01*
X102222440Y-105520000D01*
X102173157Y-105272235D01*
X102032809Y-105062191D01*
X102013211Y-105049096D01*
X102184586Y-104934586D01*
X102185377Y-104933403D01*
X102340302Y-105088327D01*
X102573691Y-105185000D01*
X102989250Y-105185000D01*
X103148000Y-105026250D01*
X103148000Y-103977000D01*
X103128000Y-103977000D01*
X103128000Y-103723000D01*
X103148000Y-103723000D01*
X103148000Y-102673750D01*
X103061750Y-102587500D01*
X103123000Y-102526250D01*
X103123000Y-101602000D01*
X102073750Y-101602000D01*
X101915000Y-101760750D01*
X101915000Y-102176309D01*
X102011673Y-102409698D01*
X102190301Y-102588327D01*
X102312876Y-102639099D01*
X102185377Y-102766597D01*
X102184586Y-102765414D01*
X101893436Y-102570873D01*
X101550001Y-102502560D01*
X100899999Y-102502560D01*
X100556564Y-102570873D01*
X100265414Y-102765414D01*
X100110000Y-102998007D01*
X100110000Y-102924848D01*
X100124888Y-102850000D01*
X100110000Y-102775152D01*
X100110000Y-102775148D01*
X100065904Y-102553463D01*
X100065904Y-102553462D01*
X99940329Y-102365527D01*
X99906609Y-102315061D01*
X99996500Y-102225170D01*
X99996500Y-101576200D01*
X100250500Y-101576200D01*
X100250500Y-102225170D01*
X100409250Y-102383920D01*
X101024510Y-102383920D01*
X101257899Y-102287247D01*
X101436527Y-102108618D01*
X101533200Y-101875229D01*
X101533200Y-101734950D01*
X101374450Y-101576200D01*
X100250500Y-101576200D01*
X99996500Y-101576200D01*
X99976500Y-101576200D01*
X99976500Y-101395600D01*
X100898200Y-101395600D01*
X101145965Y-101346317D01*
X101182058Y-101322200D01*
X101374450Y-101322200D01*
X101478726Y-101217924D01*
X101526407Y-101208440D01*
X101526412Y-101208440D01*
X101644253Y-101185000D01*
X101915000Y-101185000D01*
X101915000Y-101189250D01*
G36*
X111871490Y-110184482D02*
X111913891Y-110247939D01*
X112165283Y-110415914D01*
X112386968Y-110460010D01*
X112386973Y-110460010D01*
X112461820Y-110474898D01*
X112536667Y-110460010D01*
X115158229Y-110460010D01*
X115995797Y-111297579D01*
X115924994Y-111355686D01*
X115855686Y-111424994D01*
X115775169Y-111523104D01*
X115720713Y-111604603D01*
X115660881Y-111716540D01*
X115623372Y-111807096D01*
X115586530Y-111928549D01*
X115585000Y-111936241D01*
X115585000Y-111673691D01*
X115488327Y-111440302D01*
X115309699Y-111261673D01*
X115076310Y-111165000D01*
X114535750Y-111165000D01*
X114377000Y-111323750D01*
X114377000Y-112248000D01*
X114397000Y-112248000D01*
X114397000Y-112502000D01*
X114377000Y-112502000D01*
X114377000Y-112522000D01*
X114123000Y-112522000D01*
X114123000Y-112502000D01*
X114103000Y-112502000D01*
X114103000Y-112248000D01*
X114123000Y-112248000D01*
X114123000Y-111323750D01*
X113964250Y-111165000D01*
X113423690Y-111165000D01*
X113190301Y-111261673D01*
X113011673Y-111440302D01*
X112915000Y-111673691D01*
X112915000Y-112089250D01*
X113073748Y-112247998D01*
X113012226Y-112247998D01*
X112988327Y-112190301D01*
X112809698Y-112011673D01*
X112576309Y-111915000D01*
X112285750Y-111915000D01*
X112127000Y-112073750D01*
X112127000Y-112823000D01*
X112147000Y-112823000D01*
X112147000Y-113077000D01*
X112127000Y-113077000D01*
X112127000Y-113097000D01*
X111873000Y-113097000D01*
X111873000Y-113077000D01*
X111073750Y-113077000D01*
X110988219Y-113162531D01*
X110907809Y-113042191D01*
X110760000Y-112943427D01*
X110760000Y-112423690D01*
X110915000Y-112423690D01*
X110915000Y-112664250D01*
X111073750Y-112823000D01*
X111873000Y-112823000D01*
X111873000Y-112073750D01*
X111714250Y-111915000D01*
X111423691Y-111915000D01*
X111190302Y-112011673D01*
X111011673Y-112190301D01*
X110915000Y-112423690D01*
X110760000Y-112423690D01*
X110760000Y-111220587D01*
X110968436Y-111179127D01*
X111259586Y-110984586D01*
X111454127Y-110693436D01*
X111522440Y-110350001D01*
X111522440Y-109835432D01*
X111871490Y-110184482D01*
X111871490Y-110184482D01*
G37*
X111871490Y-110184482D02*
X111913891Y-110247939D01*
X112165283Y-110415914D01*
X112386968Y-110460010D01*
X112386973Y-110460010D01*
X112461820Y-110474898D01*
X112536667Y-110460010D01*
X115158229Y-110460010D01*
X115995797Y-111297579D01*
X115924994Y-111355686D01*
X115855686Y-111424994D01*
X115775169Y-111523104D01*
X115720713Y-111604603D01*
X115660881Y-111716540D01*
X115623372Y-111807096D01*
X115586530Y-111928549D01*
X115585000Y-111936241D01*
X115585000Y-111673691D01*
X115488327Y-111440302D01*
X115309699Y-111261673D01*
X115076310Y-111165000D01*
X114535750Y-111165000D01*
X114377000Y-111323750D01*
X114377000Y-112248000D01*
X114397000Y-112248000D01*
X114397000Y-112502000D01*
X114377000Y-112502000D01*
X114377000Y-112522000D01*
X114123000Y-112522000D01*
X114123000Y-112502000D01*
X114103000Y-112502000D01*
X114103000Y-112248000D01*
X114123000Y-112248000D01*
X114123000Y-111323750D01*
X113964250Y-111165000D01*
X113423690Y-111165000D01*
X113190301Y-111261673D01*
X113011673Y-111440302D01*
X112915000Y-111673691D01*
X112915000Y-112089250D01*
X113073748Y-112247998D01*
X113012226Y-112247998D01*
X112988327Y-112190301D01*
X112809698Y-112011673D01*
X112576309Y-111915000D01*
X112285750Y-111915000D01*
X112127000Y-112073750D01*
X112127000Y-112823000D01*
X112147000Y-112823000D01*
X112147000Y-113077000D01*
X112127000Y-113077000D01*
X112127000Y-113097000D01*
X111873000Y-113097000D01*
X111873000Y-113077000D01*
X111073750Y-113077000D01*
X110988219Y-113162531D01*
X110907809Y-113042191D01*
X110760000Y-112943427D01*
X110760000Y-112423690D01*
X110915000Y-112423690D01*
X110915000Y-112664250D01*
X111073750Y-112823000D01*
X111873000Y-112823000D01*
X111873000Y-112073750D01*
X111714250Y-111915000D01*
X111423691Y-111915000D01*
X111190302Y-112011673D01*
X111011673Y-112190301D01*
X110915000Y-112423690D01*
X110760000Y-112423690D01*
X110760000Y-111220587D01*
X110968436Y-111179127D01*
X111259586Y-110984586D01*
X111454127Y-110693436D01*
X111522440Y-110350001D01*
X111522440Y-109835432D01*
X111871490Y-110184482D01*
G36*
X105142342Y-96831000D02*
X105102560Y-97031000D01*
X105102560Y-97831000D01*
X105142342Y-98031000D01*
X105102560Y-98231000D01*
X105102560Y-99031000D01*
X105142342Y-99231000D01*
X105102560Y-99431000D01*
X105102560Y-100231000D01*
X105142342Y-100431000D01*
X105102560Y-100631000D01*
X105102560Y-101431000D01*
X105136750Y-101602885D01*
X105066000Y-101773690D01*
X105066000Y-102864250D01*
X105224750Y-103023000D01*
X106824000Y-103023000D01*
X106824000Y-103003000D01*
X107078000Y-103003000D01*
X107078000Y-103023000D01*
X107098000Y-103023000D01*
X107098000Y-103277000D01*
X107078000Y-103277000D01*
X107078000Y-104876250D01*
X107236750Y-105035000D01*
X108327309Y-105035000D01*
X108560698Y-104938327D01*
X108616943Y-104882083D01*
X108850000Y-104928440D01*
X109650000Y-104928440D01*
X109850000Y-104888658D01*
X110050000Y-104928440D01*
X110850000Y-104928440D01*
X111050000Y-104888658D01*
X111250000Y-104928440D01*
X112050000Y-104928440D01*
X112250000Y-104888658D01*
X112450000Y-104928440D01*
X113250000Y-104928440D01*
X113450000Y-104888658D01*
X113650000Y-104928440D01*
X114450000Y-104928440D01*
X114650000Y-104888658D01*
X114850000Y-104928440D01*
X115650000Y-104928440D01*
X115835514Y-104891539D01*
X115882302Y-104938327D01*
X116115691Y-105035000D01*
X117206250Y-105035000D01*
X117365000Y-104876250D01*
X117365000Y-103277000D01*
X117345000Y-103277000D01*
X117345000Y-103023000D01*
X117365000Y-103023000D01*
X117365000Y-103003000D01*
X117619000Y-103003000D01*
X117619000Y-103023000D01*
X117639000Y-103023000D01*
X117639000Y-103277000D01*
X117619000Y-103277000D01*
X117619000Y-104876250D01*
X117777750Y-105035000D01*
X118589138Y-105035000D01*
X118589138Y-105361060D01*
X117585000Y-106365198D01*
X117585000Y-106023691D01*
X117488327Y-105790302D01*
X117309699Y-105611673D01*
X117076310Y-105515000D01*
X116535750Y-105515000D01*
X116377000Y-105673750D01*
X116377000Y-106598000D01*
X116397000Y-106598000D01*
X116397000Y-106852000D01*
X116377000Y-106852000D01*
X116377000Y-106872000D01*
X116123000Y-106872000D01*
X116123000Y-106852000D01*
X115073750Y-106852000D01*
X114915000Y-107010750D01*
X114915000Y-107426309D01*
X115011673Y-107659698D01*
X115166597Y-107814623D01*
X115165414Y-107815414D01*
X115032054Y-108015000D01*
X114351241Y-108015000D01*
X114234586Y-107840414D01*
X114136687Y-107775000D01*
X114234586Y-107709586D01*
X114429127Y-107418436D01*
X114497440Y-107075001D01*
X114497440Y-106424999D01*
X114429127Y-106081564D01*
X114390458Y-106023691D01*
X114915000Y-106023691D01*
X114915000Y-106439250D01*
X115073750Y-106598000D01*
X116123000Y-106598000D01*
X116123000Y-105673750D01*
X115964250Y-105515000D01*
X115423690Y-105515000D01*
X115190301Y-105611673D01*
X115011673Y-105790302D01*
X114915000Y-106023691D01*
X114390458Y-106023691D01*
X114234586Y-105790414D01*
X113943436Y-105595873D01*
X113600001Y-105527560D01*
X112699999Y-105527560D01*
X112356564Y-105595873D01*
X112065414Y-105790414D01*
X111932054Y-105990000D01*
X111724852Y-105990000D01*
X111650000Y-105975111D01*
X111575148Y-105990000D01*
X111455669Y-105990000D01*
X111429127Y-105856564D01*
X111234586Y-105565414D01*
X110943436Y-105370873D01*
X110600001Y-105302560D01*
X109949999Y-105302560D01*
X109606564Y-105370873D01*
X109315414Y-105565414D01*
X109314623Y-105566597D01*
X109159698Y-105411673D01*
X108926309Y-105315000D01*
X108510750Y-105315000D01*
X108352000Y-105473750D01*
X108352000Y-106523000D01*
X108372000Y-106523000D01*
X108372000Y-106777000D01*
X108352000Y-106777000D01*
X108352000Y-107826250D01*
X108390010Y-107864260D01*
X108390010Y-108710740D01*
X108377000Y-108723750D01*
X108377000Y-109773000D01*
X108390011Y-109773000D01*
X108390011Y-110027000D01*
X108377000Y-110027000D01*
X108377000Y-111076250D01*
X108390011Y-111089261D01*
X108390011Y-111435187D01*
X108310587Y-111514611D01*
X108250000Y-111502560D01*
X107250000Y-111502560D01*
X107002235Y-111551843D01*
X106792191Y-111692191D01*
X106651843Y-111902235D01*
X106602560Y-112150000D01*
X106602560Y-112390000D01*
X106473163Y-112390000D01*
X106407809Y-112292191D01*
X106197765Y-112151843D01*
X105950000Y-112102560D01*
X105477362Y-112102560D01*
X105035010Y-111660209D01*
X105035010Y-110185750D01*
X107040000Y-110185750D01*
X107040000Y-110726310D01*
X107136673Y-110959699D01*
X107315302Y-111138327D01*
X107548691Y-111235000D01*
X107964250Y-111235000D01*
X108123000Y-111076250D01*
X108123000Y-110027000D01*
X107198750Y-110027000D01*
X107040000Y-110185750D01*
X105035010Y-110185750D01*
X105035010Y-109073690D01*
X107040000Y-109073690D01*
X107040000Y-109614250D01*
X107198750Y-109773000D01*
X108123000Y-109773000D01*
X108123000Y-108723750D01*
X107964250Y-108565000D01*
X107548691Y-108565000D01*
X107315302Y-108661673D01*
X107136673Y-108840301D01*
X107040000Y-109073690D01*
X105035010Y-109073690D01*
X105035010Y-106935750D01*
X107015000Y-106935750D01*
X107015000Y-107476310D01*
X107111673Y-107709699D01*
X107290302Y-107888327D01*
X107523691Y-107985000D01*
X107939250Y-107985000D01*
X108098000Y-107826250D01*
X108098000Y-106777000D01*
X107173750Y-106777000D01*
X107015000Y-106935750D01*
X105035010Y-106935750D01*
X105035010Y-105823690D01*
X107015000Y-105823690D01*
X107015000Y-106364250D01*
X107173750Y-106523000D01*
X108098000Y-106523000D01*
X108098000Y-105473750D01*
X107939250Y-105315000D01*
X107523691Y-105315000D01*
X107290302Y-105411673D01*
X107111673Y-105590301D01*
X107015000Y-105823690D01*
X105035010Y-105823690D01*
X105035010Y-103435750D01*
X105066000Y-103435750D01*
X105066000Y-104526310D01*
X105162673Y-104759699D01*
X105341302Y-104938327D01*
X105574691Y-105035000D01*
X106665250Y-105035000D01*
X106824000Y-104876250D01*
X106824000Y-103277000D01*
X105224750Y-103277000D01*
X105066000Y-103435750D01*
X105035010Y-103435750D01*
X105035010Y-100524856D01*
X105049898Y-100450009D01*
X105035010Y-100375162D01*
X105035010Y-100375158D01*
X104990914Y-100153473D01*
X104822939Y-99902081D01*
X104759483Y-99859681D01*
X104597440Y-99697638D01*
X104597440Y-99099999D01*
X104529127Y-98756564D01*
X104334586Y-98465414D01*
X104043436Y-98270873D01*
X103700001Y-98202560D01*
X103601586Y-98202560D01*
X103645930Y-98172930D01*
X103688332Y-98109471D01*
X105113219Y-96684585D01*
X105142342Y-96831000D01*
X105142342Y-96831000D01*
G37*
X105142342Y-96831000D02*
X105102560Y-97031000D01*
X105102560Y-97831000D01*
X105142342Y-98031000D01*
X105102560Y-98231000D01*
X105102560Y-99031000D01*
X105142342Y-99231000D01*
X105102560Y-99431000D01*
X105102560Y-100231000D01*
X105142342Y-100431000D01*
X105102560Y-100631000D01*
X105102560Y-101431000D01*
X105136750Y-101602885D01*
X105066000Y-101773690D01*
X105066000Y-102864250D01*
X105224750Y-103023000D01*
X106824000Y-103023000D01*
X106824000Y-103003000D01*
X107078000Y-103003000D01*
X107078000Y-103023000D01*
X107098000Y-103023000D01*
X107098000Y-103277000D01*
X107078000Y-103277000D01*
X107078000Y-104876250D01*
X107236750Y-105035000D01*
X108327309Y-105035000D01*
X108560698Y-104938327D01*
X108616943Y-104882083D01*
X108850000Y-104928440D01*
X109650000Y-104928440D01*
X109850000Y-104888658D01*
X110050000Y-104928440D01*
X110850000Y-104928440D01*
X111050000Y-104888658D01*
X111250000Y-104928440D01*
X112050000Y-104928440D01*
X112250000Y-104888658D01*
X112450000Y-104928440D01*
X113250000Y-104928440D01*
X113450000Y-104888658D01*
X113650000Y-104928440D01*
X114450000Y-104928440D01*
X114650000Y-104888658D01*
X114850000Y-104928440D01*
X115650000Y-104928440D01*
X115835514Y-104891539D01*
X115882302Y-104938327D01*
X116115691Y-105035000D01*
X117206250Y-105035000D01*
X117365000Y-104876250D01*
X117365000Y-103277000D01*
X117345000Y-103277000D01*
X117345000Y-103023000D01*
X117365000Y-103023000D01*
X117365000Y-103003000D01*
X117619000Y-103003000D01*
X117619000Y-103023000D01*
X117639000Y-103023000D01*
X117639000Y-103277000D01*
X117619000Y-103277000D01*
X117619000Y-104876250D01*
X117777750Y-105035000D01*
X118589138Y-105035000D01*
X118589138Y-105361060D01*
X117585000Y-106365198D01*
X117585000Y-106023691D01*
X117488327Y-105790302D01*
X117309699Y-105611673D01*
X117076310Y-105515000D01*
X116535750Y-105515000D01*
X116377000Y-105673750D01*
X116377000Y-106598000D01*
X116397000Y-106598000D01*
X116397000Y-106852000D01*
X116377000Y-106852000D01*
X116377000Y-106872000D01*
X116123000Y-106872000D01*
X116123000Y-106852000D01*
X115073750Y-106852000D01*
X114915000Y-107010750D01*
X114915000Y-107426309D01*
X115011673Y-107659698D01*
X115166597Y-107814623D01*
X115165414Y-107815414D01*
X115032054Y-108015000D01*
X114351241Y-108015000D01*
X114234586Y-107840414D01*
X114136687Y-107775000D01*
X114234586Y-107709586D01*
X114429127Y-107418436D01*
X114497440Y-107075001D01*
X114497440Y-106424999D01*
X114429127Y-106081564D01*
X114390458Y-106023691D01*
X114915000Y-106023691D01*
X114915000Y-106439250D01*
X115073750Y-106598000D01*
X116123000Y-106598000D01*
X116123000Y-105673750D01*
X115964250Y-105515000D01*
X115423690Y-105515000D01*
X115190301Y-105611673D01*
X115011673Y-105790302D01*
X114915000Y-106023691D01*
X114390458Y-106023691D01*
X114234586Y-105790414D01*
X113943436Y-105595873D01*
X113600001Y-105527560D01*
X112699999Y-105527560D01*
X112356564Y-105595873D01*
X112065414Y-105790414D01*
X111932054Y-105990000D01*
X111724852Y-105990000D01*
X111650000Y-105975111D01*
X111575148Y-105990000D01*
X111455669Y-105990000D01*
X111429127Y-105856564D01*
X111234586Y-105565414D01*
X110943436Y-105370873D01*
X110600001Y-105302560D01*
X109949999Y-105302560D01*
X109606564Y-105370873D01*
X109315414Y-105565414D01*
X109314623Y-105566597D01*
X109159698Y-105411673D01*
X108926309Y-105315000D01*
X108510750Y-105315000D01*
X108352000Y-105473750D01*
X108352000Y-106523000D01*
X108372000Y-106523000D01*
X108372000Y-106777000D01*
X108352000Y-106777000D01*
X108352000Y-107826250D01*
X108390010Y-107864260D01*
X108390010Y-108710740D01*
X108377000Y-108723750D01*
X108377000Y-109773000D01*
X108390011Y-109773000D01*
X108390011Y-110027000D01*
X108377000Y-110027000D01*
X108377000Y-111076250D01*
X108390011Y-111089261D01*
X108390011Y-111435187D01*
X108310587Y-111514611D01*
X108250000Y-111502560D01*
X107250000Y-111502560D01*
X107002235Y-111551843D01*
X106792191Y-111692191D01*
X106651843Y-111902235D01*
X106602560Y-112150000D01*
X106602560Y-112390000D01*
X106473163Y-112390000D01*
X106407809Y-112292191D01*
X106197765Y-112151843D01*
X105950000Y-112102560D01*
X105477362Y-112102560D01*
X105035010Y-111660209D01*
X105035010Y-110185750D01*
X107040000Y-110185750D01*
X107040000Y-110726310D01*
X107136673Y-110959699D01*
X107315302Y-111138327D01*
X107548691Y-111235000D01*
X107964250Y-111235000D01*
X108123000Y-111076250D01*
X108123000Y-110027000D01*
X107198750Y-110027000D01*
X107040000Y-110185750D01*
X105035010Y-110185750D01*
X105035010Y-109073690D01*
X107040000Y-109073690D01*
X107040000Y-109614250D01*
X107198750Y-109773000D01*
X108123000Y-109773000D01*
X108123000Y-108723750D01*
X107964250Y-108565000D01*
X107548691Y-108565000D01*
X107315302Y-108661673D01*
X107136673Y-108840301D01*
X107040000Y-109073690D01*
X105035010Y-109073690D01*
X105035010Y-106935750D01*
X107015000Y-106935750D01*
X107015000Y-107476310D01*
X107111673Y-107709699D01*
X107290302Y-107888327D01*
X107523691Y-107985000D01*
X107939250Y-107985000D01*
X108098000Y-107826250D01*
X108098000Y-106777000D01*
X107173750Y-106777000D01*
X107015000Y-106935750D01*
X105035010Y-106935750D01*
X105035010Y-105823690D01*
X107015000Y-105823690D01*
X107015000Y-106364250D01*
X107173750Y-106523000D01*
X108098000Y-106523000D01*
X108098000Y-105473750D01*
X107939250Y-105315000D01*
X107523691Y-105315000D01*
X107290302Y-105411673D01*
X107111673Y-105590301D01*
X107015000Y-105823690D01*
X105035010Y-105823690D01*
X105035010Y-103435750D01*
X105066000Y-103435750D01*
X105066000Y-104526310D01*
X105162673Y-104759699D01*
X105341302Y-104938327D01*
X105574691Y-105035000D01*
X106665250Y-105035000D01*
X106824000Y-104876250D01*
X106824000Y-103277000D01*
X105224750Y-103277000D01*
X105066000Y-103435750D01*
X105035010Y-103435750D01*
X105035010Y-100524856D01*
X105049898Y-100450009D01*
X105035010Y-100375162D01*
X105035010Y-100375158D01*
X104990914Y-100153473D01*
X104822939Y-99902081D01*
X104759483Y-99859681D01*
X104597440Y-99697638D01*
X104597440Y-99099999D01*
X104529127Y-98756564D01*
X104334586Y-98465414D01*
X104043436Y-98270873D01*
X103700001Y-98202560D01*
X103601586Y-98202560D01*
X103645930Y-98172930D01*
X103688332Y-98109471D01*
X105113219Y-96684585D01*
X105142342Y-96831000D01*
G36*
X121077000Y-108523000D02*
X121097000Y-108523000D01*
X121097000Y-108777000D01*
X121077000Y-108777000D01*
X121077000Y-110126250D01*
X121235750Y-110285000D01*
X121676310Y-110285000D01*
X121744811Y-110256626D01*
X121950000Y-110297440D01*
X122540000Y-110297440D01*
X122540000Y-111402560D01*
X121950000Y-111402560D01*
X121750000Y-111442342D01*
X121550000Y-111402560D01*
X120510001Y-111402560D01*
X120510001Y-110285000D01*
X120664250Y-110285000D01*
X120823000Y-110126250D01*
X120823000Y-108777000D01*
X120803000Y-108777000D01*
X120803000Y-108523000D01*
X120823000Y-108523000D01*
X120823000Y-108503000D01*
X121077000Y-108503000D01*
X121077000Y-108523000D01*
X121077000Y-108523000D01*
G37*
X121077000Y-108523000D02*
X121097000Y-108523000D01*
X121097000Y-108777000D01*
X121077000Y-108777000D01*
X121077000Y-110126250D01*
X121235750Y-110285000D01*
X121676310Y-110285000D01*
X121744811Y-110256626D01*
X121950000Y-110297440D01*
X122540000Y-110297440D01*
X122540000Y-111402560D01*
X121950000Y-111402560D01*
X121750000Y-111442342D01*
X121550000Y-111402560D01*
X120510001Y-111402560D01*
X120510001Y-110285000D01*
X120664250Y-110285000D01*
X120823000Y-110126250D01*
X120823000Y-108777000D01*
X120803000Y-108777000D01*
X120803000Y-108523000D01*
X120823000Y-108523000D01*
X120823000Y-108503000D01*
X121077000Y-108503000D01*
X121077000Y-108523000D01*
G36*
X116602560Y-100204360D02*
X116602560Y-100231000D01*
X116642342Y-100431000D01*
X116602560Y-100631000D01*
X116602560Y-101265000D01*
X116115691Y-101265000D01*
X116014498Y-101306915D01*
X116024888Y-101254683D01*
X116010000Y-101179836D01*
X116010000Y-101179832D01*
X115965904Y-100958147D01*
X115797929Y-100706755D01*
X115734473Y-100664355D01*
X115685000Y-100614882D01*
X115685000Y-100448810D01*
X115527431Y-100068404D01*
X115236280Y-99777253D01*
X115138182Y-99736620D01*
X115189803Y-99684999D01*
X116083200Y-99684999D01*
X116602560Y-100204360D01*
X116602560Y-100204360D01*
G37*
X116602560Y-100204360D02*
X116602560Y-100231000D01*
X116642342Y-100431000D01*
X116602560Y-100631000D01*
X116602560Y-101265000D01*
X116115691Y-101265000D01*
X116014498Y-101306915D01*
X116024888Y-101254683D01*
X116010000Y-101179836D01*
X116010000Y-101179832D01*
X115965904Y-100958147D01*
X115797929Y-100706755D01*
X115734473Y-100664355D01*
X115685000Y-100614882D01*
X115685000Y-100448810D01*
X115527431Y-100068404D01*
X115236280Y-99777253D01*
X115138182Y-99736620D01*
X115189803Y-99684999D01*
X116083200Y-99684999D01*
X116602560Y-100204360D01*
G36*
X98742352Y-100954241D02*
X98713800Y-101023171D01*
X98713800Y-101138999D01*
X98684999Y-101110198D01*
X98684999Y-100938822D01*
X98730278Y-100893543D01*
X98742352Y-100954241D01*
X98742352Y-100954241D01*
G37*
X98742352Y-100954241D02*
X98713800Y-101023171D01*
X98713800Y-101138999D01*
X98684999Y-101110198D01*
X98684999Y-100938822D01*
X98730278Y-100893543D01*
X98742352Y-100954241D01*
G36*
X119594149Y-96585000D02*
X120004695Y-96585000D01*
X119940301Y-96611673D01*
X119761673Y-96790302D01*
X119665000Y-97023691D01*
X119665000Y-97864250D01*
X119823750Y-98023000D01*
X120773000Y-98023000D01*
X120773000Y-98003000D01*
X121027000Y-98003000D01*
X121027000Y-98023000D01*
X121047000Y-98023000D01*
X121047000Y-98277000D01*
X121027000Y-98277000D01*
X121027000Y-98297000D01*
X120773000Y-98297000D01*
X120773000Y-98277000D01*
X119823750Y-98277000D01*
X119665000Y-98435750D01*
X119665000Y-99276309D01*
X119692819Y-99343470D01*
X119672569Y-99363720D01*
X119515000Y-99744126D01*
X119515000Y-100155874D01*
X119672569Y-100536280D01*
X119963720Y-100827431D01*
X120195351Y-100923376D01*
X120075206Y-100947274D01*
X119755868Y-100815000D01*
X119397440Y-100815000D01*
X119397440Y-100631000D01*
X119357658Y-100431000D01*
X119397440Y-100231000D01*
X119397440Y-99431000D01*
X119357658Y-99231000D01*
X119397440Y-99031000D01*
X119397440Y-98231000D01*
X119357658Y-98031000D01*
X119397440Y-97831000D01*
X119397440Y-97031000D01*
X119357658Y-96831000D01*
X119397440Y-96631000D01*
X119397440Y-96503521D01*
X119594149Y-96585000D01*
X119594149Y-96585000D01*
G37*
X119594149Y-96585000D02*
X120004695Y-96585000D01*
X119940301Y-96611673D01*
X119761673Y-96790302D01*
X119665000Y-97023691D01*
X119665000Y-97864250D01*
X119823750Y-98023000D01*
X120773000Y-98023000D01*
X120773000Y-98003000D01*
X121027000Y-98003000D01*
X121027000Y-98023000D01*
X121047000Y-98023000D01*
X121047000Y-98277000D01*
X121027000Y-98277000D01*
X121027000Y-98297000D01*
X120773000Y-98297000D01*
X120773000Y-98277000D01*
X119823750Y-98277000D01*
X119665000Y-98435750D01*
X119665000Y-99276309D01*
X119692819Y-99343470D01*
X119672569Y-99363720D01*
X119515000Y-99744126D01*
X119515000Y-100155874D01*
X119672569Y-100536280D01*
X119963720Y-100827431D01*
X120195351Y-100923376D01*
X120075206Y-100947274D01*
X119755868Y-100815000D01*
X119397440Y-100815000D01*
X119397440Y-100631000D01*
X119357658Y-100431000D01*
X119397440Y-100231000D01*
X119397440Y-99431000D01*
X119357658Y-99231000D01*
X119397440Y-99031000D01*
X119397440Y-98231000D01*
X119357658Y-98031000D01*
X119397440Y-97831000D01*
X119397440Y-97031000D01*
X119357658Y-96831000D01*
X119397440Y-96631000D01*
X119397440Y-96503521D01*
X119594149Y-96585000D01*
G36*
X109233456Y-95186104D02*
X109334928Y-95287576D01*
X109334929Y-98055960D01*
X109235008Y-98155881D01*
X109235008Y-95431649D01*
X109249896Y-95356802D01*
X109235008Y-95281955D01*
X109235008Y-95281951D01*
X109213258Y-95172608D01*
X109233456Y-95186104D01*
X109233456Y-95186104D01*
G37*
X109233456Y-95186104D02*
X109334928Y-95287576D01*
X109334929Y-98055960D01*
X109235008Y-98155881D01*
X109235008Y-95431649D01*
X109249896Y-95356802D01*
X109235008Y-95281955D01*
X109235008Y-95281951D01*
X109213258Y-95172608D01*
X109233456Y-95186104D01*
G36*
X120790302Y-83811673D02*
X120611673Y-83990301D01*
X120515000Y-84223690D01*
X120515000Y-84564250D01*
X120673750Y-84723000D01*
X121523000Y-84723000D01*
X121523000Y-84703000D01*
X121777000Y-84703000D01*
X121777000Y-84723000D01*
X121797000Y-84723000D01*
X121797000Y-84977000D01*
X121777000Y-84977000D01*
X121777000Y-84997000D01*
X121523000Y-84997000D01*
X121523000Y-84977000D01*
X120673750Y-84977000D01*
X120515000Y-85135750D01*
X120515000Y-85476310D01*
X120611673Y-85709699D01*
X120790302Y-85888327D01*
X120822998Y-85901870D01*
X120822998Y-85973748D01*
X120664250Y-85815000D01*
X120223690Y-85815000D01*
X119990301Y-85911673D01*
X119811673Y-86090302D01*
X119715000Y-86323691D01*
X119715000Y-87164250D01*
X119873750Y-87323000D01*
X120823000Y-87323000D01*
X120823000Y-87303000D01*
X121077000Y-87303000D01*
X121077000Y-87323000D01*
X121097000Y-87323000D01*
X121097000Y-87577000D01*
X121077000Y-87577000D01*
X121077000Y-87597000D01*
X120823000Y-87597000D01*
X120823000Y-87577000D01*
X119873750Y-87577000D01*
X119715000Y-87735750D01*
X119715000Y-88576309D01*
X119811673Y-88809698D01*
X119990301Y-88988327D01*
X120223690Y-89085000D01*
X120424496Y-89085000D01*
X119315553Y-90193943D01*
X119252094Y-90236345D01*
X119084119Y-90487738D01*
X119040023Y-90709423D01*
X119040023Y-90709427D01*
X119025135Y-90784274D01*
X119040023Y-90859121D01*
X119040023Y-91663813D01*
X118876309Y-91596000D01*
X118285750Y-91596000D01*
X118127000Y-91754750D01*
X118127000Y-92504000D01*
X118147000Y-92504000D01*
X118147000Y-92758000D01*
X118127000Y-92758000D01*
X118127000Y-92778000D01*
X117873000Y-92778000D01*
X117873000Y-92758000D01*
X116773750Y-92758000D01*
X116615000Y-92916750D01*
X116615000Y-93157310D01*
X116643374Y-93225811D01*
X116602560Y-93431000D01*
X116602560Y-94231000D01*
X116642342Y-94431000D01*
X116602560Y-94631000D01*
X116602560Y-95431000D01*
X116642342Y-95631000D01*
X116602560Y-95831000D01*
X116602560Y-96631000D01*
X116629163Y-96764742D01*
X116590909Y-96790302D01*
X116452071Y-96883071D01*
X116409671Y-96946528D01*
X116166199Y-97190000D01*
X112464802Y-97190000D01*
X111927940Y-96653139D01*
X111927940Y-94158418D01*
X112045371Y-94040987D01*
X112192825Y-93685000D01*
X112205874Y-93685000D01*
X112586280Y-93527431D01*
X112877431Y-93236280D01*
X113035000Y-92855874D01*
X113035000Y-92444126D01*
X112894402Y-92104690D01*
X116615000Y-92104690D01*
X116615000Y-92345250D01*
X116773750Y-92504000D01*
X117873000Y-92504000D01*
X117873000Y-91754750D01*
X117714250Y-91596000D01*
X117123691Y-91596000D01*
X116890302Y-91692673D01*
X116711673Y-91871301D01*
X116615000Y-92104690D01*
X112894402Y-92104690D01*
X112877431Y-92063720D01*
X112586280Y-91772569D01*
X112205874Y-91615000D01*
X111794126Y-91615000D01*
X111413720Y-91772569D01*
X111296289Y-91890000D01*
X111001844Y-91890000D01*
X110926997Y-91875112D01*
X110852150Y-91890000D01*
X110852146Y-91890000D01*
X110630461Y-91934096D01*
X110379069Y-92102071D01*
X110336669Y-92165527D01*
X109302907Y-93199290D01*
X109302907Y-93129065D01*
X109317795Y-93054218D01*
X109302907Y-92979371D01*
X109302907Y-92979366D01*
X109258811Y-92757681D01*
X109090836Y-92506289D01*
X109027380Y-92463889D01*
X107985019Y-91421529D01*
X107942617Y-91358070D01*
X107691225Y-91190095D01*
X107469540Y-91145999D01*
X107469535Y-91145999D01*
X107394688Y-91131111D01*
X107319841Y-91145999D01*
X107035000Y-91145999D01*
X107035000Y-90975125D01*
X106877431Y-90594719D01*
X106586280Y-90303568D01*
X106205874Y-90145999D01*
X106039802Y-90145999D01*
X104260000Y-88366198D01*
X104260000Y-87047440D01*
X104500000Y-87047440D01*
X104747765Y-86998157D01*
X104957809Y-86857809D01*
X105098157Y-86647765D01*
X105147440Y-86400000D01*
X105147440Y-84400000D01*
X105098157Y-84152235D01*
X104957809Y-83942191D01*
X104747765Y-83801843D01*
X104622869Y-83777000D01*
X120874010Y-83777000D01*
X120790302Y-83811673D01*
X120790302Y-83811673D01*
G37*
X120790302Y-83811673D02*
X120611673Y-83990301D01*
X120515000Y-84223690D01*
X120515000Y-84564250D01*
X120673750Y-84723000D01*
X121523000Y-84723000D01*
X121523000Y-84703000D01*
X121777000Y-84703000D01*
X121777000Y-84723000D01*
X121797000Y-84723000D01*
X121797000Y-84977000D01*
X121777000Y-84977000D01*
X121777000Y-84997000D01*
X121523000Y-84997000D01*
X121523000Y-84977000D01*
X120673750Y-84977000D01*
X120515000Y-85135750D01*
X120515000Y-85476310D01*
X120611673Y-85709699D01*
X120790302Y-85888327D01*
X120822998Y-85901870D01*
X120822998Y-85973748D01*
X120664250Y-85815000D01*
X120223690Y-85815000D01*
X119990301Y-85911673D01*
X119811673Y-86090302D01*
X119715000Y-86323691D01*
X119715000Y-87164250D01*
X119873750Y-87323000D01*
X120823000Y-87323000D01*
X120823000Y-87303000D01*
X121077000Y-87303000D01*
X121077000Y-87323000D01*
X121097000Y-87323000D01*
X121097000Y-87577000D01*
X121077000Y-87577000D01*
X121077000Y-87597000D01*
X120823000Y-87597000D01*
X120823000Y-87577000D01*
X119873750Y-87577000D01*
X119715000Y-87735750D01*
X119715000Y-88576309D01*
X119811673Y-88809698D01*
X119990301Y-88988327D01*
X120223690Y-89085000D01*
X120424496Y-89085000D01*
X119315553Y-90193943D01*
X119252094Y-90236345D01*
X119084119Y-90487738D01*
X119040023Y-90709423D01*
X119040023Y-90709427D01*
X119025135Y-90784274D01*
X119040023Y-90859121D01*
X119040023Y-91663813D01*
X118876309Y-91596000D01*
X118285750Y-91596000D01*
X118127000Y-91754750D01*
X118127000Y-92504000D01*
X118147000Y-92504000D01*
X118147000Y-92758000D01*
X118127000Y-92758000D01*
X118127000Y-92778000D01*
X117873000Y-92778000D01*
X117873000Y-92758000D01*
X116773750Y-92758000D01*
X116615000Y-92916750D01*
X116615000Y-93157310D01*
X116643374Y-93225811D01*
X116602560Y-93431000D01*
X116602560Y-94231000D01*
X116642342Y-94431000D01*
X116602560Y-94631000D01*
X116602560Y-95431000D01*
X116642342Y-95631000D01*
X116602560Y-95831000D01*
X116602560Y-96631000D01*
X116629163Y-96764742D01*
X116590909Y-96790302D01*
X116452071Y-96883071D01*
X116409671Y-96946528D01*
X116166199Y-97190000D01*
X112464802Y-97190000D01*
X111927940Y-96653139D01*
X111927940Y-94158418D01*
X112045371Y-94040987D01*
X112192825Y-93685000D01*
X112205874Y-93685000D01*
X112586280Y-93527431D01*
X112877431Y-93236280D01*
X113035000Y-92855874D01*
X113035000Y-92444126D01*
X112894402Y-92104690D01*
X116615000Y-92104690D01*
X116615000Y-92345250D01*
X116773750Y-92504000D01*
X117873000Y-92504000D01*
X117873000Y-91754750D01*
X117714250Y-91596000D01*
X117123691Y-91596000D01*
X116890302Y-91692673D01*
X116711673Y-91871301D01*
X116615000Y-92104690D01*
X112894402Y-92104690D01*
X112877431Y-92063720D01*
X112586280Y-91772569D01*
X112205874Y-91615000D01*
X111794126Y-91615000D01*
X111413720Y-91772569D01*
X111296289Y-91890000D01*
X111001844Y-91890000D01*
X110926997Y-91875112D01*
X110852150Y-91890000D01*
X110852146Y-91890000D01*
X110630461Y-91934096D01*
X110379069Y-92102071D01*
X110336669Y-92165527D01*
X109302907Y-93199290D01*
X109302907Y-93129065D01*
X109317795Y-93054218D01*
X109302907Y-92979371D01*
X109302907Y-92979366D01*
X109258811Y-92757681D01*
X109090836Y-92506289D01*
X109027380Y-92463889D01*
X107985019Y-91421529D01*
X107942617Y-91358070D01*
X107691225Y-91190095D01*
X107469540Y-91145999D01*
X107469535Y-91145999D01*
X107394688Y-91131111D01*
X107319841Y-91145999D01*
X107035000Y-91145999D01*
X107035000Y-90975125D01*
X106877431Y-90594719D01*
X106586280Y-90303568D01*
X106205874Y-90145999D01*
X106039802Y-90145999D01*
X104260000Y-88366198D01*
X104260000Y-87047440D01*
X104500000Y-87047440D01*
X104747765Y-86998157D01*
X104957809Y-86857809D01*
X105098157Y-86647765D01*
X105147440Y-86400000D01*
X105147440Y-84400000D01*
X105098157Y-84152235D01*
X104957809Y-83942191D01*
X104747765Y-83801843D01*
X104622869Y-83777000D01*
X120874010Y-83777000D01*
X120790302Y-83811673D01*
G36*
X102252235Y-83801843D02*
X102042191Y-83942191D01*
X101901843Y-84152235D01*
X101852560Y-84400000D01*
X101852560Y-86400000D01*
X101901843Y-86647765D01*
X102042191Y-86857809D01*
X102252235Y-86998157D01*
X102500000Y-87047440D01*
X102740000Y-87047440D01*
X102740000Y-88606152D01*
X102725112Y-88680999D01*
X102740000Y-88755846D01*
X102740000Y-88755850D01*
X102784096Y-88977535D01*
X102952071Y-89228928D01*
X103015530Y-89271330D01*
X104509199Y-90765000D01*
X103785750Y-90765000D01*
X103627000Y-90923750D01*
X103627000Y-92273000D01*
X103647000Y-92273000D01*
X103647000Y-92527000D01*
X103627000Y-92527000D01*
X103627000Y-93876250D01*
X103785750Y-94035000D01*
X104065002Y-94035000D01*
X104065001Y-95583199D01*
X103480956Y-96167245D01*
X103336280Y-96022569D01*
X102955874Y-95865000D01*
X102789802Y-95865000D01*
X102510000Y-95585199D01*
X102510000Y-94353711D01*
X102627431Y-94236280D01*
X102710804Y-94035000D01*
X103214250Y-94035000D01*
X103373000Y-93876250D01*
X103373000Y-92527000D01*
X102023750Y-92527000D01*
X101935750Y-92615000D01*
X101544126Y-92615000D01*
X101163720Y-92772569D01*
X100872569Y-93063720D01*
X100715000Y-93444126D01*
X100715000Y-93855874D01*
X100872569Y-94236280D01*
X100990001Y-94353712D01*
X100990000Y-95519040D01*
X100898200Y-95500780D01*
X100883500Y-95500780D01*
X100883500Y-94848346D01*
X100898388Y-94773499D01*
X100883500Y-94698652D01*
X100883500Y-94698648D01*
X100839404Y-94476963D01*
X100797602Y-94414402D01*
X100713829Y-94289026D01*
X100713827Y-94289024D01*
X100671429Y-94225571D01*
X100607976Y-94183173D01*
X99785000Y-93360198D01*
X99785000Y-93194126D01*
X99627431Y-92813720D01*
X99588711Y-92775000D01*
X99627431Y-92736280D01*
X99785000Y-92355874D01*
X99785000Y-91944126D01*
X99627431Y-91563720D01*
X99337402Y-91273691D01*
X101865000Y-91273691D01*
X101865000Y-92114250D01*
X102023750Y-92273000D01*
X103373000Y-92273000D01*
X103373000Y-90923750D01*
X103214250Y-90765000D01*
X102373690Y-90765000D01*
X102140301Y-90861673D01*
X101961673Y-91040302D01*
X101865000Y-91273691D01*
X99337402Y-91273691D01*
X99336280Y-91272569D01*
X98955874Y-91115000D01*
X98544126Y-91115000D01*
X98163720Y-91272569D01*
X98128999Y-91307290D01*
X98098157Y-91152235D01*
X97957809Y-90942191D01*
X97747765Y-90801843D01*
X97500000Y-90752560D01*
X95960000Y-90752560D01*
X95960000Y-86758639D01*
X95994191Y-86809809D01*
X96204235Y-86950157D01*
X96452000Y-86999440D01*
X97452000Y-86999440D01*
X97699765Y-86950157D01*
X97909809Y-86809809D01*
X98050157Y-86599765D01*
X98099440Y-86352000D01*
X98099440Y-85352000D01*
X98050157Y-85104235D01*
X97909809Y-84894191D01*
X97699765Y-84753843D01*
X97452000Y-84704560D01*
X96452000Y-84704560D01*
X96204235Y-84753843D01*
X95994191Y-84894191D01*
X95960000Y-84945361D01*
X95960000Y-84192033D01*
X96027138Y-84164224D01*
X96351561Y-83947451D01*
X96425262Y-83873750D01*
X96522013Y-83777000D01*
X102377131Y-83777000D01*
X102252235Y-83801843D01*
X102252235Y-83801843D01*
G37*
X102252235Y-83801843D02*
X102042191Y-83942191D01*
X101901843Y-84152235D01*
X101852560Y-84400000D01*
X101852560Y-86400000D01*
X101901843Y-86647765D01*
X102042191Y-86857809D01*
X102252235Y-86998157D01*
X102500000Y-87047440D01*
X102740000Y-87047440D01*
X102740000Y-88606152D01*
X102725112Y-88680999D01*
X102740000Y-88755846D01*
X102740000Y-88755850D01*
X102784096Y-88977535D01*
X102952071Y-89228928D01*
X103015530Y-89271330D01*
X104509199Y-90765000D01*
X103785750Y-90765000D01*
X103627000Y-90923750D01*
X103627000Y-92273000D01*
X103647000Y-92273000D01*
X103647000Y-92527000D01*
X103627000Y-92527000D01*
X103627000Y-93876250D01*
X103785750Y-94035000D01*
X104065002Y-94035000D01*
X104065001Y-95583199D01*
X103480956Y-96167245D01*
X103336280Y-96022569D01*
X102955874Y-95865000D01*
X102789802Y-95865000D01*
X102510000Y-95585199D01*
X102510000Y-94353711D01*
X102627431Y-94236280D01*
X102710804Y-94035000D01*
X103214250Y-94035000D01*
X103373000Y-93876250D01*
X103373000Y-92527000D01*
X102023750Y-92527000D01*
X101935750Y-92615000D01*
X101544126Y-92615000D01*
X101163720Y-92772569D01*
X100872569Y-93063720D01*
X100715000Y-93444126D01*
X100715000Y-93855874D01*
X100872569Y-94236280D01*
X100990001Y-94353712D01*
X100990000Y-95519040D01*
X100898200Y-95500780D01*
X100883500Y-95500780D01*
X100883500Y-94848346D01*
X100898388Y-94773499D01*
X100883500Y-94698652D01*
X100883500Y-94698648D01*
X100839404Y-94476963D01*
X100797602Y-94414402D01*
X100713829Y-94289026D01*
X100713827Y-94289024D01*
X100671429Y-94225571D01*
X100607976Y-94183173D01*
X99785000Y-93360198D01*
X99785000Y-93194126D01*
X99627431Y-92813720D01*
X99588711Y-92775000D01*
X99627431Y-92736280D01*
X99785000Y-92355874D01*
X99785000Y-91944126D01*
X99627431Y-91563720D01*
X99337402Y-91273691D01*
X101865000Y-91273691D01*
X101865000Y-92114250D01*
X102023750Y-92273000D01*
X103373000Y-92273000D01*
X103373000Y-90923750D01*
X103214250Y-90765000D01*
X102373690Y-90765000D01*
X102140301Y-90861673D01*
X101961673Y-91040302D01*
X101865000Y-91273691D01*
X99337402Y-91273691D01*
X99336280Y-91272569D01*
X98955874Y-91115000D01*
X98544126Y-91115000D01*
X98163720Y-91272569D01*
X98128999Y-91307290D01*
X98098157Y-91152235D01*
X97957809Y-90942191D01*
X97747765Y-90801843D01*
X97500000Y-90752560D01*
X95960000Y-90752560D01*
X95960000Y-86758639D01*
X95994191Y-86809809D01*
X96204235Y-86950157D01*
X96452000Y-86999440D01*
X97452000Y-86999440D01*
X97699765Y-86950157D01*
X97909809Y-86809809D01*
X98050157Y-86599765D01*
X98099440Y-86352000D01*
X98099440Y-85352000D01*
X98050157Y-85104235D01*
X97909809Y-84894191D01*
X97699765Y-84753843D01*
X97452000Y-84704560D01*
X96452000Y-84704560D01*
X96204235Y-84753843D01*
X95994191Y-84894191D01*
X95960000Y-84945361D01*
X95960000Y-84192033D01*
X96027138Y-84164224D01*
X96351561Y-83947451D01*
X96425262Y-83873750D01*
X96522013Y-83777000D01*
X102377131Y-83777000D01*
X102252235Y-83801843D01*
G36*
X106647000Y-92758000D02*
X106627000Y-92758000D01*
X106627000Y-92778000D01*
X106373000Y-92778000D01*
X106373000Y-92758000D01*
X106353000Y-92758000D01*
X106353000Y-92665999D01*
X106647000Y-92665999D01*
X106647000Y-92758000D01*
X106647000Y-92758000D01*
G37*
X106647000Y-92758000D02*
X106627000Y-92758000D01*
X106627000Y-92778000D01*
X106373000Y-92778000D01*
X106373000Y-92758000D01*
X106353000Y-92758000D01*
X106353000Y-92665999D01*
X106647000Y-92665999D01*
X106647000Y-92758000D01*
G04 #@! TD*
M02*
